<svg xmlns="http://www.w3.org/2000/svg" width="209" height="210" style="shape-rendering:geometricPrecision;text-rendering:geometricPrecision;image-rendering:optimizeQuality;fill-rule:evenodd;clip-rule:evenodd"><path d="M102.5 25.5a3131.24 3131.24 0 0 1 94 32.5c2.408 3.043 2.574 6.21.5 9.5a33.756 33.756 0 0 1-11.5 4c-.167 17.67 0 35.336.5 53 10.622 6.819 12.955 15.819 7 27a24.91 24.91 0 0 1-6.5 5 267.06 267.06 0 0 0-1.5 23c-3.178 4.871-6.845 5.204-11 1a289.832 289.832 0 0 0-1.5-24c-9.858-5.41-12.691-13.41-8.5-24 2.057-3.723 5.057-6.39 9-8 .833-16.01.666-32.01-.5-48a94.795 94.795 0 0 0-12.5 5l-1 39a17.842 17.842 0 0 1-4.5 5.5c-30.425 13.624-61.425 14.958-93 4-5.44-2.116-9.606-5.616-12.5-10.5a760.881 760.881 0 0 1-.5-39 459.89 459.89 0 0 1-36-12.5c-4.187-4.46-3.52-8.127 2-11a5314.736 5314.736 0 0 0 88-31.5Zm0 13a1550.589 1550.589 0 0 1 71 24.5 3999.17 3999.17 0 0 1-67 24c-2.757.584-5.423.25-8-1l-64-23a2707.3 2707.3 0 0 0 68-24.5Zm-42 47a1114.435 1114.435 0 0 0 43.5 15 819.077 819.077 0 0 0 43-15c.667 10 .667 20 0 30-4.729 3.111-9.895 5.278-15.5 6.5-21.62 5.087-42.953 4.087-64-3a60.603 60.603 0 0 1-6.5-3.5 450.43 450.43 0 0 1-.5-30Zm117 50c6.804 1.093 8.137 4.259 4 9.5-5.5 1.167-7.667-1-6.5-6.5a10.515 10.515 0 0 0 2.5-3Z"/></svg>