<svg xmlns="http://www.w3.org/2000/svg" xml:space="preserve" width="188.6" height="188.6" viewBox="0 0 188.6 188.6"><path fill-rule="evenodd" d="M92.7 14.8c31.5 10.3 62.8 21.2 94 32.5 2.4 3 2.6 6.2.5 9.5-3.6 2-7.5 3.4-11.5 4-.2 17.7 0 35.3.5 53 10.6 6.8 13 15.8 7 27-1.9 2-4.1 3.7-6.5 5-.8 7.6-1.3 15.3-1.5 23-3.2 4.9-6.8 5.2-11 1-.2-8-.7-16-1.5-24-9.9-5.4-12.7-13.4-8.5-24 2.1-3.7 5.1-6.4 9-8 .8-16 .7-32-.5-48-4.3 1.4-8.5 3-12.5 5l-1 39c-1.1 2.1-2.6 4-4.5 5.5-30.4 13.6-61.4 15-93 4-5.4-2.1-9.6-5.6-12.5-10.5-.5-13-.7-26-.5-39-12.2-3.7-24.2-7.8-36-12.5-4.2-4.5-3.5-8.1 2-11 29.4-10.2 58.8-20.7 88-31.5zm0 13c23.9 7.6 47.5 15.8 71 24.5-22.3 8.2-44.6 16.2-67 24-2.8.6-5.4.3-8-1l-64-23c22.8-7.8 45.5-16 68-24.5zm-42 47c14.4 5.3 28.9 10.3 43.5 15 14.5-4.6 28.8-9.6 43-15 .7 10 .7 20 0 30-4.7 3.1-9.9 5.3-15.5 6.5-21.6 5.1-43 4.1-64-3-2.2-1-4.4-2.2-6.5-3.5-.5-10-.7-20-.5-30zm117 50c6.8 1.1 8.1 4.3 4 9.5-5.5 1.2-7.7-1-6.5-6.5 1-.8 1.9-1.8 2.5-3z" clip-rule="evenodd"/></svg>