<svg xmlns="http://www.w3.org/2000/svg" xml:space="preserve" viewBox="0 0 45 45"><path d="M40.8 10H30.4V8.8c0-1.9-1.5-3.4-3.4-3.4h-9.1c-1.9 0-3.4 1.5-3.4 3.4V10H4.2c-.7 0-1.2.5-1.2 1.2v25c0 1.9 1.5 3.4 3.4 3.4h32c1.9 0 3.4-1.5 3.4-3.4v-25c.1-.8-.4-1.2-1-1.2zm-24-1.2c0-.6.5-1.2 1.2-1.2h9c.6 0 1.2.5 1.2 1.2V10H16.8V8.8zm22.4 3.4-3.6 10.6c-.2.4-.6.8-1.1.8h-6.4v-1.2c0-.6-.5-1.2-1.2-1.2h-9c-.6 0-1.2.5-1.2 1.2v1.2h-6.3c-.4 0-.9-.3-1.1-.8L5.8 12.2h33.4zM25.9 23.7v2.2h-6.8v-2.2h6.8zm13.7 12.5c0 .6-.5 1.2-1.2 1.2h-32c-.6 0-1.2-.5-1.2-1.2V18.1L7 23.6c.4 1.4 1.8 2.3 3.2 2.3h6.4v1.2c0 .6.5 1.2 1.2 1.2H27c.6 0 1.2-.5 1.2-1.2v-1.2h6.3c1.4 0 2.8-.9 3.2-2.3l1.8-5.5.1 18.1z"/></svg>