<svg xmlns="http://www.w3.org/2000/svg" xml:space="preserve" width="512" height="512" viewBox="0 0 512 512"><path d="M0 258.4c5.2 263.4 350.1 349.5 479.1 124 43.8-73.7 43.8-178.9 0-252.6C347.8-97.8 1.4-7.9 0 258.4zm50.3-113c11.3 1.3 35.2 3.9 67.2 6.3-7.8 30.4-12 61.7-12.7 93.1h-82c1.6-34.8 11-68.8 27.5-99.4zm439.2 99.3h-82c-.7-31.4-4.9-62.7-12.7-93.1 31.8-2.4 55.6-4.9 67.3-6.3 16.4 30.7 25.8 64.7 27.4 99.4zm-27.5 122c-11.6-1.3-35.4-3.9-67.3-6.3 7.8-30.4 12.1-61.6 12.8-93h82.1c-1.7 34.7-11.1 68.7-27.6 99.3zm-217.1-11.6c-38.2.3-74 1.8-104.4 3.8-8-29.9-12.4-60.6-13.1-91.6h117.5v87.8zm0 22.6v111.5c-43.7-5.5-81.6-60-97.5-108.1 28.8-1.6 62.1-3.2 97.5-3.4zm22.5 111.5V377.7c35.4.2 68.7 1.6 97.5 3.3-15.8 48.1-53.8 102.7-97.5 108.2zm0-134.1v-87.7H385c-.7 30.9-5.1 61.6-13.1 91.5-30.5-2-66.2-3.5-104.5-3.8zM385 244.8H267.5V157c38.2-.3 73.9-1.8 104.4-3.7 8 29.8 12.4 60.6 13.1 91.5zM267.5 134.4V22.9c43.7 5.5 81.6 60.1 97.5 108.2-28.9 1.7-62.2 3.1-97.5 3.3zM245 22.9v111.5c-35.5-.2-68.7-1.6-97.5-3.3C163.2 82.9 201.2 28.4 245 22.9zm0 134.1v87.8H127.4c.7-30.9 5.1-61.6 13.1-91.5 30.4 1.8 66.1 3.5 104.5 3.7zM104.9 267.4c.7 31.4 4.9 62.7 12.6 93.1-32 2.4-55.9 5-67.2 6.3-16.5-30.7-25.9-64.6-27.6-99.4h82.2zM63.3 388.1c13.6-1.5 34.7-3.5 60.8-5.4 11.5 34.8 29.6 69.4 54.1 94.1-46.7-16.7-86.9-47.8-114.9-88.7zm270.9 88.7c24.5-24.8 42.5-59.3 54.1-94.2 26.1 1.9 47.1 3.9 60.9 5.4-28.1 41-68.3 72.1-115 88.8zm114.9-352.7c-13.7 1.5-34.8 3.5-60.8 5.4-11.5-34.9-29.6-69.4-54.1-94.1 46.6 16.7 86.9 47.7 114.9 88.7zM178.2 35.4c-24.5 24.8-42.5 59.3-54.1 94.1-26.2-1.9-47.2-4-60.8-5.4 27.9-41 68.2-72 114.9-88.7z"/></svg>