<svg xmlns="http://www.w3.org/2000/svg" data-name="Layer 2" viewBox="0 0 102.32 100.84"><path d="M49.16 92.37H8.03a.89.89 0 0 1-.03-.19V45.49c0-2.6 1.66-3.74 1.77-3.82l.2-.1.33-.27c3.74-3.02 35.73-28.86 40.24-32.99.48-.29 1.35-.64 2.33.32l.1.13 42.79 35.66c1.7 1.41 4.22 1.19 5.63-.51 1.41-1.7 1.19-4.22-.51-5.63L58.52 2.97c-2.15-2.14-7.27-4.86-12.74-1.1l-.3.21-.26.26C43.33 4.23 19.93 23.25 5.48 34.92 3.3 36.32 0 39.89 0 45.49v46.48c-.02.8.09 3.85 2.29 6.13 1 1.04 2.79 2.27 5.64 2.27h41.23c2.21 0 4-1.79 4-4s-1.79-4-4-4Z"/><path d="M86.53 52.54c-5.34 0-9.28 2.19-11.79 4.24-2.51-2.05-6.45-4.24-11.79-4.24-8.85 0-15.79 7.59-15.79 17.28 0 6.44 3.35 18.92 25.79 30.13l1.79.89 1.79-.89c22.44-11.21 25.79-23.69 25.79-30.13 0-9.69-6.94-17.28-15.79-17.28ZM74.74 91.87c-12.47-6.61-19.58-14.59-19.58-22.05 0-4.5 2.73-9.28 7.79-9.28 5.48 0 8.36 4.05 8.48 4.22l3.26 4.84 3.36-4.84c.12-.17 3-4.22 8.48-4.22 5.06 0 7.79 4.78 7.79 9.28 0 7.47-7.11 15.44-19.58 22.05Z"/></svg>