<?xml version="1.0" encoding="UTF-8"?>
<svg id="Layer_2" data-name="Layer 2" xmlns="http://www.w3.org/2000/svg" viewBox="0 0 21.72 15.99">
  <defs>
    <style>
      .cls-1 {
        fill: none;
        stroke: #fff;
        stroke-linecap: round;
        stroke-linejoin: round;
        stroke-width: 1.2px;
      }
    </style>
  </defs>
  <g id="Layer_1-2" data-name="Layer 1">
    <g>
      <g>
        <path class="cls-1" d="m16.68,12.8h3.15c.33,0,.64.12.88.35h0c.53.5.54,1.33.03,1.84l-.02.02c-.24.24-.57.38-.91.38h-7.85c-.93,0-1.84-.24-2.64-.71l-4.2-2.43c-1.17-.68-2.49-1.03-3.84-1.03h-.69"/>
        <path class="cls-1" d="m9.28,11.97l3.71,1.08c.2.06.42.05.62-.02h0c.63-.24.84-1.02.42-1.54l-.08-.1c-.13-.16-.3-.27-.49-.32l-1.53-.44c-.54-.16-1.02-.46-1.39-.88l-.75-.84c-.69-.77-1.63-1.28-2.66-1.44l-.96-.15c-.5-.08-1-.1-1.5-.08l-2.8.14"/>
      </g>
      <g>
        <g>
          <path class="cls-1" d="m16.1,10.11c3.8-1.4,3.76-6.02,3.76-6.02"/>
          <path class="cls-1" d="m19.87,4.09v-1.18c0-.55-.21-1-.46-1h-.46"/>
        </g>
        <g>
          <path class="cls-1" d="m16.1,10.11c-3.8-1.4-3.76-6.02-3.76-6.02"/>
          <path class="cls-1" d="m12.33,4.09v-1.18c0-.55.21-1,.46-1h.46"/>
        </g>
        <path class="cls-1" d="m13.26,1.91c2.06,0,2.83-1.31,2.83-1.31h.02s.77,1.31,2.83,1.31"/>
      </g>
    </g>
  </g>
</svg>