<svg xmlns="http://www.w3.org/2000/svg" xml:space="preserve" width="512" height="512" viewBox="0 0 512 512"><path d="M432 512c-11 0-20-9-20-20V372c0-11 9-20 20-20h60c11 0 20 9 20 20s-9 20-20 20h-40v20h20c11 0 20 9 20 20s-9 20-20 20h-20v40c0 11-9 20-20 20zm-100 0h-30c-11 0-20-9-20-20V372c0-11 9-20 20-20h30c33.1 0 60 26.9 60 60v40c0 33.1-26.9 60-60 60zm-10-40h10c11 0 20-9 20-20v-40c0-11-9-20-20-20h-10v80zm-150 40c-11 0-20-9-20-20V372c0-11 9-20 20-20h40c27.6 0 50 22.4 50 50s-22.4 50-50 50h-20v40c0 11-9 20-20 20zm20-100h20c5.5 0 10-4.5 10-10s-4.5-10-10-10h-20v20zm-92 100H60c-33.1 0-60-26.9-60-60V60C0 26.9 26.9 0 60 0h200.9c5.2.2 9.8 2.4 13.2 5.9L394 125.7c3.5 3.4 5.7 8.2 6 13.4V300c0 11-9 20-20 20s-20-9-20-20V160h-60c-33.1 0-60-26.9-60-60V40H60c-11 0-20 9-20 20v392c0 11 9 20 20 20h40c11 0 20 9 20 20s-9 20-20 20zM280 68.3V100c0 11 9 20 20 20h31.7L280 68.3zM200 320h-.3c-2.6 0-5.1-.6-7.3-1.5-2.3-.9-4.5-2.3-6.3-4.2l-.2-.2-40-40c-7.8-7.8-7.8-20.5 0-28.3s20.5-7.8 28.3 0l5.9 5.9V180c0-11 9-20 20-20s20 9 20 20v71.7l5.9-5.9c7.8-7.8 20.5-7.8 28.3 0 7.8 7.8 7.8 20.5 0 28.3l-40 40-.2.2c-1.9 1.8-4 3.2-6.3 4.2-2.3.9-4.7 1.5-7.3 1.5h-.5z"/></svg>