<svg xmlns="http://www.w3.org/2000/svg" xml:space="preserve" style="enable-background:new 0 0 512 512" viewBox="0 0 512 512"><linearGradient id="a" x1="0" x2="512" y1="256" y2="256" gradientUnits="userSpaceOnUse"><stop offset="0"/><stop offset=".006"/><stop offset="1"/></linearGradient><path fill="none" stroke-linecap="round" stroke-linejoin="round" stroke-miterlimit="10" stroke-width="40" d="M332 492h-30V372h30c22.091 0 40 17.909 40 40v40c0 22.091-17.909 40-40 40zm100-120v120m0-120h60m-20 60h-40m-260 60V372m40 0h-40v60h40c16.569 0 30-13.431 30-30v0c0-16.569-13.431-30-30-30zm-12-192v120m-40-40 40 40 40-40m140 40V139.999M260 20H60c-22.091 0-40 17.909-40 40v392c0 22.091 17.909 40 40 40h40M260 20v80c0 22.091 17.909 40 40 40h80L260 20z" style="fill:none;stroke:url(#a);stroke-width:40;stroke-linecap:round;stroke-linejoin:round;stroke-miterlimit:10"/></svg>