<svg xmlns="http://www.w3.org/2000/svg" width="1517.333" height="1565.333" version="1.0" viewBox="0 0 1138 1174"><path d="M332.9 1c-9.3 1.1-18.1 3.7-27.6 8-20.6 9.5-35.4 24-45.3 44.4-6 12.2-8.8 23.4-9.7 38.3l-.6 11.3h-39.9c-50.8 0-62.9 1.2-86.3 8.7-27 8.6-50.1 22.8-70.6 43.2-25.4 25.5-42.1 57.2-49.1 93.2l-2.2 11.4L1.2 631c-.2 266 0 374.6.8 382.5 4.2 42.2 21.6 79 51 108.5 13.6 13.5 27.9 23.8 45.5 32.5 22.8 11.3 40.3 16.3 65 18.4 17.3 1.5 282.6 1.5 289.7 0 11.6-2.5 20.9-9.6 25.7-19.8 2.2-4.8 2.6-6.9 2.6-15.1 0-7.6-.5-10.4-2.2-14.2-3-6.6-10.5-14.3-17.2-17.5l-5.6-2.8-146.5-.6c-162-.6-150.5-.1-169.3-7-28.1-10.2-51.5-33.7-61.8-61.9-6.9-19.1-6.3 18.1-6.7-389.5-.2-269.4 0-370.5.8-377.3 3.6-29.1 18.1-54.3 42-72.4 8.8-6.8 24.5-14.2 36.5-17.5l10-2.7 44.1-.4 44.1-.3.6 11.3c.9 15 3.7 26.2 9.7 38.4 9.5 19.5 23.1 33.2 42.5 42.9 6.1 3 14.8 6.5 19.5 7.7l8.5 2.2 176 .4c126.5.2 178.8 0 186-.8 47.8-5.5 83.5-44.7 83.5-92v-10.2l44.8.4c44.5.4 44.7.4 54.5 3.1 11.6 3.1 26.5 9.9 35.1 16.1 7.2 5.2 19.1 17.1 24.2 24.1 4.3 6.1 11 19 13.6 26.5 5.4 15.5 5.1 9.8 5.7 132l.6 113.5 3.1 6.5c5 10.3 12.2 16.5 22.8 19.6 16.1 4.5 33.4-3.2 40.8-18.4l3.3-6.7.3-110c.3-128.7.3-129.2-8.8-156.6-19.3-58.1-68.9-103.2-128-116.3-17.7-3.9-28.9-4.6-72.1-4.6H776V93c0-46.9-36.1-86.8-83.2-91.9C681.4-.2 343.5-.2 332.9 1zm359.6 72.7c5.1 2.7 9 6.8 10.9 11.5 2.4 5.6 2.4 101 0 106.6-1.9 4.7-5.8 8.8-10.9 11.5l-4 2.2-172 .3c-124.3.2-173.4 0-177.2-.8-3.9-.8-6.5-2.3-10.2-5.6-8.1-7.3-8.1-7.1-8.1-60.6 0-30.2.4-47.4 1.1-50.3 1.9-7.5 9.3-14.6 17.4-16.6 1.7-.4 80.9-.6 176-.6l173 .2 4 2.2z"/><path d="M268.3 453.1c-7.1 2.7-15.5 10.6-19 17.7-2.5 5-2.8 6.8-2.8 15.2 0 8.3.3 10.2 2.8 15.1 3.6 7.5 11.7 15 19 17.7l5.8 2.2h197.3c216.7 0 200.7.5 210.2-6 9.2-6.4 14.7-17.2 14.8-29 .1-8.1-2.3-15-7.2-21.5-3.9-5.2-12.1-10.8-18.2-12.5-2.2-.6-75.3-1-200.5-.9-195 0-197.1 0-202.2 2zM990.5 605.1c-21.3 2.9-44.4 12.4-61.4 25.1-6.3 4.7-317.8 315.2-327.6 326.5-6.7 7.8-11.5 16-14.6 25-2.3 6.8-20.9 116.2-20.9 123.2 0 13.5 5.7 30.2 14.1 41.4 12.9 17.1 32.8 27 54.4 27 11.4 0 113-17 124.6-20.9 4.2-1.3 10.9-4.7 15-7.4 5.8-3.8 42.9-40.5 171-168.7 175.7-175.9 169.7-169.6 178.9-188.9 23-48 14.4-105-21.5-143.2-18.2-19.4-38-30.7-64.5-36.8-12-2.8-35.6-4-47.5-2.3zm31.4 70.4c37.6 8.9 55.5 52.4 35.3 86-3.6 6-44.4 48.5-46.6 48.5-.6 0-19.2-18.1-41.4-40.3l-40.3-40.3 23.3-23c24.8-24.4 27.7-26.5 41.3-30.5 7.5-2.2 20-2.3 28.4-.4zM920 820.5l40.5 40.5-112.3 112.3L736 1085.5l-49.1 9.8c-27 5.4-49.2 9.7-49.4 9.5-.2-.2 3.4-22.7 7.9-50.1l8.2-49.8 112.5-112.5C827.9 830.6 878.7 780 879 780c.3 0 18.7 18.2 41 40.5zM268.3 654.1c-7.1 2.7-15.5 10.6-19 17.7-2.5 5-2.8 6.8-2.8 15.2 0 8.1.4 10.3 2.6 15 4.7 10.1 14.3 17.5 25.7 19.9 7 1.5 175.5 1.6 183.3.1 7.5-1.4 13.7-4.7 18.9-10 17.3-17.2 12.2-46.5-9.9-56.9l-5.6-2.6-94-.2c-92.2-.2-94.1-.2-99.2 1.8z"/></svg>