<svg data-name="Group 314" xmlns="http://www.w3.org/2000/svg" width="151.378" height="177.874" viewBox="0 0 151.378 177.874"><defs><clipPath id="a"><path data-name="Rectangle 85" fill="none" d="M0 0h151.378v177.874H0z"/></clipPath><clipPath id="b"><path data-name="Path 399" d="m29.711 25.993 1.452.433c1.779-1.018 2.847-3.784 2.385-6.194l-1.448-.44c.455 2.414-.617 5.176-2.389 6.2" transform="translate(-29.711 -19.792)" fill="none"/></clipPath><clipPath id="c"><path data-name="Path 406" d="m28.484 3.85 1.445.44a3.318 3.318 0 0 0-2.072-2.776l-1.457-.44a3.345 3.345 0 0 1 2.084 2.776" transform="translate(-26.405 -1.074)" fill="none"/></clipPath><clipPath id="d"><path data-name="Path 412" d="M27.543 0a2.677 2.677 0 0 0-1.223.381l1.455.433A2.422 2.422 0 0 1 29.7.525c-.49-.141-.969-.289-1.452-.437A2.154 2.154 0 0 0 27.729 0Z" transform="translate(-26.32)" fill="none"/></clipPath><clipPath id="e"><path data-name="Path 418" d="m25.849 1.431 1.445.437a2.445 2.445 0 0 1 1.966-.285l-1.452-.44a2.127 2.127 0 0 0-.634-.1 2.614 2.614 0 0 0-1.325.384" transform="translate(-25.849 -1.047)" fill="none"/></clipPath><clipPath id="f"><path data-name="Path 432" d="M7.486 41.519 7.43 41.5l.056.018m-1.448-.437c.166.046.335.1.507.148l.581.18c.1.025.2.06.3.092a2.87 2.87 0 0 1-1.741-2.322l-1.448-.44a2.816 2.816 0 0 0 1.8 2.343" transform="translate(-4.241 -38.739)" fill="none"/></clipPath><clipPath id="g"><path data-name="Path 439" d="M4.693 35.96c.479.151.969.3 1.452.44a2.485 2.485 0 0 0 1.973-.289l-1.455-.437a2.447 2.447 0 0 1-1.97.285" transform="translate(-4.693 -35.675)" fill="none"/></clipPath><clipPath id="h"><path data-name="Path 443" d="M6.174 37.747c.479.151.969.3 1.452.44A3.343 3.343 0 0 1 5.561 35.4l-1.455-.437a3.334 3.334 0 0 0 2.068 2.78" transform="translate(-4.106 -34.967)" fill="none"/></clipPath><clipPath id="i"><path data-name="Path 473" d="m.788 21.478 1.448.44c-.451-2.4.617-5.183 2.4-6.2l-1.455-.44C1.4 16.3.33 19.082.788 21.478" transform="translate(-.682 -15.277)" fill="none"/></clipPath><clipPath id="j"><path data-name="Path 487" d="M0 19.425v.155a5.208 5.208 0 0 0 .081.846l1.459.444a5.557 5.557 0 0 1 2.29-5.518l-1.448-.44A5.452 5.452 0 0 0 0 19.425" transform="translate(0 -14.912)" fill="none"/></clipPath><clipPath id="k"><path data-name="Rectangle 83" fill="none" d="M0 0h89.113v119.179H0z"/></clipPath></defs><g data-name="Group 175" clip-path="url(#a)"><path data-name="Path 383" d="m35.055 123.117.011 3.012 22.592 13.129-.007-3.009Z" fill="#bbbbc4"/><path data-name="Path 384" d="m57.651 136.248.007 3.009 42.323-24.438v-3.009Z" fill="#9c9ca6"/><path data-name="Path 385" d="m35.055 123.117 22.6 13.132 42.322-24.438-22.6-13.132Z" fill="#c5c5cc"/><path data-name="Path 386" d="m57.651 136.249 28.173-27.688-38.504 13.843-6.018 4.345Z" fill="#9c9ca6"/><path data-name="Path 387" d="m51.084 128.615-3.09-1.779-7.726-50.627 2.879.712Z" fill="#bbbbc4"/><path data-name="Path 388" d="m43.145 76.921-2.879-.711 28.709-16.574 2.872.715Z" fill="#7a7a7e"/><path data-name="Path 389" d="m71.848 60.351 13.977 48.21-34.74 20.055-7.938-51.694Z" fill="#dadae5"/><g data-name="Group 149"><g data-name="Group 148" clip-path="url(#b)" transform="translate(104.683 69.735)"><path data-name="Path 390" d="M1.452 6.638 0 6.201a4.113 4.113 0 0 0 1.283-1.184l1.452.444a4.177 4.177 0 0 1-1.283 1.177" fill="#30343f"/><path data-name="Path 391" d="m2.734 5.461-1.455-.443a6.1 6.1 0 0 0 .352-.536l1.452.43a5.185 5.185 0 0 1-.349.55" fill="#2f323d"/><path data-name="Path 392" d="m3.087 4.908-1.452-.43c.092-.169.18-.335.254-.511l1.452.433a4.866 4.866 0 0 1-.254.507" fill="#2d313c"/><path data-name="Path 393" d="M3.342 4.405 1.89 3.972a5.85 5.85 0 0 0 .2-.5l1.455.437c-.067.176-.13.342-.2.5" fill="#2c2f3a"/><path data-name="Path 394" d="M3.545 3.907 2.083 3.47c.06-.166.12-.338.166-.514l1.452.44c-.046.176-.1.345-.159.511" fill="#2b2e38"/><path data-name="Path 395" d="m3.701 3.396-1.452-.437a4.829 4.829 0 0 0 .123-.543l1.455.433c-.039.183-.085.37-.127.546" fill="#292c36"/><path data-name="Path 396" d="m3.83 2.847-1.455-.433a5.3 5.3 0 0 0 .088-.617l1.459.437c-.021.2-.053.409-.092.613" fill="#282b34"/><path data-name="Path 397" d="M3.922 2.237 2.463 1.8a6.018 6.018 0 0 0 .028-.754l1.459.44c0 .247-.007.5-.028.75" fill="#262932"/><path data-name="Path 398" d="m3.949 1.487-1.459-.44a6.077 6.077 0 0 0-.1-1.043l1.445.44a5.693 5.693 0 0 1 .113 1.043" fill="#252830"/></g></g><path data-name="Path 400" d="m99.783 71.891 1.448.44-.6-3.206-1.455-.44Z" fill="#858888"/><path data-name="Path 401" d="m98.888 67.154 1.445.437-.606-3.206-1.445-.44Z" fill="#858888"/><path data-name="Path 402" d="m97.985 62.423 1.452.43-.606-3.206-1.449-.442Z" fill="#858888"/><path data-name="Path 403" d="m108.516 70.178-1.445-.44L95.11 6.56l1.448.44Z" fill="#262932"/><path data-name="Path 404" d="m97.28 51.429-1.455-.437-5.493-28.98 1.462.437Z" fill="#858888"/><g data-name="Group 151"><g data-name="Group 150" clip-path="url(#c)" transform="translate(93.035 3.784)"><path data-name="Path 405" d="m3.523 3.217-1.448-.441A3.354 3.354 0 0 0-.005 0l1.452.44a3.324 3.324 0 0 1 2.072 2.776" fill="#252830"/></g></g><g data-name="Group 153"><g data-name="Group 152" clip-path="url(#d)" transform="translate(92.735)"><path data-name="Path 407" d="M1.455.814-.004.376a2.6 2.6 0 0 1 .638-.27l1.459.433a2.726 2.726 0 0 0-.638.275" fill="#30343f"/><path data-name="Path 408" d="M2.093.539.634.106a2.037 2.037 0 0 1 .465-.093l1.455.442a1.871 1.871 0 0 0-.462.085" fill="#2f323d"/><path data-name="Path 409" d="M2.554.454 1.099.018A1.733 1.733 0 0 1 1.48.011l1.455.433a1.994 1.994 0 0 0-.381.011" fill="#2d313c"/><path data-name="Path 410" d="M2.937.444 1.476.008a2.16 2.16 0 0 1 .342.053l1.451.447a1.947 1.947 0 0 0-.332-.064" fill="#2c2f3a"/><path data-name="Path 411" d="M3.27.5 1.818.06c.039.007.07.021.113.028l1.451.437L3.27.5" fill="#2b2e38"/></g></g><g data-name="Group 155"><g data-name="Group 154" clip-path="url(#e)" transform="translate(91.076 3.689)"><path data-name="Path 413" d="M1.445.821 0 .384A3.15 3.15 0 0 1 .638.102l1.448.44a3.024 3.024 0 0 0-.641.278" fill="#a9adad"/><path data-name="Path 414" d="M2.09.543.638.103A2.524 2.524 0 0 1 1.11.015l1.445.44a2.205 2.205 0 0 0-.465.088" fill="#a4a8a8"/><path data-name="Path 415" d="M2.555.455 1.11.015a2.287 2.287 0 0 1 .381 0l1.455.433a1.645 1.645 0 0 0-.395 0" fill="#9fa3a3"/><path data-name="Path 416" d="M2.949.447 1.49.014a1.667 1.667 0 0 1 .356.053l1.452.437a2.4 2.4 0 0 0-.349-.056" fill="#9a9e9e"/><path data-name="Path 417" d="M3.295.498 1.843.061c.042.011.074.025.116.032l1.452.44a.731.731 0 0 0-.116-.035" fill="#959999"/></g></g><path data-name="Path 419" d="m89.058 15.26 1.448.433-.606-3.206-1.455-.444Z" fill="#858888"/><path data-name="Path 420" d="m70.898 66.665-1.455-.44 26.383-15.232 1.455.437Z" fill="#b8bebe"/><path data-name="Path 421" d="m56.742 92.766-1.452-.44 43.6-25.174 1.445.44Z" fill="#b8bebe"/><path data-name="Path 422" d="m55.29 92.326 1.452.44-.606-3.206-1.455-.44Z" fill="#5a5b5e"/><path data-name="Path 423" d="m56.135 89.56-1.455-.44 43.6-25.174 1.445.44Z" fill="#7e7e82"/><path data-name="Path 424" d="m99.727 64.386.61 3.206-43.596 25.175-.606-3.206Z" fill="#949599"/><path data-name="Path 425" d="m66.418 69.778-1.455-.437-2.561-13.495 1.459.433Z" fill="#858888"/><path data-name="Path 426" d="m70.902 66.665-1.455-.44-5.489-28.98 1.448.44Z" fill="#7b8185"/><path data-name="Path 427" d="m65.402 37.686-1.448-.44 26.379-15.232 1.462.437Z" fill="#acb4b8"/><path data-name="Path 428" d="m91.794 22.45 5.486 28.98-26.383 15.235-5.5-28.98Z" fill="#cad3d9"/><path data-name="Path 429" d="m63.555 54.683-1.455-.437-2.552-13.498 1.453.435Z" fill="#858888"/><path data-name="Path 430" d="m19.96 126.131-1.455-.437 86.178-49.761 1.452.437Z" fill="#353845"/><g data-name="Group 157"><g data-name="Group 156" clip-path="url(#f)" transform="translate(14.943 136.492)"><path data-name="Path 431" d="m3.249 2.78-1.452-.437A2.822 2.822 0 0 1-.003 0l1.452.44a2.828 2.828 0 0 0 1.8 2.34" fill="#252830"/></g></g><path data-name="Path 433" d="m21.969 118.098-1.452-.44 79.269-45.77 1.448.44Z" fill="#b8bebe"/><g data-name="Group 159"><g data-name="Group 158" clip-path="url(#g)" transform="translate(16.535 125.696)"><path data-name="Path 434" d="M1.452.726.004.289l.113.035 1.455.43C1.53.747 1.494.736 1.452.726" fill="#2b2e38"/><path data-name="Path 435" d="M1.568.755.113.325a2.842 2.842 0 0 0 .359.053l1.445.44a1.731 1.731 0 0 1-.349-.063" fill="#2c2f3a"/><path data-name="Path 436" d="M1.921.813.469.373A1.794 1.794 0 0 0 .857.366l1.445.44a2.265 2.265 0 0 1-.381.007" fill="#2d313c"/><path data-name="Path 437" d="M2.305.807.853.367a2.65 2.65 0 0 0 .472-.085l1.452.437a2.656 2.656 0 0 1-.472.088" fill="#2f323d"/><path data-name="Path 438" d="M2.777.719 1.325.282A3.32 3.32 0 0 0 1.97 0l1.459.437a3.145 3.145 0 0 1-.652.282" fill="#30343f"/></g></g><path data-name="Path 440" d="m20.517 117.656 1.452.44-.609-3.209-1.448-.437Z" fill="#5a5b5e"/><path data-name="Path 441" d="m21.361 114.887-1.448-.437 79.261-45.757 1.455.44Z" fill="#7e7e82"/><g data-name="Group 161"><g data-name="Group 160" clip-path="url(#h)" transform="translate(14.467 123.202)"><path data-name="Path 442" d="m3.52 3.221-1.448-.437A3.336 3.336 0 0 1 0 .004l1.459.437a3.328 3.328 0 0 0 2.061 2.78" fill="#818585"/></g></g><path data-name="Path 444" d="m20.173 108.621-1.452-.433 79.262-45.765 1.455.433Z" fill="#b8bebe"/><path data-name="Path 445" d="m19.571 105.418-1.46-.444 79.273-45.761 1.448.433Z" fill="#7e7e82"/><path data-name="Path 446" d="m18.722 108.188 1.447.433-.61-3.2-1.45-.446Z" fill="#5a5b5e"/><path data-name="Path 447" d="m18.101 97.673-1.452-.44 48.316-27.892 1.452.437Z" fill="#b8bebe"/><path data-name="Path 448" d="m18.101 97.671-1.452-.44-2.557-13.494 1.455.437Z" fill="#7b8185"/><path data-name="Path 449" d="m63.86 56.28 2.558 13.5-48.316 27.893-2.554-13.5Z" fill="#cad3d9"/><path data-name="Path 450" d="m15.546 84.174-1.454-.437 48.312-27.891 1.455.433Z" fill="#acb4b8"/><path data-name="Path 451" d="m15.243 82.581-1.455-.437L62.101 54.25l1.455.437Z" fill="#b8bebe"/><path data-name="Path 452" d="m12.687 69.083-1.455-.433 48.319-27.9 1.448.433Z" fill="#acb4b8"/><path data-name="Path 453" d="m15.243 82.581-1.455-.437-2.558-13.5 1.455.433Z" fill="#7c8185"/><path data-name="Path 454" d="m61.001 41.185 2.554 13.5-48.312 27.896-2.556-13.501Z" fill="#cad3d9"/><path data-name="Path 455" d="m11.24 61.459-1.448-.44L89.057 15.26l1.452.437Z" fill="#b8bebe"/><path data-name="Path 456" d="m9.792 61.018 1.448.44-.61-3.21-1.452-.433Z" fill="#225463"/><path data-name="Path 457" d="m89.904 12.486.6 3.21-79.263 45.761-.61-3.206Z" fill="#388aa2"/><path data-name="Path 458" d="m10.633 58.251-1.46-.437L88.45 12.046l1.455.44Z" fill="#30758a"/><g data-name="Group 163"><g data-name="Group 162" clip-path="url(#a)"><path data-name="Path 459" d="M92.52 4.509c1.783-1.032 3.587.1 4.038 2.491l11.962 63.175c.462 2.41-.61 5.176-2.385 6.194l-86.175 49.76c-1.779 1.025-3.583-.081-4.038-2.491L3.96 60.468c-.451-2.4.617-5.183 2.392-6.2Zm4.76 46.917-5.486-28.98-26.393 15.24 5.5 28.976ZM12.688 69.079l2.554 13.5 48.312-27.9L61 41.179Zm2.857 15.094 2.554 13.5 48.32-27.897-2.559-13.498Zm85.685-11.842-.6-3.2-79.27 45.755.61 3.21ZM90.505 15.696l-.6-3.213L10.63 58.255l.61 3.2Zm8.932 47.159-.606-3.21-79.266 45.77.61 3.206Zm.9 4.739-.61-3.206-43.592 25.167.61 3.21Z" fill="#edfcf8"/><path data-name="Path 460" d="M108.52 70.175 96.56 7c-.451-2.4-2.255-3.523-4.038-2.491L6.349 54.267c-1.776 1.018-2.843 3.8-2.392 6.2l11.965 63.17c.455 2.41 2.258 3.516 4.038 2.491l86.175-49.761c1.779-1.018 2.847-3.784 2.385-6.194m-8.185-2.583L56.744 92.766l-.61-3.21 43.592-25.17ZM97.28 51.427 70.897 66.662l-5.5-28.976 26.398-15.231Zm-86.646 6.828 79.269-45.772.606 3.213L11.24 61.455Zm2.054 10.824L61 41.184l2.554 13.5-48.312 27.9ZM18.1 97.671l-2.554-13.5L63.86 56.278l2.558 13.5Zm1.466 7.744 79.265-45.772.606 3.21-79.262 45.769Zm2.4 12.681-.606-3.21 79.268-45.758.606 3.2Z" fill="#edfcf8"/><path data-name="Path 461" d="m98.83 59.644.606 3.21-79.261 45.762-.61-3.2Z" fill="#949599"/><path data-name="Path 462" d="m6.351 54.267-1.455-.44L91.077 4.073l1.445.437Z" fill="#b8bebe"/><path data-name="Path 463" d="m15.923 123.64-1.455-.437L2.506 60.029l1.452.437Z" fill="#858888"/></g></g><g data-name="Group 165"><g data-name="Group 164" clip-path="url(#i)" transform="translate(2.403 53.827)"><path data-name="Path 464" d="M1.554 6.642.103 6.205a5.889 5.889 0 0 1-.106-1.029l1.455.433a6.655 6.655 0 0 0 .1 1.032" fill="#818585"/><path data-name="Path 465" d="m1.452 5.609-1.456-.433a5.485 5.485 0 0 1 .039-.758l1.445.437c-.021.25-.032.507-.028.754" fill="#868a8a"/><path data-name="Path 466" d="M1.48 4.855.032 4.419a4.639 4.639 0 0 1 .088-.617l1.448.437c-.042.2-.063.409-.088.617" fill="#8b8f8f"/><path data-name="Path 467" d="M1.572 4.239.12 3.802a5.254 5.254 0 0 1 .123-.555l1.459.44a5.038 5.038 0 0 0-.13.553" fill="#909494"/><path data-name="Path 468" d="M1.699 3.681.24 3.245c.049-.169.109-.342.162-.511l1.455.437a5.111 5.111 0 0 0-.158.51" fill="#959999"/><path data-name="Path 469" d="M1.86 3.171.408 2.734a7.89 7.89 0 0 1 .2-.5l1.448.444a6.76 6.76 0 0 0-.2.5" fill="#9a9e9e"/><path data-name="Path 470" d="M2.052 2.677.606 2.233a4.755 4.755 0 0 1 .257-.5l1.459.431a4.977 4.977 0 0 0-.268.511" fill="#9fa3a3"/><path data-name="Path 471" d="M2.322 2.166.863 1.733a5 5 0 0 1 .352-.546l1.448.437a3.825 3.825 0 0 0-.342.543" fill="#a4a8a8"/><path data-name="Path 472" d="m2.664 1.623-1.452-.437A4.129 4.129 0 0 1 2.495-.001l1.452.44a4.159 4.159 0 0 0-1.283 1.184" fill="#a9adad"/></g></g><g data-name="Group 167"><g data-name="Group 166" clip-path="url(#a)"><path data-name="Path 474" d="M94.19.816c1.645-.951 3.33-.035 3.721 2.037l14.851 78.435a5.587 5.587 0 0 1-2.283 5.532l-90.361 52.156c-1.667.962-3.33.039-3.724-2.044L1.542 58.499a5.552 5.552 0 0 1 2.294-5.518Zm14.33 69.361L96.558 7.001c-.451-2.392-2.255-3.523-4.038-2.491L6.349 54.267c-1.776 1.018-2.843 3.805-2.392 6.2l11.965 63.175c.455 2.406 2.258 3.516 4.038 2.491l86.175-49.761c1.779-1.018 2.847-3.784 2.385-6.194" fill="#4a4d67"/><path data-name="Path 475" d="m100.628 69.128.6 3.2-79.259 45.768-.61-3.21Z" fill="#949599"/><path data-name="Path 476" d="m3.832 52.98-1.451-.437L92.734.38l1.459.433Z" fill="#353845"/><path data-name="Path 477" d="m16.392 136.932-1.452-.44L.082 58.051l1.459.444Z" fill="#262932"/></g></g><g data-name="Group 169"><g data-name="Group 168" clip-path="url(#j)" transform="translate(0 52.54)"><path data-name="Path 478" d="M1.54 5.955.082 5.511a5.35 5.35 0 0 1-.079-.821l1.452.433a5.04 5.04 0 0 0 .085.832" fill="#252830"/><path data-name="Path 479" d="M1.455 5.123.002 4.69a5.1 5.1 0 0 1 .025-.617l1.448.43a6.078 6.078 0 0 0-.021.62" fill="#262932"/><path data-name="Path 480" d="m1.476 4.503-1.448-.43c.018-.18.039-.352.07-.521l1.452.44a9.945 9.945 0 0 0-.074.511" fill="#282b34"/><path data-name="Path 481" d="m1.551 3.993-1.452-.44c.035-.159.067-.317.113-.472l1.455.437a7.022 7.022 0 0 0-.116.476" fill="#292c36"/><path data-name="Path 482" d="M1.666 3.516.211 3.08c.042-.155.092-.3.144-.462l1.452.44a4.286 4.286 0 0 0-.141.458" fill="#2b2e38"/><path data-name="Path 483" d="m1.804 3.058-1.452-.44c.056-.144.113-.3.183-.444l1.455.433c-.074.144-.127.3-.187.451" fill="#2c2f3a"/><path data-name="Path 484" d="M1.991 2.609.536 2.174a3.259 3.259 0 0 1 .24-.469l1.445.437c-.074.152-.162.307-.229.465" fill="#2d313c"/><path data-name="Path 485" d="M2.224 2.142.779 1.705c.1-.187.215-.356.324-.521l1.455.44a4.5 4.5 0 0 0-.335.518" fill="#2f323d"/><path data-name="Path 486" d="m2.562 1.625-1.459-.44A4.36 4.36 0 0 1 2.382.005l1.452.437a4.176 4.176 0 0 0-1.272 1.184" fill="#30343f"/></g></g><g data-name="Group 174"><g data-name="Group 173" clip-path="url(#a)"><g data-name="Group 172" opacity=".2"><g data-name="Group 171"><g data-name="Group 170" clip-path="url(#k)" transform="translate(3.854 4.32)"><path data-name="Path 488" d="M2.495 49.946c-1.776 1.018-2.847 3.8-2.392 6.2l11.933 63.027L89.114-.001a3.4 3.4 0 0 0-.447.19Z" fill="#fff"/></g></g></g><path data-name="Path 489" d="m1.542 58.495 14.849 78.437a3.034 3.034 0 0 0 1.392 2.167l87.1-62-84.923 49.03c-1.779 1.025-3.583-.081-4.038-2.491L3.957 60.468a6.779 6.779 0 0 1 .638-4.235l-.6-3.344-.162.092a5.548 5.548 0 0 0-2.291 5.514" fill="#40445b"/><path data-name="Path 490" d="M64.224 104.073a1.439 1.439 0 0 1 2.121.409 3.8 3.8 0 0 1-.772 4 3.078 3.078 0 0 1-.828.7 1.451 1.451 0 0 1-2.121-.412 3.821 3.821 0 0 1 .772-4 3.209 3.209 0 0 1 .828-.7" fill="#c5c5c5"/><path data-name="Path 491" d="m75.519 177.874 75.858-43.792-34.754-19.382-75.865 43.796Z" fill="#bdc3c7"/><path data-name="Path 492" d="M151.38 132.28v1.8l-2.111.37-1.569-1.733Z" fill="#bcbec0"/><path data-name="Path 493" d="M40.758 156.685v1.811l2.569-.61Z" fill="#bcbec0"/><path data-name="Path 494" d="m75.519 176.067 75.858-43.788-34.754-19.383-75.865 43.789Z" fill="#eaeaf4"/><path data-name="Path 495" d="M114.182 119.758c-.13.074-.13.2-.021.268l2.456 1.409a.509.509 0 0 0 .462-.014l4.457-2.607c.123-.074.127-.187.011-.264l-2.456-1.4a.449.449 0 0 0-.451 0Z" fill="#c5c5cc"/><path data-name="Path 496" d="M109.231 122.655c-.13.074-.134.2-.014.264l2.449 1.413a.561.561 0 0 0 .458-.018l3.608-2.107c.134-.074.137-.2.014-.261l-2.456-1.413a.492.492 0 0 0-.458.018Z" fill="#c5c5cc"/><path data-name="Path 497" d="M104.299 125.523c-.123.081-.134.208-.011.282l2.452 1.409a.493.493 0 0 0 .455-.014l3.608-2.111c.13-.078.144-.2.021-.261l-2.459-1.413a.543.543 0 0 0-.462.007Z" fill="#c5c5cc"/><path data-name="Path 498" d="M99.373 128.42c-.127.07-.134.194-.014.254l2.459 1.413a.5.5 0 0 0 .458-.018l3.608-2.1c.123-.074.134-.187.007-.264l-2.456-1.406a.493.493 0 0 0-.444.007Z" fill="#c5c5cc"/><path data-name="Path 499" d="M94.454 131.291c-.134.081-.137.194-.014.264l2.459 1.409a.489.489 0 0 0 .447 0l3.608-2.118c.127-.07.134-.19.011-.257l-2.452-1.412a.467.467 0 0 0-.451.014Z" fill="#c5c5cc"/><path data-name="Path 500" d="M89.522 134.176c-.134.074-.137.2-.014.268l2.463 1.406a.507.507 0 0 0 .451 0l3.608-2.114a.149.149 0 0 0 .01-.275l-2.449-1.406a.535.535 0 0 0-.458.011Z" fill="#c5c5cc"/><path data-name="Path 501" d="M84.596 137.055c-.116.085-.13.2-.007.264l2.445 1.413a.55.55 0 0 0 .458-.021l3.6-2.11c.134-.07.134-.187.028-.254l-2.459-1.409a.54.54 0 0 0-.455.007Z" fill="#c5c5cc"/><path data-name="Path 502" d="M79.674 139.941c-.134.078-.141.2-.014.268l2.449 1.409a.536.536 0 0 0 .458-.011l3.6-2.107c.13-.081.13-.215.018-.268l-2.452-1.413a.543.543 0 0 0-.462.007Z" fill="#c5c5cc"/><path data-name="Path 503" d="M74.748 142.816c-.137.081-.137.2-.021.268l2.449 1.406a.518.518 0 0 0 .462-.007l3.611-2.118c.127-.07.13-.194.007-.257l-2.449-1.41a.515.515 0 0 0-.455.007Z" fill="#c5c5cc"/><path data-name="Path 504" d="M69.823 145.698c-.134.085-.137.2-.018.264l2.449 1.413a.523.523 0 0 0 .458-.021l3.611-2.114c.13-.067.134-.183.011-.247l-2.463-1.416a.483.483 0 0 0-.444.014Z" fill="#c5c5cc"/><path data-name="Path 505" d="M64.893 148.577c-.13.074-.141.2-.011.275l2.445 1.4a.551.551 0 0 0 .465 0l3.6-2.118c.134-.067.141-.19.014-.264l-2.463-1.4a.457.457 0 0 0-.451 0Z" fill="#c5c5cc"/><path data-name="Path 506" d="M59.972 151.456c-.13.085-.137.2-.018.264l2.456 1.416a.549.549 0 0 0 .458-.014l3.6-2.118c.13-.063.141-.183.014-.261l-2.452-1.413a.549.549 0 0 0-.458.014Z" fill="#c5c5cc"/><path data-name="Path 507" d="M55.042 154.341c-.127.074-.137.194-.018.261l2.456 1.42a.567.567 0 0 0 .455-.014l3.612-2.118c.127-.07.134-.194.007-.254l-2.453-1.412a.477.477 0 0 0-.451.014Z" fill="#c5c5cc"/><path data-name="Path 508" d="M49.623 157.508c-.123.067-.141.2-.014.257l2.452 1.416a.523.523 0 0 0 .458-.007l4.57-2.667c.123-.081.137-.2.007-.271l-2.452-1.4a.5.5 0 0 0-.462.007Z" fill="#c5c5cc"/><path data-name="Path 509" d="M117.808 121.838c-.127.081-.134.208-.007.275l3.3 1.889a.522.522 0 0 0 .458 0l4.454-2.618c.13-.074.137-.19.014-.25l-3.3-1.9a.478.478 0 0 0-.462.011Z" fill="#c5c5cc"/><path data-name="Path 510" d="M112.817 124.776c-.137.074-.148.19-.021.254l3.308 1.906a.541.541 0 0 0 .455-.021l3.669-2.139c.123-.074.134-.19.011-.268l-3.3-1.889a.493.493 0 0 0-.455 0Z" fill="#c5c5cc"/><path data-name="Path 511" d="M107.812 127.694c-.127.074-.137.2-.011.257l3.308 1.889a.448.448 0 0 0 .455-.011l3.668-2.135c.12-.085.137-.2.011-.268l-3.3-1.9a.528.528 0 0 0-.455.014Z" fill="#c5c5cc"/><path data-name="Path 512" d="M102.819 130.596c-.13.088-.134.2-.011.275l3.308 1.892a.482.482 0 0 0 .444 0l3.671-2.149c.13-.078.141-.194.018-.268l-3.308-1.9a.5.5 0 0 0-.451.021Z" fill="#c5c5cc"/><path data-name="Path 513" d="M97.819 133.532c-.13.067-.134.183-.011.257l3.312 1.906a.473.473 0 0 0 .447-.025l3.675-2.135c.127-.074.137-.2.011-.268l-3.3-1.892a.5.5 0 0 0-.455 0Z" fill="#c5c5cc"/><path data-name="Path 514" d="M92.827 136.449c-.123.078-.137.19-.007.257l3.3 1.9a.5.5 0 0 0 .458-.014l3.668-2.142c.13-.074.137-.19.018-.261l-3.3-1.9a.493.493 0 0 0-.455 0Z" fill="#c5c5cc"/><path data-name="Path 515" d="M87.835 139.367c-.123.074-.134.2-.014.264l3.308 1.9a.474.474 0 0 0 .455-.007l3.668-2.153c.123-.081.13-.2.021-.261l-3.3-1.892a.5.5 0 0 0-.465.011Z" fill="#c5c5cc"/><path data-name="Path 516" d="M82.842 142.28c-.13.081-.137.2-.018.268l3.308 1.9a.49.49 0 0 0 .458 0l3.666-2.154c.134-.078.141-.187.011-.271l-3.294-1.885a.485.485 0 0 0-.465.011Z" fill="#c5c5cc"/><path data-name="Path 517" d="M77.842 145.208c-.13.081-.13.19-.011.271l3.3 1.9a.511.511 0 0 0 .462-.021l3.666-2.142c.134-.081.141-.2.014-.264l-3.3-1.906a.49.49 0 0 0-.447.018Z" fill="#c5c5cc"/><path data-name="Path 518" d="M72.846 148.129c-.127.081-.134.19-.011.261l3.312 1.906a.5.5 0 0 0 .451-.018l3.675-2.149c.127-.067.13-.19.007-.25l-3.3-1.906a.477.477 0 0 0-.451.014Z" fill="#c5c5cc"/><path data-name="Path 519" d="M67.849 151.061c-.134.067-.134.19 0 .257l3.3 1.885a.448.448 0 0 0 .451 0l3.675-2.142c.123-.074.134-.2.011-.264l-3.308-1.9a.46.46 0 0 0-.447.014Z" fill="#c5c5cc"/><path data-name="Path 520" d="M62.857 153.967c-.134.081-.137.2-.014.271l3.308 1.889a.5.5 0 0 0 .455 0l3.668-2.156c.134-.06.137-.18.014-.257l-3.3-1.9a.51.51 0 0 0-.451.021Z" fill="#c5c5cc"/><path data-name="Path 521" d="M121.352 124.886c-.13.07-.137.187-.014.264l3.312 1.892a.5.5 0 0 0 .451-.011l5.327-3.1c.13-.081.137-.2.011-.268l-3.3-1.9a.493.493 0 0 0-.455 0Z" fill="#c5c5cc"/><path data-name="Path 522" d="M116.279 127.852c-.134.07-.134.2-.007.257l3.3 1.9a.509.509 0 0 0 .462-.014l3.67-2.143c.13-.067.13-.2.011-.257l-3.3-1.892a.471.471 0 0 0-.458 0Z" fill="#c5c5cc"/><path data-name="Path 523" d="M124.756 128.008c-.127.074-.137.2-.018.268l3.3 1.892a.511.511 0 0 0 .458-.007l6.335-3.714c.13-.081.141-.19.018-.264l-3.304-1.893a.515.515 0 0 0-.455.007Z" fill="#c5c5cc"/><path data-name="Path 524" d="M111.282 130.773c-.13.07-.134.2-.014.254l3.308 1.9a.5.5 0 0 0 .458 0l3.672-2.154c.123-.074.13-.2.011-.254l-3.308-1.9a.493.493 0 0 0-.455 0Z" fill="#c5c5cc"/><path data-name="Path 525" d="M106.293 133.687c-.134.074-.134.2-.018.264l3.308 1.9a.5.5 0 0 0 .458-.007l3.671-2.156c.13-.07.137-.194.018-.257l-3.315-1.9a.485.485 0 0 0-.455.025Z" fill="#c5c5cc"/><path data-name="Path 526" d="M101.297 136.618c-.13.067-.134.183-.014.257l3.3 1.9a.539.539 0 0 0 .465-.014l3.668-2.132c.13-.081.13-.2.018-.278l-3.314-1.892a.489.489 0 0 0-.447 0Z" fill="#c5c5cc"/><path data-name="Path 527" d="M96.301 139.533c-.13.07-.141.2-.011.261l3.3 1.9a.52.52 0 0 0 .462-.014l3.668-2.146c.127-.07.141-.2.014-.264l-3.3-1.889a.5.5 0 0 0-.458 0Z" fill="#c5c5cc"/><path data-name="Path 528" d="M91.301 142.453c-.123.074-.141.2 0 .261l3.3 1.889a.446.446 0 0 0 .458-.007l3.668-2.142c.127-.074.134-.2.011-.257l-3.3-1.9a.5.5 0 0 0-.458.007Z" fill="#c5c5cc"/><path data-name="Path 529" d="M86.319 145.374c-.134.074-.144.2-.021.257l3.3 1.9a.462.462 0 0 0 .458-.014l3.668-2.139c.13-.077.134-.19.021-.268l-3.3-1.9a.5.5 0 0 0-.458.018Z" fill="#c5c5cc"/><path data-name="Path 530" d="M81.32 148.294c-.127.074-.141.194-.018.268l3.315 1.892a.524.524 0 0 0 .447-.007l3.671-2.146c.134-.077.134-.2.018-.271l-3.308-1.9a.548.548 0 0 0-.458.007Z" fill="#c5c5cc"/><path data-name="Path 531" d="M76.319 151.217c-.13.078-.134.2 0 .257l3.294 1.9a.491.491 0 0 0 .458-.018l3.676-2.139c.123-.07.13-.194.011-.257l-3.312-1.9a.458.458 0 0 0-.451.011Z" fill="#c5c5cc"/><path data-name="Path 532" d="M71.327 154.137c-.13.07-.134.2-.011.257l3.3 1.9a.464.464 0 0 0 .455 0l3.671-2.149c.13-.078.13-.194.011-.257l-3.308-1.9a.532.532 0 0 0-.451.007Z" fill="#c5c5cc"/><path data-name="Path 533" d="M66.331 157.051c-.127.081-.134.2-.011.271l3.3 1.892a.481.481 0 0 0 .458-.007l3.675-2.146c.12-.074.137-.194.014-.268l-3.3-1.9a.524.524 0 0 0-.458.014Z" fill="#c5c5cc"/><path data-name="Path 534" d="M119.748 130.928c-.127.081-.137.2-.014.268l3.308 1.9a.458.458 0 0 0 .451-.014l3.678-2.146c.127-.074.13-.194.007-.264l-3.3-1.9a.484.484 0 0 0-.455.011Z" fill="#c5c5cc"/><path data-name="Path 535" d="M114.753 133.859c-.13.074-.141.187-.011.25l3.312 1.9a.512.512 0 0 0 .447-.011l3.675-2.142c.127-.081.134-.2.014-.264l-3.312-1.9a.483.483 0 0 0-.455 0Z" fill="#c5c5cc"/><path data-name="Path 536" d="M109.76 136.774c-.13.074-.134.2-.011.268l3.3 1.881a.457.457 0 0 0 .451 0l3.68-2.149c.127-.078.13-.194.007-.257l-3.3-1.91a.519.519 0 0 0-.458.032Z" fill="#c5c5cc"/><path data-name="Path 537" d="M104.764 139.684c-.127.078-.134.2-.011.271l3.3 1.9a.5.5 0 0 0 .458-.014l3.675-2.142c.13-.085.137-.194.007-.268l-3.3-1.9a.537.537 0 0 0-.458.018Z" fill="#c5c5cc"/><path data-name="Path 538" d="M99.775 142.611c-.13.078-.137.194-.018.271l3.3 1.892a.523.523 0 0 0 .458-.014l3.675-2.142c.123-.078.134-.2.007-.264l-3.3-1.9a.486.486 0 0 0-.451.007Z" fill="#c5c5cc"/><path data-name="Path 539" d="M94.783 145.536c-.127.074-.134.194-.025.254l3.312 1.9a.474.474 0 0 0 .455-.007l3.668-2.146c.13-.074.137-.2.014-.254l-3.3-1.9a.472.472 0 0 0-.458.011Z" fill="#c5c5cc"/><path data-name="Path 540" d="M89.782 148.453c-.134.074-.137.2-.014.264l3.308 1.889a.418.418 0 0 0 .451-.007l3.675-2.146c.123-.063.137-.19.014-.254l-3.308-1.9a.5.5 0 0 0-.455.018Z" fill="#c5c5cc"/><path data-name="Path 541" d="M84.786 151.367c-.12.078-.137.2-.011.285l3.3 1.885a.493.493 0 0 0 .455-.007l3.678-2.153c.12-.078.13-.19.011-.268l-3.315-1.892a.484.484 0 0 0-.444.018Z" fill="#c5c5cc"/><path data-name="Path 542" d="M79.791 154.291c-.123.074-.134.194-.014.271l3.312 1.9a.509.509 0 0 0 .451-.014l3.675-2.146c.127-.07.134-.2.007-.264l-3.3-1.889a.466.466 0 0 0-.451 0Z" fill="#c5c5cc"/><path data-name="Path 543" d="M74.794 157.219c-.13.074-.134.19-.007.254l3.3 1.9a.448.448 0 0 0 .455-.018l3.671-2.139c.127-.078.134-.194.011-.261l-3.3-1.9a.481.481 0 0 0-.458.007Z" fill="#c5c5cc"/><path data-name="Path 544" d="M129.935 130.057c-.137.081-.137.194-.025.254l3.315 1.9a.458.458 0 0 0 .451-.011l5.546-3.234c.123-.074.127-.187.014-.264l-3.312-1.892a.483.483 0 0 0-.454.007Z" fill="#c5c5cc"/><path data-name="Path 545" d="M124.907 132.986c-.134.074-.141.2-.025.282l3.312 1.889a.486.486 0 0 0 .451-.007l3.671-2.149c.134-.077.137-.194.011-.268l-3.3-1.9a.54.54 0 0 0-.454.014Z" fill="#c5c5cc"/><path data-name="Path 546" d="M119.901 135.917c-.123.074-.141.183-.011.254l3.3 1.9a.463.463 0 0 0 .458-.014l3.675-2.132c.123-.078.13-.2.007-.261l-3.3-1.907a.486.486 0 0 0-.451.007Z" fill="#c5c5cc"/><path data-name="Path 547" d="M114.904 138.834c-.127.081-.134.2-.011.261l3.308 1.9a.535.535 0 0 0 .458-.007l3.668-2.153c.127-.074.13-.2.011-.257l-3.3-1.892a.49.49 0 0 0-.458 0Z" fill="#c5c5cc"/><path data-name="Path 548" d="M109.915 141.755c-.13.074-.134.2-.011.261l3.3 1.892a.426.426 0 0 0 .447 0l3.682-2.153c.13-.074.13-.19.007-.254l-3.312-1.9a.437.437 0 0 0-.444.014Z" fill="#c5c5cc"/><path data-name="Path 549" d="M104.923 144.676c-.134.07-.137.2-.018.268l3.308 1.889a.5.5 0 0 0 .451 0l3.675-2.153c.13-.078.13-.19.007-.264l-3.3-1.906a.541.541 0 0 0-.447.025Z" fill="#c5c5cc"/><path data-name="Path 550" d="M99.926 147.586c-.134.085-.134.208-.011.275l3.294 1.892a.543.543 0 0 0 .462-.007l3.675-2.142c.13-.088.134-.2.011-.271l-3.308-1.892a.523.523 0 0 0-.458.007Z" fill="#c5c5cc"/><path data-name="Path 551" d="M94.927 150.514c-.127.081-.134.2-.011.261l3.3 1.906a.513.513 0 0 0 .458-.018l3.677-2.149c.127-.07.127-.2.007-.25l-3.3-1.906a.493.493 0 0 0-.455.007Z" fill="#c5c5cc"/><path data-name="Path 552" d="M89.938 153.435c-.13.078-.141.2-.028.264l3.315 1.9a.467.467 0 0 0 .451-.007l3.678-2.149c.123-.074.127-.2.007-.261l-3.3-1.9a.492.492 0 0 0-.458.014Z" fill="#c5c5cc"/><path data-name="Path 553" d="M84.934 156.363a.142.142 0 0 0 0 .268l3.3 1.889a.5.5 0 0 0 .455-.011l3.671-2.139c.13-.081.134-.2.014-.271l-3.314-1.897a.515.515 0 0 0-.455 0Z" fill="#c5c5cc"/><path data-name="Path 554" d="M79.942 159.291c-.123.067-.13.2-.007.25l3.312 1.9a.462.462 0 0 0 .447-.018l3.672-2.132c.13-.078.134-.2.018-.264l-3.312-1.9a.48.48 0 0 0-.447.011Z" fill="#c5c5cc"/><path data-name="Path 555" d="M53.253 159.591c-.13.078-.137.19-.018.264l3.312 1.9a.474.474 0 0 0 .455-.007l4.084-2.382c.127-.074.328-.19.458-.275l3.738-2.188c.123-.07.134-.2.018-.257l-3.316-1.9a.484.484 0 0 0-.455.014l-3.735 2.177a5.169 5.169 0 0 1-.469.268Z" fill="#c5c5cc"/><path data-name="Path 556" d="M57.663 162.124c-.13.07-.137.2-.014.25l3.3 1.9a.466.466 0 0 0 .451 0l3.583-2.093c.13-.07.345-.2.479-.275l3.262-1.914c.13-.081.134-.19.018-.261l-3.3-1.9a.511.511 0 0 0-.458 0l-3.266 1.917c-.127.078-.345.2-.472.275Z" fill="#c5c5cc"/><path data-name="Path 557" d="M62.078 164.651c-.127.078-.148.194-.014.264l3.308 1.9a.516.516 0 0 0 .455-.011l6.74-3.939c.127-.081.342-.2.472-.275l1.6-.937c.13-.07.342-.2.469-.275l1.6-.941c.137-.078.141-.194.025-.261l-3.315-1.9a.479.479 0 0 0-.447.007l-1.6.937c-.127.078-.335.2-.462.271l-1.61.941c-.127.078-.342.19-.469.275Z" fill="#c5c5cc"/><path data-name="Path 558" d="M74.938 162.198c-.12.081-.13.2-.011.271l3.308 1.885a.462.462 0 0 0 .458 0l3.675-2.156c.123-.07.13-.183.007-.254l-3.312-1.9a.5.5 0 0 0-.447.014Z" fill="#c5c5cc"/><path data-name="Path 559" d="M66.454 167.166a.147.147 0 0 0-.011.275l3.3 1.881a.515.515 0 0 0 .455 0l4.408-2.576c.127-.085.338-.2.465-.275l.934-.55c.13-.074.335-.19.465-.271l.934-.55c.127-.07.127-.2.018-.254l-3.312-1.906a.517.517 0 0 0-.455.018l-.927.543c-.13.077-.345.2-.479.275l-.923.532c-.123.081-.338.2-.476.285Z" fill="#c5c5cc"/><path data-name="Path 560" d="M136.622 131.555c-.134.067-.134.194-.011.25l3.308 1.9a.435.435 0 0 0 .448-.018l3.545-2.068c.134-.067.134-.187.018-.254l-3.308-1.906a.6.6 0 0 0-.462.007Z" fill="#c5c5cc"/><path data-name="Path 561" d="M131.555 134.504c-.134.081-.141.194-.014.268l3.308 1.9a.448.448 0 0 0 .451 0l3.664-2.149c.13-.074.144-.19.021-.264l-3.308-1.9a.484.484 0 0 0-.455.014Z" fill="#c5c5cc"/><path data-name="Path 562" d="M126.559 137.435c-.127.063-.137.187-.014.257l3.315 1.91a.532.532 0 0 0 .444-.025l3.675-2.142c.13-.074.134-.187.014-.268l-3.308-1.889a.449.449 0 0 0-.451.007Z" fill="#c5c5cc"/><path data-name="Path 563" d="M121.564 140.356c-.134.074-.137.187-.007.257l3.3 1.892a.488.488 0 0 0 .462-.007l3.669-2.142c.123-.078.127-.2.011-.257l-3.308-1.9a.473.473 0 0 0-.455 0Z" fill="#c5c5cc"/><path data-name="Path 564" d="M90.744 158.379c-.141.078-.155.19-.042.268l3.315 1.9a.491.491 0 0 0 .476-.028l29.642-17.329c.137-.088.155-.2.039-.285l-3.309-1.889a.6.6 0 0 0-.479.021Z" fill="#c5c5cc"/><path data-name="Path 565" d="M86.077 161.094c-.127.074-.134.194-.014.268l3.308 1.9a.5.5 0 0 0 .455-.011l3.668-2.135c.127-.088.134-.2.014-.282l-3.3-1.885a.5.5 0 0 0-.458 0Z" fill="#c5c5cc"/><path data-name="Path 566" d="M81.09 164.019c-.134.081-.137.2-.021.261l3.312 1.9a.472.472 0 0 0 .458-.011l3.671-2.146c.116-.07.134-.194.011-.257l-3.3-1.889a.468.468 0 0 0-.462 0Z" fill="#c5c5cc"/><path data-name="Path 567" d="M76.095 166.944a.141.141 0 0 0-.018.264l1.3.736a.5.5 0 0 0 .455 0l3.682-2.156c.116-.078.123-.187.007-.261l-1.293-.74a.5.5 0 0 0-.458.007Z" fill="#c5c5cc"/><path data-name="Path 568" d="M78.099 168.093c-.13.074-.13.2-.014.264l1.3.74a.493.493 0 0 0 .455-.007l3.678-2.146c.123-.085.13-.194 0-.257l-1.293-.75a.479.479 0 0 0-.451.021Z" fill="#c5c5cc"/><path data-name="Path 569" d="M71.081 169.861c-.12.085-.134.2 0 .271l3.308 1.9a.547.547 0 0 0 .449-.021l3.67-2.136c.127-.085.134-.2.014-.268l-3.308-1.892a.486.486 0 0 0-.451.007Z" fill="#c5c5cc"/></g></g></g></svg>