<svg data-name="Group 223" xmlns="http://www.w3.org/2000/svg" xmlns:xlink="http://www.w3.org/1999/xlink" width="105.773" height="193.986" viewBox="0 0 105.773 193.986"><defs><clipPath id="b"><path data-name="Rectangle 103" fill="none" d="M0 0h105.773v193.986H0z"/></clipPath><clipPath id="c"><path data-name="Rectangle 97" fill="none" d="M0 0h105.772v193.987H0z"/></clipPath><clipPath id="d"><path data-name="Rectangle 96" fill="none" d="M0 0h69.056v40.568H0z"/></clipPath><clipPath id="e"><path data-name="Path 716" d="M18.132 30.692c-5.541 4.363-4.561 13.27-5.8 16.529 0 1.343 4.865.579 4.865.579l5.646-2.3 1.77-9.126-1.195-4.938a20.741 20.741 0 0 0-4.468-.933 1.265 1.265 0 0 0-.817.193" transform="translate(-12.331 -30.499)" fill="none"/></clipPath><clipPath id="f"><path data-name="Path 734" d="M17.207 37.372a4.965 4.965 0 0 1-1.3.215c-3.025-.21-3.756 3.233-3.756 3.233s-.425 9.8.98 10.949a8.9 8.9 0 0 0 5.629 1.793c1.407-.255 2.514-3.518 2.471-5.114a41.732 41.732 0 0 0-.466-4.222s1.622-1.628.978-2.261c-1.667-1.632-2.988-3.059-2.988-4.58 0-.167-.142-.23-.363-.23a6.086 6.086 0 0 0-1.182.217" transform="translate(-12.086 -37.155)" fill="none"/></clipPath><clipPath id="h"><path data-name="Rectangle 101" fill="none" d="M0 0h1.624v5.392H0z"/></clipPath><radialGradient id="g" cx="1.052" cy="-.15" r=".751" gradientTransform="matrix(1.563 0 0 -1 1.349 13.718)" xlink:href="#a"/><linearGradient id="a" x1="-1.115" y1="8.117" x2="-1.009" y2="8.117" gradientUnits="objectBoundingBox"><stop offset="0" stop-color="#f0c1ad"/><stop offset="1" stop-color="#d6997e"/></linearGradient></defs><g data-name="Group 222" clip-path="url(#b)"><g data-name="Group 210"><g data-name="Group 209" clip-path="url(#c)"><g data-name="Group 208" opacity=".3"><g data-name="Group 207"><g data-name="Group 206" clip-path="url(#d)" transform="translate(25.1 153.418)"><path data-name="Path 705" d="M62.164 3.983c-9.19-5.307-24.09-5.307-33.28 0-6.629 3.825-8.473 9.364-5.543 14.145-6.178-.686-12.811.35-17.6 3.111-7.656 4.421-7.656 11.593 0 16.014s20.079 4.419 27.737 0c5.009-2.894 6.738-6.961 5.2-10.666 8.042 1.405 17.129.279 23.488-3.389 9.19-5.307 9.19-13.909 0-19.217"/></g></g></g><path data-name="Path 706" d="m92.125 33.881 4.441-1.819c-1.09-3.866.446-10.516-.348-17.618a16.948 16.948 0 0 1-2.388-1.933c-.5-.581-2.047-4.49-1.253-5.284S94.796 9.1 94.796 9.1s-1.616-7.622.946-8.986c1.362-.727 6.092 2.207 6.611 3.7 1.678 4.831-.367 10.2-.367 10.2s4.578 16.381 3.666 19.92c-1.253 4.831-8.186 6.877-8.186 6.877Z" fill="#f0c6b4"/><path data-name="Path 707" d="M78.063 37.178c1.787-2.411 7.126-1.253 16.563-5.116 5.457.339 4.2 9.093 4.2 9.093s-9.263 4.319-12.324 9.435c-1.991 3.068-10.518-10.574-10.518-10.574s.292-.433 2.081-2.84" fill="#9c251f"/><path data-name="Path 708" d="M63.377 36.13c-.009 4.23-1.939 5.82-1.939 5.82l.4 3.355 6.991 5.286 7.1-2.047 2.84-3.67-4.887-8.744-7.163-.886s-3.447.236-3.344.886" fill="#c7a496"/><path data-name="Path 709" d="M81.187 155.44c2.39 3.447 8.864 6.777 9.8 8.355.474.792-.054 3.578-.564 3.75-6.025 1.706-12.486-4.144-12.486-4.144-1.5.3-6.341-1.24-7.705-2.774-1.107-1.246.384-6.122.384-6.122s9.462 1.15 10.571.935" fill="#121214"/><path data-name="Path 710" d="M86.501 86.741c3.01 18.292.358 36.532.738 40.681s-4.547 18.528-3.752 28.644c-1.817 2.047-9.773 4.091-14.15-.568 1.647-9.776 2.216-19.9 5.172-28.188-1.366-7.163-6.339-24.219-6.339-24.219s17.022-18.272 18.331-16.35" fill="#939598"/><path data-name="Path 711" d="M60.046 162.191c.764 3.735 4.046 8.815 5.035 10.265s1.373 3.548.526 4.32c-3.7 3.342-8.435 1.264-10.449-1.264-2.162-2.714-3.52-9.136-3.638-9.758s1.705-4.773 1.705-4.773 5.764.714 6.822 1.21" fill="#121214"/><path data-name="Path 712" d="M56.719 89.729c-6.65 8.6-6.88 73.076-6.88 73.076s6.163 1.785 11.322-.83c-.069-20.686 12.095-56.83 12.095-56.83s10.571-5.8 13.244-18.406c-.234-1.624-9.583-5.2-9.583-5.2s-16.788 4.372-20.2 8.192" fill="#bcbec0"/><path data-name="Path 713" d="m58.079 85.353-1.36 4.377s13.129 10.072 29.782-2.99l-.689-4.825Z" fill="#3c2415"/><path data-name="Path 714" d="M61.438 41.949s7.5 8.866 13.073 5.8c3.147-1.735.112-9.889.112-9.889h3.314s9.414 2.27 9.814 15.802c.275 9.462-2.555 17.329-1.877 27.613.343 5.176-20.9 13.83-27.838 3.911-.577-12.206-4.078-18.429-5.509-22.366s1.924-14.564 1.924-14.564Z" fill="#e31b25"/><path data-name="Path 715" d="M39.415 60.05c3.409-2.557 9.407-9.745 15.037-11.788.611.088 6.674 7.823 4.408 12.152-1.493 2.855-4.481 1.141-11.779 7.823-1.491.622-11.073-5.625-7.663-8.184" fill="#9c251f"/></g></g><g data-name="Group 212"><g data-name="Group 211" clip-path="url(#e)" transform="translate(26.452 65.426)"><path data-name="Rectangle 98" transform="rotate(-78.297 8.844 10.864)" fill="url(#a)" d="M0 0h20.18v15.69H0z"/></g></g><g data-name="Group 214"><g data-name="Group 213" clip-path="url(#c)"><path data-name="Path 717" d="M35.73 73.393a11.226 11.226 0 0 1-1.233 4.814v2.643l4.235 3.921 5.8-.44 3.042-2.658.109-7.525-7.587-1.482s-5.52-2.327-4.366.727" fill="#c7a496"/><path data-name="Path 718" d="M51.174 175.728c.71 2.441 7.191 5.206 8.707 5.745.723.255 1.564 2.31 1.182 4.016-.178.792-1.107 2.557-5.8 1.362-2.555-.648-5.71-3.492-5.71-3.492s-6.33-.315-6.335-2.883a20.257 20.257 0 0 1 .744-5.466Z" fill="#fff"/><path data-name="Path 719" d="M43.972 175.011c.075-.337.146-.7.221-1.1.967-5.086.028-14.317.6-16.988a26.96 26.96 0 0 1 1.617-4.973l-1.789-7.33 11.082-3.07s-.285 8.894 0 11.168-5.17 20.572-4.52 23.016c.455 2.7-6.62 3.694-7.21-.719" fill="#f0c6b4"/><path data-name="Path 720" d="m55.224 118.785 1.5 22.763s-5.8 4.827-12.9 3.634c-.114-.448-2.954-13.013-2.954-13.013Z" fill="#9c251f"/><path data-name="Path 721" d="M36.035 178.741c.225.937 4.754 6.729 5.359 8s.388 3.535-.528 4.05c-2.448 1.366-6.44.772-8.141-.3-.843-.53-3.8-5.547-3.851-7.482s.862-3.462.862-4.239Z" fill="#fff"/><path data-name="Path 722" d="M29.736 178.763c.3-3.462-2.909-14.817-2.6-18.228a17.279 17.279 0 0 1 1.54-5.777s-.315-8.07 0-9.8 11.794-.538 11.681 1.193c-.058 4.631-3.5 12.446-3.5 12.446s-2.278 17.79-.819 20.148c.225 3.891-5.657 3.464-6.3.021" fill="#f0c6b4"/><path data-name="Path 723" d="M29.269 121.628c-.963 5-1.028 15.233-1.708 22.958.629 2.332 9.664 6.367 14.95.682 1.036-7.1 1.607-11.633 1.875-12.729 9.227-3.652 10.837-13.58 10.837-13.58s-24.76.622-25.955 2.669" fill="#e31b25"/><path data-name="Path 724" d="M59.702 93.638a35.3 35.3 0 0 0 1.62 4.262c3.158 2.218 10.059 18.775 10.059 18.775s5.741 5.464 6.309 6.886.056 6.137-.622 6.877-4.661-.06-5.232-1.536a6.509 6.509 0 0 1-.026-3.439s-3.1-2.926-3.555-3.608-.4-2.1-.455-3.07c-2.954-4.831-9.673-10.443-12.095-17.05a25.2 25.2 0 0 0-2.482-4.859Z" fill="#f0c6b4"/><path data-name="Path 725" d="M50.497 73.52c5.455 1.448 6.221 7.075 6.221 7.075l3.838 13.39a13.223 13.223 0 0 1-7.5 4.26c-.429-4.434-5.884-21.231-5.884-21.231s1.963-3.495 3.327-3.495" fill="#174666"/><path data-name="Path 726" d="M27.566 93.799c-.079 2.476 1.444 9.3 1.705 15.184a96.637 96.637 0 0 1-.6 13.129c7.759 8.836 25.83-2.471 27.023-3.495-.766-5.968-.616-29.522-1.362-34.282a15.475 15.475 0 0 0-4.6-8.171l-6.137.227s5.455 4.091.794 5.912-9.891-4.093-9.891-4.093l-6.249 5s-.511 5.3-.682 10.589" fill="#2b5e85"/><path data-name="Path 727" d="M19.612 98.246s-3.821-.545-4.831-3.954a4.167 4.167 0 0 1 1.759-4.938l4.6 2.323Z" fill="#3576ab"/><path data-name="Path 728" d="M5.146 74.31c1.847 1.392 2.643 4.835 2.643 4.835s2.13.371 2.047 1.791a11.663 11.663 0 0 1-1.195 3.4c1.081 3.422 3.694 4.73 4.093 6.955 0 0 3.437-1.3 5.284-2.255.91-.234 2.9 4.007 2.9 4.007l-.6 3.115s-7.66 4.106-9.719 3.536c-5.2-1.448-5.539-11.256-6.479-13.386C3.773 85.46.967 83.62.199 81.539s.841-5.26 1.705-6.1 2.559-1.639 3.239-1.128" fill="#f0c6b4"/><path data-name="Path 729" d="M16.539 89.353c4.546 3.175 3.072 8.892 3.072 8.892l11.706-4.576s1.753-7.778-.489-9.121-11.788 3.906-14.289 4.805" fill="#174666"/><path data-name="Path 730" d="M51.438 64.856a37.5 37.5 0 0 1-1.547 13.543c-.416.789-2.9 1.487-3.911 1.257-6.779-1.534-8.982-6.049-8.982-6.049s-2.358.511-3.237-3.3a16.359 16.359 0 0 1-.684-3.578l4.039-3.909 8.806-1.319 2.727.339s2.54 1.939 2.789 3.016" fill="#f0c6b4"/><path data-name="Path 731" d="M76.501 21.851c2.752 1.778 3.685 6.862 3.69 7.54a2.022 2.022 0 0 1-.708 1.684c1.444 2.25-1.109 11.393-1.508 12.18a3.49 3.49 0 0 1-3.351 1.561c-9.035-1.991-9.323-7.643-9.323-7.643a5.389 5.389 0 0 1-3.52-3.372c-.369-1.362-.826-3.808-.826-3.808l1.306-4.49 3.469-5.055h6.137s4.1 1.158 4.634 1.4" fill="#f0c6b4"/><path data-name="Path 732" d="M61.781 33.804s-.483-2.9.937-2.814 3.754 3.411 3.754 3.411a10.768 10.768 0 0 0 1.188-5.369c-.154-1.424-2.812-4.035-1.59-5.4 2.244-2.328 7.227 3.246 10.591.285 1.742-1.534-5.59-10.91-13.148-4.546-7.56 6.423-1.733 14.435-1.733 14.435" fill="#603913"/><path data-name="Path 733" d="M35.068 68.404c1.705-.142 2.388 2.812 2.388 2.812s.285-2.954 1.45-3.494 3.381 2.358 7.244.313c-1.448-.455-.425-2.529-.425-2.529s2.937 1.186 6.8-1.257c-1.877-1.195-2.8-9.57-14.049-8.205-.457.341-.68-1.62-.68-1.62l-1.452 1.961h-2.87s1.407 1.517 1.068 1.916c-4.887 4.653-.78 12.008-.78 12.008s-.4-1.763 1.306-1.9" fill="#ff8400"/></g></g><g data-name="Group 216"><g data-name="Group 215" clip-path="url(#f)" transform="translate(25.926 79.704)"><path data-name="Rectangle 100" transform="translate(-.364)" fill="url(#g)" d="M0 0h10.662v16.662H0z"/></g></g><g data-name="Group 221"><g data-name="Group 220" clip-path="url(#c)"><g data-name="Group 219" opacity=".2"><g data-name="Group 218"><g data-name="Group 217" clip-path="url(#h)" transform="translate(12.221 91.289)"><path data-name="Path 735" d="M.515 0a6.482 6.482 0 0 1-.512 5.393C3.328 3.54.518 0 .518 0" fill="#121214"/></g></g></g></g></g></g></svg>