<svg data-name="Group 84" xmlns="http://www.w3.org/2000/svg" xmlns:xlink="http://www.w3.org/1999/xlink" width="226.777" height="143.155" viewBox="0 0 226.777 143.155"><defs><clipPath id="d"><path data-name="Rectangle 44" fill="none" d="M0 0h226.777v143.155H0z"/></clipPath><clipPath id="e"><path data-name="Path 101" d="M60.881 501v-12.344l-9.246-5.3v12.32Z" transform="translate(-51.635 -483.355)" fill="none"/></clipPath><clipPath id="f"><path data-name="Path 104" d="M164.206 563.1v-12.34l-9.279-5.3v12.32Z" transform="translate(-154.927 -545.464)" fill="none"/></clipPath><clipPath id="h"><path data-name="Path 107" d="M411.092 512.68v-12.336l9.243-5.3v12.323Z" transform="translate(-411.092 -495.04)" fill="none"/></clipPath><clipPath id="i"><path data-name="Rectangle 20" fill="none" d="M0 0h2.717v4.079H0z"/></clipPath><clipPath id="j"><path data-name="Path 123" d="M534.74 446.433a4.361 4.361 0 0 0-2.071 3.4l3.736-2.175v-.069a1.507 1.507 0 0 0-.611-1.342 1.489 1.489 0 0 0-.251-.021 1.793 1.793 0 0 0-.8.207" transform="translate(-532.669 -446.226)" fill="none"/></clipPath><clipPath id="l"><path data-name="Path 125" d="M532.669 463.572V477.1l3.668-2.192V461.4Z" transform="translate(-532.669 -461.397)" fill="none"/></clipPath><clipPath id="n"><path data-name="Path 145" d="M798.864 585.124a4.844 4.844 0 0 0-2.312 3.755l4.145-2.413v-.066a1.688 1.688 0 0 0-.679-1.5 1.753 1.753 0 0 0-.266-.021 1.832 1.832 0 0 0-.888.243" transform="translate(-796.552 -584.881)" fill="none"/></clipPath><clipPath id="p"><path data-name="Path 147" d="M796.552 604.1v14.992l4.079-2.414v-15.007Z" transform="translate(-796.552 -601.671)" fill="none"/></clipPath><clipPath id="r"><path data-name="Path 150" d="m394.622 611.88 9.243 5.317v-12.336l-9.243-5.321Z" transform="translate(-394.622 -599.54)" fill="none"/></clipPath><clipPath id="t"><path data-name="Path 153" d="m500.942 674.069 9.279 5.317V667.05l-9.279-5.3Z" transform="translate(-500.942 -661.746)" fill="none"/></clipPath><clipPath id="v"><path data-name="Path 156" d="M660.946 642.764V655.1l9.243-5.32v-12.32Z" transform="translate(-660.946 -637.463)" fill="none"/></clipPath><clipPath id="x"><path data-name="Rectangle 36" fill="none" d="M0 0h19.038v13H0z"/></clipPath><clipPath id="y"><path data-name="Path 168" d="M1070.4 231.684c-.748-.664 1.189-.647.51-1.734a5.675 5.675 0 0 0-1.019-.68 4.606 4.606 0 0 0-.408-.186c-.509-.17-.816-.121-1.051-.238a1.151 1.151 0 0 1-.343-.323c-.271-.424.137-1.391-.542-1.734a1.986 1.986 0 0 0-.849-.118l-.17.153a1.265 1.265 0 0 0-.477-.408c-.68-.339-1.156.324-1.63.457-.817.239-1.326-.389-2.143.089-.849.473-.781.712-2.143.169-1.427-.562-1.189-.238-2.139.2-.614.287-.238.186-1.088.017a3.527 3.527 0 0 0-1.6-.153c-1.192.238-.679.954-1.156 1.464-.51.542-1.633.424-1.528 1.29.065.646.473.953.134 1.58a2.572 2.572 0 0 0 1.123 2.567 1.575 1.575 0 0 1 .134.866c-.068.323.376.562.546.85.271.444.17.391.17.832a.841.841 0 0 0 .474.9 2.411 2.411 0 0 0 1.156.186 2.6 2.6 0 0 0 1.5-.509 2.863 2.863 0 0 0 .441.238 3.592 3.592 0 0 0 1.123.392c.477.1 1.019-.1 1.529.134.409.205.34.461.611.68a3.34 3.34 0 0 0 .683.46c1.6.817 1.9-1.2 2.924-1.427-.036.186.17.477.509.647a1 1 0 0 0 .542.118c.545-.033.679-.834.849-1.088a1.514 1.514 0 0 1 1.088-.715c.51-.086 1.156.189 1.532.052.51-.138 1.153-.562.95-.882s-.069-.767-.271-1.039c-.036-.049-.068-.117-.1-.169a1.3 1.3 0 0 0 .715-.866.488.488 0 1 1 .542-.8c.513-.558-.542-.8-1.12-1.273" transform="translate(-1052.62 -226.32)" fill="none"/></clipPath><clipPath id="A"><path data-name="Path 169" d="M1068.567 246.465a2.885 2.885 0 0 0-1.9 1.019c-.375.663.134 1.614-.715 2.123-.542.306-3.4.46-2.956 1.378.3.663 2.107.307 2.074 1.375-.036.748-.748 1.293-.206 2.107.578.869 2.277 1.14 3.433.748.441-.15.68-.594 1.189-.626.477-.017.646.287 1.054.372 3.126.647 1.157-1.9 1.8-2.684a1.125 1.125 0 0 0 1.362.222c.372-.307-.206-1.121-.274-1.464a1.1 1.1 0 0 1 .17-1.221c.307-.307.987-.376 1.156-.68.238-.375.34-1.1-.069-1.326-.4-.206-.712-.7-1.052-.866a2.7 2.7 0 0 0-3.161.085l.271-.205a4.182 4.182 0 0 0-1.545-.428 3.077 3.077 0 0 0-.63.072" transform="translate(-1062.949 -246.393)" fill="none"/></clipPath><clipPath id="B"><path data-name="Path 170" d="m1055.381 237.511.1.069a5.553 5.553 0 0 0-2.479-.408c-.647.085-.408.138-.849.392-.376.2-.137.272-.683.425-.882.27-1.12.017-1.29.918-.137.526.2 1.019.17 1.529-.951.255-1.46.764-1.565 1.444-.033.375.069.614-.2.9-.271.307-.748.355-.95.748-.408.764-1.124 1.395-.647 2 .51.594 1.222.866 1.6 1.464.238.339.748.339 1.12.525.545.307.444.307.784.732a1.365 1.365 0 0 0 2.107.255c.882-.631.34-1.548 1.257-2.11 1.225-.745 3.364.069 3.874-1.29.647-1.666-2.616-2.022-2.244-3.619 2.28-.63 5.543-2.005 4.285-3.877a8.221 8.221 0 0 0-2.041-.849.818.818 0 0 0-.311-.058c-.7 0-1.533.746-2.034.806" transform="translate(-1046.829 -236.705)" fill="none"/></clipPath><clipPath id="D"><path data-name="Path 171" d="M1030.622 212.324v.2c-1.564-.559-1.189.647-1.463 1.088-.4.63-1.29.29-1.492 1.123-.17.866.065 1.052-1.4 1.206-1.5.153-1.055.356-1.359 1.224-.17.579-.036.288-.784.559-.542.189-.95.222-1.257.63-.643.8.307 1.257.376 1.953.1.764-.817 1.208 0 1.989.578.578 1.12.68 1.391 1.444.205.562 2 2.058 3.2 1.921a1.613 1.613 0 0 0 1.359-1.646c.1-1.124-1.123-2.175.542-2.211 1.6-.016 2.074-.51 1.77-1.649-.206-.882-1.225-2.021.575-2.43a1.764 1.764 0 0 1 1.643.42 1.855 1.855 0 0 0 1.418.465c1.156-.117 1.189-1 2.142-1.358.813-.291 2.175-.291 2.071-1.241-.1-.781-1.088-.493-1.868-.68-1.12-.271.307-1.189-1.088-1.9a5.173 5.173 0 0 0-1.767-.137c-.748.137-.748.477-1.464.137-.559-.279-1.077-1.4-1.849-1.4a1.109 1.109 0 0 0-.7.293" transform="translate(-1022.649 -212.031)" fill="none"/></clipPath><clipPath id="F"><path data-name="Path 172" d="M1049.243 222.611v.1c-.748-.288-.578.307-.716.526-.2.307-.646.137-.712.545-.1.424 0 .525-.715.594-.712.085-.51.186-.647.611-.1.274 0 .137-.4.274-.239.085-.477.1-.614.3-.3.392.17.614.205.953.033.389-.408.594-.035.983.307.29.578.339.715.715a2.147 2.147 0 0 0 1.561.934c.513-.053.646-.562.683-.8.033-.562-.546-1.071.235-1.087s1.022-.255.885-.817c-.1-.424-.611-.986.271-1.189a.868.868 0 0 1 .813.2.9.9 0 0 0 .683.224c.578-.052.611-.493 1.088-.663.375-.137 1.055-.137.986-.614-.036-.372-.51-.235-.918-.32-.545-.137.17-.6-.51-.938a2.257 2.257 0 0 0-.885-.065c-.373.065-.373.235-.712.065-.266-.146-.532-.688-.912-.688a.542.542 0 0 0-.345.145" transform="translate(-1045.333 -222.466)" fill="none"/></clipPath><clipPath id="H"><path data-name="Path 177" d="M623.59 0c-12.048 0-21.561 9.568-21.561 21.982 0 12.865 10.266 23.947 22.977 24.727 12.744.781 23.009-9.04 23.009-21.905 0-12.881-10.265-23.98-23.009-24.76Q624.3 0 623.6 0Z" transform="translate(-602.029)" fill="none"/></clipPath><clipPath id="J"><path data-name="Path 181" d="M925.682 206.927c0 12.865 10.266 23.947 22.977 24.727 12.744.781 23.009-9.04 23.009-21.905 0-12.881-10.265-23.98-23.009-24.76a22.347 22.347 0 0 0-1.412-.043c-12.05 0-21.565 9.566-21.565 21.982" transform="translate(-925.682 -184.945)" fill="none"/></clipPath><linearGradient id="a" x1="-.934" y1="3.535" x2="-.915" y2="3.535" gradientUnits="objectBoundingBox"><stop offset="0" stop-color="#74a5c5"/><stop offset="1" stop-color="#6c93af"/></linearGradient><linearGradient id="g" x1="-2.791" y1="2.946" x2="-2.773" y2="2.946" xlink:href="#a"/><linearGradient id="b" x1="-7.435" y1="3.424" x2="-7.417" y2="3.424" gradientUnits="objectBoundingBox"><stop offset="0" stop-color="#4f748f"/><stop offset="1" stop-color="#415e73"/></linearGradient><linearGradient id="k" x1="-23.833" y1="19.003" x2="-23.788" y2="19.003" xlink:href="#b"/><linearGradient id="m" x1="-24.278" y1="4.204" x2="-24.233" y2="4.204" xlink:href="#b"/><linearGradient id="o" x1="-32.129" y1="11.348" x2="-32.089" y2="11.348" xlink:href="#b"/><linearGradient id="q" x1="-32.644" y1="2.444" x2="-32.603" y2="2.444" xlink:href="#b"/><linearGradient id="s" x1="-7.137" y1="2.431" x2="-7.119" y2="2.431" xlink:href="#a"/><linearGradient id="u" x1="-9.025" y1="1.844" x2="-9.007" y2="1.844" xlink:href="#a"/><linearGradient id="w" x1="-11.954" y1="2.074" x2="-11.936" y2="2.074" xlink:href="#b"/><linearGradient id="z" x1="-7.073" y1="5.436" x2="-7.066" y2="5.436" gradientUnits="objectBoundingBox"><stop offset="0" stop-color="#d8d8d8"/><stop offset=".929" stop-color="#6f7072"/><stop offset="1" stop-color="#6f7072"/></linearGradient><linearGradient id="C" x1="-10.609" y1="6.004" x2="-10.599" y2="6.004" gradientUnits="objectBoundingBox"><stop offset="0" stop-color="#31881b"/><stop offset=".061" stop-color="#27831b"/><stop offset=".193" stop-color="#197d1c"/><stop offset=".302" stop-color="#147b1d"/><stop offset=".433" stop-color="#13721b"/><stop offset=".639" stop-color="#105c18"/><stop offset=".894" stop-color="#0c3712"/><stop offset="1" stop-color="#0a2610"/></linearGradient><radialGradient id="c" cx=".043" cy=".057" r="1.127" gradientUnits="objectBoundingBox"><stop offset="0" stop-color="#31881b"/><stop offset=".379" stop-color="#147b1d"/><stop offset=".494" stop-color="#13731b"/><stop offset=".667" stop-color="#105e18"/><stop offset=".876" stop-color="#0c3d13"/><stop offset="1" stop-color="#0a2610"/></radialGradient><radialGradient id="E" cx=".128" cy=".163" r="1.114" xlink:href="#c"/><radialGradient id="G" cx="-.012" cy=".382" r="2.487" xlink:href="#c"/><radialGradient id="I" cx="-.042" cy=".164" r="1.187" gradientUnits="objectBoundingBox"><stop offset="0" stop-color="#7eb832"/><stop offset=".095" stop-color="#76b22d"/><stop offset=".241" stop-color="#60a320"/><stop offset=".419" stop-color="#3e8b0b"/><stop offset=".5" stop-color="#2c7f00"/><stop offset="1" stop-color="#1a6100"/></radialGradient></defs><g data-name="Group 83" clip-path="url(#d)"><path data-name="Path 92" d="m110.495 104.613-9.008 37.916 44.183.627 40.241-22.755-56.789-32.713Z" fill="rgba(0,0,0,0.15)"/><path data-name="Path 93" d="m50.301 88.096-9 37.9 44.184.63 40.242-22.739-56.794-32.713Z" fill="rgba(0,0,0,0.15)"/><path data-name="Path 94" d="m41.261 125.822-.066-32.321 64.032-36.384V86.86Z" fill="#cac4c4"/><path data-name="Path 95" d="m41.26 123.749-37.044-22.4V67.908l18.724-2.09 18.32 27.664Z" fill="#f7f1f1"/><path data-name="Path 96" d="M41.261 123.324v2.6L2.685 103.493v-2.362Z" fill="#bdc0cd"/><path data-name="Path 97" d="M41.26 123.324v2.6l64.985-38.507v-2.4Z" fill="#9497a4"/><path data-name="Path 98" d="M105.227 85.072v-.765l1.019.712-64.985 38.3v-.594Z" fill="#7a7d8a"/><path data-name="Path 99" d="M4.148 100.67v.595l37.113 21.465v.594L2.685 101.131Z" fill="#aeb1be"/><path data-name="Path 100" d="M18.936 85.326v15.125L7.583 93.925V78.817Z" fill="#b1b4c1"/><g data-name="Group 22"><g data-name="Group 21" clip-path="url(#e)" transform="translate(8.632 80.806)"><path data-name="Rectangle 17" fill="url(#a)" d="M0 0h9.246v17.64H0z"/></g></g><path data-name="Path 102" d="M9.619 92.55V81.416l-.986-.611v12.32l9.246 5.325v-1.189Z" fill="#fff"/><path data-name="Path 103" d="M36.229 95.693v15.123l-11.386-6.526V89.184Z" fill="#b1b4c1"/><g data-name="Group 24"><g data-name="Group 23" clip-path="url(#f)" transform="translate(25.9 91.189)"><path data-name="Rectangle 18" fill="url(#g)" d="M0 0h9.279v17.64H0z"/></g></g><path data-name="Path 105" d="M26.919 102.914 26.886 91.8l-.986-.611v12.32l9.279 5.32v-1.189Z" fill="#fff"/><path data-name="Path 106" d="M67.772 87.348v14.854l11.15-6.408V80.943Z" fill="#9497a4"/><g data-name="Group 26"><g data-name="Group 25" clip-path="url(#h)" transform="translate(68.725 82.759)"><path data-name="Rectangle 19" fill="url(#b)" d="M0 0h9.243v17.64H0z"/></g></g><path data-name="Path 108" d="M76.982 94.485V83.373l.986-.614v12.323l-9.243 5.317V99.21Z" fill="#e2dcdc"/><path data-name="Path 109" d="M63.865 33.206.036 70.217l21.955-1.868 63.9-37.387Z" fill="#ec5c4d"/><path data-name="Path 110" d="m21.585 68.297 21.55 26.919 64.27-36.877-21.72-27.479Z" fill="#c74f42"/><path data-name="Path 111" d="m0 70.185 2.753.781 18.388-1.581 19.815 24.388 2.175 1.326-21.448-26.8Z" fill="#a84437"/><g data-name="Group 31"><g data-name="Group 30" clip-path="url(#d)"><g data-name="Group 29" style="mix-blend-mode:multiply;isolation:isolate"><g data-name="Group 28"><g data-name="Group 27" clip-path="url(#i)" transform="translate(86.875 40.14)"><path data-name="Path 112" d="M.882 4.08 2.718.001.001.308Z" fill="#ccc"/></g></g></g></g></g><path data-name="Path 113" d="M87.756 44.219v-5.066l-4.112.885v6.49Z" fill="#beb19f"/><path data-name="Path 114" d="m83.644 46.524-3.534-4.452v-2.717l3.534.679Z" fill="#eaebdc"/><path data-name="Path 115" d="m80.113 39.359 4.112-2.381 3.534 2.175-4.112 2.26Z" fill="#f2f2f2"/><path data-name="Path 116" d="m86.26 39.121-2.139-1.208-2.45 1.447 2 1.205Z" fill="#4d4d4d"/><path data-name="Path 117" d="M84.121 37.912v2.414l2.139-1.205Z" fill="#333"/><path data-name="Path 118" d="M85.379 74.927v21.837l11.01-6.408V68.248Z" fill="#e8e2e2"/><path data-name="Path 119" d="m86.466 96.49 9.073-5.487V69.809l-9.348 5.66v20.956Z" fill="#847e84"/><path data-name="Path 120" d="M95.54 91.306V70.1l-9.073 5.471v20.955Z" fill="#7d808d"/><path data-name="Path 121" d="m94.828 91.088-.036-19.815-7.646 4.553v19.718Z" fill="#9497a4"/><g data-name="Group 33"><g data-name="Group 32" clip-path="url(#d)"><path data-name="Path 122" d="M92.18 74.62a1.507 1.507 0 0 1 .611 1.342v.069l-3.736 2.175v.356l4.181-2.43v-.066a1.307 1.307 0 0 0-1.055-1.444" fill="#e2dcdc"/></g></g><g data-name="Group 35"><g data-name="Group 34" clip-path="url(#j)" transform="translate(89.05 74.599)"><path data-name="Rectangle 23" fill="url(#k)" d="M0 0h3.736v3.608H0z"/></g></g><g data-name="Group 37"><g data-name="Group 36" clip-path="url(#d)"><path data-name="Path 124" d="m92.717 90.647-3.668 2.192v.558l4.145-2.462V76.848l-.477.287Z" fill="#e2dcdc"/></g></g><g data-name="Group 39"><g data-name="Group 38" clip-path="url(#l)" transform="translate(89.05 77.135)"><path data-name="Rectangle 25" fill="url(#m)" d="M0 0h3.668v15.704H0z"/></g></g><g data-name="Group 41"><g data-name="Group 40" clip-path="url(#d)"><path data-name="Path 126" d="M94.452 82.387a.4.4 0 0 1-.372.389.362.362 0 0 1-.376-.356.392.392 0 0 1 .376-.389.361.361 0 0 1 .372.356" fill="#999"/><path data-name="Path 127" d="m101.386 142.375.069-32.409-44.491-22.8v29.466Z" fill="#f7f1f1"/><path data-name="Path 128" d="m101.386 141.203 42.893-25.865-.1-34.585-19.544-1.274-23.248 30.453Z" fill="#cac4c4"/><path data-name="Path 129" d="M101.386 139.586v2.887l44.523-25.88v-2.636Z" fill="#9497a4"/><path data-name="Path 130" d="M101.386 139.589v2.887l-44.422-25.88v-2.652Z" fill="#bdc0cd"/><path data-name="Path 131" d="M56.963 113.552v.493l44.422 25.544v-.7Z" fill="#aeb1be"/><path data-name="Path 132" d="M144.244 113.434v.7l-42.858 24.76v.7l44.523-25.629Z" fill="#7a7d8a"/><path data-name="Path 133" d="m106.687 57.642 43.334 24.812-25.08-2.126-44.828-26.033Z" fill="#c74f42"/><path data-name="Path 134" d="m125.415 80.28-24.607 30.723-44.25-23.6L80.352 54.18Z" fill="#ec5c4d"/><path data-name="Path 135" d="m150.056 82.436-24.744-2.155-24.506 30.602 2.482-1.512 22.634-27.834 20.972 1.783Z" fill="#a84437"/><path data-name="Path 136" d="M106.347 85.464v-6.526l5.3 1.136v8.382Z" fill="#eaebdc"/><path data-name="Path 137" d="m111.652 88.451 4.553-5.742v-3.5l-4.553.865Z" fill="#beb19f"/><path data-name="Path 138" d="m116.205 79.209-5.3-3.077-4.556 2.806 5.3 2.9Z" fill="#f2f2f2"/><path data-name="Path 139" d="m108.251 78.902 2.753-1.564 3.162 1.871-2.583 1.545Z" fill="#4d4d4d"/><path data-name="Path 140" d="M111.004 77.337v3.112l-2.753-1.548Z" fill="#333"/><path data-name="Path 141" d="m130.275 122.441 10.1-5.846V92.801l-.271-.169-10.1 6.1v23.64Z" fill="#e2dcdc"/><path data-name="Path 142" d="M140.37 116.611V92.786l-10.1 6.069v23.569Z" fill="#7d808d"/><path data-name="Path 143" d="m139.586 116.086-.036-21.99-8.531 5.046v21.873Z" fill="#9497a4"/><path data-name="Path 144" d="M136.63 97.799a1.688 1.688 0 0 1 .679 1.5v.069l-4.145 2.413v.405l4.621-2.7v-.068a1.44 1.44 0 0 0-1.156-1.614" fill="#e2dcdc"/></g></g><g data-name="Group 43"><g data-name="Group 42" clip-path="url(#n)" transform="translate(133.165 97.778)"><path data-name="Rectangle 27" fill="url(#o)" d="M0 0h4.145v3.999H0z"/></g></g><g data-name="Group 45"><g data-name="Group 44" clip-path="url(#d)"><path data-name="Path 146" d="m137.244 115.593-4.079 2.413v.627l4.621-2.718v-15.634l-.542.3Z" fill="#e2dcdc"/></g></g><g data-name="Group 47"><g data-name="Group 46" clip-path="url(#p)" transform="translate(133.165 100.585)"><path data-name="Rectangle 29" fill="url(#q)" d="M0 0h4.079v17.421H0z"/></g></g><g data-name="Group 49"><g data-name="Group 48" clip-path="url(#d)"><path data-name="Path 148" d="M139.181 106.427a.459.459 0 0 1-.441.424.412.412 0 0 1-.408-.408.441.441 0 0 1 .408-.424.412.412 0 0 1 .441.408" fill="#999"/><path data-name="Path 149" d="M76.27 104.749v15.125l-11.353-6.526V98.24Z" fill="#b1b4c1"/></g></g><g data-name="Group 51"><g data-name="Group 50" clip-path="url(#r)" transform="translate(65.972 100.229)"><path data-name="Rectangle 31" fill="url(#s)" d="M0 0h9.243v17.657H0z"/></g></g><g data-name="Group 53"><g data-name="Group 52" clip-path="url(#d)"><path data-name="Path 151" d="m66.99 111.97-.033-11.111-.987-.631v12.34l9.243 5.317v-1.189Z" fill="#fff"/><path data-name="Path 152" d="M94.043 115.149v15.125l-11.35-6.526v-15.105Z" fill="#b1b4c1"/></g></g><g data-name="Group 55"><g data-name="Group 54" clip-path="url(#t)" transform="translate(83.746 110.628)"><path data-name="Rectangle 33" fill="url(#u)" d="M0 0h9.279v17.64H0z"/></g></g><g data-name="Group 57"><g data-name="Group 56" clip-path="url(#d)"><path data-name="Path 154" d="m84.764 122.357-.033-11.1-.986-.63v12.325l9.279 5.317v-1.172Z" fill="#fff"/><path data-name="Path 155" d="M109.544 111.158v14.851l11.147-6.405v-14.838Z" fill="#9497a4"/></g></g><g data-name="Group 59"><g data-name="Group 58" clip-path="url(#v)" transform="translate(110.495 106.569)"><path data-name="Rectangle 35" fill="url(#w)" d="M0 0h9.243v17.64H0z"/></g></g><g data-name="Group 66"><g data-name="Group 65" clip-path="url(#d)"><path data-name="Path 157" d="m118.719 118.306.036-11.13.983-.611v12.32l-9.243 5.32v-1.192Z" fill="#e2dcdc"/><path data-name="Path 158" d="m142.003 119.057-9.926 5.863v1.836l9.926-5.867Z" fill="#c0c6c1"/><path data-name="Path 159" d="m130.31 123.885 1.767 1.036v1.836l-1.767-1.035Z" fill="#a4a7b4"/><path data-name="Path 160" d="m142.003 119.058-9.926 5.863-1.767-1.038 9.991-5.83Z" fill="#ddddca"/><path data-name="Path 161" d="m143.766 120.078-9.893 5.846v1.836l9.893-5.851Z" fill="#cac4c4"/><path data-name="Path 162" d="m132.077 124.887 1.8 1.036v1.836l-1.8-1.019Z" fill="#a4a7b4"/><path data-name="Path 163" d="m143.77 120.078-9.893 5.846-1.8-1.036 10.027-5.83Z" fill="#f7f1f1"/><path data-name="Path 164" d="m142.003 117.53-9.926 5.846v1.63l9.926-5.863Z" fill="#cac4c4"/><path data-name="Path 165" d="m130.31 122.353 1.767 1.019v1.63l-1.767-1.036Z" fill="#a4a7b4"/><path data-name="Path 166" d="m142.003 117.53-9.926 5.846-1.767-1.019 9.991-5.83Z" fill="#f7f1f1"/><g data-name="Group 64" opacity=".56" style="mix-blend-mode:multiply;isolation:isolate"><g data-name="Group 63"><g data-name="Group 62" clip-path="url(#x)" transform="translate(175.973 37.835)"><g data-name="Group 61"><g data-name="Group 60" clip-path="url(#y)"><path data-name="Path 167" d="m1061.588 223.1-21.445 3.46-3.068-16.521 21.445-3.46Z" transform="translate(-1039.673 -209.879)" fill="url(#z)"/></g></g></g></g></g></g></g><g data-name="Group 68"><g data-name="Group 67" clip-path="url(#A)" transform="translate(177.7 41.191)"><path data-name="Rectangle 38" transform="translate(-.397 -.304)" fill="url(#c)" d="M0 0h12.542v9.517H0z"/></g></g><g data-name="Group 70"><g data-name="Group 69" clip-path="url(#B)" transform="translate(175.005 39.572)"><path data-name="Rectangle 39" transform="rotate(-71.685 5.749 8.4)" fill="url(#C)" d="M0 0h16.377v17.691H0z"/></g></g><g data-name="Group 72"><g data-name="Group 71" clip-path="url(#D)" transform="translate(170.963 35.447)"><path data-name="Rectangle 40" transform="translate(-.421 -.063)" fill="url(#E)" d="M0 0h17.232v13.832H0z"/></g></g><g data-name="Group 74"><g data-name="Group 73" clip-path="url(#F)" transform="translate(174.755 37.191)"><path data-name="Rectangle 41" transform="translate(-.203 -.041)" fill="url(#G)" d="M0 0h8.463v6.797H0z"/></g></g><g data-name="Group 76"><g data-name="Group 75" clip-path="url(#d)"><path data-name="Path 173" d="M183.047 47.549c-.032.085.1 1.072.611 1.14s1.666.049 1.973-.663c.441-1.022-1.12-1.427-1.5-2.211-.817.647-.712.869-1.088 1.734" fill="#104d1a"/><path data-name="Path 174" d="M166.411 39.927c.307.2.614.408.918.628 7.852 5.676 6.934 13.952-2.005 18.473-8.394 4.265-20.936 3.688-28.921-1.136-3.3 1.7-10.334 5.3-11.32 5.709a3.045 3.045 0 0 1-2.208-.477c-.611-.392-.986-.967-.647-1.6.849-.493 7.953-4.063 11.285-5.745-6.219-5.589-4.893-13.084 3.468-17.3 8.564-4.37 21.514-3.671 29.431 1.444" fill="rgba(0,0,0,0.15)"/><path data-name="Path 175" d="M125.797 63.026c-.307 1.31-3.364 1.938-4.657-.291-.1-1.7 0-18.777 0-18.777l4.657.288s.137 17.029 0 18.779" fill="#904c04"/></g></g><g data-name="Group 78"><g data-name="Group 77" clip-path="url(#H)" transform="translate(100.645)"><path data-name="Path 176" d="m602.029-16.862 45.986 2.819v50.309l-45.986-2.819Z" transform="translate(-602.029 14.043)" fill="url(#I)"/></g></g><g data-name="Group 80"><g data-name="Group 79" clip-path="url(#d)"><path data-name="Path 178" d="M220.519 70.847c.307.2.614.409.918.628 7.852 5.676 6.934 13.952-2.005 18.473-8.394 4.265-20.936 3.687-28.921-1.137-3.3 1.7-10.334 5.3-11.32 5.709a3.046 3.046 0 0 1-2.208-.476c-.611-.393-.986-.967-.647-1.6.849-.493 7.953-4.064 11.285-5.745-6.219-5.589-4.892-13.084 3.469-17.3 8.564-4.37 21.514-3.671 29.431 1.443" fill="rgba(0,0,0,0.15)"/><path data-name="Path 179" d="M179.904 93.941c-.307 1.31-3.364 1.937-4.657-.291-.1-1.7 0-18.776 0-18.776l4.657.288s.137 17.029 0 18.779" fill="#904c04"/></g></g><g data-name="Group 82"><g data-name="Group 81" clip-path="url(#J)" transform="translate(154.752 30.918)"><path data-name="Path 180" d="m925.682 168.082 45.986 2.819v50.309l-45.986-2.819Z" transform="translate(-925.682 -170.901)" fill="url(#I)"/></g></g></g></svg>