<svg xmlns="http://www.w3.org/2000/svg" xml:space="preserve" width="190" height="203" viewBox="0 0 190 203"><path fill="#E8231A" d="M95.635.425c4.768 4.065 21.296 16.92 39.742 16.92 14.398 0 33.956-9.87 39.272-12.705 1.759 1.755 13.592 13.586 15.442 15.439-2.305 3.919-8.28 15.537-8.28 30.57 0 17.591 2.844 32.263 5.346 45.2 1.865 9.622 3.48 17.935 3.48 25.349 0 20.921-10.566 38.861-31.392 53.324-17.716 12.306-39.331 19.778-53.629 24.721-3.89 1.349-7.263 2.519-9.982 3.579-2.72-1.058-6.083-2.228-9.965-3.571-14.307-4.941-35.922-12.416-53.638-24.72C11.198 160.065.636 142.119.636 121.198c0-7.414 1.609-15.727 3.473-25.349 2.51-12.937 5.345-27.608 5.345-45.2 0-15.033-5.976-26.651-8.274-30.57C3.032 18.229 14.866 6.396 16.62 4.64c5.316 2.835 24.872 12.705 39.273 12.705 18.44 0 34.974-12.855 39.742-16.92"/><path fill="#FFF" d="M174.609 129.992c0-24.144-8.85-43.283-8.85-66.146 0-23.547 5.878-32.759 13.228-39.657-2.594 6.063-5.511 18.35-5.511 30.836 0 20.538 8.833 46.143 8.833 66.146 0 16.94-6.901 32.725-20.963 44.125 8.678-9.485 13.263-22.445 13.263-35.304M41.28 50.404l6.523-1.38v28.338l10.127-2.108v5.933l-16.65 3.509zM107.067 127.886c-2.145.44-3.916-.854-3.916-2.862 0-2.56 1.771-4.044 3.916-4.485 2.142-.444 3.911.852 3.911 2.858.001 2.513-1.769 4.041-3.911 4.489M139.034 149.725c-2.591.563-6.84-.062-9.013-1.241l1.871-4.706c2.29 1.041 3.713 1.124 5.854.9 2.574-.27 3.704-1.845 3.704-3.117 0-1.845-3.154-2.315-6.086-3.46-2.551-.997-4.934-2.82-4.934-5.866 0-4.865 3.001-7.901 7.908-8.916 2.867-.599 6.113-.105 8.039.906l-1.821 4.765c-2.348-.688-3.722-.889-5.71-.479-1.409.292-2.295 1.077-2.295 2.105 0 3.239 11.11 2.293 11.11 9.625.002 5.295-3.421 8.354-8.627 9.484M119.658 111.09c-2.591.563-6.839-.061-9.009-1.24l1.865-4.707c2.293 1.041 3.716 1.125 5.857.9 2.573-.27 3.704-1.844 3.704-3.117 0-1.844-3.155-2.315-6.086-3.459-2.551-.997-4.931-2.821-4.931-5.867 0-4.865 2.998-7.902 7.905-8.916 2.867-.599 6.112-.105 8.038.907l-1.821 4.764c-2.347-.688-3.721-.889-5.709-.48-1.409.294-2.295 1.078-2.295 2.107 0 3.24 11.109 2.293 11.109 9.625.002 5.293-3.421 8.354-8.627 9.483M147.816 42.267c-1.236-.225-2.156-.096-3.614.206-1.621.334-2.926 1.47-3.975 3.108v18.541l-6.152 1.314V39.202l6.152-1.229.045 2.577c1.013-1.679 2.934-3.556 4.971-3.978 1.823-.38 3.024-.186 4.331.421l-1.758 5.274zM93.409 68.592c1.512-.317 3.083-1.77 3.809-2.952l.029-11.295c-.831-.953-2.219-2.115-3.938-1.755-2.196.453-3.083 2.504-3.083 8.484 0 5.629.628 8.043 3.183 7.518m-.941-21.217c2.351-.465 3.902.549 4.779 1.426l-.029-1.875 6.16-1.312v24.23c0 7.69-2.45 11.432-11.842 14.558l-2.037-4.605c6.417-2.46 7.719-4.259 7.719-8.911-1.355 1.654-3.288 2.973-5.27 3.394-4.431.944-7.986-2.646-7.986-11.714 0-7.835 2.504-13.991 8.506-15.191M70.992 100.178c-2.193.456-3.082 2.502-3.082 8.48 0 5.631.659 8.184 3.184 7.516 2.295-.607 3.246-2.565 3.783-3.579l.022-11.025c-.831-.954-2.183-1.75-3.907-1.392m-1.234 21.473c-4.479 1.239-8.109-2.432-8.109-11.497 0-7.838 1.674-13.843 8.504-15.188 1.837-.36 3.548.043 4.747.97v-9.675l6.163-1.281v33.937l-6.163 1.316.203-2.938c-1.083 2.128-2.603 3.596-5.345 4.356M69.896 57.29c-2.298.474-3.549 2.6-3.86 6.438l7.774-1.571c-.319-3.077-1.251-5.422-3.914-4.867m-.425-5.046c6.891-1.429 10.496 4.131 10.496 11.185 0 .683-.049 1.427-.104 2.124l-13.826 2.926c.258 3.914 1.981 5.322 4.378 4.826 2.193-.46 3.077-1.377 4.28-3.146l4.387 2.176c-2.037 3.556-4.725 5.657-8.324 6.406-6.786 1.41-10.933-3.193-10.933-11.127-.001-8.621 3.695-14.13 9.646-15.37M118.694 47.017c-2.301.474-3.551 2.601-3.864 6.438l7.777-1.452c-.319-3.077-1.254-5.541-3.913-4.986m-.426-5.046c6.889-1.429 10.493 4.131 10.493 11.185 0 .683-.05 1.59-.102 2.29l-13.829 2.76c.259 3.914 1.981 5.322 4.381 4.826 2.193-.459 3.077-1.377 4.28-3.146l4.388 2.176c-2.04 3.556-4.726 5.656-8.328 6.406-6.78 1.409-10.932-3.193-10.932-11.128 0-8.62 3.695-14.129 9.649-15.369M96.443 94.28c-2.305.474-3.554 2.6-3.864 6.438l7.773-1.542c-.315-3.08-1.254-5.45-3.909-4.896m-.43-5.046c6.891-1.429 10.496 4.131 10.496 11.185 0 .683-.049 1.499-.102 2.196l-13.828 2.854c.258 3.912 1.98 5.322 4.379 4.824 2.191-.458 3.079-1.375 4.281-3.146l4.387 2.177c-2.043 3.557-4.728 5.657-8.326 6.407-6.784 1.408-10.933-3.193-10.933-11.128 0-8.62 3.693-14.129 9.646-15.369M88.552 138.589c-2.298.473-3.547 2.6-3.86 6.438l7.773-1.606c-.319-3.078-1.252-5.387-3.913-4.832m-.424-5.047c6.888-1.43 10.491 4.132 10.491 11.186 0 .683-.05 1.519-.103 2.217l-13.825 2.832c.255 3.913 1.979 5.322 4.378 4.825 2.193-.458 3.077-1.376 4.279-3.145l4.387 2.176c-2.036 3.556-4.724 5.656-8.326 6.405-6.784 1.408-10.93-3.192-10.93-11.127 0-8.619 3.696-14.128 9.649-15.369M73.325 163.124v-34.236l-6.522 1.342v13.558l-8.353 1.735v-13.576l-6.518 1.342v34.266l6.518-1.353V151.5l8.353-1.734v14.709zM103.985 130.938v25.897l6.156-1.276v-25.887zM117.925 153.931l6.153-1.272V118.44l-6.153 1.192z"/></svg>