<svg data-name="Group 3" xmlns="http://www.w3.org/2000/svg" width="122" height="69.136" viewBox="0 0 122 69.136"><defs><clipPath id="a"><path data-name="Rectangle 1" fill="none" d="M0 0h122v69.136H0z"/></clipPath></defs><path data-name="Path 1" d="m70.566 0-3.58 3.625 8.591 8.542v2.378h4.9V9.852Z" fill="#33a6a7"/><path data-name="Path 2" d="M60.62 19.811v-9.74l4.9 4.87v4.87Z" fill="#ea5c4d"/><path data-name="Path 3" d="M73.037 17.008v-4.492l-7.483-7.44-3.461 3.5 6.046 6.011v4.492l2.927 2.91h6.986Z" fill="#ea5c4d"/><g data-name="Group 2"><g data-name="Group 1" clip-path="url(#a)"><path data-name="Path 4" d="M0 42.359V19.606h8.461a9.142 9.142 0 0 1 4.435.972 6.512 6.512 0 0 1 2.661 2.593 7.308 7.308 0 0 1 .887 3.565 7.528 7.528 0 0 1-.972 3.855 7.1 7.1 0 0 1-2.746 2.661l5.049 9.109h-5.664L7.881 34H5.015v8.359Zm5.015-12.487h3.173a3.1 3.1 0 0 0 2.235-5.22 3.055 3.055 0 0 0-2.235-.819H5.015Z"/><path data-name="Path 5" d="m32.718 37.515 2.013 3.1q-.342.239-1.211.785a10.829 10.829 0 0 1-2.3 1.023 11.216 11.216 0 0 1-3.514.478 9.6 9.6 0 0 1-4.708-1.092 7.5 7.5 0 0 1-3.036-3.037 9.76 9.76 0 0 1-.085-8.666 7.717 7.717 0 0 1 2.832-3.121 8.149 8.149 0 0 1 4.452-1.177 7.645 7.645 0 0 1 4.35 1.177 7.349 7.349 0 0 1 2.653 3.245 11.772 11.772 0 0 1 .9 4.759v.819h-11.4a3.056 3.056 0 0 0 1.16 2.251 4.432 4.432 0 0 0 3.036.99 7.323 7.323 0 0 0 3.1-.563 10.66 10.66 0 0 0 1.74-.972m-9.023-4.844h6.755a3.016 3.016 0 0 0-.358-1.381 3.084 3.084 0 0 0-1.092-1.177 3.348 3.348 0 0 0-1.859-.477 3.522 3.522 0 0 0-1.894.477 3.281 3.281 0 0 0-1.16 1.177 2.805 2.805 0 0 0-.392 1.381"/><path data-name="Path 6" d="M39.132 42.359V30.213h-2.593v-3.855h2.593v-.819a6.588 6.588 0 0 1 .955-3.719 5.914 5.914 0 0 1 2.457-2.132 7.35 7.35 0 0 1 3.139-.7 9.649 9.649 0 0 1 2.627.375 6.442 6.442 0 0 1 2.422 1.3q-.512.786-1.041 1.553t-1.04 1.552a4.066 4.066 0 0 0-1.126-.58 3.972 3.972 0 0 0-1.263-.2 2.15 2.15 0 0 0-1.637.648 2.576 2.576 0 0 0-.614 1.842v.887h3.787v3.855h-3.787v12.139Z"/><path data-name="Path 7" d="M49.947 36.286v-9.928h4.913v9.212a3.219 3.219 0 0 0 .665 2.149 2.426 2.426 0 0 0 1.962.785 2.746 2.746 0 0 0 2.32-1.075 3.92 3.92 0 0 0 .819-2.44v-8.631h4.879v16h-4.708l-.136-1.706a5.98 5.98 0 0 1-2.064 1.518 6.268 6.268 0 0 1-2.678.6 5.841 5.841 0 0 1-4.35-1.638 6.611 6.611 0 0 1-1.621-4.845"/><path data-name="Path 8" d="m69.802 47.886 1.979-3.48a8.8 8.8 0 0 0 2.03.9 8.191 8.191 0 0 0 2.371.324 3.714 3.714 0 0 0 2.627-.887 3.462 3.462 0 0 0 .955-2.661V40.96a6.033 6.033 0 0 1-4.094 1.331 7.461 7.461 0 0 1-3.906-.972 6.347 6.347 0 0 1-2.473-2.713 8.871 8.871 0 0 1-.853-3.958 8.685 8.685 0 0 1 1.16-4.538 7.94 7.94 0 0 1 3.224-3.02 10.312 10.312 0 0 1 4.827-1.074 20.938 20.938 0 0 1 6.994 1.194v14.637q0 3.958-2.184 5.851a8.805 8.805 0 0 1-5.97 1.894 11.751 11.751 0 0 1-6.687-1.706m10-12.657v-4.81a6.038 6.038 0 0 0-.955-.256 7.553 7.553 0 0 0-1.263-.085 3.8 3.8 0 0 0-3.156 1.3 4.805 4.805 0 0 0-1.04 3.1 4.191 4.191 0 0 0 .853 2.746 2.952 2.952 0 0 0 2.422 1.041 3.36 3.36 0 0 0 2.32-.734 2.944 2.944 0 0 0 .819-2.3"/><path data-name="Path 9" d="m101.396 37.515 2.013 3.1q-.342.239-1.211.785a10.828 10.828 0 0 1-2.3 1.023 11.218 11.218 0 0 1-3.514.478 9.6 9.6 0 0 1-4.708-1.092 7.5 7.5 0 0 1-3.037-3.037 9.762 9.762 0 0 1-.085-8.666 7.717 7.717 0 0 1 2.832-3.121 8.149 8.149 0 0 1 4.452-1.177 7.645 7.645 0 0 1 4.35 1.177 7.348 7.348 0 0 1 2.661 3.241 11.772 11.772 0 0 1 .9 4.759v.819h-11.4a3.055 3.055 0 0 0 1.16 2.251 4.433 4.433 0 0 0 3.036.99 7.322 7.322 0 0 0 3.1-.563 10.635 10.635 0 0 0 1.74-.972m-9.041-4.845h6.755a3.012 3.012 0 0 0-.359-1.381 3.081 3.081 0 0 0-1.091-1.177 3.35 3.35 0 0 0-1.86-.477 3.522 3.522 0 0 0-1.893.477 3.285 3.285 0 0 0-1.16 1.177 2.808 2.808 0 0 0-.392 1.381"/><path data-name="Path 10" d="m119.646 37.515 2.013 3.1q-.342.239-1.211.785a10.83 10.83 0 0 1-2.3 1.023 11.216 11.216 0 0 1-3.514.478 9.6 9.6 0 0 1-4.708-1.092 7.5 7.5 0 0 1-3.036-3.037 9.76 9.76 0 0 1-.085-8.666 7.717 7.717 0 0 1 2.832-3.121 8.149 8.149 0 0 1 4.452-1.177 7.644 7.644 0 0 1 4.35 1.177 7.351 7.351 0 0 1 2.661 3.245 11.772 11.772 0 0 1 .9 4.759v.819h-11.4a3.056 3.056 0 0 0 1.16 2.251 4.433 4.433 0 0 0 3.036.99 7.322 7.322 0 0 0 3.1-.563 10.662 10.662 0 0 0 1.74-.972m-9.041-4.845h6.755a3.012 3.012 0 0 0-.358-1.381 3.085 3.085 0 0 0-1.092-1.177 3.347 3.347 0 0 0-1.859-.477 3.524 3.524 0 0 0-1.894.477 3.284 3.284 0 0 0-1.16 1.177 2.808 2.808 0 0 0-.392 1.381"/><path data-name="Path 11" d="M0 68.673V46.612h3.175v9.228h12.072v-9.228h3.176v22.061h-3.176v-9.991H3.175v9.989Z"/><path data-name="Path 12" d="M30.395 69.136a8.021 8.021 0 0 1-4.2-1.108 7.89 7.89 0 0 1-2.894-2.977 8.562 8.562 0 0 1 0-8.186 7.934 7.934 0 0 1 2.894-2.96 8.023 8.023 0 0 1 4.2-1.108 7.939 7.939 0 0 1 4.184 1.108 8.26 8.26 0 0 1 0 14.123 7.936 7.936 0 0 1-4.184 1.108m0-2.58a4.645 4.645 0 0 0 2.762-.81 5.336 5.336 0 0 0 1.753-2.1 6.169 6.169 0 0 0 0-5.358 5.29 5.29 0 0 0-1.769-2.1 5.056 5.056 0 0 0-5.49 0 5.313 5.313 0 0 0-1.769 2.084 6.145 6.145 0 0 0-.612 2.7 5.938 5.938 0 0 0 .629 2.662 5.626 5.626 0 0 0 1.769 2.1 4.526 4.526 0 0 0 2.729.827"/><path data-name="Path 13" d="M44.882 68.673h-2.977V54.266q0-.314-.033-.976h2.845l.1 2.315a6.968 6.968 0 0 1 .992-1.174 5.577 5.577 0 0 1 1.621-1.058 5.772 5.772 0 0 1 2.382-.447 5.634 5.634 0 0 1 2.96.711 4.817 4.817 0 0 1 1.836 2.067 9.616 9.616 0 0 1 2.282-1.935 6.144 6.144 0 0 1 3.308-.844 5.309 5.309 0 0 1 4.4 1.769 7.363 7.363 0 0 1 1.422 4.747v9.228h-2.977v-9q0-4.168-3.307-4.168a3.821 3.821 0 0 0-2.183.645 4.668 4.668 0 0 0-1.521 1.687 4.759 4.759 0 0 0-.562 2.3v8.533h-2.981v-9a4.807 4.807 0 0 0-.86-3.159 3 3 0 0 0-2.414-1.009 3.634 3.634 0 0 0-2.58.894 4.869 4.869 0 0 0-1.356 2.266 10.253 10.253 0 0 0-.4 2.861Z"/><path data-name="Path 14" d="m82.356 64.638 1.687 1.786a7.546 7.546 0 0 1-1.191 1.042 8.943 8.943 0 0 1-2.233 1.158 9.534 9.534 0 0 1-3.324.513 8.3 8.3 0 0 1-4.2-1.042 7.252 7.252 0 0 1-2.828-2.911 8.937 8.937 0 0 1-1.009-4.316 8.469 8.469 0 0 1 .976-4.068 7.533 7.533 0 0 1 2.712-2.894 7.418 7.418 0 0 1 3.985-1.075 6.843 6.843 0 0 1 4.333 1.29 7.413 7.413 0 0 1 2.415 3.341 12.55 12.55 0 0 1 .761 4.4H72.301a4.589 4.589 0 0 0 .728 2.431 4.9 4.9 0 0 0 1.836 1.687 5.127 5.127 0 0 0 2.464.612 6.958 6.958 0 0 0 3.225-.662 5.982 5.982 0 0 0 1.8-1.29m-10.055-4.994h9.062a4.987 4.987 0 0 0-1.257-3.043 4.04 4.04 0 0 0-3.175-1.257 4.6 4.6 0 0 0-2.448.629 4.379 4.379 0 0 0-1.571 1.6 4.776 4.776 0 0 0-.612 2.067"/><path data-name="Path 15" d="M87.577 68.657V45.903h3.309l12.419 17.775V45.903h3.207v22.754h-3.275L90.784 50.848v17.809Z"/><path data-name="Path 16" d="M111.696 68.657V45.903h3.275v19.854h7.028v2.9Z"/></g></g></svg>