<svg xmlns="http://www.w3.org/2000/svg" width="122.565" height="69.457" viewBox="0 0 122.565 69.457">
  <g id="Group_390" data-name="Group 390" transform="translate(-278 -1191.932)">
    <path id="Path_1" data-name="Path 1" d="M219.2,0l-3.6,3.642,8.631,8.581v2.389h4.921V9.9Z" transform="translate(129.69 1191.932)" fill="#fff"/>
    <path id="Path_2" data-name="Path 2" d="M195.118,42.2V32.415l4.921,4.893V42.2Z" transform="translate(143.783 1169.635)" fill="#fff"/>
    <path id="Path_3" data-name="Path 3" d="M210.85,28.324V23.811l-7.518-7.474-3.477,3.521,6.074,6.039v4.513h0l2.94,2.923h7.018Z" transform="translate(140.524 1180.694)" fill="#fff"/>
    <path id="Path_4" data-name="Path 4" d="M0,85.958V63.1H8.5a9.185,9.185,0,0,1,4.456.977,6.542,6.542,0,0,1,2.674,2.6,7.342,7.342,0,0,1,.891,3.582,7.563,7.563,0,0,1-.977,3.873,7.137,7.137,0,0,1-2.759,2.673l5.073,9.152H12.168l-4.25-8.4H5.038v8.4ZM5.038,73.414H8.226a3.115,3.115,0,0,0,2.245-5.244,3.07,3.07,0,0,0-2.245-.823H5.038Z" transform="translate(278 1148.529)" fill="#fff"/>
    <path id="Path_5" data-name="Path 5" d="M74.718,94.839l2.022,3.119q-.343.24-1.217.788a10.88,10.88,0,0,1-2.313,1.028,11.268,11.268,0,0,1-3.53.48,9.644,9.644,0,0,1-4.73-1.1,7.531,7.531,0,0,1-3.05-3.051,9.805,9.805,0,0,1-.086-8.706,7.752,7.752,0,0,1,2.845-3.136,8.187,8.187,0,0,1,4.473-1.182,7.68,7.68,0,0,1,4.37,1.182,7.383,7.383,0,0,1,2.673,3.256,11.826,11.826,0,0,1,.908,4.781v.823H65.635A3.07,3.07,0,0,0,66.8,95.387a4.453,4.453,0,0,0,3.05.994,7.357,7.357,0,0,0,3.119-.566,10.71,10.71,0,0,0,1.748-.977m-9.083-4.867h6.787a3.03,3.03,0,0,0-.36-1.388,3.1,3.1,0,0,0-1.1-1.183,3.363,3.363,0,0,0-1.868-.479,3.538,3.538,0,0,0-1.9.479,3.3,3.3,0,0,0-1.165,1.183,2.818,2.818,0,0,0-.394,1.388" transform="translate(236.152 1134.781)" fill="#fff"/>
    <path id="Path_6" data-name="Path 6" d="M120.212,84.6V72.4h-2.6V68.523h2.6V67.7a6.618,6.618,0,0,1,.959-3.736,5.942,5.942,0,0,1,2.468-2.142,7.384,7.384,0,0,1,3.153-.7,9.693,9.693,0,0,1,2.639.377,6.472,6.472,0,0,1,2.434,1.3q-.514.789-1.046,1.56t-1.045,1.559a4.085,4.085,0,0,0-1.131-.583,3.99,3.99,0,0,0-1.268-.205,2.16,2.16,0,0,0-1.645.651,2.588,2.588,0,0,0-.617,1.851v.891h3.8V72.4h-3.8V84.6Z" transform="translate(197.101 1149.889)" fill="#fff"/>
    <path id="Path_7" data-name="Path 7" d="M160.762,94.813V84.839H165.7v9.254a3.234,3.234,0,0,0,.668,2.159,2.438,2.438,0,0,0,1.971.788,2.759,2.759,0,0,0,2.331-1.08,3.938,3.938,0,0,0,.822-2.451V84.839h4.9v16.075h-4.73l-.137-1.714a6.008,6.008,0,0,1-2.073,1.525,6.3,6.3,0,0,1-2.691.6,5.868,5.868,0,0,1-4.37-1.646,6.642,6.642,0,0,1-1.628-4.867" transform="translate(167.416 1133.573)" fill="#fff"/>
    <path id="Path_8" data-name="Path 8" d="M221.648,105.711l1.988-3.5a8.838,8.838,0,0,0,2.039.908,8.23,8.23,0,0,0,2.382.326,3.731,3.731,0,0,0,2.639-.891,3.478,3.478,0,0,0,.959-2.673V98.753a6.06,6.06,0,0,1-4.113,1.337,7.5,7.5,0,0,1-3.924-.977,6.377,6.377,0,0,1-2.485-2.725,8.912,8.912,0,0,1-.857-3.976,8.725,8.725,0,0,1,1.166-4.559,7.977,7.977,0,0,1,3.239-3.034,10.359,10.359,0,0,1,4.85-1.079,21.035,21.035,0,0,1,7.026,1.2v14.7q0,3.976-2.194,5.878a8.846,8.846,0,0,1-6,1.9,11.806,11.806,0,0,1-6.718-1.714M231.691,93V88.163a6.066,6.066,0,0,0-.96-.258,7.588,7.588,0,0,0-1.268-.086,3.821,3.821,0,0,0-3.17,1.3,4.827,4.827,0,0,0-1.045,3.119A4.211,4.211,0,0,0,226.1,95a2.966,2.966,0,0,0,2.433,1.046,3.375,3.375,0,0,0,2.331-.737A2.957,2.957,0,0,0,231.691,93" transform="translate(126.477 1134.328)" fill="#fff"/>
    <path id="Path_9" data-name="Path 9" d="M295.762,94.839l2.023,3.119q-.343.24-1.217.788a10.879,10.879,0,0,1-2.313,1.028,11.27,11.27,0,0,1-3.53.48,9.644,9.644,0,0,1-4.73-1.1,7.534,7.534,0,0,1-3.051-3.051,9.807,9.807,0,0,1-.086-8.706,7.752,7.752,0,0,1,2.845-3.136,8.187,8.187,0,0,1,4.472-1.182,7.68,7.68,0,0,1,4.37,1.182,7.382,7.382,0,0,1,2.673,3.256,11.827,11.827,0,0,1,.909,4.781v.823H286.679a3.07,3.07,0,0,0,1.165,2.262,4.454,4.454,0,0,0,3.05.994,7.356,7.356,0,0,0,3.119-.566,10.684,10.684,0,0,0,1.748-.977m-9.083-4.867h6.787a3.026,3.026,0,0,0-.36-1.388,3.1,3.1,0,0,0-1.1-1.183,3.365,3.365,0,0,0-1.868-.479,3.538,3.538,0,0,0-1.9.479,3.3,3.3,0,0,0-1.165,1.183,2.821,2.821,0,0,0-.394,1.388" transform="translate(84.101 1134.781)" fill="#fff"/>
    <path id="Path_10" data-name="Path 10" d="M354.51,94.839l2.023,3.119q-.343.24-1.217.788A10.88,10.88,0,0,1,353,99.775a11.268,11.268,0,0,1-3.53.48,9.644,9.644,0,0,1-4.73-1.1,7.531,7.531,0,0,1-3.05-3.051,9.805,9.805,0,0,1-.086-8.706,7.753,7.753,0,0,1,2.845-3.136,8.187,8.187,0,0,1,4.473-1.182,7.679,7.679,0,0,1,4.37,1.182,7.385,7.385,0,0,1,2.674,3.256,11.826,11.826,0,0,1,.908,4.781v.823H345.427a3.07,3.07,0,0,0,1.165,2.262,4.453,4.453,0,0,0,3.05.994,7.356,7.356,0,0,0,3.119-.566,10.711,10.711,0,0,0,1.748-.977m-9.083-4.867h6.786a3.026,3.026,0,0,0-.36-1.388,3.1,3.1,0,0,0-1.1-1.183,3.363,3.363,0,0,0-1.868-.479,3.54,3.54,0,0,0-1.9.479,3.3,3.3,0,0,0-1.165,1.183,2.821,2.821,0,0,0-.394,1.388" transform="translate(43.69 1134.781)" fill="#fff"/>
    <path id="Path_11" data-name="Path 11" d="M0,172.193V150.03H3.19V159.3H15.318V150.03h3.19v22.163h-3.19V162.158H3.19v10.035Z" transform="translate(278 1088.73)" fill="#fff"/>
    <path id="Path_12" data-name="Path 12" d="M79.82,186.353a8.058,8.058,0,0,1-4.22-1.113,7.926,7.926,0,0,1-2.907-2.99,8.6,8.6,0,0,1,0-8.224,7.97,7.97,0,0,1,2.907-2.974,8.061,8.061,0,0,1,4.22-1.113,7.976,7.976,0,0,1,4.2,1.113,8.3,8.3,0,0,1,0,14.188,7.973,7.973,0,0,1-4.2,1.113m0-2.592a4.666,4.666,0,0,0,2.775-.814,5.361,5.361,0,0,0,1.761-2.11,6.2,6.2,0,0,0,0-5.383,5.315,5.315,0,0,0-1.778-2.11,5.079,5.079,0,0,0-5.516,0,5.337,5.337,0,0,0-1.778,2.093,6.173,6.173,0,0,0-.615,2.708,5.966,5.966,0,0,0,.631,2.675,5.652,5.652,0,0,0,1.778,2.11,4.547,4.547,0,0,0,2.741.831" transform="translate(228.716 1075.036)" fill="#fff"/>
    <path id="Path_13" data-name="Path 13" d="M137.8,186.18h-2.99V171.709q0-.316-.033-.98h2.858l.1,2.326a7,7,0,0,1,1-1.18,5.6,5.6,0,0,1,1.628-1.063,5.8,5.8,0,0,1,2.393-.449,5.66,5.66,0,0,1,2.974.714,4.839,4.839,0,0,1,1.844,2.077,9.661,9.661,0,0,1,2.293-1.944,6.172,6.172,0,0,1,3.323-.847,5.333,5.333,0,0,1,4.419,1.778,7.4,7.4,0,0,1,1.429,4.769v9.27h-2.991v-9.038q0-4.187-3.323-4.187a3.839,3.839,0,0,0-2.193.648,4.69,4.69,0,0,0-1.528,1.695,4.781,4.781,0,0,0-.565,2.309v8.573h-2.99v-9.038a4.829,4.829,0,0,0-.864-3.173,3.014,3.014,0,0,0-2.426-1.014,3.651,3.651,0,0,0-2.592.9,4.892,4.892,0,0,0-1.362,2.276,10.3,10.3,0,0,0-.4,2.874Z" transform="translate(185.293 1074.743)" fill="#fff"/>
    <path id="Path_14" data-name="Path 14" d="M236.078,181.906l1.695,1.794a7.579,7.579,0,0,1-1.2,1.047,8.983,8.983,0,0,1-2.243,1.163,9.577,9.577,0,0,1-3.339.515,8.341,8.341,0,0,1-4.22-1.047,7.286,7.286,0,0,1-2.841-2.924,8.979,8.979,0,0,1-1.014-4.336,8.508,8.508,0,0,1,.98-4.087,7.568,7.568,0,0,1,2.725-2.907,7.452,7.452,0,0,1,4-1.08,6.875,6.875,0,0,1,4.353,1.3,7.447,7.447,0,0,1,2.426,3.356,12.609,12.609,0,0,1,.764,4.419H225.976a4.61,4.61,0,0,0,.731,2.442,4.927,4.927,0,0,0,1.844,1.694,5.15,5.15,0,0,0,2.475.615,6.991,6.991,0,0,0,3.24-.665,6.01,6.01,0,0,0,1.811-1.3m-10.1-5.017h9.1a5.01,5.01,0,0,0-1.263-3.057,4.059,4.059,0,0,0-3.19-1.263,4.617,4.617,0,0,0-2.459.631,4.4,4.4,0,0,0-1.578,1.612,4.8,4.8,0,0,0-.615,2.077" transform="translate(124.66 1074.963)" fill="#fff"/>
    <path id="Path_15" data-name="Path 15" d="M281.881,170.607V147.746h3.324L297.682,165.6V147.746H300.9v22.861h-3.29L285.1,152.716v17.892Z" transform="translate(84.101 1090.301)" fill="#fff"/>
    <path id="Path_16" data-name="Path 16" d="M359.516,170.607V147.746h3.29v19.948h7.061v2.913Z" transform="translate(30.698 1090.301)" fill="#fff"/>
  </g>
</svg>
