<svg data-name="Group 374" xmlns="http://www.w3.org/2000/svg" xmlns:xlink="http://www.w3.org/1999/xlink" width="169.415" height="168.437" viewBox="0 0 169.415 168.437"><defs><clipPath id="b"><path data-name="Rectangle 165" fill="none" d="M0 0h169.415v168.437H0z"/></clipPath><clipPath id="c"><path data-name="Rectangle 149" fill="none" d="M0 0h52.697v30.524H0z"/></clipPath><clipPath id="d"><path data-name="Path 3248" d="M69.841 110.851a2.041 2.041 0 0 0-1.009-.248 2.2 2.2 0 0 0-.72.117 1.3 1.3 0 0 0-.6.4 2.317 2.317 0 0 0-.518 1.176 2.541 2.541 0 0 1-1.588 1.8 4.807 4.807 0 0 1-.368.168 7.958 7.958 0 0 1-5.618.025 5.556 5.556 0 0 1-.712-.342 2.3 2.3 0 0 1-1.349-1.769 2.059 2.059 0 0 1 1.075-1.7c.079-.052.163-.1.25-.154a6.8 6.8 0 0 1 2.994-.815 9.468 9.468 0 0 0 1.9-.284 1.417 1.417 0 0 0 .7-.391.818.818 0 0 0 .228-.681.971.971 0 0 0-.512-.676l-10.107-5.836 10.337-6.007a1.121 1.121 0 0 1 .958 0 1.861 1.861 0 0 1 .737 1.208 3.085 3.085 0 0 0 1.7 2.164 7.84 7.84 0 0 0 3.853.928 7.147 7.147 0 0 0 4.477-1.37 2.6 2.6 0 0 0 1.054-2.007 2.671 2.671 0 0 0-1.141-2.028 4.6 4.6 0 0 0-.586-.395 7.661 7.661 0 0 0-3.5-.92 7.151 7.151 0 0 1-2.213-.432c-.146-.074-.183-.109-.191-.123a.684.684 0 0 1 .092-.068L80.15 86.38l10.6 6.12a2.157 2.157 0 0 0 .862.174 1.671 1.671 0 0 0 1.33-.528 2.583 2.583 0 0 0 .529-1.23 2.39 2.39 0 0 1 1.307-1.571 7.718 7.718 0 0 1 6.969 0 4.1 4.1 0 0 1 .58.4 1.872 1.872 0 0 1 .783 1.418 1.9 1.9 0 0 1-.805 1.436 6.349 6.349 0 0 1-3.672 1.187 8.263 8.263 0 0 0-1.806.277 1.121 1.121 0 0 0-.893.78.839.839 0 0 0 .341.839l10.311 5.959-10.33 6a.989.989 0 0 1-.483.11 1.022 1.022 0 0 1-.483-.108 1.865 1.865 0 0 1-.739-1.166 3.1 3.1 0 0 0-1.7-2.2 6.6 6.6 0 0 0-.679-.335 8.707 8.707 0 0 0-6.264-.031c-1.47.6-2.355 1.569-2.425 2.647a2.892 2.892 0 0 0 1.707 2.587 7.592 7.592 0 0 0 3.437.918 7.279 7.279 0 0 1 2.3.439l.175.119a.5.5 0 0 1-.088.064l-10.695 6.216Z" transform="translate(-53.894 -86.382)" fill="none"/></clipPath><clipPath id="f"><path data-name="Rectangle 150" fill="none" d="M0 0h52.697v30.523H0z"/></clipPath><clipPath id="g"><path data-name="Rectangle 151" fill="none" d="M0 0h52.681v30.515H0z"/></clipPath><clipPath id="h"><path data-name="Path 3255" d="m15.044 100.58 10.265 5.926a1.843 1.843 0 0 0 1.9-.116 2.049 2.049 0 0 0 .672-1.251c.085-.849.791-1.675 2.124-2.241a8.334 8.334 0 0 1 5.995-.031 5.986 5.986 0 0 1 .708.344c2.035 1.174 2.038 3.073.021 4.245a7.188 7.188 0 0 1-3.262.869 7.436 7.436 0 0 0-2.209.391c-.672.233-.766.783-.2 1.108l11.142 6.433 10.867-6.317a.459.459 0 0 0 .277-.4.817.817 0 0 0-.228-.19 1.451 1.451 0 0 0-.316-.129 7.86 7.86 0 0 0-1.735-.259 7.3 7.3 0 0 1-3.3-.866 4.821 4.821 0 0 1-.364-.235c-.05-.025-.1-.054-.146-.081a4.292 4.292 0 0 1-.546-.369 2.054 2.054 0 0 1-.065-3.471c1.9-1.566 5.677-1.7 7.918-.406.143.082.273.167.5.311a2.8 2.8 0 0 1 1.506 1.835 2.367 2.367 0 0 0 .475 1.053.828.828 0 0 0 .241.2 1.348 1.348 0 0 0 .3.123 1.4 1.4 0 0 0 .734-.161l10.866-6.317-11.081-6.4c-.576-.334-.409-.9.33-1.087a9.485 9.485 0 0 1 1.823-.277 7.146 7.146 0 0 0 3.157-.86c2.019-1.174 2.009-3.079-.023-4.252a5.584 5.584 0 0 0-.743-.358 8.353 8.353 0 0 0-5.9.028c-1.364.56-2.086 1.4-2.176 2.247a1.929 1.929 0 0 1-.444 1 1.684 1.684 0 0 1-1.866.183L42.023 84.9Z" transform="translate(-15.044 -84.902)" fill="none"/></clipPath><clipPath id="i"><path data-name="Rectangle 155" fill="none" d="M0 0h7.462v10.917H0z"/></clipPath><clipPath id="j"><path data-name="Path 3269" d="M10.667 32.271c-1.946 3.914-3.755 7.583-3.755 7.583.56 1.75 3.614 2.953 7.461 3.334a88.621 88.621 0 0 1-3.706-10.917" transform="translate(-6.912 -32.271)" fill="none"/></clipPath><clipPath id="l"><path data-name="Path 3281" d="m13.454 45.942 10.437 6.025a1.4 1.4 0 0 0 1.44-.074 2.17 2.17 0 0 0 .785-1.394A2.68 2.68 0 0 1 27.6 48.6a8.078 8.078 0 0 1 7.33 0 4.682 4.682 0 0 1 .594.408 2.055 2.055 0 0 1-.025 3.472 6.707 6.707 0 0 1-3.864 1.237 7.267 7.267 0 0 0-2.329.458c-.5.187-.565.589-.137.836l11.433 6.6 10.728-6.228a1.846 1.846 0 0 1 1.494.064.8.8 0 0 1 .226.187 2.006 2.006 0 0 1 .461 1 2.712 2.712 0 0 0 1.511 1.917 5.776 5.776 0 0 0 .682.334 8.377 8.377 0 0 0 5.9.025c2.737-1.1 2.97-3.307.715-4.61a7.191 7.191 0 0 0-3.167-.86 9.568 9.568 0 0 1-1.832-.273 1.285 1.285 0 0 1-.335-.134c-.392-.225-.454-.6-.117-.87l10.7-6.22-11.435-6.6a1.393 1.393 0 0 0-1.449.086 2.118 2.118 0 0 0-.777 1.346c-.085.849-.79 1.675-2.124 2.243a8.4 8.4 0 0 1-6 .031 5.573 5.573 0 0 1-.695-.341c-2.036-1.174-2.052-3.076-.025-4.254a7.229 7.229 0 0 1 3.267-.866 7.4 7.4 0 0 0 2.4-.458c.492-.191.542-.593.123-.835l-10.426-6.027Z" transform="translate(-13.454 -30.268)" fill="none"/></clipPath><clipPath id="n"><path data-name="Rectangle 158" fill="none" d="M0 0h4.396v27.345H0z"/></clipPath><clipPath id="o"><path data-name="Path 3307" d="M84.677 39.207a1.829 1.829 0 0 1-1.339.13 1.281 1.281 0 0 1-.3-.122.807.807 0 0 1-.239-.2 2.358 2.358 0 0 1-.477-1.051 2.892 2.892 0 0 0-1.6-1.892c-2.268-1.242-5.988-1.081-7.851.49a2.032 2.032 0 0 0 .065 3.41 4.51 4.51 0 0 0 .592.406 7.323 7.323 0 0 0 3.3.867 7.776 7.776 0 0 1 1.733.259 1.358 1.358 0 0 1 .316.127.871.871 0 0 1 .229.19c.192.245.13.55-.231.761L68.3 48.726l10.675 6.164c.569.328.4.887-.331 1.087a9.49 9.49 0 0 1-1.912.294 7.174 7.174 0 0 0-3.163.866c-2.019 1.173-2 3.073.025 4.245a5.646 5.646 0 0 0 .747.361 8.4 8.4 0 0 0 5.9-.027c1.357-.562 2.077-1.4 2.171-2.25a1.985 1.985 0 0 1 .487-1.057 1.684 1.684 0 0 1 1.861-.177L95.454 64.4l10.623-6.172a1.83 1.83 0 0 1 1.595.023.808.808 0 0 1 .222.181 2 2 0 0 1 .454 1 2.692 2.692 0 0 0 1.5 1.906 5.584 5.584 0 0 0 .7.341 8.357 8.357 0 0 0 5.9.03c2.735-1.1 2.977-3.3.72-4.6a7.225 7.225 0 0 0-3.174-.866 9.7 9.7 0 0 1-1.817-.273 1.322 1.322 0 0 1-.347-.137.5.5 0 0 1-.041-.924l10.644-6.185-10.938-6.317a1.427 1.427 0 0 0-.788-.154.95.95 0 0 0-.436.284 1.964 1.964 0 0 0-.444 1 2.866 2.866 0 0 1-1.784 2.076 5.291 5.291 0 0 1-.89.478 8.388 8.388 0 0 1-6 .03 5.656 5.656 0 0 1-.706-.342c-2.031-1.172-2.039-3.075-.023-4.246.093-.054.19-.106.287-.154s.175-.115.272-.17a7.146 7.146 0 0 1 3.156-.862 9.412 9.412 0 0 0 1.831-.272 1.091 1.091 0 0 0 .529-.287.449.449 0 0 0-.273-.419l-10.949-6.323Z" transform="translate(-68.297 -33.046)" fill="none"/></clipPath><clipPath id="q"><path data-name="Rectangle 161" fill="none" d="M0 0h7.497v31.134H0z"/></clipPath><clipPath id="r"><path data-name="Path 3325" d="M69.488 91.207a.407.407 0 0 0 0 .768 1.224 1.224 0 0 0 .156.071 7.449 7.449 0 0 0 2.326.454 7.324 7.324 0 0 1 3.335.872 4.618 4.618 0 0 1 .543.366 2.048 2.048 0 0 1 .079 3.471c-1.912 1.572-5.678 1.7-7.92.409a2.75 2.75 0 0 1-1.52-1.9 2.182 2.182 0 0 0-.8-1.394.833.833 0 0 0-.115-.081 1.473 1.473 0 0 0-1.322 0l-10.875 6.327 10.647 6.147c.383.221.433.55.2.8a1.1 1.1 0 0 1-.532.287 9.384 9.384 0 0 1-1.828.272 7.142 7.142 0 0 0-3.157.862 4.314 4.314 0 0 0-.27.17c-1.74 1.179-1.644 2.957.293 4.075a5.914 5.914 0 0 0 .758.365 8.33 8.33 0 0 0 5.888-.025c.137-.058.269-.117.393-.18a2.872 2.872 0 0 0 1.784-2.076 1.964 1.964 0 0 1 .441-1 .96.96 0 0 1 .439-.284 1.854 1.854 0 0 1 1.431.1l10.668 6.161 10.876-6.319a.407.407 0 0 0 0-.766 1.288 1.288 0 0 0-.14-.067 7.534 7.534 0 0 0-2.417-.463 7.25 7.25 0 0 1-3.272-.87c-2.241-1.295-2.029-3.475.676-4.589a8.35 8.35 0 0 1 5.987.031 6.091 6.091 0 0 1 .638.314 2.73 2.73 0 0 1 1.52 1.931 2.16 2.16 0 0 0 .792 1.347.754.754 0 0 0 .125.089 1.473 1.473 0 0 0 1.326 0l10.867-6.315-10.8-6.239c-.413-.333-.243-.814.42-.992a7.946 7.946 0 0 1 1.723-.263 6.7 6.7 0 0 0 3.887-1.268 2.035 2.035 0 0 0 .025-3.412 4.416 4.416 0 0 0-.631-.437 8.073 8.073 0 0 0-7.33 0 2.741 2.741 0 0 0-1.484 1.835 2.23 2.23 0 0 1-.457 1.057 1.643 1.643 0 0 1-1.725.263L80.357 84.89Z" transform="translate(-53.375 -84.89)" fill="none"/></clipPath><linearGradient id="e" x1="-1.447" y1="1.514" x2="-1.42" y2="1.514" gradientUnits="objectBoundingBox"><stop offset="0" stop-color="#d8d3d4"/><stop offset="1" stop-color="#d0cacc"/></linearGradient><linearGradient id="a" x1="-.393" y1="1.54" x2="-.367" y2="1.54" gradientUnits="objectBoundingBox"><stop offset="0" stop-color="#f7f5f9"/><stop offset="1" stop-color="#faf7fb"/></linearGradient><linearGradient id="k" x1="-.736" y1="9.616" x2="-.606" y2="9.616" gradientUnits="objectBoundingBox"><stop offset="0" stop-color="#fff"/><stop offset=".178" stop-color="#e9ebeb"/><stop offset=".531" stop-color="#c5caca"/><stop offset=".817" stop-color="#afb6b6"/><stop offset="1" stop-color="#a7afaf"/></linearGradient><linearGradient id="m" x1="-.352" y1="4.007" x2="-.326" y2="4.007" xlink:href="#a"/><linearGradient id="p" x1="-1.785" y1="3.88" x2="-1.759" y2="3.88" xlink:href="#a"/><linearGradient id="s" x1="-1.395" y1="1.541" x2="-1.369" y2="1.541" xlink:href="#a"/></defs><g data-name="Group 373" clip-path="url(#b)"><g data-name="Group 345"><g data-name="Group 344" clip-path="url(#b)"><g data-name="Group 337" opacity=".4" style="mix-blend-mode:multiply;isolation:isolate"><g data-name="Group 336"><g data-name="Group 335" clip-path="url(#c)" transform="translate(76.261 122.233)"><g data-name="Group 334"><g data-name="Group 333" clip-path="url(#d)"><path data-name="Rectangle 148" fill="url(#e)" d="M0 0h52.697v30.525H0z"/></g></g></g></g></g><g data-name="Group 340" opacity=".3" style="mix-blend-mode:multiply;isolation:isolate"><g data-name="Group 339"><g data-name="Group 338" clip-path="url(#f)" transform="translate(49.067 137.914)"><path data-name="Path 3249" d="M15.924 24.454a2.036 2.036 0 0 0-1-.245 1.729 1.729 0 0 0-1.317.5 2.36 2.36 0 0 0-.569 1.247c-.083.766-.794 1.479-1.95 1.96a7.559 7.559 0 0 1-2.843.519 7.64 7.64 0 0 1-2.79-.5 5.243 5.243 0 0 1-.7-.337 2.265 2.265 0 0 1-1.353-1.821 2.231 2.231 0 0 1 1.326-1.8 6.751 6.751 0 0 1 3-.818 9.672 9.672 0 0 0 1.987-.307 1.134 1.134 0 0 0 .93-.862.891.891 0 0 0-.515-.884L-.007 15.253l10.04-5.834a.954.954 0 0 0 .505-.647.8.8 0 0 0-.174-.652 1.209 1.209 0 0 0-.33-.276 1.842 1.842 0 0 0-.4-.163 8.1 8.1 0 0 0-1.821-.273A6.981 6.981 0 0 1 4.68 6.59a4.17 4.17 0 0 1-.335-.215c-.072-.052-.141-.1-.208-.157a1.921 1.921 0 0 1-.828-1.443 1.851 1.851 0 0 1 .767-1.412 6.45 6.45 0 0 1 4.044-1.23 7.231 7.231 0 0 1 3.4.778 2.6 2.6 0 0 1 1.422 1.637 2.714 2.714 0 0 0 .546 1.213 1.144 1.144 0 0 0 .348.294 1.636 1.636 0 0 0 .376.157 2.277 2.277 0 0 0 .611.083 2.055 2.055 0 0 0 1.007-.249L26.25-.009l10.751 6.206a1.249 1.249 0 0 1-.156.054 8.938 8.938 0 0 1-1.756.26 7.525 7.525 0 0 0-3.318.908c-.1.062-.2.123-.294.187a3.1 3.1 0 0 0-.267.141 2.595 2.595 0 0 0 .025 4.868 6.379 6.379 0 0 0 .75.365 8.755 8.755 0 0 0 6.278-.033 5.571 5.571 0 0 0 .954-.511 3.175 3.175 0 0 0 1.94-2.333 1.6 1.6 0 0 1 .365-.812.636.636 0 0 1 .276-.17 1.245 1.245 0 0 1 .488.127l10.4 6-10.1 5.872a.909.909 0 0 0-.475.781.937.937 0 0 0 .515.767 1.732 1.732 0 0 0 .439.174 10.107 10.107 0 0 0 1.885.284 6.822 6.822 0 0 1 3.015.818 2.212 2.212 0 0 1 1.346 1.916c-.057.8-.792 1.547-2.022 2.042a7.995 7.995 0 0 1-5.623-.028 5.3 5.3 0 0 1-.659-.321 2.368 2.368 0 0 1-1.323-1.634 2.334 2.334 0 0 0-.529-1.184 1.146 1.146 0 0 0-.325-.272 2.194 2.194 0 0 0-1.94-.031L26.433 30.51Z" fill="#848b8b"/></g></g></g><g data-name="Group 343" opacity=".3" style="mix-blend-mode:multiply;isolation:isolate"><g data-name="Group 342"><g data-name="Group 341" clip-path="url(#g)" transform="translate(49.075 106.519)"><path data-name="Path 3250" d="M15.175 24.023c-.088-.051-.1-.088-.1-.088a1.355 1.355 0 0 1 .187-.1 6.818 6.818 0 0 1 2.215-.437 6.977 6.977 0 0 0 4.077-1.316 2.411 2.411 0 0 0 .03-4.034 5.12 5.12 0 0 0-.641-.44 8.437 8.437 0 0 0-7.692 0 3.03 3.03 0 0 0-1.661 2.166 1.807 1.807 0 0 1-.664 1.165.861.861 0 0 1-.526.147 1.019 1.019 0 0 1-.5-.116L0 15.256 26.253.001l10.255 5.922c.089.05.1.091.1.091a1.13 1.13 0 0 1-.177.095 7.054 7.054 0 0 1-2.288.436 7.635 7.635 0 0 0-3.434.913 2.6 2.6 0 0 0 .025 4.879 6.085 6.085 0 0 0 .739.361 8.745 8.745 0 0 0 6.278-.031 3.364 3.364 0 0 0 2.343-2.54 1.765 1.765 0 0 1 .659-1.112.863.863 0 0 1 .541-.156 1.01 1.01 0 0 1 .487.112l10.894 6.291-10.157 5.903a.886.886 0 0 0-.395.768.939.939 0 0 0 .512.727 1.762 1.762 0 0 0 .43.171 9.662 9.662 0 0 0 1.9.283 6.83 6.83 0 0 1 3 .814 2.217 2.217 0 0 1 1.353 1.923c-.057.8-.792 1.547-2.018 2.04a8.007 8.007 0 0 1-5.632-.024 5.173 5.173 0 0 1-.64-.313 2.4 2.4 0 0 1-1.334-1.647 2.366 2.366 0 0 0-.54-1.184 1.124 1.124 0 0 0-.327-.27 2.006 2.006 0 0 0-.989-.239 2.159 2.159 0 0 0-.822.154l-10.587 6.151Z" fill="#848b8b"/></g></g></g><path data-name="Path 3251" d="M69.643 127.185a7.141 7.141 0 0 1-3.155.862 9.269 9.269 0 0 0-1.823.277c-.439.109-.675.354-.676.6v1.435c0-.249.238-.494.676-.6a9.487 9.487 0 0 1 1.823-.277 7.121 7.121 0 0 0 3.155-.86 2.576 2.576 0 0 0 1.508-2.113v-1.436a2.58 2.58 0 0 1-1.508 2.112" fill="#dfdae0"/><path data-name="Path 3252" d="M42.942 138.447a5.677 5.677 0 0 0-.7-.344 8.345 8.345 0 0 0-5.986.03c-1.334.567-2.04 1.394-2.125 2.243a2.039 2.039 0 0 1-.672 1.251 1.846 1.846 0 0 1-1.9.117l-10.272-5.926v1.435l10.265 5.926a1.843 1.843 0 0 0 1.9-.116 2.052 2.052 0 0 0 .674-1.251c.085-.849.79-1.675 2.124-2.243a8.345 8.345 0 0 1 5.986-.03 5.675 5.675 0 0 1 .708.344 2.59 2.59 0 0 1 1.53 2.135v-1.436a2.592 2.592 0 0 0-1.53-2.135" fill="#bfb8c7"/><path data-name="Path 3253" d="M64.547 142.134a1.4 1.4 0 0 1-.733.161 1.321 1.321 0 0 1-.3-.123.79.79 0 0 1-.241-.2 2.367 2.367 0 0 1-.475-1.053 2.8 2.8 0 0 0-1.506-1.835 9.102 9.102 0 0 0-.5-.311c-2.241-1.295-6.015-1.16-7.918.408a2.237 2.237 0 0 0-.924 1.7v1.436a2.239 2.239 0 0 1 .924-1.7c1.9-1.566 5.677-1.7 7.918-.406.141.081.275.167.5.311a2.8 2.8 0 0 1 1.506 1.835 2.342 2.342 0 0 0 .477 1.051.79.79 0 0 0 .239.2 1.347 1.347 0 0 0 .3.123 1.41 1.41 0 0 0 .733-.161l10.869-6.317v-1.435Z" fill="#dfdae0"/><path data-name="Path 3254" d="m59.305 145.176-10.867 6.315v1.436l10.867-6.315a.471.471 0 0 0 .277-.386v-1.435a.471.471 0 0 1-.277.385" fill="#dfdae0"/></g></g><g data-name="Group 347"><g data-name="Group 346" clip-path="url(#h)" transform="translate(21.288 120.138)"><path data-name="Rectangle 153" fill="url(#a)" d="M0 0h54.127v31.354H0z"/></g></g><g data-name="Group 354"><g data-name="Group 353" clip-path="url(#b)"><path data-name="Path 3256" d="M37.294 145.059a.624.624 0 0 1-.368-.515v1.436a.626.626 0 0 0 .368.515l11.135 6.433v-1.436Z" fill="#bfb8c7"/><path data-name="Path 3257" d="M33.361 34.5c-2.015-6.356-5.742-17.077-4.866-20.95.512-2.265 5.345-2.7 6.508 1.923 2.36 8.807 3.443 15.548 3.443 15.548.15.546 9.56 11.029 9.56 11.029 1.121 1.112-1.634 4.087-2.713 3.228-2.227-1.774-10.681-8.964-11.931-10.778" fill="#bb0921"/><path data-name="Path 3258" d="M51.501 44.929a3.383 3.383 0 0 0-2.179-1.834 9.96 9.96 0 0 1-1.7-.655c-.692-.449-2.306 1.745-1.9 2.448.62.487.682.889 1.356 1.53.985.937 2.543 1.888 2.793 3.328.095.541.417 1.027.989.675 1.24-.764 1.864-3.048.637-5.492" fill="#f3a984"/><path data-name="Path 3259" d="M31.006 101.631a1.639 1.639 0 0 0-2.212.256 2.919 2.919 0 0 0-.645 1.742c-.027.621.161 1.053.239 2.2.008.142 0 .874 0 1.385a.989.989 0 0 0 .412.805c4.235 3.071 6.867 5.094 7.316 5.319a5.318 5.318 0 0 0 2.5.6 2.963 2.963 0 0 0 2.796-1.822 2.283 2.283 0 0 0 .142-.657c.139-2.7-3.419-4.1-4.889-5.48-.845-.8-2.294-1.97-3.185-2.747-.426-.372-1.93-1.21-2.473-1.6" fill="#433f44"/><path data-name="Path 3260" d="M41.436 110.482a2.35 2.35 0 0 1-.117.541 2.958 2.958 0 0 1-2.7 1.96 5.785 5.785 0 0 1-2.592-.732c-.449-.224-3.08-2.248-7.314-5.319a.976.976 0 0 1-.316-.4v.685a.99.99 0 0 0 .412.807c4.235 3.071 6.867 5.094 7.316 5.319a5.318 5.318 0 0 0 2.5.6 2.963 2.963 0 0 0 2.793-1.832 2.282 2.282 0 0 0 .141-.657 2.832 2.832 0 0 0-.117-.975" fill="#e2e2e2"/><path data-name="Path 3261" d="M32.916 98.203c-.623 1.125-3.655 1.285-4.1.263a13.931 13.931 0 0 1 .064 1.79 15.584 15.584 0 0 1-.1 2.086 1.537 1.537 0 0 0 .035.638 2.583 2.583 0 0 0 2.43 1.75 1.747 1.747 0 0 0 .991-.308l.993-.555a.573.573 0 0 0 .232-.192.561.561 0 0 0 .033-.355c-.136-1.029-.238-2.006-.372-3.035-.11-.835-.2-2.081-.2-2.081" fill="#fff"/><path data-name="Path 3262" d="m5.458 108.859 2.315 6.052s2.039 3.676 5.347 3.313c2.605-.287 2.556-1.678 2.556-1.678l.024-1.274a2.023 2.023 0 0 0-.325-1.14l-1.35-2.077-1.847-3.931c-.275-.586-.877-1.828-1.405-2.711-.477-1.016-.695-.737-1.46-1.223l-1.983-.418s-.746-.187-1.3.783a11.323 11.323 0 0 0-.683 3.509 1.816 1.816 0 0 0 .116.8" fill="#433f44"/><path data-name="Path 3263" d="M13.219 117.147c-3.308.364-5.347-3.313-5.347-3.313l-2.316-6.051a1.826 1.826 0 0 1-.115-.739c-.047.395-.079.76-.1 1.02a1.816 1.816 0 0 0 .116.8l2.315 6.051s2.039 3.678 5.347 3.313c2.605-.286 2.556-1.678 2.556-1.678l.014-.719c-.168.432-.706 1.128-2.472 1.322" fill="#e2e2e2"/><path data-name="Path 3264" d="M10.956 101.172c-.085.911-3.74 1.114-4.263-.526a18 18 0 0 1-.226 4.593 1.823 1.823 0 0 0 .5 1.639c.824.841 2.447.242 3.719-.064.3-.072.351-.175.3-.453a24.949 24.949 0 0 1-.035-5.189" fill="#fff"/><path data-name="Path 3265" d="m31.847 50.481-21.054 1c-2.314 3.662-2.894 7.679-2.972 11.893-.1 5.5 1.425 11.065-.528 16.44-.521 1.433-1.276 2.776-1.735 4.229-.991 3.131-.539 6.525.115 9.742a37.867 37.867 0 0 1 .674 9.885c-.132 1.343 4.829 1.6 4.829.177-.02-2.312.764-8.81 1.824-16.331a14.851 14.851 0 0 1 1.9-5.394c2.53-4.353 3.918-9.6 5.213-14.428.553-2.067 1.307-4.32 1.307-4.32.865.369.931-.011.931-.011a37.956 37.956 0 0 0 1.115 4.991l1.527 4.92c.576 1.855 1.153 3.713 1.878 5.514a6.084 6.084 0 0 1 .658 2.612 7.032 7.032 0 0 1-.375 1.557c-1.942 6.478 1.586 12.174 1.607 18.589 0 1.429 4.619 1.422 4.619.079 0-5.224.6-9.53.3-14.745a6 6 0 0 1 .017-1.361 6.731 6.731 0 0 1 .427-1.283c.882-2.248.749-4.48.916-6.866 1.023-14.684-2.792-26.2-3.2-26.89" fill="#211921"/><path data-name="Path 3266" d="M17.37 6.776c.062 3.2 1.661 7.586-.238 12.38 0 0 5.294 1.988 5.312-6.461.013-5.51.291-3.257 3.139-9.558.266-.587 1.787.344 1.405-.253-3.048-4.75-9.748-2.82-9.618 3.892" fill="#724a2f"/><path data-name="Path 3267" d="M23.33 2.616c-2.016 1.4-.955 3.274.751 3.289a2.847 2.847 0 0 0 2.769-2.014c.232-1.386-1.67-2.557-3.52-1.275" fill="#a7afaf"/><path data-name="Path 3268" d="M28.724 11.809c1.8-.964 3.3.041 4.614 1.295a4.834 4.834 0 0 1 1.166 2.65 17.018 17.018 0 0 1-.017 5.231 13.847 13.847 0 0 0 .034 5.837c.173.617.335 1.163.484 1.641a4.755 4.755 0 0 1-1.022 4.621c-.266.291-.522.586-.763.9a8.645 8.645 0 0 0-.669.989c-1.408 2.438-1.756 6.754-1.538 9.561a46.334 46.334 0 0 0 .938 5.891c.726 2.836-3.32 5.628-9.464 6.177-6.026.537-11.905-.851-12.706-3.351 0 0 2.072-4.2 4.166-8.407 1.661-3.338 1.448-7.763.846-10.932a16.159 16.159 0 0 0-2.288-5.311 10.315 10.315 0 0 1-1.142-3 4.543 4.543 0 0 1 1.706-4.616 74.659 74.659 0 0 1 7-4.125c3.455-2 5.431-3.331 8.649-5.052" fill="#ea5c4d"/><g data-name="Group 352" opacity=".5" style="mix-blend-mode:multiply;isolation:isolate"><g data-name="Group 351"><g data-name="Group 350" clip-path="url(#i)" transform="translate(9.781 45.665)"><g data-name="Group 349"><g data-name="Group 348" clip-path="url(#j)" transform="translate(0 -.001)"><path data-name="Rectangle 154" transform="rotate(-21.431 1.993 10.54)" fill="url(#k)" d="M0 0h10.934v12.888H0z"/></g></g></g></g></g><path data-name="Path 3270" d="M27.078 34.13a66.874 66.874 0 0 0 1.755-11.186c-.007-1.883-5.523-7.81-6.658-7.139a4.04 4.04 0 0 0-1.725 5.08c.729 1.69 1.68 3.141 2.243 4.648.333.887 2.193 4.653 4.385 8.6" fill="#efefed"/><path data-name="Path 3271" d="m25.895 16.658 1.394 6.107 2.843.57s-.88-1.845-2.076-4.36a9.245 9.245 0 0 0-2.161-2.317" fill="#fff"/><path data-name="Path 3272" d="M22.603 13.811c1.262 1.248 4.67 4.164 4.687 4.228a6.884 6.884 0 0 1 0 4.725l-.352 1.445-.566-.908c-1.7-.259-4.024-2.3-4.612-3.136a4.419 4.419 0 0 1-.866-3.354 3.529 3.529 0 0 1 .906-1.278 3.856 3.856 0 0 0 .8-1.722" fill="#f2a883"/><path data-name="Path 3273" d="M21.736 15.629a3.232 3.232 0 0 0-1.994 2.142c-.174.59.106 2.275 2.589 7.381.248.507.487 1.019.726 1.528l3.314-3.382c-2.551-1.576-6.881-5.424-4.636-7.669" fill="#fff"/><path data-name="Path 3274" d="M21.738 7.797a17.016 17.016 0 0 0 .729 8.145 11.074 11.074 0 0 0 6.775 6.215 2.019 2.019 0 0 0 2.209-1.23c1.9-3.709 4.106-9.812 2.452-12.632-1.44-2.456-2.85-3.846-4.829-4.531-1.738-.6-6.611.109-7.335 4.033" fill="#fbbd9e"/><path data-name="Path 3275" d="M34.421 6.798c-.33-.633-2.506-3.743-5.762-4.4a6.645 6.645 0 0 0-5.388 1.074 5.42 5.42 0 0 0-1.967 2.666 10.268 10.268 0 0 0-.528 3.308 9.785 9.785 0 0 0 .412 3.274 35.75 35.75 0 0 0 1.517 3.748 7.226 7.226 0 0 0 .112-1.513c.059-.444.093-1.261.72-1.4 1.326-.3 1.251 2.072 1.439 2.749a.929.929 0 0 0 .238.447.429.429 0 0 0 .473.092.6.6 0 0 0 .228-.263 11.429 11.429 0 0 1 1.047-2.213c1.309-1.515 7.054-3.976 7.529-3.02a5.3 5.3 0 0 0-.069-4.551" fill="#724a2f"/><path data-name="Path 3276" d="M50.317 49.813a5.455 5.455 0 0 0-2.367 2.486c-.539 1.738.4 1.75 1.19 2.263a2.578 2.578 0 0 1 1.51-2.111 7.222 7.222 0 0 1 3.269-.865 7.431 7.431 0 0 0 2.4-.46c.269-.1.406-.272.406-.441V49.25a8.233 8.233 0 0 0-6.414.563" fill="#dfdae0"/><path data-name="Path 3277" d="M19.037 58.504v1.436l10.433 6.029a1.405 1.405 0 0 0 1.442-.074 2.171 2.171 0 0 0 .784-1.394 2.674 2.674 0 0 1 1.484-1.9 8.078 8.078 0 0 1 7.33 0 4.318 4.318 0 0 1 .594.408 2.255 2.255 0 0 1 .942 1.731c.924-1.131 1.837-2.265 1.448-3.937-2.95-8.9-24.457-2.3-24.457-2.3" fill="#bfb8c7"/><path data-name="Path 3278" d="M59.838 63.663c-.286 1.821 1.159 2.125 2.4 2.891a.519.519 0 0 1 .218-.395l10.7-6.22v-1.436c-3.72-.572-12.959 3.61-13.325 5.161" fill="#dfdae0"/><path data-name="Path 3279" d="M34.753 67.578a.477.477 0 0 1-.283-.391v1.436a.477.477 0 0 0 .283.391l11.433 6.6v-1.436Z" fill="#bfb8c7"/><path data-name="Path 3280" d="m55.405 67.793-9.218 4.945v2.88l10.726-6.233a1.849 1.849 0 0 1 1.5.064.8.8 0 0 1 .225.187 1.982 1.982 0 0 1 .461 1 2.718 2.718 0 0 0 1.513 1.917 6.61 6.61 0 0 0 1.565.633 7.951 7.951 0 0 0 4.344-.038c1.947-.576 2.921-1.639 2.923-2.7v-1.436a86.477 86.477 0 0 0-10.106-2.023 7 7 0 0 0-3.93.811" fill="#dfdae0"/></g></g><g data-name="Group 356"><g data-name="Group 355" clip-path="url(#l)" transform="translate(19.038 42.83)"><path data-name="Rectangle 157" fill="url(#m)" d="M0 0h54.122v31.348H0z"/></g></g><g data-name="Group 361"><g data-name="Group 360" clip-path="url(#b)"><path data-name="Path 3282" d="M16.572 40.133c.025-3.6.717-7.869 1.063-11.469.32-3.351.34-6.123-.757-7.238-1.562-1.589-4.529-1.6-6.114 3.171-1.168 3.508-1.316 8.133-.696 17.584.191.948 5.309 12.762 7.119 15.575.406.63 3.775-.841 3.491-1.75-.157-.5-4.106-15.872-4.106-15.872" fill="#bb0921"/><g data-name="Group 359" opacity=".5" style="mix-blend-mode:screen;isolation:isolate"><g data-name="Group 358"><g data-name="Group 357" clip-path="url(#n)" transform="translate(16.263 28.667)"><path data-name="Path 3283" d="M.344 11.463C.388 7.623 1.027 3.822 1.39 0 1.352 0 .906 2.844.906 2.844c-.17.947-.27 1.9-.4 2.854a57.029 57.029 0 0 0-.505 5.766c.616 2.755 1.4 5.371 2.114 8.009l1.09 3.951c.371 1.315.8 2.614 1.191 3.921.038-.011-4.051-15.882-4.051-15.882" fill="#bb0921"/></g></g></g><path data-name="Path 3284" d="M24.262 62.96a20.3 20.3 0 0 1-1.609-1.776 6.676 6.676 0 0 1-.522-1.8c.6.218 3.675.625 3.594-.354-.047-.552-2.223-1.128-3.515-1.476-.754-.2-1.742-1.767-1.742-1.767-.241-.9-3.881.655-3 2.079l.267.522.368 3.013a2.737 2.737 0 0 0 1.44 2.028c1.442.833 6.353 1.564 6.353.48Z" fill="#f3a984"/><path data-name="Path 3285" d="M49.674 43.641a1.483 1.483 0 0 0-1.257-.522c-.209.008-.453.076-.521.259a.535.535 0 0 0 .071.395 8.281 8.281 0 0 1 .453 1.538c.231 1.061.232 1.851 1.056 1.736.869-.12.2-1.739.2-3.406" fill="#f3a984"/><path data-name="Path 3286" d="M129.761 99.961a3.158 3.158 0 0 1-1.135 2.434c-3.185 1.667-4.912 2.243-6.522 3.2a2.777 2.777 0 0 0-1.593 1.944 3.24 3.24 0 0 0 .576 2.031c1.334 1.579 3.156 1.53 6.186.594a67.4 67.4 0 0 0 8.143-3.267c.433-.209 1.559-.72 1.722-1.172a5.027 5.027 0 0 0 .246-1.791c.031-1.784.04-3.424.016-5.21a1.614 1.614 0 0 0-.123-.7 1.536 1.536 0 0 0-.717-.633 5.243 5.243 0 0 0-6.036 1.039 1.81 1.81 0 0 0-.763 1.527" fill="#433f44"/><path data-name="Path 3287" d="M137.372 104.38c-.112 1.155-2.853 2.11-5.541 3.165a42.424 42.424 0 0 1-5.643 1.8 4.906 4.906 0 0 0-3.447-4.106 4.15 4.15 0 0 0-2.462 2.265c-.328 1.288.246 2.411 1.731 3.124a5.759 5.759 0 0 0 3.513.385 29.032 29.032 0 0 0 3.852-1.029 42.492 42.492 0 0 0 6.321-2.616c.457-.221 1.38-.644 1.552-1.122a3 3 0 0 0 .125-1.871" fill="#f0f0f0"/><path data-name="Path 3288" d="M125.516 103.922c-.477-.116-1.187.323-.71.427a4.438 4.438 0 0 1 2.974 1.919c.246.389.887.11.683-.3a3.943 3.943 0 0 0-2.947-2.043" fill="#fff"/><path data-name="Path 3289" d="M126.629 103.399c-.484-.062-1.032.344-.556.43a4.859 4.859 0 0 1 2.877 1.951c.283.379.913.006.631-.374a4.39 4.39 0 0 0-2.952-2.008" fill="#fff"/><path data-name="Path 3290" d="M128.05 102.907c-.464-.157-1.228.144-.767.3.749.255 2.355 1.071 2.667 1.8.183.422.865.117.683-.3a4.182 4.182 0 0 0-2.584-1.8" fill="#fff"/><path data-name="Path 3291" d="M129.171 102.266c-.458-.161-1.126.243-.758.378a5.207 5.207 0 0 1 2.686 1.81c.248.389.924.01.669-.381a4.65 4.65 0 0 0-2.6-1.807" fill="#fff"/><path data-name="Path 3292" d="M166.797 110.379a.674.674 0 0 1-.068.491c-.719 1.324-3.83 7.229-6.257 8.694-1.173.706-4.981.463-5.7-.836a2.8 2.8 0 0 1-.265-1.17c-.141-2.1 2.806-5.553 4.058-8.659a8.315 8.315 0 0 0 .164-3.673c1.008-.211 7.081-1.566 7.174-.306a38.385 38.385 0 0 0 .614 4.088c.134.686.205 1.067.275 1.371" fill="#433f44"/><path data-name="Path 3293" d="M154.939 115.809a5.707 5.707 0 0 1 6.253 1.613 39.469 39.469 0 0 0 4.054-5.721c.608-1.015 1.377-2.04 1.251-2.829a3.338 3.338 0 0 1 .372 1.96c-.736 1.351-3.924 7.395-6.4 8.891-1.2.722-5.086.473-5.816-.855a2.844 2.844 0 0 1-.272-1.194 2.585 2.585 0 0 1 .559-1.865" fill="#f0f0f0"/><path data-name="Path 3294" d="M157.736 111.601a7.445 7.445 0 0 1 3.753.579c.427.249.03.8-.433.633a7.733 7.733 0 0 0-3.178-.457c-.481.11-.621-.642-.142-.754" fill="#fff"/><path data-name="Path 3295" d="M158.214 110.41a11.575 11.575 0 0 1 4.031.659c.474.142.215.863-.256.722a10.549 10.549 0 0 0-3.635-.627c-.487.028-.634-.724-.14-.754" fill="#fff"/><path data-name="Path 3296" d="M158.94 109.296a22.477 22.477 0 0 1 3.716.44c.477.1.419.863-.065.764a22.31 22.31 0 0 0-3.716-.44c-.492-.017-.427-.781.065-.764" fill="#fff"/><path data-name="Path 3297" d="M162.84 109.5a22.047 22.047 0 0 0-3.637-.538c-.491.018-.425-.746.065-.764a22.007 22.007 0 0 1 3.635.538c.485.071.426.836-.064.764" fill="#fff"/><path data-name="Path 3298" d="M160.394 77.872c.654 1.667 1.568 3.219 2.328 4.841 3.4 7.245 3.064 15.439 3.593 23.424.177 2.663-7.294 2.994-7.834.736-2.9-12.166-3.461-17.686-6.352-22.57-2.642-4.462-4.96-15.18-5.932-20.272-2.108 8.783-3.368 12.889-3.9 15.663-.391 2.021-.233 4.111-.559 6.143-.453 2.822-1.589 5.411-2.357 8.163-.733 2.622-1.374 6.358-1.592 7.662-.446 2.681-9.076 1.494-8.521-1.084.345-1.61 3.58-22.5 3.315-26.833-.243-3.978 1.34-7.763 1.507-11.7a51.8 51.8 0 0 1 1.65-11.653c.3-1.07.364-1.125 1.51-1.09.8.024 1.6.123 2.41.146 1.939.052 3.876.109 5.814.158 3.921.106 3.654 1.156 5.53 1.4 1.3.17 6.668-.025 7.817 2.551 1.53 14.064.952 18.128 1.578 24.31" fill="#231b23"/><path data-name="Path 3299" d="M137.955 14.061c5.7 0 1.143 12.462 1.143 12.462l-2.049 12.616s-5.564 4.8-9.2 8.434c-1.443 1.443-5.875-1.6-4.3-3.478.645-.768 9.026-9.728 9.111-10.233 2.176-13 1.225-19.8 5.294-19.8" fill="#267576"/><path data-name="Path 3300" d="M123.394 44.93a3.735 3.735 0 0 1-.7.876 48.385 48.385 0 0 1-5.759 1.916.948.948 0 0 0-.617.457.741.741 0 0 0 .325.869 1.657 1.657 0 0 0 .974.2 7.64 7.64 0 0 0 1.592-.276 7.14 7.14 0 0 0 .229 1.7 1.213 1.213 0 0 0 .272.567 1.341 1.341 0 0 0 .556.279l2.016.642c.577.184 2.847.631 3.365.314a22.124 22.124 0 0 0 1.422-4.261l.293-.681c.55-.756-3.054-3.952-3.968-2.6" fill="#5e460b"/><path data-name="Path 3301" d="M148.108 15.766a76.6 76.6 0 0 1 7.235 2.728c2.478 1.04 4.638 1.664 5.118 4.307.5 2.761-.062 8.142-2.009 13.539a30.513 30.513 0 0 0-1.412 7.057 19.388 19.388 0 0 0 .273 5.142 17.249 17.249 0 0 0 1.075 3.754c2.383 4.984-7.7 7.214-12.874 6.484-4.79-.675-10.013-2.035-9.864-6.887.158-5.166.869-10.907.419-16.056-1.682-19.246.092-21.343 1.5-21.759a31.989 31.989 0 0 1 10.54 1.691" fill="#33a6a7"/><path data-name="Path 3302" d="M134.848 53.469v1.436V53.5Z" fill="#bab5a8"/><path data-name="Path 3303" d="M107.558 55.82v1.436a.465.465 0 0 0-.108-.287.817.817 0 0 0-.228-.19 1.322 1.322 0 0 0-.316-.127 7.776 7.776 0 0 0-1.735-.26 7.327 7.327 0 0 1-3.3-.866 5.091 5.091 0 0 1-.59-.406 2.262 2.262 0 0 1-.961-1.74v-1.436a2.264 2.264 0 0 0 .959 1.74 5.078 5.078 0 0 0 .591.406 7.309 7.309 0 0 0 3.3.866 7.858 7.858 0 0 1 1.735.26 1.41 1.41 0 0 1 .314.127.784.784 0 0 1 .229.191.458.458 0 0 1 .108.286" fill="#bfb8c7"/><path data-name="Path 3304" d="M134.311 53.792a9.4 9.4 0 0 1-1.83.273 7.121 7.121 0 0 0-3.157.857q-.142.083-.272.17c-.1.05-.194.1-.287.156a2.571 2.571 0 0 0-1.506 2.108v1.436a2.571 2.571 0 0 1 1.506-2.108c.093-.055.19-.106.287-.156s.177-.115.272-.17a7.141 7.141 0 0 1 3.156-.862 9.291 9.291 0 0 0 1.83-.272 1.085 1.085 0 0 0 .531-.287v-1.436a1.085 1.085 0 0 1-.531.287" fill="#dfdae0"/><path data-name="Path 3305" d="M140.134 68.625a.555.555 0 0 0-.3.447v1.436a.55.55 0 0 1 .294-.447l10.645-6.186v-1.436Z" fill="#dfdae0"/><path data-name="Path 3306" d="m107.32 68.605-10.676-6.164v1.436l10.676 6.164a.572.572 0 0 1 .341.475V69.08a.576.576 0 0 0-.341-.475" fill="#bfb8c7"/></g></g><g data-name="Group 363"><g data-name="Group 362" clip-path="url(#o)" transform="translate(96.642 46.761)"><path data-name="Rectangle 160" fill="url(#p)" d="M0 0h54.136v31.358H0z"/></g></g><g data-name="Group 368"><g data-name="Group 367" clip-path="url(#b)"><path data-name="Path 3308" d="M144.791 75.43a8.361 8.361 0 0 1-5.9-.03 5.81 5.81 0 0 1-.7-.341 2.7 2.7 0 0 1-1.5-1.906 2.006 2.006 0 0 0-.453-1 .857.857 0 0 0-.222-.181 1.838 1.838 0 0 0-1.6-.023l-10.617 6.17v1.436l10.617-6.174a1.834 1.834 0 0 1 1.6.023.858.858 0 0 1 .222.181 2.021 2.021 0 0 1 .454 1 2.694 2.694 0 0 0 1.5 1.9 5.609 5.609 0 0 0 .7.341 8.361 8.361 0 0 0 5.9.031c1.5-.6 2.248-1.537 2.251-2.471v-1.435c0 .933-.753 1.865-2.25 2.469" fill="#dfdae0"/><path data-name="Path 3309" d="M113.107 71.944a1.684 1.684 0 0 0-1.859.177 2.014 2.014 0 0 0-.488 1.057c-.092.853-.812 1.688-2.169 2.251a8.4 8.4 0 0 1-5.9.025 6.121 6.121 0 0 1-.747-.359 2.6 2.6 0 0 1-1.531-2.14v1.435a2.6 2.6 0 0 0 1.532 2.141 6 6 0 0 0 .746.359 8.4 8.4 0 0 0 5.9-.027c1.357-.562 2.077-1.4 2.169-2.25a2.009 2.009 0 0 1 .488-1.057 1.682 1.682 0 0 1 1.859-.177l10.692 6.172v-1.436Z" fill="#bfb8c7"/><path data-name="Path 3310" d="M165.218 45.829c0 1.329-8.015 15.285-8.871 16.554-.666.989-5.319-1.074-4.866-2.292.218-.586 7.45-16.434 7.207-16.929-2.479-5.025-7.747-21.353-5.81-24.16 0 0 .058-.01.161-.024a8.541 8.541 0 0 1 8.446 3.847c1.165 1.872 3.733 4.889 3.733 23" fill="#267576"/><g data-name="Group 366" opacity=".3" style="mix-blend-mode:screen;isolation:isolate"><g data-name="Group 365"><g data-name="Group 364" clip-path="url(#q)" transform="translate(151.495 28.964)"><path data-name="Path 3311" d="M6.99 15.931c-1.624 3.871-3.4 7.65-4.7 10.5-.651 1.426-1.262 2.584-1.657 3.409s-.628 1.292-.628 1.292c.2-.593 7.433-16.441 7.188-16.936a88.833 88.833 0 0 1-4.9-14.2c.017.01.171.509.441 1.384.287.867.7 2.106 1.189 3.593s1.1 3.208 1.8 5.029c.354.91.736 1.844 1.153 2.776l.318.693.17.348a.755.755 0 0 1 .129.467 8.079 8.079 0 0 1-.505 1.641" fill="#c9a26f"/></g></g></g><path data-name="Path 3312" d="M151.88 60.505c-.067.142-.205.351-.294.5-.416-.025-.686.013-1.217.025a13.8 13.8 0 0 0-3.088.439c-.263.067-.576.184-.616.453a.515.515 0 0 0 .218.451 2.385 2.385 0 0 0 1.449.3 5.015 5.015 0 0 1 1.856.443q.072.032.144.068a12.338 12.338 0 0 1-1.04 1.551l-3.4 1.975c.3.692 2.7 1.085 4.121.975 2.207-.173 3.8-.3 5.158-4.152a5.5 5.5 0 0 1 .567-1.153c.548-.775-3.44-2.779-3.86-1.881" fill="#5e460b"/><path data-name="Path 3313" d="M140.782 18.22c-1.209 4.307-1.424 14.938 5.073 10.529 1.266-.86 5.274-4.365 6.638-6.689a7.985 7.985 0 0 0 1.157-2.513 1.863 1.863 0 0 0-1.407-2.1c-1.585-.409-4.1-.879-5.626-1.407a10.143 10.143 0 0 0-2.053-.567c-2.138-.265-3.228.767-3.782 2.744" fill="#efefed"/><path data-name="Path 3314" d="M148.574 14.927c2.548.091 3.17 1.269 3.17 1.269l.644 1.67-1.19 2.462s-5.172-5.492-2.623-5.4" fill="#efefed"/><path data-name="Path 3315" d="M142.558 15.555c.552-1.364 9.523-.49 9.3 2.449-1.879 4.476-7.3 3.736-7.3 3.736l-1.206 1.985s-.41-1.261-.693-2.318c-2.265-1.053-.1-5.853-.1-5.853" fill="#563429"/><path data-name="Path 3316" d="m144.561 21.74 2.335 3.225c3.521-1.6 6.068-5.421 6.216-6.256a9.449 9.449 0 0 0-1.37-2.514c.311 1.549-1.272 3.226-2.362 4.071a7.789 7.789 0 0 1-4.82 1.474" fill="#fff"/><path data-name="Path 3317" d="M150.616 11.487a.4.4 0 0 0-.1-.218c-.129-.12-.335-.035-.487.054a19.516 19.516 0 0 0-3.813 2.847 10.108 10.108 0 0 1-1.746 1.566c-.31.188-1.283.594-1.411.921-.1.263-.181 3.753.594 4.094 2.987 1.315 6.031-.42 7.46-3.054.266-.491-.05-.955-.2-1.442-.525-1.682.051-3.114-.3-4.769" fill="#5e460b"/><path data-name="Path 3318" d="M142.558 15.555c-1.357 4.181.1 5.853.1 5.853l-2.108 1.354a13.023 13.023 0 0 1 2.008-7.21" fill="#fff"/><path data-name="Path 3319" d="M152.16 11.291a15.576 15.576 0 0 1-1.23 2.809c-3.61 5.645-8.218 6.342-9.353 6.226a2.4 2.4 0 0 1-1.789-.979 3.4 3.4 0 0 1-.419-1.515c-.136-1.336-.56-6.451-.574-10.61a4.153 4.153 0 0 1 .863-2.609 12.534 12.534 0 0 1 5.091-3.69c1.7-.566 4.316-.279 5.632 1.162a8.56 8.56 0 0 1 2.333 6.669 8.912 8.912 0 0 1-.555 2.54" fill="#5e460b"/><path data-name="Path 3320" d="M149.079 13.375c-.665.26-.791-.456-.829-.889a4.155 4.155 0 0 0-.857-2.011 3.209 3.209 0 0 0-2.727-1.187c-3.772-.059-5.405-1-5.871-2.065-.205-.767-.807-6.767 7.1-7.217a6.939 6.939 0 0 1 4.544 1.286c3.873 2.843 3.9 7.794 2.5 11.08-1.456 2.522-2.732 2.775-2.732 2.775.618-.865 1.94-3.362 1.525-4.316a.881.881 0 0 0-1.111-.508c-.608.225-.9 1.088-1.1 1.641-.156.441.126 1.186-.446 1.409" fill="#2b2119"/><path data-name="Path 3321" d="M125.83 125.324v1.436a2.259 2.259 0 0 1-.938 1.715 6.7 6.7 0 0 1-3.886 1.268 7.86 7.86 0 0 0-1.725.263c-.422.113-.644.348-.644.59v-1.436c0-.242.222-.477.644-.589a7.847 7.847 0 0 1 1.725-.265 6.694 6.694 0 0 0 3.889-1.267 2.259 2.259 0 0 0 .938-1.715" fill="#dfdae0"/><path data-name="Path 3322" d="M98.997 130.745v1.436a2.291 2.291 0 0 0-1-1.776 4.521 4.521 0 0 0-.545-.366 7.313 7.313 0 0 0-3.334-.872 7.449 7.449 0 0 1-2.326-.454.936.936 0 0 1-.156-.072.465.465 0 0 1-.272-.385v-1.435a.465.465 0 0 0 .272.385 1.12 1.12 0 0 0 .154.071 7.5 7.5 0 0 0 2.328.456 7.3 7.3 0 0 1 3.334.87 4.673 4.673 0 0 1 .543.366 2.289 2.289 0 0 1 1 1.776" fill="#bfb8c7"/><path data-name="Path 3323" d="M106.886 133.814c-1.473.606-.681 6.119-.683 7.041v1.436c0-.923.737-1.845 2.209-2.449a8.342 8.342 0 0 1 5.987.03 5.958 5.958 0 0 1 .638.316 2.723 2.723 0 0 1 1.518 1.931 2.168 2.168 0 0 0 .792 1.346.731.731 0 0 0 .125.089 1.472 1.472 0 0 0 1.327 0l10.869-6.315v-1.436Z" fill="#dfdae0"/><path data-name="Path 3324" d="m86.175 141.948-10.647-6.147v1.436l10.647 6.147a.574.574 0 0 1 .341.477v-1.436a.572.572 0 0 0-.34-.477" fill="#bfb8c7"/></g></g><g data-name="Group 370"><g data-name="Group 369" clip-path="url(#r)" transform="translate(75.527 120.121)"><path data-name="Rectangle 163" fill="url(#s)" d="M0 0h54.137v31.358H0z"/></g></g><g data-name="Group 372"><g data-name="Group 371" clip-path="url(#b)"><path data-name="Path 3326" d="m113.56 145.163-10.876 6.319v1.436l10.874-6.319a.47.47 0 0 0 .272-.382v-1.436a.465.465 0 0 1-.27.382" fill="#dfdae0"/><path data-name="Path 3327" d="M92.014 145.32a1.85 1.85 0 0 0-1.429-.1.95.95 0 0 0-.439.283 1.979 1.979 0 0 0-.443 1 2.87 2.87 0 0 1-1.783 2.076 6.527 6.527 0 0 1-.393.18 8.334 8.334 0 0 1-5.889.025 5.711 5.711 0 0 1-.757-.364 2.589 2.589 0 0 1-1.53-2.137v1.435a2.59 2.59 0 0 0 1.53 2.137 5.732 5.732 0 0 0 .758.365 8.33 8.33 0 0 0 5.888-.025c.137-.058.269-.117.393-.18a2.875 2.875 0 0 0 1.784-2.076 1.955 1.955 0 0 1 .443-1 .959.959 0 0 1 .437-.284 1.85 1.85 0 0 1 1.429.1l10.669 6.16v-1.436Z" fill="#bfb8c7"/></g></g></g></svg>