<svg data-name="Group 18" xmlns="http://www.w3.org/2000/svg" width="298.303" height="92.137" viewBox="0 0 298.303 92.137"><defs><clipPath id="a"><path data-name="Rectangle 13" fill="none" d="M0 0h298.303v92.137H0z"/></clipPath></defs><path data-name="Rectangle 12" fill="#838383" d="M0 0h52.972v92.137H0z"/><g data-name="Group 15"><g data-name="Group 14" clip-path="url(#a)"><path data-name="Path 58" d="M29.116 56.291c0 .231.143.567.449.47.015-.009.03 0 .027.012-.049.258-.507.494-.716.188a.667.667 0 0 0 .261.974.033.033 0 0 1 0 .058.524.524 0 0 1-.786-.2.684.684 0 0 0-.082.955 2.07 2.07 0 0 1-1.735.152 3.1 3.1 0 0 0-1.7-.543c.1-.989.595-1.25 1.5-1.389.728-.118.819-.455.713-.707a1.4 1.4 0 0 0-.7.161.262.262 0 0 1 .036-.279.662.662 0 0 1-.067-.234c.507 0 .6-.115.6-.115.091-.528-.452-.582-.861-.3a.477.477 0 0 1-.161-.394.207.207 0 0 1-.091-.155c0-.124.6-.464.755-.5.042-.176.261-.419.9-.361a2.043 2.043 0 0 0-.127-.955c-.024-.052.012-.079.067-.042.224.14.446.661.6.673a7.327 7.327 0 0 1 .758-.358 7.915 7.915 0 0 1 .136.825c.094.115.646 0 .892.106.064.027.061.07 0 .079a2.11 2.11 0 0 0-.855.44 2.38 2.38 0 0 1 .176 1.438m-6.421.409c-.058.073-.234 0-.3-.036-.018-.006-.018 0-.015.012.045.1.215.382.47.382a.466.466 0 0 0 .331-.143s.995.318 1.486.458a1.687 1.687 0 0 0-.334.892c-.4-.243-1.984-1.095-1.984-1.095l-.494.673c-.079.112-.473-.176-.391-.288l.376-.516c-.124-.13-.425-.049-.507-.024-.009.006-.021 0-.009-.021a.536.536 0 0 1 .7-.273c0-.285-.425-.194-.534-.161-.015 0-.018-.006-.006-.015a.674.674 0 0 1 .843-.176l.17-.231-.34-.358.215-.3.237.328 1.832-2.512a1.777 1.777 0 0 1 .543-.2 1.78 1.78 0 0 1-.009.576l-1.8 2.533.382.124-.212.294-.446-.206Zm13.662 13.2c.024 0 .027-.021.012-.03a.8.8 0 0 1-.422-.607c0-.422.81-.974 1.2-.974.227 0 .394.276.837.276a.9.9 0 0 0 .719-.373c.015-.018.006-.036-.021-.033-.182.03-.686.155-.916-.749-.243-.94-.322-1.62.094-1.981a16.465 16.465 0 0 1 2.76-1.213c.042-.021.039-.052 0-.061a.6.6 0 0 1-.5-.5.553.553 0 0 1 .221-.549 2.806 2.806 0 0 0-1.7-.773c-1.686 0-3.121 2.29-3.807 2.29a.354.354 0 0 1-.3-.179c-.024-.03-.046-.033-.046.018 0 .689.367.752.561.752a.664.664 0 0 0 .312-.082c.024-.015.033 0 .033.018s-.006.1-.006.149a3.124 3.124 0 0 0 .852 1.7c-.385.4-1.347 1.077-1.614.713-.118-.143-.619-1.046-1.292-.328-.024.027-.006.058.036.058.382 0 .676.261.573.652-.546-.437-1.3-.364-1.3.637 0 .042.036.052.058.021a.68.68 0 0 1 1.007-.091.755.755 0 0 0-.461 1.3c.024.033.049.024.055 0 .058-.522.376-.61.634-.61.534 0 .925.488 1.329-.03.149.679.907.616 1.086.582m-18.657-.582c.406.519.8.03 1.329.03.261 0 .579.088.637.61 0 .024.027.033.052 0a.755.755 0 0 0-.461-1.3.683.683 0 0 1 1.01.091c.021.03.058.021.058-.021 0-1-.752-1.074-1.3-.637-.1-.391.194-.652.573-.652.045 0 .064-.03.039-.058-.673-.719-1.177.185-1.292.328-.27.364-1.231-.309-1.617-.713a3.124 3.124 0 0 0 .852-1.7v-.149c0-.021.009-.033.03-.018a.674.674 0 0 0 .312.082c.2 0 .564-.064.564-.752 0-.052-.024-.049-.045-.018a.358.358 0 0 1-.3.179c-.686 0-2.117-2.29-3.807-2.29a2.813 2.813 0 0 0-1.7.773.559.559 0 0 1 .221.549.605.605 0 0 1-.5.5c-.039.009-.042.039 0 .061a16.353 16.353 0 0 1 2.76 1.213c.416.361.334 1.04.094 1.981-.237.9-.734.78-.919.749-.024 0-.033.015-.018.033a.9.9 0 0 0 .719.373c.44 0 .607-.276.837-.276.385 0 1.2.552 1.2.974a.8.8 0 0 1-.425.607c-.015.009-.009.027.012.03.182.033.94.1 1.086-.582m7.968-13.607a1.866 1.866 0 0 1 .652-.03.05.05 0 0 1-.009.1c-.613.076-.643.358-1.031.358a.483.483 0 0 1-.434-.643c.012-.049.052-.052.064-.006.039.17.276.346.758.224m1.538-1.031c-.419-.024-.686.067-.67.2.2.212.47.188.67-.2m-3.494 10.849c-.234.282-.437.012-.74.012a.329.329 0 0 0-.343.334c0 .018-.012.024-.024.006a.413.413 0 0 1 .252-.716.379.379 0 0 0-.555.045c-.015.024-.036.015-.036-.012-.009-.549.428-.591.716-.346.052-.209-.082-.349-.315-.361-.027 0-.03-.021-.021-.03a.394.394 0 0 1 .288-.155c.306 0 .343.388.543.388.3 0 .728-.4.767-.446a3.648 3.648 0 0 1-.245-1.265c0-.018-.006-.021-.021-.015-.143.082-.51.082-.51-.376 0-.033.009-.036.027-.006.164.221.425-.03.555-.176s.9-1.262 1.9-1.262a1.518 1.518 0 0 1 .74.285c-.349.425-.006.831.255.777.03-.006.033.027.006.033-1.332.5-1.929.7-1.929 1.817 0 .582.2.907.543.831.024-.009.03 0 .015.024a.5.5 0 0 1-.388.2c-.273 0-.328-.155-.473-.155s-.649.294-.649.54a.427.427 0 0 0 .234.331c.009.009.006.018-.006.018-.112.021-.507.055-.595-.315m-1.8-4.738-.522-.136-.042.064-.607-.267h.543c.049 0 .055-.033.027-.058l-.464-.449.6.218c.042.015.055-.015.036-.039-.167-.252-.4-.582-.4-.582s.485.322.582.388c.033.024.061 0 .045-.027l-.276-.689.534.5c.024.024.052.012.042-.024-.049-.237-.146-.686-.146-.686l.391.573c.021.036.055.024.055-.015 0-.109.012-.625.012-.625l.249.573c.018.039.045.042.067-.009l.2-.485.024.655-.085.015-.109.783c.773-.179 1.744-1.511 2.487-1.511.886 0 1.2 1.034 2.839.513a4.925 4.925 0 0 1 .719 1.875c.628.595 1.514.394 1.514-.237 0-.84-.922-1.007-.922-1.887a.964.964 0 0 1 1.028-.965c.4 0 .986.173 1.322.173a.514.514 0 0 0 .528-.409c.036-.088.146-.058.136.012s.046.2.046.385c0 .558-.81.634-.913.567-.042-.033-.073.009-.042.036.118.1.094.431-.052.646-.018.018-.039.015-.042-.006a1.23 1.23 0 0 0-.971-.895.435.435 0 0 0-.458.44c0 .5 1.01.959 1.01 2 0 1.083-1.077 1.341-2.154 1.074.036 1.022 1.568 1.635 1.6.9 0-.052.027-.021.045 0 .227.312.124.552-.167.673.267.121.315.658.394.98.115.479.625.215.652.2s.036 0 .027.027a.544.544 0 0 1-.71.312c-.27.191.058.361.3.434.036.009.033.036.006.049-.179.064-.567.185-.755-.136a.5.5 0 0 1-.528.322c-.2 0-.331.2-.282.473 0 .024-.015.03-.033.015a.418.418 0 0 1-.012-.767.34.34 0 0 0-.491.227c-.009.027-.03.027-.039 0-.206-.546.243-.707.567-.567a.507.507 0 0 0-.619-.258c-.018.006-.03 0-.021-.03a.411.411 0 0 1 .667-.164c.2.124.537-.055.57-.073-.689-1.365-2.017-.221-2.314-1.289-.006-.021-.033-.042-.052.018-.073.227-.652.24-.758-.206-.009-.033.006-.036.027-.018.085.088.267.164.51-.182a1.359 1.359 0 0 0 .179-.74 2.36 2.36 0 0 0-2.12-2.223 4.171 4.171 0 0 0-2.345.792l.607.14a.937.937 0 0 1-1.189.819l.094-.7a.862.862 0 0 0-.458.291c-.009.015-.027.009-.033-.006a.55.55 0 0 1 .322-.646c.009-.009.009-.018-.009-.018a.591.591 0 0 0-.51.282c-.006.012-.018.009-.024-.006a.421.421 0 0 1 .064-.419m4.603 12.864c5.147 0 10.374.27 11.059 1.046.055.061.079 0 .079-.052v-2.726c0-.795-5.393-1.259-11.138-1.259s-11.141.464-11.141 1.259v2.727c0 .049.024.112.079.052.682-.777 5.912-1.046 11.059-1.046m8.4 1.219v1.183c0 2.011 3.312.124 6.509-.079 2.657-.176 3.4.5 3.4.5l-.485-2.684c-.027-.146-.6-.558-2.433-.558a10.1 10.1 0 0 0-3.71.564v1.41a.562.562 0 0 1-.406.573c0-.118-.367-.913-2.872-.913m-19.671.912a.565.565 0 0 1-.406-.573v-1.407a10.085 10.085 0 0 0-3.71-.564c-1.829 0-2.4.413-2.43.558l-.483 2.686s.74-.679 3.394-.5c3.2.2 6.509 2.09 6.509.079v-1.188c-2.505 0-2.872.795-2.872.913m6.1-23.253c-.77.17-1.322.328-1.565.4.009-.337.14-.652.443-.722a.049.049 0 0 0 .012-.088c-.686-.452-1.053.416-1.062.443-.246-.015-.613.061-.613.391 0 .977-2.245 1.523-2.766 1.6a2.641 2.641 0 0 1 1.3 1.508 5.77 5.77 0 0 1 1.614-1.253c.179 0 .246.224.261.355 0 .042.045.058.07.018.349-.519.182-.637.155-.789a.442.442 0 0 1 .519-.522v6.558l-.261.052c-.118.021-1.074-.795-2.172-1.55s-1.686-.306-2.936.37a3.856 3.856 0 0 1-3.288.082c-1.422 1.006-1.901 3.921-1.901 3.921a3.233 3.233 0 0 1-1.186.249c-1.077 0-1.274-.652-1.274-1.043 0-1.662 2.078-2.375 2.078-4.01a1.98 1.98 0 0 0-2.181-2.021H4.768a1.067 1.067 0 0 1-1.04-.746c-.036-.085-.115-.036-.085.027.058.137-.088.349-.088.761a.994.994 0 0 0 1.119 1.068 1.8 1.8 0 0 0 .743-.155c.067-.039.1.021.073.061a1.327 1.327 0 0 0-.212 1.235c.03.039.07.03.076 0a1.809 1.809 0 0 1 1.723-1.371 1.011 1.011 0 0 1 1.08 1.15c0 1.332-2.342 2.308-2.342 4.146 0 1.859 1.962 2.254 3.1 1.959-.067 1.862-2.2 2.5-2.26 1.165-.006-.061-.052-.079-.088.006-.27.658-.161 1.238.667 1.423.058.009.03.042-.021.079-.822.522-.376 2.575-.334 3.176.061.874-.807.767-.877.743-.033-.015-.07 0-.015.07a.927.927 0 0 0 1.371.07c.573.176.218.664-.167.919-.058.042-.052.085.012.088.085 0 .971.076 1.128-.631a.932.932 0 0 0 1.092.237c.17-.085 1-.388 1.083.546.006.07.045.024.073-.012a.763.763 0 0 0-.419-1.332.632.632 0 0 1 .986.115c.03.042.061.052.064-.027.055-1-.761-1.095-1.289-.658-.024-.1-.2-.664.6-.643.018 0 .058-.03.015-.07a.752.752 0 0 0-1.241.082c-.279.325-.962.194-1.025.188.215-3.476 3.279-2.248 3.7-3.937.018-.088.058-.055.067-.021.118.413 1.156.467 1.347-.346.009-.049.006-.088-.033-.052-.883.886-2.885-1.881-.158-4.134a3.954 3.954 0 0 1 5.205-.215.319.319 0 0 1-.227.4c-.036.009-.052.046.012.07a.593.593 0 0 0 .679-.149c.5.349.073.789-.13.913-.052.03-.027.061.015.07a.8.8 0 0 0 .852-.652l.076.042v1.975c0 2.815 3.252 3.206 6.813 5.59 3.561-2.384 6.807-2.775 6.807-5.59v-1.976l.079-.042a.8.8 0 0 0 .855.652c.046-.009.067-.039.015-.07-.2-.124-.631-.564-.13-.913a.594.594 0 0 0 .679.149c.061-.024.049-.061.012-.07a.32.32 0 0 1-.231-.4 3.959 3.959 0 0 1 5.208.215c2.727 2.254.725 5.02-.161 4.134-.036-.036-.042 0-.03.052.191.813 1.228.758 1.344.346.012-.033.049-.067.07.021.419 1.69 3.485.461 3.7 3.937-.064.006-.746.136-1.025-.188a.755.755 0 0 0-1.244-.082.038.038 0 0 0 .018.07c.8-.021.622.54.595.643-.525-.437-1.338-.343-1.289.658.006.079.036.07.067.027a.632.632 0 0 1 .986-.115.761.761 0 0 0-.419 1.332c.027.036.064.082.07.012.082-.934.913-.631 1.086-.546a.927.927 0 0 0 1.089-.237c.161.707 1.043.634 1.131.631.064 0 .067-.046.009-.088-.382-.255-.737-.743-.164-.919a.927.927 0 0 0 1.368-.066c.055-.067.021-.085-.015-.07-.073.024-.937.13-.877-.743.042-.6.488-2.654-.334-3.176-.055-.036-.082-.07-.021-.079.825-.185.937-.764.667-1.423-.039-.085-.082-.067-.088-.006-.067 1.332-2.2.7-2.263-1.165 1.137.294 3.1-.1 3.1-1.959 0-1.838-2.342-2.815-2.342-4.146a1.011 1.011 0 0 1 1.08-1.15 1.812 1.812 0 0 1 1.723 1.371c0 .033.042.042.076 0a1.327 1.327 0 0 0-.206-1.234c-.033-.039 0-.1.07-.061a1.813 1.813 0 0 0 .746.155.993.993 0 0 0 1.116-1.068c0-.413-.143-.625-.085-.761.027-.064-.049-.112-.088-.027a1.063 1.063 0 0 1-1.037.746h-1.794a1.978 1.978 0 0 0-2.181 2.017c0 1.635 2.078 2.348 2.078 4.01 0 .391-.2 1.043-1.271 1.043a3.236 3.236 0 0 1-1.189-.249s-.479-2.915-1.89-3.922a3.871 3.871 0 0 1-3.294-.082c-1.25-.676-1.838-1.128-2.933-.37s-2.057 1.571-2.175 1.55l-.264-.052v-6.549a.442.442 0 0 1 .522.522c-.027.152-.194.27.155.789.024.039.067.024.073-.018.012-.13.082-.355.258-.355a5.727 5.727 0 0 1 1.614 1.253 2.655 2.655 0 0 1 1.3-1.508c-.519-.082-2.763-.628-2.763-1.6 0-.331-.373-.406-.61-.391-.015-.027-.379-.895-1.065-.443a.049.049 0 0 0 .012.088c.3.07.431.385.443.722a24.619 24.619 0 0 0-6.743-.983 23.832 23.832 0 0 0-4.256.4v2.266h-.922Zm5.178-2.1a15.136 15.136 0 0 1 4.416.537c.015-1.426.006-2.223.825-2.105-.449-1.2 1.48-1.665 1.48-3.23 0-1.031-.731-1.144-.946-1.144-.637 0-.537.416-1.08.416-.07 0-.14-.018-.14.03 0 .182.155.488.4.488.334 0 .343-.337.588-.337.109 0 .261.088.261.434a3.223 3.223 0 0 1-.949 1.966.575.575 0 0 0-.47-.264.664.664 0 0 0-.57.713.888.888 0 0 0 .076.37.974.974 0 0 1-.437.152.539.539 0 0 1-.582-.6c0-1.134 1.52-2.132 1.52-3.567a1.326 1.326 0 0 0-1.413-1.365c-1.028 0-.837.937-1.723.937-.039 0-.073.012-.073.049 0 .061.152.576.613.576.491 0 .628-.849 1.065-.849.161 0 .406.094.406.67a5.287 5.287 0 0 1-.54 1.862.66.66 0 0 0-.449-.2.733.733 0 0 0-.655.807 1 1 0 0 0 .3.722c-.224.291-.452.522-.764.522-.613 0-.883-.349-.883-.728 0-.409.749-.558.749-1.2a.61.61 0 0 0-.555-.679.789.789 0 0 0-.473.191.8.8 0 0 0-.473-.191.61.61 0 0 0-.555.679c0 .64.749.789.749 1.2 0 .379-.27.728-.883.728a1.028 1.028 0 0 1-.764-.522 1 1 0 0 0 .3-.722.733.733 0 0 0-.652-.807.641.641 0 0 0-.446.2 5.176 5.176 0 0 1-.543-1.862c0-.576.243-.67.406-.67.434 0 .57.849 1.065.849.458 0 .613-.516.613-.576 0-.036-.033-.049-.076-.049-.886 0-.695-.937-1.72-.937a1.326 1.326 0 0 0-1.413 1.365c0 1.435 1.517 2.433 1.517 3.567a.537.537 0 0 1-.579.6.984.984 0 0 1-.44-.152.843.843 0 0 0 .076-.37.664.664 0 0 0-.57-.713.574.574 0 0 0-.467.264 3.244 3.244 0 0 1-.952-1.966c0-.346.155-.434.261-.434.249 0 .258.337.588.337.252 0 .4-.306.4-.488 0-.049-.067-.03-.133-.03-.549 0-.446-.416-1.086-.416-.215 0-.94.112-.94 1.144 0 1.565 1.923 2.032 1.477 3.23.819-.118.807.679.825 2.105a15.111 15.111 0 0 1 4.416-.537m0-6.788a.707.707 0 1 0 .7.707.706.706 0 0 0-.7-.707m-.352-4.3a.726.726 0 0 0 .13.4c.118.17.1.264.042.318s-.149.073-.315-.045a.746.746 0 0 0-.4-.13.361.361 0 1 0 0 .707.746.746 0 0 0 .4-.133c.167-.118.261-.1.315-.039a4.146 4.146 0 0 1-.091 1.1.846.846 0 0 0-.713.71c0 .576.619.91.983 1.1.361-.191.98-.525.98-1.1a.842.842 0 0 0-.71-.71 4.5 4.5 0 0 1-.094-1.1c.058-.058.152-.079.322.039a.706.706 0 0 0 .4.133.361.361 0 1 0 0-.707.707.707 0 0 0-.4.13c-.17.118-.264.1-.322.045s-.073-.149.045-.318a.726.726 0 0 0 .133-.4.361.361 0 1 0-.707 0m14.186 11.3c-.143.673-.737.767-1.1.358.03-.325.355-.4 1.1-.358m4.359 3.8c0-.067-.027-.058-.055-.045-.579.291-.895-.331-.752-.971a2.063 2.063 0 0 0-.391-2.097.714.714 0 0 1-1.156-.634c.033-.091.1-.109.1.009a.453.453 0 0 0 .425.425 1.063 1.063 0 0 0 .928-.874 1.606 1.606 0 0 0-2.411.673c-.036.121-.185.112-.173-.012a1.137 1.137 0 0 1 .619-.965c.528-.264.334-.655.194-.792-.058-.061-.161-.049-.127.012.2.349-.231.5-.831.431-1.268-.17-1.686.3-1.756.631-.276.07-1.356.676-1.356.9a.356.356 0 0 0 .167.276 1.021 1.021 0 0 0 .312.761c1.347-.819 1.723-.055 1.583.482 0 0-.24.2-1.15.2a1.3 1.3 0 0 0 .121.419.482.482 0 0 0-.061.5 2.065 2.065 0 0 1 1.274-.312s.516.783-1.4 1.153a3.219 3.219 0 0 0-2.524 3.176c0 .045.018.076.064.07 1.553-.291 2.263 1.313 4.277 1.131a1.514 1.514 0 0 1 .018-.968 1.688 1.688 0 0 0 .807.849 2.113 2.113 0 0 0 1.292-.7 1.476 1.476 0 0 1-.264-1.762 1.147 1.147 0 0 0 1.462.346c.091-.039.07-.1.012-.118-1.335-.431-.467-1.556-.385-1.671a.729.729 0 0 0 1.144-.51m-7.579-1.876a.8.8 0 0 1-.837-.479c-.015-.076-.082-.1-.112.012a.734.734 0 0 0 .761.995c.519 0 .807-.37 1.547-.494.322-.055.543-.006.543-.1s-.473-.1-.543-.1c-.767 0-.871.17-1.359.17m-23.353-1.575a.616.616 0 0 1-1.107-.358c.752-.039 1.074.033 1.107.358m-4.323 3.955c.082.115.952 1.241-.382 1.671-.061.021-.079.079.006.118a1.146 1.146 0 0 0 1.465-.346 1.476 1.476 0 0 1-.264 1.762 2.113 2.113 0 0 0 1.292.7 1.681 1.681 0 0 0 .81-.849 1.514 1.514 0 0 1 .018.968c2.014.182 2.724-1.423 4.277-1.131.045.006.064-.024.064-.07a3.218 3.218 0 0 0-2.527-3.176c-1.914-.37-1.4-1.153-1.4-1.153a2.065 2.065 0 0 1 1.274.312.482.482 0 0 0-.061-.5 1.272 1.272 0 0 0 .118-.419c-.91 0-1.147-.2-1.147-.2-.143-.537.237-1.3 1.586-.482a1.026 1.026 0 0 0 .309-.761.365.365 0 0 0 .167-.276c0-.221-1.08-.828-1.359-.9-.067-.328-.485-.8-1.756-.631-.6.073-1.031-.082-.828-.431.033-.061-.073-.073-.127-.012-.143.136-.331.528.191.792a1.143 1.143 0 0 1 .622.965c.009.124-.14.133-.17.012a1.61 1.61 0 0 0-2.414-.673 1.06 1.06 0 0 0 .928.874.455.455 0 0 0 .425-.425c0-.118.064-.1.1-.009a.717.717 0 0 1-1.159.634 2.068 2.068 0 0 0-.391 2.108c.14.64-.173 1.262-.752.971-.027-.012-.055-.021-.055.045a.726.726 0 0 0 1.14.51m5.072-2.551c-.067 0-.546 0-.546.1s.221.049.546.1c.74.124 1.028.494 1.544.494a.735.735 0 0 0 .764-.995c-.03-.112-.1-.088-.112-.012a.807.807 0 0 1-.84.479c-.482 0-.588-.17-1.356-.17m17.053 4.4h-.922v-2.544h.922Zm-4.15 11.266h-.925v-2.55h.922Z" fill="#fff"/><path data-name="Path 59" d="M64.468 54.768v-.306c.607-.179.934-.5.98-.983l.737-8.529-.965-.294v-.485a18.071 18.071 0 0 1 2.266-.115h.6l2.627 8.1h.021l2.533-8.1h.716a14.55 14.55 0 0 1 2.026.115v.485l-1.025.252.746 9.2.952.185v.364a3.919 3.919 0 0 1-1.617.279 8.478 8.478 0 0 1-1.826-.164v-.322a1.1 1.1 0 0 0 .965-1.153v-.106l-.47-7.6-.042-.021-2.976 9.3-.582.094-3.009-9.354-.018.015-.528 8.393 1.1.273v.364a6.686 6.686 0 0 1-1.938.279 5.642 5.642 0 0 1-1.274-.164" fill="#838383"/><path data-name="Path 60" d="M78.612 44.335a1 1 0 0 1 .273-.7.932.932 0 0 1 1.31-.049.889.889 0 0 1 .252.664 1.039 1.039 0 0 1-.273.722.871.871 0 0 1-.667.3.845.845 0 0 1-.637-.267.93.93 0 0 1-.258-.67m-.886 3.148v-.349a7.154 7.154 0 0 1 1.993-.325h.528l-.088.91v6.349l.946.249v.325a5.782 5.782 0 0 1-1.938.27 4.667 4.667 0 0 1-1.247-.143v-.279c.591-.224.886-.528.88-.91v-5.639Z" fill="#838383"/><path data-name="Path 61" d="M82.258 47.459v-.352a7.556 7.556 0 0 1 2-.294h.4v.874a3.418 3.418 0 0 1 2.478-.9 2.255 2.255 0 0 1 1.7.652 2.648 2.648 0 0 1 .628 1.911v4.68l.88.252v.322a4.757 4.757 0 0 1-1.756.273 3.551 3.551 0 0 1-1.092-.146v-.279a1.1 1.1 0 0 0 .61-1.116v-3.177q0-2.257-1.671-2.257a2.811 2.811 0 0 0-1.735.51v5.618l.943.252v.322a5.855 5.855 0 0 1-1.938.273 4.565 4.565 0 0 1-1.247-.146v-.279a1.648 1.648 0 0 0 .625-.379.739.739 0 0 0 .255-.531v-5.644Z" fill="#838383"/><path data-name="Path 62" d="M92.341 44.335a1 1 0 0 1 .273-.7.932.932 0 0 1 1.31-.049.889.889 0 0 1 .252.664 1.039 1.039 0 0 1-.273.722.871.871 0 0 1-.667.3.845.845 0 0 1-.637-.267.93.93 0 0 1-.258-.67m-.886 3.148v-.349a7.154 7.154 0 0 1 1.993-.325h.528l-.088.91v6.349l.946.249v.325a5.782 5.782 0 0 1-1.938.27 4.667 4.667 0 0 1-1.247-.143v-.279c.591-.224.886-.528.88-.91v-5.639Z" fill="#838383"/><path data-name="Path 63" d="M95.929 53.668a1.311 1.311 0 0 1 .158-.686 3.388 3.388 0 0 0 2.326 1.059 1.638 1.638 0 0 0 1.043-.294.922.922 0 0 0 .364-.746 1.024 1.024 0 0 0-.306-.761 3.824 3.824 0 0 0-1.134-.664l-.84-.352a2.148 2.148 0 0 1-1.453-2.06 2.274 2.274 0 0 1 .8-1.756 2.972 2.972 0 0 1 2.063-.725q1.856 0 1.856 1.059a3.146 3.146 0 0 1-.085.7 3.256 3.256 0 0 0-1.893-.643 1.954 1.954 0 0 0-1.165.294.878.878 0 0 0-.406.746 1.018 1.018 0 0 0 .285.746 2.9 2.9 0 0 0 1.028.573l.889.349a2.923 2.923 0 0 1 1.259.834 1.981 1.981 0 0 1 .376 1.247 2.179 2.179 0 0 1-.855 1.711 3.322 3.322 0 0 1-2.211.722c-1.4-.006-2.1-.455-2.1-1.353" fill="#838383"/><path data-name="Path 64" d="M102.199 47.983v-.546l1.793-1.785.555-.073-.058 1.511h2.2l-.121.895h-2.143l-.03 2.117c-.009.467-.012 1.119-.012 1.95 0 1.216.337 1.823 1.016 1.823a1.967 1.967 0 0 0 1.244-.425l.158.058q-.1 1.483-1.8 1.483a1.858 1.858 0 0 1-1.5-.564 2.679 2.679 0 0 1-.479-1.759c0-.094.021-.913.058-2.451l.042-2.232Z" fill="#838383"/><path data-name="Path 65" d="M108.859 50h3.57a2.946 2.946 0 0 0-.461-1.8 1.472 1.472 0 0 0-1.238-.613 1.676 1.676 0 0 0-1.28.725 2.585 2.585 0 0 0-.591 1.69m-1.491 1.198a4.835 4.835 0 0 1 1.053-3.285 3.174 3.174 0 0 1 2.463-1.216 2.787 2.787 0 0 1 2.135.831 3.218 3.218 0 0 1 .777 2.29c0 .434-.006.795-.015 1.08h-4.964a3.254 3.254 0 0 0 .7 2.2 2.245 2.245 0 0 0 1.771.807 4.142 4.142 0 0 0 2.384-.728 1.461 1.461 0 0 1 .058.446c0 .376-.264.7-.795.983a4.55 4.55 0 0 1-2.105.416 3.254 3.254 0 0 1-2.469-1.053 3.856 3.856 0 0 1-1-2.769" fill="#838383"/><path data-name="Path 66" d="M114.871 47.483v-.367a7.365 7.365 0 0 1 2-.306h.4v1.174h.012l.467-.516a2.009 2.009 0 0 1 1.465-.728c.588 0 .883.237.883.716a2 2 0 0 1-.279.992 1.648 1.648 0 0 0-1.025-.376 2.151 2.151 0 0 0-1.48.686v5.311l1.168.249v.325a6.375 6.375 0 0 1-2.075.27 5.052 5.052 0 0 1-1.335-.143v-.279a1.648 1.648 0 0 0 .625-.379.737.737 0 0 0 .258-.531v-5.64Z" fill="#838383"/><path data-name="Path 67" d="M121.384 44.335a.988.988 0 0 1 .273-.7.932.932 0 0 1 1.31-.049.889.889 0 0 1 .252.664 1.039 1.039 0 0 1-.273.722.871.871 0 0 1-.667.3.845.845 0 0 1-.637-.267.93.93 0 0 1-.258-.67m-.886 3.148v-.349a7.154 7.154 0 0 1 1.993-.325h.528l-.088.91v6.349l.946.249v.325a5.782 5.782 0 0 1-1.938.27 4.667 4.667 0 0 1-1.247-.143v-.279c.591-.224.886-.528.88-.91v-5.639Z" fill="#838383"/><path data-name="Path 68" d="M126.567 50h3.571a2.945 2.945 0 0 0-.461-1.8 1.472 1.472 0 0 0-1.238-.613 1.666 1.666 0 0 0-1.277.725 2.572 2.572 0 0 0-.595 1.69m-1.5 1.192a4.835 4.835 0 0 1 1.053-3.285 3.174 3.174 0 0 1 2.463-1.216 2.787 2.787 0 0 1 2.135.831 3.232 3.232 0 0 1 .777 2.29c0 .434-.006.795-.015 1.08h-4.955a3.254 3.254 0 0 0 .7 2.2 2.245 2.245 0 0 0 1.771.807 4.142 4.142 0 0 0 2.384-.728 1.46 1.46 0 0 1 .058.446c0 .376-.264.7-.795.983a4.55 4.55 0 0 1-2.105.416 3.254 3.254 0 0 1-2.469-1.053 3.856 3.856 0 0 1-1-2.769" fill="#838383"/></g></g><path data-name="Path 69" d="M134.926 47.218v-.409h3.191v.409l-.952.4 1.8 5.29h.015l1.863-5.231-.952-.458v-.409h2.569v.409l-.47.385-2.979 7.373-.558.027-2.839-7.3Z" fill="#838383"/><g data-name="Group 17"><g data-name="Group 16" clip-path="url(#a)" fill="#838383"><path data-name="Path 70" d="M144.167 52.915a1.058 1.058 0 0 0 .328.828 1.407 1.407 0 0 0 .971.294 2.946 2.946 0 0 0 1.592-.461V51.22a3.935 3.935 0 0 0-2.117.488 1.414 1.414 0 0 0-.773 1.207m-1.453.267a2.3 2.3 0 0 1 1.174-1.95 5.63 5.63 0 0 1 3.17-.786v-.458a3.125 3.125 0 0 0-.334-1.738 1.36 1.36 0 0 0-1.144-.44 3.449 3.449 0 0 0-2.507 1.09 2.16 2.16 0 0 1-.058-.5q0-1.711 2.742-1.7a2.984 2.984 0 0 1 1.987.6 2.026 2.026 0 0 1 .713 1.644c0 .149-.012.446-.039.9s-.039.71-.039.789l-.043 2.707a1.9 1.9 0 0 0 .658.855 3.331 3.331 0 0 1-1.122.837 2.274 2.274 0 0 1-.78-.81 2.832 2.832 0 0 1-.98.57 3.622 3.622 0 0 1-1.271.227 2.231 2.231 0 0 1-1.525-.519 1.674 1.674 0 0 1-.6-1.313"/><path data-name="Path 71" d="M150.221 47.459v-.352a7.539 7.539 0 0 1 2-.294h.4v.874a3.431 3.431 0 0 1 2.481-.9 2.255 2.255 0 0 1 1.7.652 2.648 2.648 0 0 1 .628 1.911v4.68l.88.252v.322a4.757 4.757 0 0 1-1.756.273 3.551 3.551 0 0 1-1.092-.146v-.279a1.1 1.1 0 0 0 .61-1.116v-3.177q0-2.257-1.671-2.257a2.811 2.811 0 0 0-1.735.51v5.618l.943.252v.322a5.855 5.855 0 0 1-1.938.273 4.55 4.55 0 0 1-1.247-.146v-.279a1.648 1.648 0 0 0 .625-.379.739.739 0 0 0 .255-.531v-5.644Z"/><path data-name="Path 72" d="M162.575 56.485a2.5 2.5 0 0 0 .931-1.116 4.285 4.285 0 0 0 .358-1.817v-8.6l-1.059-.279v-.367a7.48 7.48 0 0 1 1.923-.264 7.145 7.145 0 0 1 1.553.17v.309a1.416 1.416 0 0 0-.74.419 1.238 1.238 0 0 0-.224.8v7.565a4.956 4.956 0 0 1-.579 2.633 1.635 1.635 0 0 1-1.362.916 2.08 2.08 0 0 1-.8-.149Z"/><path data-name="Path 73" d="M167.252 47.47v-.35a6.822 6.822 0 0 1 1.86-.322h.555l-.106.937v3.789a3.081 3.081 0 0 0 .4 1.793 1.446 1.446 0 0 0 1.235.531 2.871 2.871 0 0 0 1.626-.488v-5.415l-.99-.475v-.35a7.125 7.125 0 0 1 1.89-.322h.558l-.1.937v5.654a3.281 3.281 0 0 0 .631.877 3.913 3.913 0 0 1-1.122.77 2.115 2.115 0 0 1-.786-.955 3.585 3.585 0 0 1-1.019.607 3.53 3.53 0 0 1-1.383.276q-2.3 0-2.3-2.742v-4.277Z"/><path data-name="Path 74" d="M176.091 53.668a1.311 1.311 0 0 1 .158-.686 3.388 3.388 0 0 0 2.327 1.059 1.638 1.638 0 0 0 1.043-.294.922.922 0 0 0 .364-.746 1.024 1.024 0 0 0-.306-.761 3.824 3.824 0 0 0-1.134-.664l-.84-.352a2.148 2.148 0 0 1-1.453-2.06 2.274 2.274 0 0 1 .8-1.756 2.972 2.972 0 0 1 2.063-.725q1.856 0 1.856 1.059a3.145 3.145 0 0 1-.085.7 3.256 3.256 0 0 0-1.893-.643 1.954 1.954 0 0 0-1.165.294.878.878 0 0 0-.406.746 1.018 1.018 0 0 0 .285.746 2.9 2.9 0 0 0 1.028.573l.889.349a2.923 2.923 0 0 1 1.259.834 1.981 1.981 0 0 1 .376 1.247 2.188 2.188 0 0 1-.855 1.711 3.322 3.322 0 0 1-2.211.722c-1.4-.006-2.1-.455-2.1-1.353"/><path data-name="Path 75" d="M182.361 47.983v-.546l1.793-1.785.555-.073-.058 1.511h2.2l-.118.895h-2.146l-.03 2.117c-.009.467-.012 1.119-.012 1.95 0 1.216.337 1.823 1.016 1.823a1.967 1.967 0 0 0 1.244-.425l.158.058q-.1 1.483-1.8 1.483a1.858 1.858 0 0 1-1.5-.564 2.679 2.679 0 0 1-.479-1.759c0-.094.021-.913.058-2.451l.042-2.232Z"/><path data-name="Path 76" d="M188.38 44.335a1 1 0 0 1 .273-.7.932.932 0 0 1 1.31-.049.889.889 0 0 1 .252.664 1.039 1.039 0 0 1-.273.722.875.875 0 0 1-.667.3.845.845 0 0 1-.637-.267.93.93 0 0 1-.258-.67m-.886 3.148v-.349a7.171 7.171 0 0 1 1.993-.325h.528l-.088.91v6.349l.946.249v.325a5.782 5.782 0 0 1-1.938.27 4.667 4.667 0 0 1-1.247-.143v-.279c.591-.224.886-.528.88-.91v-5.639Z"/><path data-name="Path 77" d="M192.067 47.983v-.546l1.793-1.785.555-.073-.058 1.511h2.2l-.118.895h-2.146l-.03 2.117c-.009.467-.012 1.119-.012 1.95 0 1.216.337 1.823 1.016 1.823a1.967 1.967 0 0 0 1.244-.425l.158.058q-.1 1.483-1.8 1.483a1.858 1.858 0 0 1-1.5-.564 2.679 2.679 0 0 1-.479-1.759c0-.094.021-.913.058-2.451l.042-2.232Z"/><path data-name="Path 78" d="M198.084 44.335a.988.988 0 0 1 .273-.7.932.932 0 0 1 1.31-.049.889.889 0 0 1 .252.664 1.039 1.039 0 0 1-.273.722.871.871 0 0 1-.667.3.845.845 0 0 1-.637-.267.93.93 0 0 1-.258-.67m-.886 3.148v-.349a7.154 7.154 0 0 1 1.986-.324h.528l-.088.91v6.349l.946.249v.325a5.782 5.782 0 0 1-1.938.27 4.668 4.668 0 0 1-1.247-.143v-.279q.887-.337.88-.91v-5.64Z"/><path data-name="Path 79" d="M203.265 50h3.57a2.946 2.946 0 0 0-.461-1.8 1.472 1.472 0 0 0-1.238-.613 1.666 1.666 0 0 0-1.277.725 2.572 2.572 0 0 0-.595 1.69M201.77 51.2a4.835 4.835 0 0 1 1.053-3.285 3.174 3.174 0 0 1 2.463-1.216 2.787 2.787 0 0 1 2.135.831 3.232 3.232 0 0 1 .776 2.29c0 .434-.006.795-.015 1.08h-4.959a3.254 3.254 0 0 0 .7 2.2 2.245 2.245 0 0 0 1.771.807 4.142 4.142 0 0 0 2.384-.728 1.46 1.46 0 0 1 .058.446c0 .376-.264.7-.795.983a4.55 4.55 0 0 1-2.105.416 3.259 3.259 0 0 1-2.469-1.053 3.856 3.856 0 0 1-1-2.769"/><path data-name="Path 80" d="M214.088 50h3.57a2.946 2.946 0 0 0-.461-1.8 1.472 1.472 0 0 0-1.238-.613 1.666 1.666 0 0 0-1.277.725 2.572 2.572 0 0 0-.595 1.69m-1.5 1.192a4.834 4.834 0 0 1 1.053-3.285 3.174 3.174 0 0 1 2.465-1.215 2.787 2.787 0 0 1 2.135.831 3.232 3.232 0 0 1 .777 2.29c0 .434-.006.795-.015 1.08h-4.956a3.254 3.254 0 0 0 .7 2.2 2.245 2.245 0 0 0 1.771.807 4.142 4.142 0 0 0 2.384-.728 1.461 1.461 0 0 1 .058.446c0 .376-.264.7-.795.983a4.55 4.55 0 0 1-2.105.416 3.259 3.259 0 0 1-2.469-1.053 3.856 3.856 0 0 1-1-2.769"/><path data-name="Path 81" d="M220.106 47.459v-.352a7.539 7.539 0 0 1 2-.294h.4v.874a3.431 3.431 0 0 1 2.481-.9 2.255 2.255 0 0 1 1.7.652 2.648 2.648 0 0 1 .628 1.911v4.68l.88.252v.322a4.757 4.757 0 0 1-1.756.273 3.551 3.551 0 0 1-1.092-.146v-.279a1.1 1.1 0 0 0 .61-1.116v-3.177q0-2.257-1.671-2.257a2.811 2.811 0 0 0-1.735.51v5.618l.943.252v.322a5.855 5.855 0 0 1-1.938.273 4.566 4.566 0 0 1-1.247-.146v-.279a1.648 1.648 0 0 0 .625-.379.739.739 0 0 0 .255-.531v-5.644Z"/><path data-name="Path 82" d="M231.872 44.641v-.352a5.38 5.38 0 0 1 1.653-.264 8.072 8.072 0 0 1 1.538.143v.322a.674.674 0 0 0-.579.667 1.3 1.3 0 0 0 .064.379l2 6.843h.027l2.169-7.431-1.053-.291v-.352a6.462 6.462 0 0 1 1.8-.279 4.187 4.187 0 0 1 1.137.158v.322a1.632 1.632 0 0 0-.952 1.159l-2.948 9.204-.682.042-3.261-9.976Z"/><path data-name="Path 83" d="M242.344 50h3.57a2.945 2.945 0 0 0-.461-1.8 1.472 1.472 0 0 0-1.238-.613 1.666 1.666 0 0 0-1.277.725 2.572 2.572 0 0 0-.594 1.688m-1.5 1.2a4.835 4.835 0 0 1 1.053-3.285 3.174 3.174 0 0 1 2.463-1.216 2.787 2.787 0 0 1 2.135.831 3.232 3.232 0 0 1 .776 2.29c0 .434-.006.795-.015 1.08H242.3a3.254 3.254 0 0 0 .7 2.2 2.245 2.245 0 0 0 1.771.807 4.142 4.142 0 0 0 2.384-.728 1.46 1.46 0 0 1 .058.446c0 .376-.264.7-.795.983a4.55 4.55 0 0 1-2.105.416 3.254 3.254 0 0 1-2.469-1.059 3.856 3.856 0 0 1-1-2.769"/><path data-name="Path 84" d="M249.256 44.335a.988.988 0 0 1 .273-.7.932.932 0 0 1 1.31-.049.889.889 0 0 1 .252.664 1.039 1.039 0 0 1-.273.722.875.875 0 0 1-.667.3.845.845 0 0 1-.637-.267.93.93 0 0 1-.258-.67m-.886 3.148v-.349a7.154 7.154 0 0 1 1.993-.325h.524l-.088.91v6.349l.946.249v.325a5.782 5.782 0 0 1-1.938.27 4.667 4.667 0 0 1-1.247-.143v-.279q.887-.337.88-.91v-5.639Z"/><path data-name="Path 85" d="M252.892 43.439v-.364a7 7 0 0 1 2-.309h.528l-.085.937v10.364l.943.252v.322a5.775 5.775 0 0 1-1.935.27 4.707 4.707 0 0 1-1.25-.143v-.279a1.648 1.648 0 0 0 .625-.379.732.732 0 0 0 .258-.531v-9.688Z"/><path data-name="Path 86" d="M258.258 44.335a.988.988 0 0 1 .273-.7.932.932 0 0 1 1.31-.049.889.889 0 0 1 .252.664 1.039 1.039 0 0 1-.273.722.875.875 0 0 1-.667.3.845.845 0 0 1-.637-.267.929.929 0 0 1-.258-.67m-.886 3.148v-.349a7.154 7.154 0 0 1 1.993-.325h.528l-.088.91v6.349l.946.249v.325a5.781 5.781 0 0 1-1.938.27 4.667 4.667 0 0 1-1.247-.143v-.279q.887-.337.88-.91v-5.639Z"/><path data-name="Path 87" d="M263.469 49.84a2.3 2.3 0 0 0 .47 1.547 1.457 1.457 0 0 0 1.144.54 1.646 1.646 0 0 0 1.31-.6 2.662 2.662 0 0 0 .513-1.768 2.088 2.088 0 0 0-.476-1.471 1.6 1.6 0 0 0-2.445.115 2.5 2.5 0 0 0-.516 1.635m-.443 6.87a1.067 1.067 0 0 0 .564.907 2.856 2.856 0 0 0 1.559.367 3.421 3.421 0 0 0 1.893-.476 1.34 1.34 0 0 0 .737-1.1c0-.679-.413-1.019-1.231-1.019h-2.7a1.464 1.464 0 0 0-.591.549 1.441 1.441 0 0 0-.234.777m-1.274.291a1.655 1.655 0 0 1 .437-1.137 2.389 2.389 0 0 1 1.144-.695v-.015a1.33 1.33 0 0 1-.916-1.326 1.536 1.536 0 0 1 .319-.919 1.649 1.649 0 0 1 .764-.607v-.03a2.381 2.381 0 0 1-1.04-.883 2.47 2.47 0 0 1-.437-1.453 3.1 3.1 0 0 1 .974-2.317 3.264 3.264 0 0 1 2.345-.94 3.174 3.174 0 0 1 1.04.188 2.09 2.09 0 0 1 .764.4 1.906 1.906 0 0 1 .655-.4 2.213 2.213 0 0 1 .825-.167 2.58 2.58 0 0 1 .737.1l-.112 1.056a8.572 8.572 0 0 0-1.829-.173v.006a2.419 2.419 0 0 1 .679.816 2.1 2.1 0 0 1 .264.995 3.124 3.124 0 0 1-1 2.384 3.347 3.347 0 0 1-2.375.937 2.447 2.447 0 0 1-1.04-.224 1.13 1.13 0 0 0-.367.379.894.894 0 0 0-.164.488c0 .546.358.816 1.071.816l2.336-.015h.067a2.5 2.5 0 0 1 1.586.446 1.59 1.59 0 0 1 .582 1.326 2.506 2.506 0 0 1-1.189 2.066 4.878 4.878 0 0 1-2.939.858 4.254 4.254 0 0 1-2.339-.546 1.641 1.641 0 0 1-.834-1.417"/><path data-name="Path 88" d="M269.806 43.406v-.367a7.115 7.115 0 0 1 2-.306h.528l-.085.937v4a3.439 3.439 0 0 1 2.439-.889 2.261 2.261 0 0 1 1.7.643 2.664 2.664 0 0 1 .622 1.92v4.68l.883.252v.322a4.834 4.834 0 0 1-1.774.27 3.266 3.266 0 0 1-1.077-.143v-.28a1.118 1.118 0 0 0 .61-1.116v-3.177q0-2.252-1.7-2.254a2.852 2.852 0 0 0-1.708.51v5.618l.943.252v.322a5.775 5.775 0 0 1-1.935.27 4.585 4.585 0 0 1-1.25-.143v-.282c.595-.224.886-.528.883-.91v-9.677Z"/><path data-name="Path 89" d="M280.54 50h3.57a2.945 2.945 0 0 0-.461-1.8 1.472 1.472 0 0 0-1.238-.613 1.666 1.666 0 0 0-1.277.725 2.572 2.572 0 0 0-.595 1.69m-1.49 1.198a4.835 4.835 0 0 1 1.053-3.285 3.174 3.174 0 0 1 2.463-1.216 2.787 2.787 0 0 1 2.135.831 3.218 3.218 0 0 1 .776 2.29c0 .434-.006.795-.015 1.08h-4.963a3.254 3.254 0 0 0 .7 2.2 2.246 2.246 0 0 0 1.771.807 4.141 4.141 0 0 0 2.384-.728 1.46 1.46 0 0 1 .058.446c0 .376-.264.7-.795.983a4.55 4.55 0 0 1-2.105.416 3.254 3.254 0 0 1-2.469-1.053 3.856 3.856 0 0 1-.993-2.771"/><path data-name="Path 90" d="M287.453 44.335a1 1 0 0 1 .273-.7.932.932 0 0 1 1.31-.049.889.889 0 0 1 .252.664 1.039 1.039 0 0 1-.273.722.875.875 0 0 1-.667.3.845.845 0 0 1-.637-.267.93.93 0 0 1-.258-.67m-.886 3.148v-.349a7.154 7.154 0 0 1 1.993-.325h.531l-.088.91v6.349l.946.249v.325a5.782 5.782 0 0 1-1.938.27 4.668 4.668 0 0 1-1.247-.143v-.279q.887-.337.88-.91v-5.639Z"/><path data-name="Path 91" d="M292.591 51.062a3.269 3.269 0 0 0 .588 2.057 1.737 1.737 0 0 0 1.413.755 2.636 2.636 0 0 0 1.72-.543v-5.527a3.5 3.5 0 0 0-1.232-.185 2.17 2.17 0 0 0-1.8.889 4.092 4.092 0 0 0-.686 2.554m-1.453.264a4.722 4.722 0 0 1 1.153-3.379 3.752 3.752 0 0 1 2.848-1.222 5.455 5.455 0 0 1 1.143.1v-2.934l-1.116-.452v-.364a7.4 7.4 0 0 1 2.06-.309h.54l-.094.937v9.555a2.484 2.484 0 0 0 .631.977 6.114 6.114 0 0 1-1.171.8 2.776 2.776 0 0 1-.8-1.019 3.313 3.313 0 0 1-1.019.7 2.676 2.676 0 0 1-1.122.279 2.766 2.766 0 0 1-2.175-1.007 3.907 3.907 0 0 1-.874-2.657"/></g></g></svg>