<svg data-name="Group 136" xmlns="http://www.w3.org/2000/svg" xmlns:xlink="http://www.w3.org/1999/xlink" width="330.407" height="326.887" viewBox="0 0 330.407 326.887"><defs><clipPath id="b"><path data-name="Rectangle 67" fill="none" d="M0 0h330.407v326.887H0z"/></clipPath><clipPath id="c"><path data-name="Path 240" d="M46.9 63.066c-1.661.979-13.245 7.453-15.08 8.611a4.746 4.746 0 0 0-1.925 4.256v44.8c0 4.659 3.776 10.619 8.437 13.309l24.6 14.2c2.331 1.347 4.44 1.621 5.965.976s13.173-7.472 15.139-8.616a4.787 4.787 0 0 0 2.269-4.451V91.356c0-4.661-3.776-10.619-8.437-13.309l-24.6-14.205a8.664 8.664 0 0 0-4.224-1.315 4.176 4.176 0 0 0-2.144.539" transform="translate(-29.891 -62.527)" fill="none"/></clipPath><clipPath id="d"><path data-name="Rectangle 49" fill="none" d="M0 0h15.737v9.085H0z"/></clipPath><clipPath id="e"><path data-name="Path 254" d="m45.385 54.282.136 49.624 2.315 1.339 1.645-.949.24-50.014Zm-9.317 44.171 2.32 1.336 1.643-.949v-47.8l-3.963-2.1Z" transform="translate(-36.068 -48.938)" fill="none"/></clipPath><clipPath id="f"><path data-name="Rectangle 53" fill="none" d="M0 0h60.09v64.899H0z"/></clipPath><clipPath id="g"><path data-name="Path 274" d="M58.433 89.2a11.011 11.011 0 0 0-1.765-2.776 8.01 8.01 0 0 0-1.979-1.667l-40.2-23.211a3.177 3.177 0 0 0-3.211-.312L.523 67.483l46.555 58.038 10.749-6.248a3.177 3.177 0 0 0 1.325-2.917l.067-23.749a8.553 8.553 0 0 0-.787-3.405" transform="translate(-.523 -60.929)" fill="none"/></clipPath><clipPath id="i"><path data-name="Rectangle 52" fill="none" d="M0 0h12.515v9.023H0z"/></clipPath><clipPath id="j"><path data-name="Path 277" d="M2.876 62.289a2.779 2.779 0 0 1 2.253.419L45.786 86.18a7.7 7.7 0 0 1 1.941 1.637 10.707 10.707 0 0 1 1.736 2.731 8.4 8.4 0 0 1 .776 3.339l-.069 24.147a3.594 3.594 0 0 1-.661 2.251l.613-.355a4.55 4.55 0 0 0 .376-1.9l.067-24.147a8.678 8.678 0 0 0-.8-3.472 11.327 11.327 0 0 0-1.79-2.811 8.088 8.088 0 0 0-2.024-1.7L5.295 62.42a3.75 3.75 0 0 0-1.677-.563Z" transform="translate(-2.876 -61.857)" fill="none"/></clipPath><clipPath id="l"><path data-name="Path 301" d="M109.9 20.66c-1.939 1.141-15.421 8.677-17.557 10.027-1.4.888-2.243 2.579-2.243 4.952v52.152c0 5.424 4.4 12.36 9.821 15.493l28.645 16.539c2.712 1.563 5.165 1.883 6.944 1.131s15.333-8.7 17.619-10.032a5.56 5.56 0 0 0 2.645-5.179V53.594c0-5.424-4.4-12.363-9.824-15.493l-28.64-16.536a10.1 10.1 0 0 0-4.917-1.533 4.85 4.85 0 0 0-2.493.629" transform="translate(-90.095 -20.031)" fill="none"/></clipPath><clipPath id="n"><path data-name="Rectangle 58" fill="none" d="M0 0h18.32v10.577H0z"/></clipPath><clipPath id="o"><path data-name="Path 315" d="m108.132 20.378.155 31.259 2.7 1.557 1.915-1.107.277-31.709Zm-10.845 24.9 2.7 1.56 1.912-1.1V16.6l-4.611-2.451Z" transform="translate(-97.287 -14.154)" fill="none"/></clipPath><clipPath id="p"><path data-name="Path 319" d="m105.08 40.981-12.269 7.131 53.136 66.246 12.269-7.131a3.632 3.632 0 0 0 1.512-3.331l.075-27.109a9.735 9.735 0 0 0-.9-3.885 12.511 12.511 0 0 0-2.013-3.168 9.175 9.175 0 0 0-2.261-1.9l-45.882-26.498a4.7 4.7 0 0 0-2.309-.7 2.671 2.671 0 0 0-1.357.349" transform="translate(-92.811 -40.632)" fill="none"/></clipPath><clipPath id="r"><path data-name="Rectangle 62" fill="none" d="M0 0h17.288v9.992H0z"/></clipPath><clipPath id="s"><path data-name="Path 342" d="m99.717 44.077-12.269 7.131 53.136 66.248 12.269-7.131a3.63 3.63 0 0 0 1.509-3.333l.077-27.107a9.747 9.747 0 0 0-.9-3.888 12.511 12.511 0 0 0-2.013-3.168 9.232 9.232 0 0 0-2.261-1.9l-45.881-26.494a4.685 4.685 0 0 0-2.309-.707 2.671 2.671 0 0 0-1.357.349" transform="translate(-87.448 -43.728)" fill="none"/></clipPath><linearGradient id="a" x1="-.666" y1="1.622" x2="-.638" y2="1.622" gradientUnits="objectBoundingBox"><stop offset="0" stop-color="#38302d"/><stop offset="1" stop-color="#2b2421"/></linearGradient><linearGradient id="h" x1=".131" y1="2.035" x2=".163" y2="2.035" gradientUnits="objectBoundingBox"><stop offset="0" stop-color="#7c4720"/><stop offset=".054" stop-color="#77441e"/><stop offset=".263" stop-color="#693d1c"/><stop offset=".524" stop-color="#61391a"/><stop offset="1" stop-color="#5f381a"/></linearGradient><linearGradient id="k" x1=".053" y1="2.255" x2=".091" y2="2.255" gradientUnits="objectBoundingBox"><stop offset="0" stop-color="#633818"/><stop offset="1" stop-color="#4b2c14"/></linearGradient><linearGradient id="m" x1="-2.035" y1="2.342" x2="-2.011" y2="2.342" xlink:href="#a"/><linearGradient id="q" x1="-2.461" y1="2.355" x2="-2.433" y2="2.355" gradientUnits="objectBoundingBox"><stop offset="0" stop-color="#38302d"/><stop offset=".393" stop-color="#302926"/><stop offset="1" stop-color="#2b2421"/></linearGradient><linearGradient id="t" x1="-2.311" y1="2.27" x2="-2.283" y2="2.27" gradientUnits="objectBoundingBox"><stop offset="0" stop-color="#7c4720"/><stop offset=".133" stop-color="#76431d"/><stop offset=".547" stop-color="#6b3a17"/><stop offset="1" stop-color="#683816"/></linearGradient></defs><g data-name="Group 135" clip-path="url(#b)"><g data-name="Group 86"><g data-name="Group 85" clip-path="url(#b)"><path data-name="Path 182" d="M330.407 167.001c0 11.571-19.464 20.952-43.475 20.952s-43.471-9.381-43.471-20.952 19.464-20.952 43.475-20.952 43.475 9.381 43.475 20.952" fill="rgba(0,0,0,0.15)"/><path data-name="Path 183" d="M251.401 196.649c0 11.571-19.464 20.952-43.475 20.952s-43.475-9.381-43.475-20.952 19.464-20.952 43.475-20.952 43.475 9.381 43.475 20.952" fill="rgba(0,0,0,0.15)"/><path data-name="Path 184" d="M182.673 223.214c0 11.571-19.464 20.952-43.475 20.952s-43.471-9.381-43.471-20.952 19.46-20.952 43.471-20.952 43.475 9.381 43.475 20.952" fill="rgba(0,0,0,0.15)"/><path data-name="Path 185" d="M222.783 305.935c0 11.571-19.464 20.952-43.475 20.952s-43.475-9.381-43.475-20.952 19.463-20.952 43.475-20.952 43.475 9.381 43.475 20.952" fill="rgba(0,0,0,0.15)"/><path data-name="Path 186" d="M104.123 266.74c0 11.571-19.464 20.952-43.475 20.952s-43.475-9.381-43.475-20.952 19.46-20.952 43.475-20.952 43.475 9.381 43.475 20.952" fill="rgba(0,0,0,0.15)"/><path data-name="Path 187" d="m205.881 30.184-1.755.232-1.125 1.085.736 1.595a18.143 18.143 0 0 0 2.144.739 24.5 24.5 0 0 1 1.387-2.333Z" fill="#106278"/><path data-name="Path 188" d="M205.579 28.083s1.752 3.672-2.843 5.595c-1.829.587 14.272 12.547 14.272 12.547s5.525-.645 5.525-.981 1.165-9.819 1.165-9.819l-7.378-7.841Z" fill="#b68e7e"/><path data-name="Path 189" d="M216.553 175.844c2.875 4.037 13.744 7.533 14.755 9.787s-.931 5.435-.931 5.435-5.592 1.707-10.405 0c-3.021-1.072-9.168-4.2-9.168-4.2s-6.989.779-11.336-2.171c.267-1.459.152-6.992 1.707-9.32s13.747.7 15.379.467" fill="#151515"/><path data-name="Path 190" d="m201.902 106.877 11.168 36.913a28.347 28.347 0 0 1-4.128 5.805c-2.792 3.224-2.8 8.848-7.765 25.784 9.472 6.056 14.075 3.144 15.376.464 4.037-15.843 11.984-26.592 12.507-30.787s-6.294-51.536-10.606-59.424c-3.918-.656-16.552 21.245-16.552 21.245" fill="#464646"/><path data-name="Path 191" d="M185.812 192.894c1.7 3.76 7.832 9.661 8.3 10.635s.664 3.987-.384 4.616c-3.5 2.1-12.813.7-16.776-3.184s-6.011-8.976-6.064-11.027c-.045-2.109 1.32-6.059 2.955-8.933s11.086 6.763 11.969 7.893" fill="#151515"/><path data-name="Path 192" d="M185.365 82.814c-1.029 3.221-3.315 7.053-3.608 15.632s4.315 52.891 4.315 52.891-5.36 6.3-6.525 10.253-7.5 22.211-7.107 25.277c1.243 7.611 11.829 6.811 13.371 6.027 8.064-22.912 11.752-28.349 14.277-37.4s2.795-46.835 3.419-49.552c10.872-7.5 14.947-20.312 14.947-20.312s-32.415-5.41-33.089-2.816" fill="#545454"/><path data-name="Path 193" d="m188.519 78.299-3.147 3.838s-.877 4.752 8.389 7.336c17.2 4.816 24.7-3.845 24.7-3.845l-1.045-6.635Z" fill="#452310"/><path data-name="Path 194" d="M200.868 34.446s-.235-4.843 5.013-4.261c-3.1 1.283-2.8 1.805-1.123 2.211 3.883 1.339 8.592 3.8 10.707 7.069.915 1.419 1.976 4.117 1.355 5.048-3.8 4.037-15.952-10.067-15.952-10.067" fill="#2d9898"/><path data-name="Path 195" d="M219.262 43.65a11.3 11.3 0 0 1-.637-8.376c1.264-3.485 2.2-3.189 2.2-3.189l2.877 2.36-2.528 9.205Z" fill="#2d9898"/><path data-name="Path 196" d="M218.572 44.435c-2.485 1.243-10.331-10.875-17.707-9.989-3.883 5.637-8.016 7.323-9.435 8.573s-5.753 7.666-3.753 14.461c2.875 4.795 1.368 12.677.757 15.685s-1.157 5.755-1.157 5.755.16 4.832 6.912 6.208c12.188 2.491 17.088.942 22.633-2.173 6.08-3.416 9.789-21.133 12.259-43.326a17.3 17.3 0 0 0-6-11.037l-2.333.619s.315 13.979-2.173 15.224" fill="#663314"/><path data-name="Path 197" d="M201.732 51.792c0 5.04-2.819 9.123-6.291 9.123s-6.293-4.083-6.293-9.123 2.819-9.125 6.293-9.125 6.291 4.08 6.291 9.125" fill="#2d9898"/><path data-name="Path 198" d="M229.721 9.565s2.288 7.768 2.123 8.549-.952 1.005-1.061 1.4.728.507 1.061 1.064c.584 2.352-.933 5.5-1.453 7.936-.629 2.957-.387 5.032-.669 5.424-.523.709-1.789 2.792-3.693 2.851-4.805.165-12.136-5.536-12.136-5.536l-1.5-3.352s-2.4 1.885-4.416-2.573a27.4 27.4 0 0 1-1.288-5.477l5.757-8.44 11.907-5.931Z" fill="#edb9a5"/><path data-name="Path 199" d="m228.59 14.299-8.736.037s.5 4.075 0 5.125-3.029 1.165-3.029 1.165-.037 3.765-1.165 3.957-2.448-2.213-3.96-2.213-3.133 1.011-3.176 2.293 3.869 3.236 3.869 3.236-2.675 4.379-6.981 2.048c-3.12-1.685-3.731-11.419-3.731-11.419s1.4-16.304 11.419-16.536c3.96-4.077 16.891-1.168 18.523 2.213s-3.032 10.1-3.032 10.1" fill="#737373"/><path data-name="Path 200" d="M214.223 2.418c.7-.469 11.805 5.125 11.805 5.125s-12.504-4.658-11.805-5.125" fill="#5c5b5b"/><path data-name="Path 201" d="M205.633 98.728v109.677a.888.888 0 0 0 .525.733 2.8 2.8 0 0 0 2.547 0 .9.9 0 0 0 .531-.733V98.728Z" fill="#663314"/><path data-name="Path 202" d="M201.204 100.662a7.45 7.45 0 0 0 1.752 3.523c1.381 1.379 4.077 1.379 4.077 1.379a2.524 2.524 0 0 0 1.7 3.213c.907.28 5.72-2.723 6.155-3.976a6.079 6.079 0 0 0-1.195-5.667c-1.64-1.688-6.667-2.683-6.667-2.683l-2.763-1.293-4.413 2.5Z" fill="#edb9a5"/><path data-name="Path 203" d="M196.105 42.72c5.277 2.763 4.5 10.632 3.075 15.3-1.091 3.56-5.507 18.107-8.384 22.067 1.283 1.059 16.693 16.227 16.693 16.227s-5.024.25-6.286 4.35c1.005.672-20.3-10.333-21.3-16.523-.795-3.523 3.005-24.776 7.589-36.059.659-1.619 3.013-7.237 8.613-5.363" fill="#2d9898"/><path data-name="Path 204" d="M145.089 208.563a7.415 7.415 0 0 0 3.067 4.824s-.152 2.376-1.3 3.176-4.227 1.083-6.568.917-1.941-.061-3.941-1.6-1.6-5.077-1.6-5.077v-1.781l6.112-2.056s3.141 1.088 4.227 1.6" fill="#edb9a5"/><path data-name="Path 205" d="M132.92 175.759a39.746 39.746 0 0 0-2.283 9.6c-.307 4.416 1.827 12.336 3.808 24.675 5.157 2.363 10.643-1.467 10.643-1.467s-2.843-15.819-.605-29.019a14.574 14.574 0 0 0 1.731-6.8c1.808-6.424 5.827-21.5 6.3-31.571s.805-17.064.805-17.064l-21.233 14.627Z" fill="#6e6f6e"/><path data-name="Path 206" d="M119.667 222.979a9.349 9.349 0 0 0 .576 4.208l.565 2.688-2.624 2.549-4.461-.723-1.976-4.227.149-5.107 3.771-1.939a34.046 34.046 0 0 1 4 2.549" fill="#edb9a5"/><path data-name="Path 207" d="M120.244 227.188c-.043 2.149-1.832 2.853-3.461 2.789-3.211-.144-5.011-6.131-4.883-7.608a11.076 11.076 0 0 0-1.112 5.412c.067 1.592 1.355 3.7 2.443 5.917.941 1.923 2.051 4.4 2.936 5.277 1.9 1.9 6.931 4.341 9.291.613 1.179-1.864-5.7-13.3-5.213-12.4" fill="#5fb2e6"/><path data-name="Path 208" d="M122.142 123.435s-5.2 5.467-6.741 12.107c-1.125 4.859.3 44.936.3 44.936s-3.96 6.4-4.723 10.816.915 31.077.915 31.077a5.1 5.1 0 0 0 5.683 2.437 3.362 3.362 0 0 0 2.619-2.437s3.1-33.059 6.235-36.408c9.075-16.755 10.752-40.664 10.752-40.664s16.915-13.336 16.182-21.864c-25.909 11.712-31.219 0-31.219 0" fill="#8f8e8e"/><path data-name="Path 209" d="M157.505 82.096s3.979 5.533 5.976 8.451c5.1 1.357 9.861 12.08 14.765 15.829.856-.133 2.8-3.3 5.083-4.648 1.309-.776 8.245.941 7.371 4.648l-2.352-1.352c-2.059.272-2.285 3.043-1.493 3.357l2.539 1.464c-.3 1.763-8.1 2.333-11.272 1.565-2.459-.6-16.395-8.253-19.192-14.616-3.885-3.179-7.939-9.405-7.939-9.405Z" fill="#edb9a5"/><path data-name="Path 210" d="M148.902 65.891c3.017 2.375 8.699 15.424 8.941 16.206.227 5.147-7.424 6.569-7.424 6.569L138.11 65.718s6.728-3.021 10.792.173" fill="#e4443b"/><path data-name="Path 211" d="M138.921 66.641v9.035l-2.744 2.741h-10.133l-4.571-6.552.568-9.3Z" fill="#b68e7e"/><path data-name="Path 212" d="M122.141 123.435s1.651 4.4 8.851 5.429c12.566 1.795 22.372-5.429 22.372-5.429l-.272-5.576-20.23 4.262-8.533-1.3Z" fill="#252525"/><path data-name="Path 213" d="M150.518 123.125c.021.853-1 1.989-2.272 2.531s-2.325.3-2.347-.555 1-1.987 2.275-2.531 2.325-.3 2.344.555" fill="#737373"/><path data-name="Path 214" d="M117.243 102.011a35.938 35.938 0 0 1 7.085 18.821s1.141 2.608 6.7 3.285a30.3 30.3 0 0 0 22.056-4.272s2.36-21.029 3.307-27.88c.611-4.421-3.8-9.995-7.341-16.76-2.851-5.443-7.824-9.221-9.973-10.189h-3.858c3.944 8.32-.381 10.344-.381 10.344s-8.224 2.437-10.661-6.4c-1.353 1.051-11.79 12.272-11.79 12.272s-4.512 6.613 4.856 20.779" fill="#9e342b"/><path data-name="Path 215" d="M153.36 100.352s-17.438 10.016-21.325 3.928c2.56 8.6 21.325-3.928 21.325-3.928" fill="#e34c75"/><path data-name="Path 216" d="M137.353 70.68a17.117 17.117 0 0 1-1.789 2.325c-.995 1.056-4.712 1.3-6.019.283-1.557-1.056-7.2-10.053-7.824-11.656s1.994-8.287 1.994-8.287l9.653-6.4 10 1.141 3.6 8.56-4.853 5.327-.515 6.456Z" fill="#edb9a5"/><path data-name="Path 217" d="M137.582 54.379s-2.9-1.443-5.408-.381-1.6 5.515-8.456 8.421c-2.1 2.864 6.592 9.205 2.707 15.032-.515-2.341-1.339-4.573-3.429-4.573-.853-.136 1.2 3.088-.115 4.573-.669-1.576-1.6-4.627-3.3-3.861l-2.971 3.133a21.536 21.536 0 0 1-1.672-17.5c2.52-6.286.174-23.629 18.073-22.209 12.875-1.979 12.952 9.824 12.952 9.824s2.739 4.952 2.128 9.448c-.379 3.123-4.795 5.523-5.253 5.707s1.411 7.011-1.525 11.429a11.911 11.911 0 0 0-3.96-2.741s3.579-4.139 3.811-5.4.379-3.515.379-3.515a11.651 11.651 0 0 0 1.16-1.52c.493-.8.069-4.939-.533-6.448-.931-1.675-4.587.579-4.587.579" fill="#e54811"/><path data-name="Path 218" d="M151.624 95.606a.378.378 0 0 1-.107-.739 1.4 1.4 0 0 0 .843-.808 1.438 1.438 0 0 0 .056-1 .943.943 0 0 0-.531-.608 1.194 1.194 0 0 0-1.477.787 1.342 1.342 0 0 0 .1 1.3.377.377 0 0 1-.608.445 2.092 2.092 0 0 1-.187-2.04 1.941 1.941 0 0 1 2.464-1.192 1.714 1.714 0 0 1 .963 1.075 2.19 2.19 0 0 1-.083 1.515 2.123 2.123 0 0 1-1.32 1.237.262.262 0 0 1-.112.021" fill="#fff"/><path data-name="Path 219" d="M152.686 96.368c-.451.848-1.832 1.005-3.088.347s-1.9-1.891-1.456-2.741 1.827-1.005 3.083-.347 1.907 1.891 1.461 2.741" fill="#1596b9"/><path data-name="Path 220" d="M152.486 96.768c-.451.848-1.829 1-3.088.341s-1.9-1.883-1.453-2.733 1.827-1.008 3.08-.349 1.909 1.888 1.461 2.741" fill="#147893"/><path data-name="Path 221" d="M154.261 101.504c0 4.717-4.461 8.539-9.963 8.539s-9.965-3.821-9.965-8.539 4.461-8.539 9.965-8.539 9.963 3.822 9.963 8.539" fill="#edb9a5"/><path data-name="Path 222" d="M135.117 100.83a8.363 8.363 0 0 0-3.41 6.386c.9 6.405 7.32 7.805 7.32 7.805s26.512 14.481 39.552-3.805c3.045-4.1 2.645-8.891-1.341-12.688-2.227-2.68-12.309.051-24.2-1.125 1.909 5.771-10.731-1.373-17.923 3.424" fill="#2d9898"/><path data-name="Path 223" d="M161.246 97.707c11.68 8.179-3.6 22.755-3.6 22.755s12.7-14.829 3.6-22.755" fill="#267c7c"/><path data-name="Path 224" d="M157.998 97.696c5.668 13.085-14.532 18.989-14.532 18.989s18.136-7.469 14.533-18.989" fill="#267c7c"/><path data-name="Path 225" d="M123.795 107.291s3.491 4.523 5.944 8.205c1.053 1.587 2.117 3.96 2.3 4.184 4.328 5.717 32.589 3.2 32.589 3.2s9.213-2.971 10.507-4.267 1.937-6.641 1.18-7.253-3.165 3.093-3.848 3.728-4.115 1.7-3.885.256 3.659-4.8 2.819-5.715c-.472-.512-2.232 1.072-3.96 2.512-1.344 1.117-2.7 2.024-3.2 2.592a7.078 7.078 0 0 0-1.369 3.579c-3.923-.816-22.467-6.381-24.3-5.819-1.6-3.021-4.694-10.938-4.694-10.938Z" fill="#edb9a5"/><path data-name="Path 226" d="M114.76 80.11c-10.221 2.157 3.485 18.6 3.485 18.6s4.019 8.272 4.453 8.928c3.933 1.784 11.987-4.976 11.315-6.32-.211-.427-2.717-4.088-4.912-8.192-2.221-4.157-4.128-8.747-4.128-8.747s-2.6-5.005-10.213-4.272" fill="#e4443b"/><path data-name="Path 227" d="M134.75 210.804c-.4 3.76 11.483 6.5 13.405 2.584 7.845 4.717 16.451 4.795 13.1 10.509-1.979 3.272-17.747-3.275-17.747-3.275s-9.443-.765-10.205-2.363.133-5.637 1.448-7.456" fill="#9e342b"/><path data-name="Path 228" d="m112.144 254.694.528-2.653.328.189-.373 3.216-.328-.189c-.141-.083-.211-.285-.155-.563" fill="#7e7c79"/><path data-name="Path 229" d="m113 252.23.661-.381a9.538 9.538 0 0 0 1.491.485 3.614 3.614 0 0 1-.376.8l-1.053 1.627a1.814 1.814 0 0 1-.6.6c-.464.267-.749.011-.651-.477Z" fill="#7e7c79"/><path data-name="Path 230" d="m116.636 252.084-.147-.085a2.278 2.278 0 0 0-2.331.077c-2.064 1.3-3.464 4.829-1.3 6.165l.147.085a2.108 2.108 0 0 0 1.507.245 4.605 4.605 0 0 0 3.025-3.254 2.693 2.693 0 0 0-.9-3.229" fill="#1d1b1a"/><path data-name="Path 231" d="m114.736 256.19.528-2.653.328.189-.373 3.216-.328-.189c-.141-.083-.211-.285-.155-.563" fill="#7e7c79"/><path data-name="Path 232" d="m115.065 256.382.528-2.651 2.357-1.36v.485a3.4 3.4 0 0 1-.579 1.776l-1.053 1.629a1.854 1.854 0 0 1-.6.6c-.464.269-.749.013-.653-.475" fill="#7e7c79"/><path data-name="Path 233" d="M118.302 251.438v.571a.824.824 0 0 1-.488.677l-1.467.848a2.557 2.557 0 0 1-2.323 0l-1.264-.733a.818.818 0 0 1-.477-.669v-.571Z" fill="#7e7c79"/><path data-name="Path 234" d="m87.059 240.211.528-2.653.328.189-.373 3.216-.328-.189c-.141-.083-.211-.285-.155-.563" fill="#7e7c79"/><path data-name="Path 235" d="m87.915 237.747.659-.381a9.957 9.957 0 0 0 1.493.485 3.613 3.613 0 0 1-.376.8l-1.053 1.629a1.814 1.814 0 0 1-.6.6c-.464.267-.749.011-.651-.477Z" fill="#7e7c79"/><path data-name="Path 236" d="m91.552 237.601-.147-.085a2.278 2.278 0 0 0-2.331.077c-2.067 1.3-3.464 4.829-1.3 6.165l.147.085a2.1 2.1 0 0 0 1.5.245 4.6 4.6 0 0 0 3.021-3.259 2.7 2.7 0 0 0-.9-3.229" fill="#1d1b1a"/><path data-name="Path 237" d="m89.651 241.709.528-2.653.331.189-.376 3.216-.328-.189c-.141-.083-.211-.285-.155-.563" fill="#7e7c79"/><path data-name="Path 238" d="m89.979 241.899.528-2.653 2.357-1.36v.485a3.4 3.4 0 0 1-.579 1.776l-1.053 1.632a1.854 1.854 0 0 1-.6.6c-.464.269-.749.013-.653-.475" fill="#7e7c79"/><path data-name="Path 239" d="M93.217 236.956v.571a.824.824 0 0 1-.488.677l-1.467.848a2.557 2.557 0 0 1-2.323 0l-1.264-.733a.815.815 0 0 1-.477-.669v-.568Z" fill="#7e7c79"/></g></g><g data-name="Group 88"><g data-name="Group 87" clip-path="url(#c)" transform="translate(79.71 166.739)"><path data-name="Rectangle 48" transform="rotate(-30 21.834 81.486)" fill="url(#a)" d="M0 0h92.524v103.842H0z"/></g></g><g data-name="Group 93"><g data-name="Group 92" clip-path="url(#b)"><path data-name="Path 241" d="m112.75 252.457-24.6-14.205c-4.661-2.691-8.437-8.648-8.437-13.309v-44.797c0-4.661 3.776-6.259 8.437-3.568l24.6 14.205c4.659 2.691 8.437 8.651 8.437 13.309v44.8c0 4.659-3.779 6.256-8.437 3.565" fill="#26201c"/><path data-name="Path 242" d="M95.982 167.649c.352.165.7.339 1.037.533l26.136 15.091c5.251 3.032 9.525 9.811 9.525 15.109v47.136c-.755.437.307-.173-.461.267l.037-.613c.005-.085.013-.168.013-.259v-45.979a14.046 14.046 0 0 0-.853-4.976 19.88 19.88 0 0 0-1.952-3.792 23.679 23.679 0 0 0-8.109-7.461l-23.624-13.637a10.815 10.815 0 0 0-1.853-.859l-.576-.2c.848-.48-.139.1.68-.363" fill="#26201c"/><g data-name="Group 91" opacity=".7"><g data-name="Group 90"><g data-name="Group 89" clip-path="url(#d)" transform="translate(100.371 175.238)"><path data-name="Path 243" d="m0 1.598 2.768-1.6 12.968 7.487-2.768 1.6Z" fill="#26201c"/></g></g></g><path data-name="Path 244" d="m103.272 177.988 1.691-.981.013-4.525-1.691.984Z" fill="#211b18"/><path data-name="Path 245" d="m113.364 183.815 1.691-.981.019-6.515-1.691.981Z" fill="#2b2421"/><path data-name="Path 246" d="m113.383 177.303 1.691-.981-12.078-6.974-1.691.981Z" fill="#37302c"/><path data-name="Path 247" d="m101.305 170.331-.019 6.512 1.984 1.147.013-4.525 8.109 4.683-.013 4.523 1.984 1.147.019-6.512Z" fill="#26201c"/><path data-name="Path 248" d="m109.595 185.862-1.645.949-2.317-1.339 1.645-.949Zm-11.768-6.795-1.645.949 2.32 1.339 1.643-.949Z" fill="#26201c"/></g></g><g data-name="Group 95"><g data-name="Group 94" clip-path="url(#e)" transform="translate(96.182 130.502)"><path data-name="Path 249" d="m3.13 53.181-1.584-.915V.586l1.584.915Z" fill="#d3cecc"/><path data-name="Path 250" d="M12.584 6.959 11 6.04v51.68l1.584.915Z" fill="#d3cecc"/><path data-name="Path 251" d="m2.279 52.246-1.584-.915V-.346l1.584.915v51.677Z" fill="#b4aeaa"/><path data-name="Path 252" d="m11.733 6.027-1.584-.915v51.68l1.584.915V6.027Z" fill="#b4aeaa"/><path data-name="Path 253" d="m12.584 9.464-.371.077-.893-.283-1.173-.675V6.149l2.437 1.405ZM3.131 2.28.694.872v2.435l1.152.664.893.285.392-.083Z" fill="#b4aeaa"/></g></g><g data-name="Group 105"><g data-name="Group 104" clip-path="url(#b)"><path data-name="Path 255" d="m109.556 139.163 1.712-.989v-3.531l-1.712.989Z" fill="#2b2421"/><path data-name="Path 256" d="m95.034 130.778 14.522 8.384v-3.532l-14.522-8.382Z" fill="#26201c"/><path data-name="Path 257" d="m109.556 135.632 1.712-.989-14.523-8.384-1.712.989Z" fill="#37302c"/><path data-name="Path 258" d="M105.5 126.26c-3.1-1.469-7.064-3.595-8.627-3.821-1.392-.2-3.9 5.477-1.768 6.728.32.189 2.928 1.8 3.7 2.336a5.96 5.96 0 0 0 4.061 1.024c1.736-.205 4.123-.352 4.123-.352l2.565 1.48s-3.349-7.059-4.056-7.395" fill="#f1ac83"/><path data-name="Path 259" d="m97.352 121.849-19.479-6.291s-.883-21.891-3.664-32.28c-.733-2.739-2.781-5.952-6.861-5.907-3.189-.168-5.528 1.213-6.379 5.2-2.296 10.778 5.842 44.378 7.128 45.785 1.168 1.272 27.381 1.624 27.381 1.624 2.115.336 4.869-7.339 1.877-8.128" fill="#f0eee6"/><path data-name="Path 260" d="M101.718 136.041c.533.616 1.368 1.184 2.109.845.76-.349.856-1.389.709-2.213a3.694 3.694 0 0 1 0-2.451c.277-.493.835-.821.989-1.368.213-.76-.472-1.491-1.192-1.819a5.515 5.515 0 0 0-3.288-.293 12.991 12.991 0 0 0-2.936.971c-1.248.56-.059 1.1.533 1.789 1.2 1.389 1.875 3.149 3.075 4.539" fill="#f1ac83"/><path data-name="Path 261" d="M55.566 248.642c.064.992.056 4.741.861 5.461 1.933 1.728 3.677 1.611 6.1 3.277 1.653 1.139 6.28 4.307 8.28 4.781 9.477 2.219 11.152.317 11.411-2.629.157-1.76-2.541-3.5-2.7-3.619-1.405-1.021-7.027-1.418-9.939-2.871-3.077-1.536-6.2-2.971-9.165-4.624-1.325-.741-4.768-.144-4.848.227" fill="#e1781d"/><path data-name="Path 262" d="M57.028 252.124c-2.544-2.291-1.051-6.387-.755-9.8a13.06 13.06 0 0 0-.005-2.237 3.535 3.535 0 0 1 3.1-3.792l7.987-.989c.091 1.213.189 2.427.269 3.637.2 3 .413 6.085 1.715 8.8.963 2.013 7.893 5.235 11.195 8.533 3.963 3.963.187 5.24-2.525 5.016a30.007 30.007 0 0 1-11.331-3.219c-2.688-1.576-3.579-2.965-6.4-4.283a12.411 12.411 0 0 1-3.245-1.667" fill="#f0eee6"/><path data-name="Path 263" d="M57.47 274.014c-.469-1.909-3.192-5.675-5.061-6.275a9.1 9.1 0 0 1-3.933-2.275c-2.363-2.424-5.851-3.565-8.675-5.341l-5.133-.355c.016.976-.3 4.835.256 5.744 3.2 5.272 8.819 10.984 13.1 12.384 4.792 1.563 8.552.7 9.432-1.051a4.353 4.353 0 0 0 .011-2.832" fill="#e1781d"/><path data-name="Path 264" d="M36.112 264.166c-2.5-2.253-1.035-6.277-.741-9.629a6.887 6.887 0 0 1 6.002-6.294l4.885-.605c.088 1.192.184 2.387.261 3.576.195 2.949.408 5.981 1.685 8.648 1.061 2.213 7.283 7.219 9.259 14.152.3 1.067-.805 1.739-2.205 2.125a10.071 10.071 0 0 1-7.12-.848 26.4 26.4 0 0 1-5.189-3.347c-3.848-3.24-6.3-7.3-6.84-7.779" fill="#f0eee6"/><path data-name="Path 265" d="M75.414 170.734c.144-2.816.131-5.627.008-8.445-.1-2.349-.2-5.344-.147-7.773.12-5.437-12.525-2.605-18.051-3.776-5.157-1.091-19.835 1.864-25.413 8.5a68.6 68.6 0 0 0-.493 10.515c.181 9.16.5 11.829 2.187 41.523-2.645 18.267.117 19.2.467 45.451.032 4.325 13.707 4.592 13.84-.264 0 0 1.112-40.974 7.323-65.918 0 0 .3 9.371-.325 13.368-1.352 14.811 1.787 16.965.653 43.171-.179 4.107 14.331 3.776 13.8-.235-.077-3.776 4.376-41.136 6.149-76.112" fill="#2b2421"/><path data-name="Path 266" d="M75.171 153.878s-2.288-38.092-1.653-59.064a32.409 32.409 0 0 0-1.149-9.96c-.883-3.061-2.075-5.552-3.771-6.84-3.531-3.072-26.672 6.144-37.648 17.757a6.845 6.845 0 0 0-1.592 5.835c.611 5.421 3.557 14.893 4.915 31.12a57.871 57.871 0 0 1-.339 12.941c-.616 4.336-1.221 6.656-1.925 11.979-.445 3.093 6.4 8.333 16.091 8.5 11.427.2 23.955-6.267 27.072-12.267" fill="#f0eee6"/><path data-name="Path 267" d="M31.808 159.235c2.368 12.576 38.091 9.675 43.467-4.72 0 0-.056-.979-.147-2.688-11.016 16.851-39.862 14.637-43.04 5.232a4.353 4.353 0 0 0-.28 2.176" fill="#211b18"/><path data-name="Path 268" d="M64.862 160.182a24.6 24.6 0 0 1-7.5 2.7v4.107l.5.4a21.323 21.323 0 0 0 7.5-2.7v-4.1Z" fill="#b4aeaa"/><path data-name="Path 269" d="M60.81 85.992q-.056-.216-.128-.424c-.173-.515-1.416-2.467-1.368-3.008s1.563-.16 3.08 1.749c2.051 2.579 4.133 9.723 4.133 9.723s-7.347-3.141-7.4-3.368c-.133-.528 1.722-2.024 1.822-2.627a5 5 0 0 0-.139-2.045" fill="#fffbf3"/><path data-name="Path 270" d="M44.681 77.142c.749-1.219 2.981-.757 4.333-.784 2.12-.04 4.248-.069 6.365.051.523.027 3.144-.051 3.312.72.291 1.339 2.053 4.179 2.192 5.544.875 4.491 1.667 7.363-1.04 8.5l-1.493 6.511-3.094-4.811c-6.176 1.771-9.291-2.605-10.3-3.3.432-5-.808-9.923-.5-11.811a1.711 1.711 0 0 1 .221-.624" fill="#eba073"/><path data-name="Path 271" d="m55.256 92.875-3.587 7.283c-8.376-2.973-10.16-10.619-9.464-11.893a12.78 12.78 0 0 1 2.765-3.435c0 8.037 8.349 8.24 10.285 8.045" fill="#fffbf3"/><path data-name="Path 272" d="M63.089 82.555c-.464 2.035-1.112 4.549-3.077 5a15.678 15.678 0 0 1-5.96-.243 14.048 14.048 0 0 1-8.878-6.366c-2.709-4.189-5.789-7.3-4.2-12.024.789-2.344 7.581-4.76 9.6-6.483a19.246 19.246 0 0 1 4.76-2.808c4.829-2.168 9.024-1.976 9.344 3a62.655 62.655 0 0 1 .293 7.416 48.576 48.576 0 0 1-1.88 12.509" fill="#f1ac83"/><path data-name="Path 273" d="M56.832 51.226c-6.883-1.576-13.355.288-14.859 5.328-7.032 4.387-2.76 19.632 1.744 22.179-1.451-2.515-2.155-3.739-2.059-5.224.056-.9.525-1.947 1.419-2.067 3.777-.506 3.627 4.595 5.127 4.894 2.565.509.123-5.555 2.52-8.2.784-.861 7.243-7.333 13.848-6.387 1.392-3.715-1.88-9.184-7.739-10.525" fill="#211e1c"/><g data-name="Group 103" style="isolation:isolate"><g data-name="Group 102"><g data-name="Group 101" clip-path="url(#f)" transform="translate(0 162.478)"><g data-name="Group 97"><g data-name="Group 96" clip-path="url(#g)" transform="translate(1.395 .001)"><path data-name="Rectangle 51" transform="rotate(-30 15.87 60.338)" fill="url(#h)" d="M0 0h83.216v85.436H0z"/></g></g><path data-name="Path 275" d="M44.808 30.075 4.608 6.864C2.1 5.419.075 6.598.067 9.475L0 33.227a9.926 9.926 0 0 0 4.509 7.835l40.2 23.211c2.5 1.448 4.552.3 4.56-2.6l.067-23.752a10.009 10.009 0 0 0-4.528-7.846" fill="#593114"/><g data-name="Group 100" opacity=".3" style="mix-blend-mode:screen;isolation:isolate"><g data-name="Group 99"><g data-name="Group 98" clip-path="url(#i)" transform="translate(46.788 25.496)"><path data-name="Path 276" d="M10.753 0-.002 6.248a10.864 10.864 0 0 1 1.765 2.776l10.752-6.248A11.011 11.011 0 0 0 10.753 0" fill="#7c4720"/></g></g></g></g></g></g></g></g><g data-name="Group 107"><g data-name="Group 106" clip-path="url(#j)" transform="translate(7.669 164.953)"><path data-name="Rectangle 55" transform="rotate(-30 14.607 54.514)" fill="url(#k)" d="M0 0h70.517v74.446H0z"/></g></g><g data-name="Group 109"><g data-name="Group 108" clip-path="url(#b)"><path data-name="Path 278" d="M11.392 168.678v.656l3.763 2.17v-.653Z" fill="#d06b00"/><path data-name="Path 279" d="m19.191 169.174-4.038 2.331v-.656l4.038-2.331Z" fill="#f99520"/><path data-name="Path 280" d="m15.155 170.85-3.763-2.174 4.037-2.328 3.763 2.171Z" fill="#ffc032"/><path data-name="Path 281" d="M40.427 185.441v.66l3.763 2.171v-.653Z" fill="#d06b00"/><path data-name="Path 282" d="m48.226 185.939-4.037 2.331v-.656l4.037-2.331Z" fill="#f99520"/><path data-name="Path 283" d="m44.19 187.614-3.763-2.17 4.04-2.334 3.763 2.173Z" fill="#ffc032"/><path data-name="Path 284" d="M27.934 174.257c-2.157-.648-3.213.331-4.416.368a2.821 2.821 0 0 1-1.741-.565 1.306 1.306 0 0 1 .4-2.216 9.821 9.821 0 0 1 6.36-.651c.317.075-.043 3.232-.605 3.064" fill="#593114"/><path data-name="Path 285" d="M31.542 174.877a14.131 14.131 0 0 1 .261-3.829 11.907 11.907 0 0 1 .469-3.56c.1-.248.3-.533.56-.483a.578.578 0 0 1 .288.184 7.1 7.1 0 0 1 1.981 3.149 6.041 6.041 0 0 1-.195 3.955 2.521 2.521 0 0 1-.464.76 3.157 3.157 0 0 1-1.051.648c-.459.208-1.027.405-1.432.107a1.354 1.354 0 0 1-.419-.931" fill="#f1ac83"/><path data-name="Path 286" d="M33.064 178.644c-1.077.357-3.816-.056-6.8-1.941-3.717-2.347.592-8.405 1.168-10.008.739-2.056 6.035-2.976 5.955-1.888-.16 2.189.445 6.317.547 9.872a25.166 25.166 0 0 1 1.211 3.275Z" fill="#f1ac83"/><path data-name="Path 287" d="M32.39 176.841a9.388 9.388 0 0 1 2.075 4.523s1.683 1.557 3.277.637c.544-.312.2-1.595.043-2.059a12.879 12.879 0 0 0-3.147-5.315c-1.072-1.075-3.083 1.251-2.248 2.213" fill="#593114"/><path data-name="Path 288" d="M28.163 100.366c-3.845 10.336-4.653 33.139-4.627 35.046.067 5.155 2.683 31.779 2.683 31.779.123 2.821 8.68 2.973 8.68.635l2.141-31.788s4.17-24.264 2.176-34.618c-.536-2.784-.848-5.168-4.235-6.285-2.019-.669-4.619-.68-6.819 5.232" fill="#f0eee6"/><path data-name="Path 289" d="m278.015 155.811.616-3.088.381.221-.435 3.744-.384-.224c-.163-.093-.243-.331-.179-.653" fill="#7e7c79"/><path data-name="Path 290" d="m279.012 152.945.768-.443a11.811 11.811 0 0 0 1.739.565 4.313 4.313 0 0 1-.437.928l-1.227 1.9a2.144 2.144 0 0 1-.7.7c-.541.312-.872.013-.76-.555Z" fill="#7e7c79"/><path data-name="Path 291" d="m283.244 152.771-.171-.1a2.657 2.657 0 0 0-2.712.088c-2.405 1.52-4.035 5.624-1.512 7.179l.171.1a2.462 2.462 0 0 0 1.757.288 5.38 5.38 0 0 0 3.517-3.795c.2-.608.709-2.675-1.051-3.76" fill="#1d1b1a"/><path data-name="Path 292" d="m281.031 157.556.616-3.091.381.224-.435 3.744-.384-.224c-.163-.093-.243-.331-.179-.653" fill="#7e7c79"/><path data-name="Path 293" d="m281.415 157.777.616-3.086 2.741-1.581v.563a3.982 3.982 0 0 1-.675 2.069l-1.226 1.894a2.171 2.171 0 0 1-.7.7c-.541.312-.872.013-.76-.555" fill="#7e7c79"/><path data-name="Path 294" d="M285.182 152.022v.664a.964.964 0 0 1-.565.789l-1.709.987a2.983 2.983 0 0 1-2.7 0l-1.472-.853a.949.949 0 0 1-.555-.779v-.664Z" fill="#7e7c79"/><path data-name="Path 295" d="m248.812 138.953.616-3.091.381.224-.435 3.744-.384-.224c-.163-.093-.243-.331-.179-.653" fill="#7e7c79"/><path data-name="Path 296" d="m249.81 136.086.768-.443a11.813 11.813 0 0 0 1.739.565 4.312 4.312 0 0 1-.437.928l-1.227 1.9a2.144 2.144 0 0 1-.7.7c-.541.312-.872.013-.76-.552Z" fill="#7e7c79"/><path data-name="Path 297" d="m254.037 135.912-.171-.1a2.657 2.657 0 0 0-2.712.088c-2.405 1.52-4.035 5.624-1.509 7.179l.168.1a2.463 2.463 0 0 0 1.757.288 5.375 5.375 0 0 0 3.521-3.796c.2-.608.709-2.675-1.051-3.76" fill="#1d1b1a"/><path data-name="Path 298" d="m251.828 140.694.616-3.088.381.221-.435 3.744-.384-.224c-.163-.093-.243-.331-.179-.653" fill="#7e7c79"/><path data-name="Path 299" d="m252.212 140.915.616-3.088 2.741-1.584v.565a3.957 3.957 0 0 1-.675 2.067l-1.227 1.9a2.17 2.17 0 0 1-.7.7c-.541.312-.872.013-.76-.555" fill="#7e7c79"/><path data-name="Path 300" d="M255.979 135.163v.664a.962.962 0 0 1-.568.789l-1.707.987a2.983 2.983 0 0 1-2.7 0l-1.472-.853a.946.946 0 0 1-.555-.779v-.664Z" fill="#7e7c79"/></g></g><g data-name="Group 111"><g data-name="Group 110" clip-path="url(#l)" transform="translate(240.254 53.416)"><path data-name="Rectangle 57" transform="rotate(-30 25.419 94.865)" fill="url(#m)" d="M0 0h107.714v120.891H0z"/></g></g><g data-name="Group 116"><g data-name="Group 115" clip-path="url(#b)"><path data-name="Path 302" d="m278.718 153.206-28.643-16.536c-5.424-3.133-9.816-10.069-9.816-15.493V69.024c0-5.424 4.4-7.283 9.821-4.152l28.643 16.539c5.424 3.131 9.824 10.067 9.824 15.493v52.15c0 5.424-4.4 7.283-9.824 4.152" fill="#26201c"/><path data-name="Path 303" d="M259.198 54.478c.408.192.813.395 1.205.621l30.429 17.568c6.115 3.528 11.088 11.421 11.088 17.589v54.875c-.877.509.357-.2-.536.309l.043-.715c.008-.1.016-.2.016-.3V90.9a16.356 16.356 0 0 0-.995-5.795 23.29 23.29 0 0 0-2.269-4.413 27.533 27.533 0 0 0-9.443-8.683l-27.5-15.88a12.5 12.5 0 0 0-2.155-1l-.675-.23c.984-.557-.163.117.789-.421" fill="#26201c"/><g data-name="Group 114" opacity=".7"><g data-name="Group 113"><g data-name="Group 112" clip-path="url(#n)" transform="translate(264.308 63.312)"><path data-name="Path 304" d="M0 1.858 3.224-.003l15.1 8.715-3.224 1.861Z" fill="#26201c"/></g></g></g><path data-name="Path 305" d="m267.685 66.514 1.968-1.144.016-5.267-1.965 1.145Z" fill="#211b18"/><path data-name="Path 306" d="m279.434 73.298 1.968-1.144.021-7.581-1.968 1.144Z" fill="#2b2421"/><path data-name="Path 307" d="m279.456 65.716 1.968-1.144-14.059-8.118-1.968 1.144Z" fill="#37302c"/><path data-name="Path 308" d="m265.397 57.6-.021 7.581 2.309 1.333.013-5.267 9.443 5.451-.016 5.267 2.309 1.333.021-7.581Z" fill="#26201c"/><path data-name="Path 309" d="m275.046 75.677-1.915 1.1-2.7-1.557 1.912-1.1Zm-13.7-7.909-1.915 1.1 2.7 1.56 1.915-1.103Z" fill="#26201c"/></g></g><g data-name="Group 118"><g data-name="Group 117" clip-path="url(#o)" transform="translate(259.433 37.744)"><path data-name="Path 310" d="m3.642 35.4-1.845-1.067V.685l1.845 1.067Z" fill="#d3cecc"/><path data-name="Path 311" d="M14.648 8.104 12.803 7.04v33.648l1.845 1.064Z" fill="#d3cecc"/><path data-name="Path 312" d="M2.65 34.313.805 33.246V-.405L2.65.662v33.651Z" fill="#b4aeaa"/><path data-name="Path 313" d="m13.657 7.019-1.845-1.067v33.651l1.845 1.064V7.019Z" fill="#b4aeaa"/><path data-name="Path 314" d="m14.648 11.019-.432.093-1.04-.331-1.365-.787V7.16l2.837 1.637ZM3.643 2.656.806 1.019v2.835l1.341.773 1.04.328.456-.1Z" fill="#b4aeaa"/></g></g><g data-name="Group 120"><g data-name="Group 119" clip-path="url(#b)"><path data-name="Path 316" d="m275.001 47.829 1.992-1.149v-4.112l-1.992 1.152Z" fill="#2b2421"/><path data-name="Path 317" d="m258.095 38.068 16.907 9.76v-4.11l-16.907-9.76Z" fill="#26201c"/><path data-name="Path 318" d="m275.001 43.718 1.992-1.149-16.905-9.765-1.995 1.152Z" fill="#37302c"/></g></g><g data-name="Group 122"><g data-name="Group 121" clip-path="url(#p)" transform="translate(247.497 108.352)"><path data-name="Rectangle 61" transform="rotate(-30 18.427 68.786)" fill="url(#q)" d="M0 0h94.884v97.347H0z"/></g></g><g data-name="Group 127"><g data-name="Group 126" clip-path="url(#b)"><path data-name="Path 320" d="m297.046 142.678-45.885-26.488c-2.859-1.651-5.173-.3-5.181 2.979l-.078 27.109a11.337 11.337 0 0 0 5.149 8.944l45.883 26.493c2.861 1.651 5.2.344 5.208-2.968l.075-27.109a11.421 11.421 0 0 0-5.171-8.957" fill="#26201c"/><path data-name="Path 321" d="m308.354 175.46.077-27.56a9.539 9.539 0 0 0-.885-3.811 12.314 12.314 0 0 0-1.981-3.117 8.881 8.881 0 0 0-2.213-1.867l-46.407-26.795a3.18 3.18 0 0 0-2.573-.475l.848-.491a4.277 4.277 0 0 1 1.912.64l46.406 26.792a9.327 9.327 0 0 1 2.309 1.944 12.779 12.779 0 0 1 2.045 3.216 9.9 9.9 0 0 1 .912 3.963l-.077 27.56a5.179 5.179 0 0 1-.429 2.165l-.7.405a4.14 4.14 0 0 0 .755-2.571" fill="#26201c"/><path data-name="Path 322" d="M259.194 115.264v.747l4.3 2.48v-.751Z" fill="#d06b00"/><path data-name="Path 323" d="m268.092 115.828-4.608 2.659v-.747l4.608-2.659Z" fill="#f99520"/><path data-name="Path 324" d="m263.485 117.743-4.29-2.48 4.605-2.659 4.3 2.48Z" fill="#ffc032"/><path data-name="Path 325" d="M292.332 134.399v.747l4.3 2.48v-.747Z" fill="#d06b00"/><path data-name="Path 326" d="m301.233 134.966-4.608 2.659v-.747l4.608-2.659Z" fill="#f99520"/><path data-name="Path 327" d="m296.626 136.878-4.3-2.48 4.608-2.659 4.3 2.48Z" fill="#ffc032"/><g data-name="Group 125" opacity=".8"><g data-name="Group 124"><g data-name="Group 123" clip-path="url(#r)" transform="translate(271.055 120.268)"><path data-name="Path 328" d="M15.055 7.099 8.77 3.47 2.755-.001l-2.757 1.6 6.013 3.472L12.296 8.7l2.232 1.288 2.757-1.6Z" fill="#26201c"/></g></g></g><path data-name="Path 329" d="M267.917 118.998v1.076l1.165.672v-1.072Z" fill="#d06b00"/><path data-name="Path 330" d="m271.842 119.155-2.76 1.592v-1.075l2.76-1.595Z" fill="#d06b00"/><path data-name="Path 331" d="m269.083 119.671-1.165-.675 2.757-1.592 1.168.675Z" fill="#ffc032"/><path data-name="Path 332" d="m271.803 118.06-2.757 1.6 1.992 1.149 2.757-1.6Z" fill="#37302c"/><path data-name="Path 333" d="m273.622 119.399-2.056 2.787 2.757-1.6 2.056-2.787Z" fill="#1c1815"/><path data-name="Path 334" d="m284.367 121.341-6.284-3.629-2.232-1.288-2.757 1.6 2.232 1.288 6.285 3.629 2.232 1.288 2.757-1.6Z" fill="#37302c"/><path data-name="Path 335" d="m286.601 122.63-2.757 1.6 2.032 5.147 2.757-1.6Z" fill="#2b2421"/><path data-name="Path 336" d="m288.63 127.776-2.757 1.6 1.992 1.149 2.757-1.6Z" fill="#37302c"/><path data-name="Path 337" d="m285.873 129.378-2.032-5.147-2.232-1.288-6.285-3.627-2.232-1.291-2.053 2.787-1.988-1.146-.005 1.064 2.525 1.459 2.056-2.787 1.7.981 6.285 3.629 1.7.981 2.032 5.144 2.525 1.459v-1.067Z" fill="#26201c"/><path data-name="Path 338" d="M287.866 130.528v1.067l2.757-1.6v-1.067Z" fill="#26201c"/><path data-name="Path 339" d="M287.865 130.515v1.077l1.168.672v-1.074Z" fill="#d06b00"/><path data-name="Path 340" d="m291.791 130.672-2.76 1.592v-1.075l2.76-1.595Z" fill="#f99520"/><path data-name="Path 341" d="m289.032 131.188-1.165-.675 2.757-1.592 1.168.675Z" fill="#ffc032"/></g></g><g data-name="Group 129"><g data-name="Group 128" clip-path="url(#s)" transform="translate(233.196 116.609)"><path data-name="Rectangle 64" transform="rotate(-30 18.429 68.789)" fill="url(#t)" d="M0 0h94.886v97.349H0z"/></g></g><g data-name="Group 134"><g data-name="Group 133" clip-path="url(#b)"><path data-name="Path 343" d="m282.745 150.938-45.885-26.492c-2.859-1.651-5.173-.307-5.181 2.979l-.078 27.113a11.323 11.323 0 0 0 5.15 8.941l45.883 26.491c2.861 1.653 5.2.347 5.208-2.965l.075-27.109a11.421 11.421 0 0 0-5.171-8.957" fill="#593114"/><path data-name="Path 344" d="m294.052 183.716.077-27.56a9.578 9.578 0 0 0-.883-3.811 12.323 12.323 0 0 0-1.984-3.117 8.88 8.88 0 0 0-2.218-1.867l-46.4-26.795a3.18 3.18 0 0 0-2.573-.475l.848-.491a4.277 4.277 0 0 1 1.912.64l46.406 26.792a9.279 9.279 0 0 1 2.309 1.944 12.778 12.778 0 0 1 2.045 3.216 9.955 9.955 0 0 1 .915 3.963l-.077 27.56a5.178 5.178 0 0 1-.432 2.165l-.7.405a4.107 4.107 0 0 0 .755-2.571" fill="#593114"/><path data-name="Path 345" d="M244.889 123.521v.749l4.3 2.477v-.746Z" fill="#d06b00"/><path data-name="Path 346" d="m253.79 124.089-4.608 2.661v-.749l4.608-2.659Z" fill="#f99520"/><path data-name="Path 347" d="m249.183 126.001-4.3-2.48 4.608-2.659 4.3 2.48Z" fill="#ffc032"/><path data-name="Path 348" d="M278.03 142.66v.749l4.3 2.477v-.747Z" fill="#d06b00"/><path data-name="Path 349" d="m286.932 143.223-4.608 2.659v-.747l4.608-2.659Z" fill="#f99520"/><path data-name="Path 350" d="m282.325 145.135-4.3-2.48 4.608-2.659 4.3 2.48Z" fill="#ffc032"/><g data-name="Group 132" opacity=".8"><g data-name="Group 131"><g data-name="Group 130" clip-path="url(#r)" transform="translate(256.753 128.525)"><path data-name="Path 351" d="M15.056 7.103 8.771 3.474 2.757.003 0 1.603l6.013 3.472 6.285 3.629 2.232 1.288 2.757-1.6Z" fill="#593114"/></g></g></g><path data-name="Path 352" d="M253.615 127.254v1.08l1.168.672v-1.077Z" fill="#d06b00"/><path data-name="Path 353" d="m257.538 127.412-2.76 1.592v-1.075l2.76-1.592Z" fill="#d06b00"/><path data-name="Path 354" d="m254.782 127.929-1.165-.675 2.757-1.592 1.168.675Z" fill="#ffc032"/><path data-name="Path 355" d="m257.502 126.317-2.757 1.6 1.992 1.149 2.757-1.6Z" fill="#7c4720"/><path data-name="Path 356" d="m259.32 127.656-2.053 2.787 2.757-1.6 2.053-2.787Z" fill="#452715"/><path data-name="Path 357" d="m270.065 129.598-6.285-3.629-2.236-1.288-2.757 1.6 2.232 1.288 6.285 3.629 2.232 1.288 2.757-1.6Z" fill="#7c4720"/><path data-name="Path 358" d="m272.297 130.887-2.757 1.6 2.032 5.147 2.757-1.6Z" fill="#683816"/><path data-name="Path 359" d="m274.333 136.033-2.757 1.6 1.992 1.149 2.757-1.6Z" fill="#7c4720"/><path data-name="Path 360" d="m271.572 137.635-2.032-5.147-2.227-1.288-6.285-3.629-2.232-1.288-2.053 2.787-1.992-1.149-.005 1.064 2.525 1.459 2.056-2.787 1.7.981 6.285 3.629 1.7.981 2.032 5.144 2.525 1.459v-1.067Z" fill="#593114"/><path data-name="Path 361" d="M273.564 138.785v1.067l2.757-1.6v-1.067Z" fill="#593114"/><path data-name="Path 362" d="M273.564 138.772v1.077l1.165.672v-1.074Z" fill="#d06b00"/><path data-name="Path 363" d="m277.489 138.93-2.76 1.592v-1.075l2.76-1.595Z" fill="#f99520"/><path data-name="Path 364" d="m274.731 139.446-1.165-.675 2.757-1.592 1.168.675Z" fill="#ffc032"/><path data-name="Path 365" d="M190.63 183.134c.429 1.123-.688 19.829.995 25.957.371 1.651 4.328 7.224 4.6 8.355a30.971 30.971 0 0 1 0 5.069s-1.133 3.6-1.891 3.952-6.027-1.251-6.869-2.3c1.947-4.109-2.221-42.424-2.221-42.424s4.952.272 5.384 1.392" fill="#edb9a5"/><path data-name="Path 366" d="M167.36 155.272s-.045 3.925-1.757 6.027c-.1 1.349 4.112 5.168 4.112 5.168l5.379 6.395 7.173-.859 2.1-4.523-2.653-8.925-6.153-5.808-8.109-.856Z" fill="#cda18f"/><path data-name="Path 367" d="M182.425 288.078c3.2 4.832 9.821 5.712 12.008 7.211 2.1 1.443 2.349 5.181.635 5.885-6.552 1.869-14.667-3.115-14.667-3.115a15.316 15.316 0 0 1-8.656-1.715c-1.155-.645.781-8.656.781-8.656s8.416.389 9.9.389" fill="#663314"/><path data-name="Path 368" d="M185.153 249.643s-1.949 3.581-2.005 6.307c.291 3.285-2.112 19.573-.723 32.128-1.325.624-8.032 1.56-9.9-.387.155-6.317-2.421-20.429-2.421-23a38.109 38.109 0 0 1 1.315-7.328l-.603-9.045Z" fill="#edb9a5"/><path data-name="Path 369" d="M189.945 209.132c-.915 20.4-3.232 38.083-4.632 41.294-.811 1.853-9.008 5.293-15.749.936-1.52-.635-.667-29.4-.667-29.4s20.615-13.734 21.048-12.83" fill="#464646"/><path data-name="Path 370" d="M160.118 296.838a55.753 55.753 0 0 0 2.752 8.741c1.571 3.784 4.291 7.672 2.749 9.355-3.352 3.664-9.709.507-11.384-2.688a26.06 26.06 0 0 1-1.755-5.109c-.192-.541-2.531-2.08-2.181-4.949s2.584-6.9 2.584-6.9Z" fill="#663314"/><path data-name="Path 371" d="M168.659 255.294c-1.045.9-3.093 11.579-5.312 12.925.779 6.16-2.677 17.941-3.221 28.619-2.341 1.016-7.248.829-7.235-1.549.845-7.6-1.8-18.357-1.3-24.208.344-3.955 1.992-6.077 4.211-18.547 1.259.173 13.9 1.864 12.856 2.76" fill="#edb9a5"/><path data-name="Path 372" d="M160.286 211.209a29.147 29.147 0 0 0-3.995 8.472c-1.7 5.485-3.805 34.016-3.336 35.344.859 4.048 17.307 4.285 18.5.624.453-2.123 5.051-23.547 5.515-25.381 10.286-3.159 12.975-21.134 12.975-21.134Z" fill="#545454"/><path data-name="Path 373" d="M185.622 155.544c8.184 1.987 5.845 14.235 5.845 14.235l.469 11.96a4.768 4.768 0 0 1-6.315 1.731c-.045-1.6-.819-28.04 0-27.925" fill="#267c7c"/><path data-name="Path 374" d="M179.814 169.107c-2.061.941-11.163-9.381-14.517-8.133-3.509 2.653-4.077 4.2-7.893 6.931-.784.981 6.048 32.715 4.363 40.44.36 1.317 3.835 3.683 8.776 4.237 10.9 1.768 19.4-6.555 19.4-6.984-.005-3.941 0-34.733-.507-37.811-.192-7.8-9.507-9.552-9.507-9.552s1.949 9.936-.117 10.872" fill="#2d9898"/><path data-name="Path 375" d="M184.372 161.473s2.715 2.629 3.277 2.336a9.993 9.993 0 0 0 2.419-5.573c-.08-1.909-2.485-4.405-2.485-4.405Z" fill="#cda18f"/><path data-name="Path 376" d="M189.935 145.849a10.966 10.966 0 0 1-.629 3.1 20.034 20.034 0 0 1 .147 4c-.139 2.285-1.867 9.056-5.293 9.853-6.184 1.435-13.037-4.792-13.565-7.483 0 0-4.381.877-5.277-4.131-.205-1.091 1.595-7.739 1.595-7.739l14.56-7.835 7.717 7.075a27.987 27.987 0 0 1 .747 3.16" fill="#edb9a5"/><path data-name="Path 377" d="M177.622 148.602c-1.043 3.12-6.965 3.288-6.965 3.288-.211-.349-1.208-2.264-2.768-2.573s-2.573 1.872-2.573 1.872-5.264-10.067 2.3-15c10.462-12.804 24.435 3.276 22.214 9.033-.467 1.512-6.235 5.957-12.208 3.381" fill="#663314"/><path data-name="Path 378" d="M168.547 136.766c4.525-.312 8.363 8.459 8.363 8.459s-5.088-7.4-8.363-8.459" fill="#4f2811"/><path data-name="Path 379" d="m160.286 197.019-1.637 3.947s.078 2.309-.238 6.273-3.509 19.325-3.509 19.325 4.059 3.04 4.643 5.3-.176 4.949-.584 4.832c-1-.059-.936-2.765-2.051-2.461s-1.227 4.648-1.227 4.648 2.349 4.248.936 4.984c-.819.432-4.133-2.8-4.133-2.8a12.361 12.361 0 0 1-2.963-5.691c-.7-3.429 0-9.827 0-9.827s-2.021-17.851-.317-23.075l2.893-8.5Z" fill="#edb9a5"/><path data-name="Path 380" d="M159.894 167.161c-6.912-.008-9.242 15.744-9.242 15.744s-1.163 11.1-1.437 12.387c-.427 3.237 12.2 4.256 12.667 1.779.253-1.341 2.808-15.565 2.808-15.565s4.013-14.072-4.795-14.344" fill="#267c7c"/><path data-name="Path 381" d="M161.766 208.345s1.872 3.624 10.467 4.44 17.712-7.186 17.712-7.186v3.536s-8.24 7.571-18.008 6.912c-7.8-.533-11.651-4.837-11.651-4.837Z" fill="#663314"/></g></g></g></svg>