<svg data-name="Group 7" xmlns="http://www.w3.org/2000/svg" width="117.083" height="58.543" viewBox="0 0 117.083 58.543"><defs><clipPath id="a"><path data-name="Rectangle 8" fill="none" d="M0 0h117.083v58.54H0z"/></clipPath></defs><path data-name="Rectangle 7" fill="#fff" d="M0 0h117.083v58.543H0z"/><path data-name="Path 17" d="M46.832 23.418H35.125V11.709H23.416v11.709H11.707v11.707h11.709v11.709h11.709V35.125h11.707Z" fill="#838383"/><g data-name="Group 6"><g data-name="Group 5" transform="translate(0 .002)" clip-path="url(#a)" fill="#838383"><path data-name="Path 18" d="M76.082 26.565a5.448 5.448 0 0 0 5.527-5.688 5.369 5.369 0 0 0-5.527-5.69 5.45 5.45 0 0 0-5.527 5.69 5.368 5.368 0 0 0 5.527 5.688m0-9.494c1.951 0 3.4 1.387 3.4 3.807s-1.45 3.8-3.4 3.8-3.4-1.387-3.4-3.8 1.448-3.807 3.4-3.807"/><path data-name="Path 19" d="M92.182 26.034a.28.28 0 0 0 .318.318h1.38a.281.281 0 0 0 .318-.318v-14.01a.283.283 0 0 0-.318-.322h-1.416a.284.284 0 0 0-.32.322v4.928a3.95 3.95 0 0 0-3.51-1.763c-3.045 0-5.207 2.312-5.207 5.724 0 3.378 2.127 5.652 5.137 5.652a4.021 4.021 0 0 0 3.617-1.87Zm-3.367-1.353c-1.951 0-3.261-1.387-3.261-3.8s1.31-3.807 3.261-3.807 3.4 1.387 3.4 3.807-1.45 3.8-3.4 3.8"/><path data-name="Path 20" d="M94.023 31.899h-1.626a.282.282 0 0 0-.32.32v1.635a.279.279 0 0 0 .32.316h1.626a.279.279 0 0 0 .32-.316v-1.635a.282.282 0 0 0-.32-.32"/><path data-name="Path 21" d="M93.92 35.88h-1.414a.284.284 0 0 0-.323.32v10.311a.285.285 0 0 0 .323.32h1.416a.284.284 0 0 0 .318-.32V36.2a.283.283 0 0 0-.318-.32"/><path data-name="Path 22" d="M58.858 26.354h1.45a.284.284 0 0 0 .322-.32v-5.228h2.409l3.789 5.3a.578.578 0 0 0 .5.25h1.7c.32 0 .354-.286.212-.465l-3.931-5.44a4.113 4.113 0 0 0 3.541-4.159c0-3.13-2.517-4.589-5.171-4.589h-4.821a.284.284 0 0 0-.318.322v14.009a.283.283 0 0 0 .318.32m1.773-12.625H63.5c2.054 0 3.189.961 3.189 2.562s-1.134 2.56-3.189 2.56h-2.869Z"/><path data-name="Path 23" d="M88.726 35.88h-1.418a.279.279 0 0 0-.316.32v5.9a2.726 2.726 0 0 1-2.8 3.02c-1.631 0-2.695-1.067-2.695-3.02v-5.9a.281.281 0 0 0-.318-.32h-1.417a.282.282 0 0 0-.318.32v6.258a4.3 4.3 0 0 0 4.393 4.587 3.464 3.464 0 0 0 3.189-1.675v1.137a.283.283 0 0 0 .318.32h1.382a.284.284 0 0 0 .32-.32V36.2a.283.283 0 0 0-.32-.32"/><path data-name="Path 24" d="M101.614 15.188c-2.8 0-5.067 2.278-5.067 5.69s2.269 5.688 5.352 5.688a5.3 5.3 0 0 0 4.283-1.955.3.3 0 0 0-.036-.462l-.812-.819a.3.3 0 0 0-.462 0 3.972 3.972 0 0 1-2.936 1.386 3.225 3.225 0 0 1-3.27-2.988h7.623c.32 0 .356-.246.356-.708 0-3.626-2.018-5.832-5.029-5.832m-2.963 4.835c.273-2.115 1.574-2.986 2.961-2.986a2.961 2.961 0 0 1 2.941 2.986Z"/><path data-name="Path 25" d="M101.692 40.469c-1.346-.392-2.551-.749-2.551-1.743 0-.744.708-1.209 2.088-1.209a5.39 5.39 0 0 1 2.765.78.332.332 0 0 0 .462-.138l.525-1.071a.317.317 0 0 0-.14-.46 8.339 8.339 0 0 0-3.719-.961c-2.339 0-4.037 1.17-4.037 3.2 0 2.167 1.982 2.81 3.789 3.34 1.452.428 2.447.713 2.447 1.637 0 .749-.6 1.349-2.271 1.349a6.491 6.491 0 0 1-3.4-1.062c-.214-.108-.356-.072-.46.14l-.53 1.067a.338.338 0 0 0 .068.428 8.033 8.033 0 0 0 4.463 1.279c2.515 0 4.183-1.243 4.183-3.308 0-2.239-1.949-2.772-3.685-3.268"/><path data-name="Path 26" d="m63.675 38.654 5.67-6.006c.142-.178.106-.462-.214-.462h-1.7a.642.642 0 0 0-.53.248l-6.269 6.655v-6.583a.282.282 0 0 0-.32-.32h-1.454a.282.282 0 0 0-.318.32v14a.283.283 0 0 0 .318.322h1.452a.284.284 0 0 0 .32-.322v-4.749l1.552-1.643 4.961 6.47a.64.64 0 0 0 .53.25h1.7c.318 0 .354-.286.212-.467Z"/><path data-name="Path 27" d="M77.279 35.665a4.151 4.151 0 0 0-3.969 2.772v-2.238a.283.283 0 0 0-.32-.32h-1.383a.279.279 0 0 0-.316.32V46.51a.28.28 0 0 0 .316.32h1.421a.283.283 0 0 0 .318-.32v-3.946c0-2.88 1.558-4.657 3.933-4.657a.283.283 0 0 0 .318-.322v-1.6a.282.282 0 0 0-.318-.32"/></g></g></svg>