<svg xmlns="http://www.w3.org/2000/svg" width="114" height="75" fill="none"><g clip-path="url(#a)"><path fill="#F9B139" d="M81.049 36.504c-1.883.068-3.622-.5-5.328-1.071a12.74 12.74 0 0 1-1.955-.805 4.705 4.705 0 0 1-.495-.294.543.543 0 0 1-.253-.684 8.941 8.941 0 0 0 .18-4.15 7.005 7.005 0 0 0-2.86-4.312 13.98 13.98 0 0 0-.881-.588c-.447-.294-.463-.334-.29-.865.134-.379.297-.746.487-1.1a40.408 40.408 0 0 1 3.17-5.168 20.617 20.617 0 0 1 3.356-3.45 29.065 29.065 0 0 1 5.967-3.95c2.37-1.185 4.908-2 7.524-2.414 1.312-.202 2.64-.33 3.944-.604 2.414-.503 4.748-1.208 6.84-2.6a8.722 8.722 0 0 0 3.372-3.861c.116-.278.249-.6.627-.572.379.028.512.374.608.672.182.584.284 1.189.302 1.8.133 3.667-1.062 6.82-3.75 9.34a8.604 8.604 0 0 1-6.362 2.394c-.825-.028-1.61-.185-2.442-.253-2.14-.181-4.233-.049-6.233.805a7.364 7.364 0 0 0-2.112 1.405c-.145.133-.403.306-.286.51.117.206.403.126.608.081.656-.145 1.291-.37 1.955-.495a16.745 16.745 0 0 1 4.507-.197c1.042.089 2.056.322 3.09.467a7.365 7.365 0 0 0 4.523-.805 11.576 11.576 0 0 0 3.697-3.184c.061-.077.109-.157.173-.23.149-.173.306-.366.564-.277.257.088.326.342.342.583a7.078 7.078 0 0 1-.137 1.82c-.805 4.4-3.408 7.415-7.347 9.355a13.618 13.618 0 0 1-7.106 1.345 11.21 11.21 0 0 1-1.988-.338 13.273 13.273 0 0 0-4.33-.484c-2.096.153-3.983.806-5.476 2.372a.12.12 0 0 0-.032.032c-.124.16-.402.298-.27.515.133.217.431.173.657.12.309-.081.614-.18.913-.293a12.68 12.68 0 0 1 6.788-.403c.897.17 1.782.403 2.684.54a9.7 9.7 0 0 0 4.599-.443 13.636 13.636 0 0 0 2.655-1.24l.085-.048c.233-.13.463-.326.744-.105a.805.805 0 0 1 .161.93 17.89 17.89 0 0 1-.941 1.787 17.185 17.185 0 0 1-5.698 5.91 16.81 16.81 0 0 1-6.035 2.278c-.83.152-1.672.226-2.515.222z"/><path fill="#F84F37" d="M71.52 32.728a14.327 14.327 0 0 1-2.12 7.016 35.351 35.351 0 0 1-4.667 6.12 5.012 5.012 0 0 1-.612.543c-.185.14-.402.402-.623.237-.222-.165-.097-.402-.057-.628.077-.443.165-.882.262-1.32a42.596 42.596 0 0 0 1.07-7.91c.068-2.63-.137-5.214-1.179-7.65-1.786-4.186-4.937-6.842-9.335-7.994a17.916 17.916 0 0 0-7.46-.153c-3.818.624-7.383 2.013-10.843 3.684a65.86 65.86 0 0 0-6.008 3.353 22.666 22.666 0 0 1-5.468 2.58 10.857 10.857 0 0 1-8.852-1.046c-1.565-.902-2.99-2.013-4.47-3.02a18.507 18.507 0 0 0-4.12-2.27c-.5-.177-1.009-.323-1.526-.439a3.964 3.964 0 0 1-.684-.213c-.519-.23-.559-.576-.12-.946.303-.24.637-.438.994-.588a29.516 29.516 0 0 1 4.828-1.61c3.71-.99 7.472-1.727 11.266-2.343a166.31 166.31 0 0 1 9.5-1.256c2.95-.292 5.901-.494 8.852-.604a84.72 84.72 0 0 1 5.255-.028 47.51 47.51 0 0 1 9.741 1.135c5.15 1.248 8.776 4.352 11.086 9.066.1.213.18.318.454.27a3.58 3.58 0 0 1 3.855 1.739c.756 1.26.978 2.64.982 4.275zm-4.425-10.004a2.927 2.927 0 0 1-.757-1.425c-.084-.523.105-.708.632-.676a8.7 8.7 0 0 0 .913.032 2.125 2.125 0 0 0 2.1-1.61 4.508 4.508 0 0 0 .04-2.613 11.425 11.425 0 0 0-3.966-5.945 4.023 4.023 0 0 0-2.298-.898c-1.207-.08-2.048.402-2.414 1.546-.063.198-.114.4-.153.604a9.214 9.214 0 0 0 .25 3.96 19.674 19.674 0 0 0 2.957 6.015c.103.144.226.273.366.382a6.64 6.64 0 0 0 2.132 1.184.776.776 0 0 0 .56.02 1.308 1.308 0 0 0-.382-.576h.02zm21.671 29.813a1.12 1.12 0 0 0-.213.467c-.728 2.178-1.61 4.3-2.394 6.441a.342.342 0 0 1-.382.27c-.403-.02-.837 0-1.252 0-.233 0-.306-.064-.31-.298 0-1.107-.044-2.218-.06-3.325 0-1.43 0-2.862-.04-4.295-.036-1.236-.036-2.472-.069-3.708 0-.439 0-.439.435-.443.434-.004.87 0 1.304 0 .241 0 .293.085.29.306-.025.95 0 1.9-.053 2.846-.052.946-.02 1.96-.064 2.939-.028.676-.065 1.349-.093 2.013a.997.997 0 0 0 0 .189c.109-.028.105-.12.125-.193.632-2.21 1.553-4.312 2.35-6.461.173-.467.354-.93.523-1.397a.318.318 0 0 1 .35-.25c.305.016.612.016.917 0 .213 0 .274.077.27.282v1.977c0 1.546.032 3.087.04 4.629a13 13 0 0 0-.024 1.477c.29-.865.535-1.743.837-2.6.638-1.798 1.27-3.599 1.895-5.402a.433.433 0 0 1 .507-.363c.479.02.958 0 1.493 0-.254.717-.487 1.377-.733 2.037-1.175 3.205-2.35 6.41-3.528 9.617-.109.298-.222.455-.568.423a6.84 6.84 0 0 0-1.11 0c-.262 0-.33-.097-.334-.338 0-.805 0-1.639-.052-2.456-.029-1.449-.081-2.906-.057-4.384zm-54.722 19.01c.181.993.379 1.984.548 2.982.036.221.124.29.342.282.386-.016.772-.016 1.158 0 .234 0 .306-.093.338-.298.065-.403.141-.805.214-1.232l1.512-8.534c.11-.612.206-1.228.318-1.884h-1.48c-.238 0-.326.08-.362.326-.173 1.059-.375 2.117-.56 3.176a31.931 31.931 0 0 0-.547 3.909c0 .105 0 .233-.1.322a42.359 42.359 0 0 0-.403-2.476c-.308-1.64-.604-3.282-.885-4.927-.048-.27-.17-.342-.403-.33a9.398 9.398 0 0 1-1.01 0c-.285 0-.374.089-.426.37-.459 2.657-.938 5.31-1.412 7.963-.19 1.075-.383 2.15-.568 3.22-.068.383-.064.403.306.403h1.159a.27.27 0 0 0 .322-.266c.052-.35.117-.696.173-1.046.346-2.186.881-4.344.965-6.562.238 1.546.548 3.071.821 4.601h-.02zm29.43-11.136a1.266 1.266 0 0 1-1.558 1.12 4.288 4.288 0 0 1-1.69-.68c-.165.523-.2 1.038-.318 1.537-.048.197.045.282.226.35a5.85 5.85 0 0 0 2.478.46c1.55-.073 2.435-.806 2.817-2.291.044-.19.08-.379.112-.568.403-2.15.773-4.295 1.135-6.44.163-.977.388-1.94.676-2.887-.833-.125-1.585-.109-2.012.805a5.384 5.384 0 0 0-.728-.64 1.839 1.839 0 0 0-2.519.29 3.756 3.756 0 0 0-.704 1.207 14.181 14.181 0 0 0-.789 3.092 9.147 9.147 0 0 0-.104 2.588c.169 1.297 1.127 1.852 2.33 1.345.3-.151.591-.32.873-.503-.077.463-.137.837-.206 1.215h-.02zm-.298-7.246c.1-.301.197-.632.583-.688.386-.056.6.234.805.507a.604.604 0 0 1 .125.532c-.222 1.147-.403 2.302-.624 3.454a1.983 1.983 0 0 1-1.13 1.207.37.37 0 0 1-.484-.277 2.99 2.99 0 0 1-.044-.68c.126-1.371.39-2.725.789-4.042l-.02-.013zM90.283 66.45c-1.13-.805-2.31-.576-3.03.624-.21.361-.38.744-.507 1.143a17.316 17.316 0 0 0-.748 4.114 4.327 4.327 0 0 0 .18 1.667 1.329 1.329 0 0 0 1.381.99 2.332 2.332 0 0 0 1.34-.471c.225-.141.439-.306.66-.463.112.197.201.366.306.523a.475.475 0 0 0 .442.234H91.8c.169 0 .258-.036.286-.23.06-.426.153-.845.233-1.28-.294-.092-.575 0-.857-.084.003-.11.013-.221.028-.33l1.3-7.295c.137-.805.285-1.578.422-2.37.057-.33.037-.351-.306-.359h-1.351c-.214 0-.31.072-.347.294a367.796 367.796 0 0 1-.62 3.51l-.305-.217zm-1.61 2.013c.058-.217.155-.422.286-.604a.495.495 0 0 1 .547-.214 1.082 1.082 0 0 1 .709 1.019 148.489 148.489 0 0 1-.632 3.542c-.117.592-.628.858-1.123 1.083-.217.1-.402-.04-.454-.29a2.214 2.214 0 0 1-.028-.672c.109-1.301.343-2.588.7-3.844l-.004-.02zM51.91 72.017l1.135-6.392c.14-.806.274-1.61.402-2.416.045-.241 0-.362-.277-.35h-1.352c-.254 0-.342.1-.378.322-.07.427-.143.853-.218 1.28l-.402 2.218c-.133-.105-.205-.169-.282-.225a1.912 1.912 0 0 0-2.917.495 4.66 4.66 0 0 0-.54 1.123 16.442 16.442 0 0 0-.828 4.331c-.038.499.01 1 .145 1.482a1.357 1.357 0 0 0 1.473 1.107 2.22 2.22 0 0 0 1.207-.423c.257-.16.495-.346.756-.531.067.203.165.394.29.568a.488.488 0 0 0 .402.209h1.541a.226.226 0 0 0 .258-.213c.096-.442.167-.888.213-1.337h-.845l.217-1.248zm-2.977-3.514c.053-.235.158-.455.306-.644a.507.507 0 0 1 .688-.133 1.023 1.023 0 0 1 .539 1.022c-.193 1.172-.403 2.335-.604 3.502a2.06 2.06 0 0 1-1.15 1.071.365.365 0 0 1-.451-.322.876.876 0 0 1 0-.145v-.479a20.08 20.08 0 0 1 .672-3.872zM27.739 51.507c-.036-.032 0-.069.032-.089a3.02 3.02 0 0 1 .028-.382c.141-.805.298-1.578.423-2.371.09-.33.137-.67.14-1.01H26.65c-.197 0-.282.06-.314.265-.113.729-.25 1.453-.378 2.182-.405 2.276-.808 4.557-1.207 6.843-.141.806-.286 1.578-.403 2.371-.072.403-.064.423.37.423h1.256c.245 0 .342-.076.402-.314.314-1.835.652-3.663.95-5.503.038-.317.2-.607.45-.805.121-.105.246-.21.375-.306.209-.157.446-.322.7-.169.253.153.153.443.116.668-.225 1.329-.47 2.657-.704 3.982-.14.805-.277 1.61-.426 2.443h2.692c.152 0 .245-.052.273-.205.069-.403.137-.805.21-1.188.028-.173-.053-.23-.214-.221-.16.008-.402 0-.623 0a1.008 1.008 0 0 1 0-.177c.27-1.518.547-3.032.804-4.55.092-.44.126-.89.1-1.34-.076-.91-.587-1.344-1.609-1.236-.569.1-1.109.324-1.581.657-.089.02-.109.068-.149.032zM2.116 55.4c.033-2.17-.044-4.34-.036-6.51 0-.338-.032-.672-.036-1.01 0-.165-.06-.23-.225-.226H.659c-.68 0-.68 0-.651.7.089 2.291.181 4.586.266 6.88.048 1.365.084 2.73.124 4.094 0 .403 0 .403.403.403h1.348a.478.478 0 0 0 .555-.378c1.175-3.068 2.37-6.127 3.56-9.19l.975-2.505h-1.61a.402.402 0 0 0-.45.31c-.95 2.641-2.057 5.234-2.91 7.894-.036.113-.032.262-.233.314-.093-.29.076-.527.08-.776zm108.289-7.746h-1.468c-.487 0-.483 0-.568.48-.346 1.956-.7 3.912-1.046 5.869-.318 1.803-.623 3.603-.953 5.402-.053.29.048.326.289.318a10.85 10.85 0 0 1 1.252 0c.306.024.402-.109.43-.37.105-.648.242-1.293.326-1.945.073-.571.459-.893.849-1.312.044.185.077.294.097.403.193.974.402 1.948.571 2.926.032.177.069.294.29.29h1.734c.157 0 .246-.056.27-.205.072-.403.14-.805.217-1.184.032-.173-.044-.237-.209-.225h-.242c-.402 0-.402 0-.507-.44-.201-.99-.402-1.98-.615-2.966a.589.589 0 0 1 .136-.608 54.531 54.531 0 0 0 1.525-1.739c.414-.439.801-.903 1.159-1.389h-1.633a.707.707 0 0 0-.624.274c-.692.846-1.449 1.635-2.1 2.512-.065.08-.097.213-.298.193.37-2.077.736-4.15 1.118-6.284zm-1.118 6.461-.04-.036.028-.028.024.032-.012.032zm-49.894-.62a4.36 4.36 0 0 0 .069-1.767 1.095 1.095 0 0 0-.938-.906 2.445 2.445 0 0 0-1.782.403c-.322.197-.624.435-.934.656-.358-.885-.402-.926-1.142-.926-.656 0-.656 0-.697.685v.145c-.14 1.554-.495 3.071-.744 4.605-.16.982-.35 1.96-.519 2.943-.06.358-.044.37.33.374.374.004.87 0 1.304 0 .225 0 .342-.04.402-.298.306-1.82.636-3.623.954-5.455a2.38 2.38 0 0 1 1.283-1.348c.318-.073.455.028.463.358.007.16-.003.32-.028.48a345.943 345.943 0 0 1-.616 3.461c-.165.926-.326 1.856-.495 2.818h2.736c.105 0 .193-.028.213-.145.073-.402.141-.825.214-1.236.028-.165-.036-.233-.205-.23h-.672c.281-1.581.55-3.09.804-4.617zm21.47 4.429c.27-1.534.544-3.068.805-4.602a4.25 4.25 0 0 0 .057-1.53 1.115 1.115 0 0 0-.938-.961 2.22 2.22 0 0 0-1.404.193 5.992 5.992 0 0 0-1.316.885 3.352 3.352 0 0 1-.108-.253c-.178-.487-.471-.805-1.043-.693a1.75 1.75 0 0 1-.434 0c-.19 0-.25.069-.254.254.006.29-.009.578-.044.866-.213 1.574-.523 3.131-.805 4.697-.165.962-.334 1.925-.51 2.939h1.826c.133 0 .21-.048.23-.185.02-.137.044-.218.064-.33l.95-5.354a.567.567 0 0 1 .12-.358c.273-.3.577-.57.906-.806a.539.539 0 0 1 .587-.08c.193.12.153.342.125.531-.069.427-.145.854-.222 1.28-.297 1.675-.596 3.35-.897 5.024-.032.185 0 .266.213.262h2.459a.229.229 0 0 0 .261-.218c.073-.402.141-.805.214-1.183.036-.181-.065-.213-.218-.217a1.608 1.608 0 0 1-.62-.04c0-.04 0-.081.005-.121h-.008zm-6.035 8.389a1.835 1.835 0 0 0-2.474.346 3.51 3.51 0 0 0-.652 1.12 14.985 14.985 0 0 0-.934 5.04c-.017.45.061.9.23 1.32a1.309 1.309 0 0 0 1.207.849 2.57 2.57 0 0 0 1.633-.604c.148-.135.315-.247.495-.334.04.1.077.173.105.246a.717.717 0 0 0 .805.519c.418-.024.837-.024 1.255 0 .185 0 .302-.036.334-.242.064-.422.14-.841.217-1.264-.302-.096-.583 0-.88-.1.466-2.34.695-4.718 1.391-7.017-1.295-.105-1.291-.117-2.012.781a4.024 4.024 0 0 0-.712-.66h-.008zM73.44 68.49c.052-.219.147-.425.278-.608a.511.511 0 0 1 .635-.193 1.06 1.06 0 0 1 .62 1.026 227.495 227.495 0 0 1-.616 3.547 2.045 2.045 0 0 1-1.158 1.062.355.355 0 0 1-.435-.342c-.028-.205-.024-.402-.036-.612.122-1.313.363-2.611.72-3.88h-.008zM12.795 50.959c-.297-.02-.402.105-.434.367-.35 2.013-.713 4.025-1.055 6.018a3.716 3.716 0 0 0-.02 1.67 1.071 1.071 0 0 0 .898.838 2.51 2.51 0 0 0 1.87-.443c.262-.169.508-.366.773-.56.101.23.224.45.366.657a.504.504 0 0 0 .403.225h1.545c.157 0 .221-.056.245-.213.077-.451.165-.902.25-1.353-.302-.108-.584 0-.861-.096 0-.113 0-.222.024-.33l.519-2.94c.205-1.15.402-2.306.611-3.457.06-.342.04-.362-.293-.367h-1.3c-.278 0-.382.065-.43.359-.294 1.755-.656 3.502-.906 5.265a2.013 2.013 0 0 1-.99 1.377.503.503 0 0 1-.583.084c-.181-.112-.14-.322-.117-.487.069-.51.157-1.014.246-1.521.293-1.675.591-3.346.897-5.072-.6-.012-1.13.016-1.658-.02zm66.793 23.848c.403 0 .403 0 .475-.403.303-1.723.603-3.444.901-5.165.002-.225.08-.444.222-.62a3.25 3.25 0 0 1 1.094-.845c.27-.093.439.032.45.326.005.177-.008.354-.04.528a801.843 801.843 0 0 1-.708 3.977c-.112.632-.225 1.264-.334 1.896-.02.129-.096.31.157.31h2.507a.192.192 0 0 0 .204-.112.193.193 0 0 0 .017-.081c.053-.347.121-.693.19-1.039.04-.217 0-.334-.262-.318a.978.978 0 0 1-.555-.052c0-.085 0-.15.024-.21.25-1.438.497-2.877.744-4.315a4.27 4.27 0 0 0 .08-1.719 1.111 1.111 0 0 0-1.142-.966 3.017 3.017 0 0 0-2.032.749c-.145.108-.266.273-.459.314-.366-.89-.402-.918-1.352-.914a1.555 1.555 0 0 1-.193 0c-.189-.02-.253.06-.257.245a24.413 24.413 0 0 1-.536 3.813c-.249 1.513-.523 3.027-.804 4.605l1.61-.004zm18.94-16.932c-.453.21-.946.317-1.445.314a.856.856 0 0 1-.91-.805 4.43 4.43 0 0 1 .105-1.433c.069-.439.077-.439.531-.439h2.604c.294 0 .438-.06.47-.378.045-.403.133-.805.214-1.232.103-.438.154-.886.153-1.336-.036-.878-.427-1.454-1.207-1.643-1.682-.402-3.252 0-3.988 1.856-.28.717-.491 1.46-.628 2.218a10.3 10.3 0 0 0-.225 2.874c.085.962.455 1.892 1.915 2.013.9.034 1.798-.114 2.64-.435a.286.286 0 0 0 .217-.23c.073-.523.218-1.034.25-1.638-.294.11-.491.21-.7.294h.004zm-1.562-5.048a.902.902 0 0 1 .946-.511.442.442 0 0 1 .43.435c.007.112.007.225 0 .338-.024.938-.024.938-.965.938H96.6c.06-.416.182-.82.362-1.2h.004zm-24.48 5.04a3.63 3.63 0 0 1-1.303.322c-.708 0-1.063-.282-1.099-.978.004-.481.053-.961.15-1.433.027-.242.136-.278.341-.278h2.414c.805 0 .757 0 .894-.72.108-.6.22-1.208.297-1.804.133-1.103-.366-1.892-1.311-2.101a3.864 3.864 0 0 0-.857-.1c-1.36.027-2.306.402-2.99 1.915a8.899 8.899 0 0 0-.555 1.784 11.588 11.588 0 0 0-.334 3.39c.088 1.159.672 1.915 1.911 2.012.896.036 1.79-.11 2.627-.427a.318.318 0 0 0 .234-.273c.084-.504.173-1.007.278-1.61-.298.12-.512.217-.7.301h.003zm-1.61-5.02a.895.895 0 0 1 .556-.495c.531-.165.85.06.845.616-.01.24-.035.48-.076.717-.036.253-.121.362-.403.346-.402-.02-.829 0-1.267 0 .05-.412.172-.813.358-1.184h-.012zM58.404 72.915a4.308 4.308 0 0 1-1.331.402c-.644.077-1.276-.14-1.24-1.062 0-.435.073-.862.125-1.293.028-.261.149-.306.374-.306h2.314c.768 0 .805 0 .95-.773.124-.579.217-1.165.277-1.755.089-1.236-.402-1.888-1.444-2.08a4.175 4.175 0 0 0-1.61.027 2.548 2.548 0 0 0-1.67 1.123c-.214.32-.387.667-.515 1.031a14.234 14.234 0 0 0-.764 3.909 4.313 4.313 0 0 0 .165 1.57 1.611 1.611 0 0 0 1.308 1.207 5.567 5.567 0 0 0 3.11-.402.24.24 0 0 0 .137-.17c.092-.519.185-1.034.29-1.638-.222.089-.35.145-.48.21h.005zm-1.762-4.928a.857.857 0 0 1 .861-.487.462.462 0 0 1 .5.48 3.87 3.87 0 0 1-.105 1.05c-.025.153-.121.165-.238.165h-1.388c.064-.418.188-.824.366-1.207h.004zm-12.876 4.92a4.95 4.95 0 0 1-1.283.402c-.861.141-1.336-.261-1.308-1.127 0-.402.069-.805.12-1.208.037-.273.154-.334.403-.33h2.817c.225 0 .322-.072.354-.282.171-.784.295-1.579.37-2.378.028-1.071-.306-1.82-1.67-1.99a5.477 5.477 0 0 0-.961 0 2.612 2.612 0 0 0-2.125 1.188 4.93 4.93 0 0 0-.587 1.208 14.349 14.349 0 0 0-.68 3.39 5.34 5.34 0 0 0 .072 1.678 1.723 1.723 0 0 0 1.55 1.494c.993.117 2-.022 2.924-.403a.28.28 0 0 0 .19-.25c.084-.503.177-1.006.285-1.61l-.47.218zm-1.798-4.923a.832.832 0 0 1 .527-.451c.555-.141.833.068.829.64v.193c-.048.83-.048.83-.877.83h-.857c.068-.42.195-.828.378-1.212zm-.362-10.117a3.57 3.57 0 0 1-1.396.322.888.888 0 0 1-.998-.881 4.871 4.871 0 0 1 .12-1.385c.06-.403.073-.403.503-.403h2.7c.161 0 .338.028.37-.197a21.42 21.42 0 0 0 .403-2.617c0-.942-.403-1.557-1.207-1.759-1.654-.402-3.256-.024-4.004 1.804a12.224 12.224 0 0 0-.833 3.913 4.1 4.1 0 0 0 .282 1.795 2.082 2.082 0 0 0 1.843 1.409c.837.025 1.67-.13 2.442-.455a.294.294 0 0 0 .19-.253c.084-.504.172-1.007.277-1.61-.286.132-.487.233-.692.317zm-1.57-5.068a.881.881 0 0 1 .87-.487.463.463 0 0 1 .498.475c.005.08.005.158 0 .238-.02 1.002-.02 1.006-1.005.998a2.62 2.62 0 0 1-.729-.032 3.59 3.59 0 0 1 .367-1.192zm-4.192-2.206c.08-.443.157-.886.237-1.328.044-.222 0-.326-.265-.318H34.37c-.197 0-.281.076-.31.277-.06.443-.145.886-.225 1.329-.08.443-.08.402-.483.402-.805 0-.805 0-.921.806-.032.237-.213.515-.073.696.141.181.48.056.725.088h.048c.261-.028.33.077.282.335-.198 1.074-.375 2.15-.564 3.22a22.56 22.56 0 0 0-.374 2.415c-.044.806.241 1.148.95 1.208.72.076 1.448.005 2.14-.21.15-.048.27-.108.298-.277.068-.403.14-.837.217-1.288-.294.04-.527.092-.764.104-.62.04-.769-.112-.668-.712.25-1.506.519-3.003.78-4.509.037-.213.125-.338.379-.318.322.024.643 0 .965 0 .161 0 .266-.028.294-.225.068-.443.177-.874.221-1.36h-1.436a.491.491 0 0 1-.008-.335zm10.32 7.508c-.213 0-.24-.085-.209-.262l.7-3.929c.367-2.069.733-4.138 1.107-6.264h-2.756a.175.175 0 0 0-.134.036.176.176 0 0 0-.068.121c-.08.455-.156.91-.233 1.37.298.108.6-.03.877.1-.611 3.478-1.207 6.932-1.839 10.434h2.729a.211.211 0 0 0 .213-.112.213.213 0 0 0 .024-.081c.08-.455.157-.91.233-1.385a2.075 2.075 0 0 0-.644-.016V58.1zm-36.945 0c-.257.024-.306-.1-.25-.314v-.145a9417.7 9417.7 0 0 1 1.308-7.343c.137-.778.271-1.552.403-2.322.024-.145.1-.335-.181-.335H8.01c-.1 0-.181.02-.205.15-.101.47-.178.946-.23 1.424H8c.45 0 .459 0 .378.46-.434 2.457-.865 4.91-1.291 7.358-.137.773-.278 1.546-.403 2.323-.056.346-.044.354.298.358h2.265c.214 0 .318-.048.346-.282.057-.426.153-.85.242-1.332-.266.008-.439-.004-.616.012V58.1zm56.87 16.706h2.689c.124 0 .209-.024.237-.17a10.8 10.8 0 0 0 .213-1.34c-.294-.092-.575.04-.829-.092 0-.113 0-.21.029-.306.327-1.86.655-3.723.985-5.588.238-1.344.483-2.685.72-4.025.073-.403.065-.403-.33-.403h-2.12c-.302 0-.438.077-.45.403a6.92 6.92 0 0 1-.153.805c-.065.366-.045.382.313.402.172-.02.346.002.507.065-.6 3.365-1.199 6.783-1.81 10.249zM24.505 51.62c.052-.246-.06-.339-.277-.403a5.716 5.716 0 0 0-2.077-.334 2.26 2.26 0 0 0-1.991 1.155 4.757 4.757 0 0 0-.286.552 13.838 13.838 0 0 0-.958 4.351 4.756 4.756 0 0 0 .1 1.582 1.494 1.494 0 0 0 1.232 1.208 5.18 5.18 0 0 0 2.66-.237c.1-.037.217-.053.241-.194.105-.616.21-1.227.326-1.892a6.05 6.05 0 0 1-1.5.552c-.633.1-.946-.12-1.027-.757a4.493 4.493 0 0 1 .085-1.292c.085-.86.298-1.703.631-2.5a1.078 1.078 0 0 1 1.328-.684 2.99 2.99 0 0 1 1.207.519c.109-.584.19-1.107.306-1.626zm79.689.68c-.097-.141-.056-.274-.081-.403-.148-.708-.434-.942-1.146-.942h-.403c-.201 0-.285.06-.285.274.013.305-.002.611-.045.914-.289 1.755-.599 3.51-.897 5.265-.133.753-.257 1.51-.402 2.303h1.529c.491 0 .483 0 .567-.475.268-1.61.553-3.206.853-4.786.02-.125 0-.258.133-.343.628-.43 1.175-1.042 2.056-.853.141.028.205-.028.229-.17.125-.756.258-1.509.403-2.314-1.111.121-1.718.97-2.511 1.53zM62.266 74.815c.274 0 .342-.097.403-.35.253-1.502.555-3 .804-4.505a1.38 1.38 0 0 1 .672-1.026c.475-.319.942-.632 1.553-.508.21.044.234-.08.262-.237.109-.632.225-1.264.338-1.896.052-.29 0-.347-.302-.27a2.852 2.852 0 0 0-1.094.584c-.346.281-.688.571-1.059.881-.048-.197-.084-.35-.124-.503-.173-.648-.403-.841-1.083-.841a3.174 3.174 0 0 1-.338 0c-.245-.028-.337.06-.334.322a11.21 11.21 0 0 1-.229 2.013c-.362 2.085-.728 4.174-1.106 6.336.55-.008 1.098-.02 1.637 0zM51.805 51.028a.564.564 0 0 0-.113-.056h-1.83c-.315 0-.705-.141-.93.068-.226.21-.157.604-.213.918-.105.571-.101.587.47.587.27 0 .318.089.274.343-.314 1.698-.612 3.405-.91 5.108-.1.56-.188 1.123-.29 1.723h2.697a.225.225 0 0 0 .265-.21c.06-.378.125-.756.197-1.135.045-.225-.06-.273-.261-.27a1.236 1.236 0 0 1-.587-.047c.415-2.349.828-4.692 1.239-7.03h-.008zm.591-2.448a.974.974 0 0 0-.986-1.107 1.488 1.488 0 0 0-1.416 1.107.987.987 0 0 0 .95 1.297 1.496 1.496 0 0 0 1.452-1.297z"/></g><defs><clipPath id="a"><path fill="#fff" d="M0 0h113.942v75H0z"/></clipPath></defs></svg>