<svg data-name="Group 9" xmlns="http://www.w3.org/2000/svg" width="114.817" height="75.576" viewBox="0 0 114.817 75.576"><defs><clipPath id="a"><path data-name="Rectangle 9" fill="none" d="M0 0h114.817v75.576H0z"/></clipPath></defs><g data-name="Group 8" clip-path="url(#a)" fill="#838383"><path data-name="Path 28" d="M103.475 12.5c-1.416 1.892-4.519 5.043-8.994 4.1a16.62 16.62 0 0 0-8.536.183c-1.24.4-1.574.169-.749-.589 1.373-1.267 4.219-2.8 9.614-1.978 7.703 1.171 12.594-7.14 11.079-13.344-.192-.785-.825-1.389-1.315-.21-.931 2.253-3.877 5.812-13.188 6.912a28.4 28.4 0 0 0-17.769 9.731c-1.371 1.764-4.389 6.781-4 7.212s5.8 2.6 3.9 9.654c-.187.688 4.833 2.4 7.12 2.607 0 0 10.922 1.092 16.314-10.268.237-.5-.115-1.308-.74-.909a11.292 11.292 0 0 1-7.566 1.847c-2.607-.41-5.6-1.694-10.06.045-.6.235-1.57.259-.871-.5C79.16 25.42 82.272 23.6 87.635 25c7.494 1.96 16.546-3.443 16.785-12.058.016-.573-.372-1.209-.945-.442"/><path data-name="Path 29" d="M64.544 9.733q2.175.311 4.3 3.365t1.784 5.44q-.375 2.635-3.144 2.237c-.406-.059-.631.032-.665.277-.086.589.077.976.631 1.752.065.09.519.492.469.7-.068.289-2.424-.695-3.108-1.7q-3.8-5.585-3.2-9.785.379-2.655 2.925-2.291"/><path data-name="Path 30" d="M66.821 26.983c4.993-1.234 7.181 6.032 3.077 13.116-1.4 2.424-6.127 8.4-6.015 6.637.11-1.678 3.834-13.229-1.292-20.094-8.588-11.5-24.868-3.123-32.5 1.644-13.2 8.252-16.346-2.535-24.514-4.262-8.967-1.899 36.887-11.82 52.438-5.712a16.609 16.609 0 0 1 8.807 8.671"/><path data-name="Path 31" d="m33.859 69.501 1.08 5.9h1.707l2.129-12.014h-1.781l-.974 5.573c-.158.889-.244 2.855-.244 2.855s-.21-1.793-.368-2.524l-1.078-5.9h-1.707l-2.124 12.012h1.776l.974-5.573c.088-.557.228-2.63.244-2.821.034.262.262 2 .365 2.492m9.682.156-.016.088h-1.636c.262-1.29.523-1.725 1.218-1.725.593 0 .7.365.435 1.637m.995 3.6c-1.116.627-2.194.837-2.718.489-.487-.313-.453-.995-.192-2.526h3.466l.347-1.917c.365-2.018-.417-2.785-2.106-2.785-2.106 0-3.065 1.15-3.658 4.528-.661 3.8.419 4.526 2.109 4.526a7.025 7.025 0 0 0 2.438-.521Zm5.658-.174-.313.3c-.417.383-.645.541-.871.541-.365 0-.661-.088-.174-2.873s.819-2.871 1.184-2.871c.226 0 .435.086.7.469l.207.3Zm1.863.767 1.847-10.466h-1.985l-.7 3.883a2.269 2.269 0 0 0-1.534-.749c-1.306 0-2.228 1.046-2.839 4.528s.07 4.526 1.378 4.526a3.469 3.469 0 0 0 2-1.026 1.368 1.368 0 0 0 .539.852h1.917l.277-1.549Zm6.269-4.2-.018.088h-1.633c.259-1.29.521-1.725 1.218-1.725.593 0 .7.365.435 1.637m.992 3.6c-1.114.627-2.194.837-2.715.489-.489-.313-.453-.995-.192-2.526h3.462l.35-1.917c.365-2.018-.419-2.785-2.109-2.785-2.106 0-3.065 1.15-3.656 4.528-.663 3.8.417 4.526 2.106 4.526a7 7 0 0 0 2.438-.521Zm4.912-5.153a1.7 1.7 0 0 0-.627-1.412h-1.2a11.33 11.33 0 0 1-.244 2.438l-1.1 6.269h1.987l.974-5.521.645-.469a1.634 1.634 0 0 1 1.689-.4l.435-2.49a2.613 2.613 0 0 0-1.6.767Zm4.632 5.746 1.845-10.466h-2.893l-.277 1.552h.9l-1.841 10.474h2.891l.277-1.549Zm6.024-.767-.313.3c-.417.383-.643.541-.871.541-.365 0-.661-.088-.174-2.873s.819-2.873 1.184-2.873c.226 0 .435.086.7.469l.21.3Zm1.272-5.537a2.542 2.542 0 0 0-1.777-1.028c-1.306 0-2.228 1.046-2.839 4.528s.072 4.526 1.376 4.526a3.468 3.468 0 0 0 2-1.026 1.377 1.377 0 0 0 .539.852h1.916l.277-1.549h-.907l.821-4.72a14.43 14.43 0 0 1 .625-2.438h-1.2a2.437 2.437 0 0 0-.837.855m6.06 7.853h2.891l.277-1.549h-.9l.834-4.772c.28-1.583.07-2.56-1.254-2.56a3.184 3.184 0 0 0-1.949.837l-.4.332a1.593 1.593 0 0 0-.591-.995h-1.2a11.209 11.209 0 0 1-.246 2.438l-1.1 6.269h1.987l1.078-6.13.453-.435c.435-.417.713-.575.958-.575.277 0 .383.192.277.819Zm8.01-2.316-.313.3c-.419.383-.645.541-.871.541-.365 0-.663-.088-.174-2.873s.819-2.873 1.184-2.873c.226 0 .435.086.7.469l.207.3Zm1.863.767 1.848-10.456h-1.982l-.7 3.883a2.269 2.269 0 0 0-1.534-.749c-1.306 0-2.228 1.046-2.839 4.528s.07 4.526 1.376 4.526a3.463 3.463 0 0 0 2-1.026 1.388 1.388 0 0 0 .541.852h1.915l.28-1.549Z"/><path data-name="Path 32" d="m2.582 60.164 4.709-12.121h-1.9L2.864 54.72c-.334.9-.825 2.564-.825 2.564s.106-1.669.088-2.564l-.071-6.677H.001L.44 60.164Zm6.375-1.563 1.863-10.558H7.901l-.28 1.565h.913L6.675 60.164h2.916l.28-1.563Zm6.044-.913-.334.316c-.44.422-.722.58-.967.58-.28 0-.386-.192-.28-.825l1.123-6.375h-2l-1.123 6.375c-.282 1.6-.07 2.582 1.265 2.582a3.091 3.091 0 0 0 1.967-.843l.316-.264a1.691 1.691 0 0 0 .58.931h1.933l.28-1.563h-.913l1.265-7.219h-2Zm9.711-5.936a5.815 5.815 0 0 0-2.142-.458c-1.475 0-2.6.492-3.3 4.479-.686 3.917.352 4.479 1.933 4.479a5.64 5.64 0 0 0 2.091-.386l.35-2.021a3.728 3.728 0 0 1-1.721.6c-.649 0-1.089-.158-.649-2.67s.947-2.67 1.6-2.67a2.458 2.458 0 0 1 1.509.546Zm3.311 8.412h2.916l.28-1.563h-.918l.843-4.813c.282-1.615.07-2.582-1.263-2.582a3.05 3.05 0 0 0-1.969.843l-.034.036.723-4.042h-2l-2.144 12.121h2l1.105-6.306.339-.315c.458-.422.722-.58.967-.58.28 0 .386.194.28.825Zm8.062-.264.264-1.475a3.421 3.421 0 0 1-.825.14c-.616 0-.74-.1-.634-.719l.861-4.9h1.55l.282-1.563h-1.552l.352-2h-2l-.35 2h-1.2l-.279 1.56h1.2l-.861 4.9c-.352 1.951-.176 2.406 1.335 2.406a4.638 4.638 0 0 0 1.863-.352m5.523-5.532-.018.088h-1.657c.264-1.3.525-1.739 1.229-1.739.6 0 .7.368.44 1.651m1 3.635c-1.123.634-2.212.843-2.738.492-.494-.316-.458-1-.194-2.546h3.5l.352-1.933c.368-2.036-.422-2.81-2.127-2.81-2.124 0-3.092 1.159-3.687 4.567-.673 3.833 1.187 4.573 2.119 4.573a7 7 0 0 0 2.458-.528Zm3.635.6 1.858-10.557h-2.912l-.282 1.565h.913l-1.862 10.556h2.916l.282-1.563Zm4.689 0 1.269-7.217H49.28l-.279 1.56h.916l-1.265 7.219h2.916l.28-1.563Zm.843-10.732a1.477 1.477 0 0 0-1.4 1.2.972.972 0 0 0 .983 1.2 1.5 1.5 0 0 0 1.4-1.2.965.965 0 0 0-.983-1.2m4.952 12.3h2.916l.282-1.563h-.913l.843-4.813c.28-1.6.07-2.582-1.265-2.582a3.214 3.214 0 0 0-1.969.843l-.4.334a1.6 1.6 0 0 0-.6-1h-1.212a11.391 11.391 0 0 1-.246 2.458l-1.105 6.324h2l1.089-6.181.458-.44c.438-.422.719-.58.965-.58.282 0 .386.194.282.825Zm8.527-6.515-.737 4.179-.316.3c-.422.386-.65.544-.88.544-.37 0-.668-.088-.176-2.9s.828-2.9 1.2-2.9c.228 0 .44.088.7.474Zm.737 7.219 1.229-7.029a14.368 14.368 0 0 1 .634-2.458h-1.213a2.456 2.456 0 0 0-.843.861 2.56 2.56 0 0 0-1.791-1.037c-1.317 0-2.248 1.055-2.862 4.567s.068 4.567 1.387 4.567a3.03 3.03 0 0 0 1.685-.755l-.244 1.389a1.211 1.211 0 0 1-1.231 1.066 3.442 3.442 0 0 1-2.054-.719l-.334 1.791a6.153 6.153 0 0 0 2.388.564c1.791 0 2.864-.634 3.25-2.81m6.725-6.5-.018.088H71.05c.264-1.3.528-1.739 1.227-1.739.6 0 .7.368.44 1.651m1 3.635c-1.123.634-2.21.843-2.738.492-.492-.316-.456-1-.194-2.546h3.5l.352-1.933c.368-2.036-.422-2.81-2.127-2.81-2.124 0-3.092 1.159-3.687 4.567-.668 3.829.422 4.567 2.124 4.567a7.012 7.012 0 0 0 2.46-.528Zm5.428 2.16h2.916l.282-1.563h-.913l.841-4.813c.28-1.6.072-2.582-1.263-2.582a3.2 3.2 0 0 0-1.967.843l-.408.334a1.589 1.589 0 0 0-.6-1h-1.205a11.392 11.392 0 0 1-.246 2.458l-1.11 6.324h2l1.092-6.181.458-.44c.44-.422.719-.58.965-.58.282 0 .383.194.282.825Zm12-6.008-.076-6.113h-1.4l-2.334 6.112c-.386 1.019-.861 2.794-.9 2.916 0-.14.142-1.9.158-2.916l.124-6.112h-2.021l.174 12.119h1.831l2.016-5.319c.316-.841.774-2.354.81-2.424 0 .036-.088 1.6-.07 2.424l.156 5.322h1.828l4.441-12.122h-1.859l-2.145 6.112c-.352 1-.825 2.758-.859 2.9.018-.176.14-1.881.124-2.9m7.832.212-.018.088h-1.656c.264-1.3.53-1.739 1.231-1.739.6 0 .7.368.44 1.651m1 3.635c-1.125.634-2.217.843-2.74.492-.494-.316-.458-1-.2-2.546h3.5l.35-1.933c.37-2.036-.422-2.81-2.127-2.81-2.122 0-3.087 1.159-3.685 4.567-.663 3.831.431 4.571 2.131 4.571a7.024 7.024 0 0 0 2.46-.528Zm4.952-5.2a1.708 1.708 0 0 0-.631-1.423h-1.216a11.109 11.109 0 0 1-.246 2.458l-1.105 6.324h2l.986-5.568.647-.474a1.648 1.648 0 0 1 1.7-.4l.44-2.512a2.643 2.643 0 0 0-1.617.774Zm6.148 7.359h2.194l.282-1.563h-.9l-.789-3.829 2.95-3.39h-2.036l-1.669 1.933a15.656 15.656 0 0 0-1.123 1.493s.174-.861.246-1.247l.981-5.516h-1.933l-2.142 12.119h1.935l.489-2.774.789-.931Z"/></g></svg>