<?xml version="1.0" standalone="no"?>
<!DOCTYPE svg PUBLIC "-//W3C//DTD SVG 20010904//EN"
 "http://www.w3.org/TR/2001/REC-SVG-20010904/DTD/svg10.dtd">
<svg version="1.0" xmlns="http://www.w3.org/2000/svg"
 width="260.000000pt" height="260.000000pt" viewBox="0 0 260.000000 260.000000"
 preserveAspectRatio="xMidYMid meet">
<metadata>
Created by potrace 1.14, written by Peter Selinger 2001-2017
</metadata>
<g transform="translate(0.000000,260.000000) scale(0.100000,-0.100000)"
fill="#000000" stroke="none">
<path d="M1096 2374 c-113 -115 -206 -211 -206 -214 0 -3 224 -229 498 -502
l498 -497 -1 -131 c0 -75 4 -134 10 -138 17 -11 555 -8 556 3 1 6 2 129 3 275
l1 265 -370 368 c-203 202 -463 461 -577 574 l-207 206 -205 -209z"/>
<path d="M520 1791 c-107 -109 -196 -203 -197 -208 -2 -5 154 -165 347 -356
l350 -348 0 -262 0 -262 168 -168 168 -168 384 0 c212 0 396 0 409 0 20 1 -29
54 -267 290 l-292 289 0 264 0 264 -423 419 c-233 231 -430 425 -438 432 -13
10 -46 -19 -209 -186z"/>
<path d="M148 1393 c-4 -7 -3 -1073 1 -1111 1 -10 61 -12 283 -10 l282 3 1
280 1 280 -282 283 c-155 156 -284 280 -286 275z"/>
</g>
</svg>
