<svg xmlns="http://www.w3.org/2000/svg" xml:space="preserve" width="38.8" height="38.8" viewBox="0 0 38.8 38.8"><path d="M37.8 6.9H27.4V5.7c0-1.9-1.5-3.4-3.4-3.4h-9.1c-1.9 0-3.4 1.5-3.4 3.4v1.2H1.2C.5 6.9 0 7.4 0 8.1v25c0 1.9 1.5 3.4 3.4 3.4h32c1.9 0 3.4-1.5 3.4-3.4v-25c.1-.8-.4-1.2-1-1.2zm-24-1.2c0-.6.5-1.2 1.2-1.2h9c.6 0 1.2.5 1.2 1.2v1.2H13.8V5.7zm22.4 3.4-3.6 10.6c-.2.4-.6.8-1.1.8h-6.4v-1.2c0-.6-.5-1.2-1.2-1.2h-9c-.6 0-1.2.5-1.2 1.2v1.2H7.4c-.4 0-.9-.3-1.1-.8L2.8 9.1h33.4zM22.9 20.6v2.2h-6.8v-2.2h6.8zm13.7 12.5c0 .6-.5 1.2-1.2 1.2h-32c-.6 0-1.2-.5-1.2-1.2V15L4 20.5c.4 1.4 1.8 2.3 3.2 2.3h6.4V24c0 .6.5 1.2 1.2 1.2H24c.6 0 1.2-.5 1.2-1.2v-1.2h6.3c1.4 0 2.8-.9 3.2-2.3l1.8-5.5.1 18.1z"/></svg>