<?xml version="1.0" encoding="UTF-8"?>
<svg id="Layer_2" data-name="Layer 2" xmlns="http://www.w3.org/2000/svg" viewBox="0 0 19.64 13.82">
  <defs>
    <style>
      .cls-1 {
        fill: none;
        stroke: #fff;
        stroke-linecap: round;
        stroke-linejoin: round;
        stroke-width: 1.2px;
      }
    </style>
  </defs>
  <g id="Layer_1-2" data-name="Layer 1">
    <g>
      <ellipse class="cls-1" cx="6.75" cy="2.27" rx="6.15" ry="1.67"/>
      <path class="cls-1" d="m6.75,6.43c-3.39,0-6.15-.75-6.15-1.67v-2.31"/>
      <path class="cls-1" d="m12.89,2.45v2.31"/>
      <path class="cls-1" d="m6.75,8.79c-3.39,0-6.15-.75-6.15-1.67v-2.31"/>
      <path class="cls-1" d="m6.75,11.11c-3.39,0-6.15-.75-6.15-1.67v-2.31"/>
      <path class="cls-1" d="m19.04,6.7c0,.92-2.75,1.67-6.15,1.67s-6.15-.75-6.15-1.67c0-.69,1.55-1.28,3.75-1.54.74-.08,1.54-.13,2.39-.13,3.39,0,6.15.75,6.15,1.67Z"/>
      <path class="cls-1" d="m19.04,6.88v2.31c0,.92-2.75,1.67-6.15,1.67s-6.15-.75-6.15-1.67v-2.31"/>
      <path class="cls-1" d="m19.04,9.24v2.31c0,.92-2.75,1.67-6.15,1.67s-6.15-.75-6.15-1.67v-2.31"/>
    </g>
  </g>
</svg>