<?xml version="1.0" encoding="UTF-8"?>
<svg id="Layer_2" data-name="Layer 2" xmlns="http://www.w3.org/2000/svg" viewBox="0 0 21.72 14.83">
  <defs>
    <style>
      .cls-1 {
        fill: none;
        stroke: #fff;
        stroke-linecap: round;
        stroke-linejoin: round;
        stroke-width: 1.2px;
      }
    </style>
  </defs>
  <g id="Layer_1-2" data-name="Layer 1">
    <g>
      <g>
        <path class="cls-1" d="m16.68,11.64h3.15c.33,0,.64.12.88.35h0c.53.5.54,1.33.03,1.84l-.02.02c-.24.24-.57.38-.91.38h-7.85c-.93,0-1.84-.24-2.64-.71l-4.2-2.43c-1.17-.68-2.49-1.03-3.84-1.03h-.69"/>
        <path class="cls-1" d="m9.28,10.81l3.71,1.08c.2.06.42.05.62-.02h0c.63-.24.84-1.02.42-1.54l-.08-.1c-.13-.16-.3-.27-.49-.32l-1.53-.44c-.54-.16-1.02-.46-1.39-.88l-.75-.84c-.69-.77-1.63-1.28-2.66-1.44l-.96-.15c-.5-.08-1-.1-1.5-.08l-2.8.14"/>
      </g>
      <circle class="cls-1" cx="14.7" cy="2.83" r="2.23"/>
      <path class="cls-1" d="m11.86,6.34c.69-.78,1.71-1.28,2.83-1.28,2.09,0,3.79,1.7,3.79,3.79v.72"/>
    </g>
  </g>
</svg>