<svg xmlns="http://www.w3.org/2000/svg" viewBox="0 0 50 50"><path d="M9.81 0h30.5q1.37 1.27.35 2.58-.32.42-.85.42h-4.06q-.83 0-.76.82l.13 1.49q.05.67.71.82 4.79 1.08 5.7 5.36 1.15 5.47 1.45 17.59c.12 5.1-.66 8.67-6.38 8.94q-.77.04-.37.69 3.25 5.27 4.82 11.29h-1.86l-3.01-5.27a1.46 1.45 75 0 0-1.26-.73H14.8a1.11 1.1-79.6 0 0-1.03.72q-1.13 2.95-3.08 5.28H8.93q1.35-6.07 4.96-11.19a.45.45 0 0 0-.33-.7c-5.94-.46-6.89-4.14-6.59-9.54q.42-7.68 1.09-15.37.51-5.89 6.31-7.18 1.64-.36.89-1.87c-.9-1.8-3.74-1-5.39-1.23q-.51-.07-.72-.53Q8.46.91 9.81 0Zm22.3 4.108a1.12 1.12 0 0 0-1.123-1.118l-11.9.02a1.12 1.12 0 0 0-1.118 1.122l.002.76a1.12 1.12 0 0 0 1.122 1.118l11.9-.02a1.12 1.12 0 0 0 1.118-1.122l-.002-.76Zm5.86 6.39a1.43 1.43 0 0 0-1.433-1.428l-23.06.04a1.43 1.43 0 0 0-1.427 1.433v.06a1.43 1.43 0 0 0 1.433 1.427l23.06-.04a1.43 1.43 0 0 0 1.427-1.433v-.06Zm-1.58 4.432-22.8.08a.11.11 0 0 0-.11.11v.04a9.12 8.93-.2 0 0 9.16 8.9l4.78-.02a9.12 8.93-.2 0 0 9.08-8.96v-.04a.11.11 0 0 0-.11-.11ZM21.56 30.41q3.66-2.19 7.59.29.45.28.65.77l1.14 2.64q.23.54.8.68c3.39.84 8.42 1.27 8.48-3.55q.09-6.05-.88-12.12a.53.52-43.3 0 0-1.03-.03c-2.22 9.88-13.94 7.25-21.21 6.9q-.54-.03-.97-.37-3.16-2.5-4.56-6.36a.61.61 0 0 0-1.18.17l-.84 12.78q-.11 1.72 1.53 2.26 3.54 1.16 7.11.43.57-.12.82-.64c.8-1.72.85-2.84 2.55-3.85Zm.66 4.57h5.58a.16.16 0 0 0 .16-.15v-.08a2.76 2.4.1 0 0-2.76-2.41h-.38a2.76 2.4.1 0 0-2.76 2.39v.08a.16.16 0 0 0 .16.17Zm11.71 4.496a1.39 1.39 0 0 0-1.387-1.393l-15.08-.026a1.39 1.39 0 0 0-1.393 1.387v.18a1.39 1.39 0 0 0 1.387 1.393l15.08.026a1.39 1.39 0 0 0 1.393-1.387v-.18Z"/><path d="M17.68 31.39a.67.67 0 0 1-.65.69l-2.41.09a2.53 1.34-2.1 0 1-2.58-1.25l-.01-.36a2.53 1.34-2.1 0 1 2.47-1.43l2.42-.09a.67.67 0 0 1 .7.65l.06 1.7ZM32.61 31.95a.54.54 0 0 1-.54-.55v-.21a2.47 2.21.1 0 1 2.47-2.2h.96a2.47 2.21.1 0 1 2.47 2.22v.21a.54.54 0 0 1-.54.53h-4.82Z"/></svg>