<svg data-name="Group 11" xmlns="http://www.w3.org/2000/svg" width="80.141" height="85.35" viewBox="0 0 80.141 85.35"><defs><clipPath id="a"><path data-name="Rectangle 10" fill="none" d="M0 0h80.141v85.35H0z"/></clipPath></defs><g data-name="Group 10" clip-path="url(#a)" fill-rule="evenodd"><path data-name="Path 33" d="M39.516.517c-.074.068-7.46 6.858-15.432 6.858-6.193 0-15.45-5.146-15.543-5.2L8 1.875l-8 8 .372.557A23.651 23.651 0 0 1 3.78 22.401a89.859 89.859 0 0 1-2.12 17.87 57.708 57.708 0 0 0-1.425 10.5c0 8.98 4.483 16.648 13.324 22.789 7.311 5.079 16.134 8.128 21.97 10.144 1.685.582 3.137 1.085 4.24 1.525l.3.122.3-.122c1.1-.44 2.56-.945 4.242-1.527 5.836-2.016 14.659-5.067 21.968-10.146 8.84-6.139 13.324-13.8 13.324-22.784a57.333 57.333 0 0 0-1.428-10.5 90.04 90.04 0 0 1-2.114-17.871 23.662 23.662 0 0 1 3.405-11.962l.374-.557-.471-.481-7.535-7.53-.532.3c-.095.052-9.357 5.2-15.547 5.2C48.083 7.375 40.7.585 40.625.517L40.07.001Z" fill="#fff"/><path data-name="Path 34" d="M40.071 2.195c1.919 1.635 8.565 6.806 15.985 6.806 5.791 0 13.66-3.971 15.8-5.11.706.706 5.467 5.464 6.211 6.211a25.121 25.121 0 0 0-3.331 12.293 91.429 91.429 0 0 0 2.149 18.181 56.288 56.288 0 0 1 1.4 10.2c-.002 8.41-4.249 15.627-12.627 21.446-7.122 4.949-15.822 7.953-21.573 9.942-1.563.541-2.92 1.013-4.014 1.439-1.094-.426-2.447-.9-4.007-1.437-5.756-1.986-14.45-4.992-21.576-9.944C6.11 66.405 1.861 59.188 1.861 50.772a56.85 56.85 0 0 1 1.4-10.2 91.083 91.083 0 0 0 2.147-18.177A25.152 25.152 0 0 0 2.08 10.102c.744-.746 5.5-5.5 6.211-6.211 2.138 1.139 10 5.11 15.8 5.11 7.417 0 14.068-5.171 15.985-6.806" fill="#838383"/><path data-name="Path 35" d="M71.835 54.311c0-9.711-3.559-17.41-3.559-26.6 0-9.472 2.363-13.177 5.32-15.951a35.28 35.28 0 0 0-2.217 12.4c0 8.261 3.552 18.558 3.552 26.6a22.351 22.351 0 0 1-8.43 17.748 21.186 21.186 0 0 0 5.334-14.2" fill="#fff"/><path data-name="Path 36" d="M38.798 21.08a2.04 2.04 0 0 1 1.921.573l-.011-.753 2.478-.528v9.745c0 3.094-.988 4.6-4.765 5.857L37.6 34.12c2.584-.988 3.108-1.712 3.108-3.584a3.936 3.936 0 0 1-2.12 1.364c-1.784.381-3.214-1.064-3.214-4.711 0-3.153 1.008-5.627 3.423-6.109M37.05 55.738c2.772-.575 4.222 1.662 4.222 4.5 0 .275-.02.611-.043.891l-5.561 1.142c.1 1.574.8 2.142 1.761 1.942a2.432 2.432 0 0 0 1.723-1.265l1.764.875a4.9 4.9 0 0 1-3.349 2.578c-2.729.566-4.4-1.285-4.4-4.477 0-3.466 1.486-5.683 3.881-6.181m3.173-17.823c2.769-.575 4.222 1.662 4.222 4.5 0 .275-.02.6-.043.884l-5.561 1.148c.1 1.574.8 2.14 1.761 1.942a2.439 2.439 0 0 0 1.723-1.267l1.764.875a4.894 4.894 0 0 1-3.347 2.569c-2.729.566-4.4-1.285-4.4-4.477 0-3.466 1.486-5.683 3.881-6.181m8.953-19.007c2.769-.575 4.219 1.66 4.219 4.5 0 .273-.018.64-.041.92l-5.561 1.11c.1 1.574.8 2.14 1.761 1.942a2.437 2.437 0 0 0 1.723-1.265l1.764.875a4.891 4.891 0 0 1-3.349 2.575c-2.729.568-4.4-1.283-4.4-4.474 0-3.468 1.486-5.683 3.881-6.181m-19.624 4.13c2.772-.575 4.219 1.662 4.219 4.5 0 .275-.018.575-.041.855l-5.56 1.178c.1 1.576.8 2.142 1.761 1.942a2.426 2.426 0 0 0 1.723-1.265l1.764.875a4.891 4.891 0 0 1-3.349 2.575c-2.729.568-4.4-1.283-4.4-4.474 0-3.466 1.486-5.683 3.881-6.181m.115 27.917c-1.8.5-3.261-.979-3.261-4.625 0-3.153.672-5.566 3.421-6.107a2.35 2.35 0 0 1 1.908.39V36.72l2.478-.514v13.649l-2.478.53.081-1.182a3.181 3.181 0 0 1-2.149 1.752M18.208 22.298l2.623-.555v11.4l4.075-.848v2.386l-6.7 1.412Zm30.826 41.643 2.474-.514V49.663l-2.474.48Zm-5.6-9.249v10.414l2.476-.514v-10.41ZM31.096 67.637V53.871l-2.623.539v5.453l-3.358.7v-5.467l-2.625.541v13.781l2.625-.543v-5.913l3.358-.7v5.918Zm6.126-9.866c-.925.189-1.428 1.046-1.554 2.589l3.128-.645c-.129-1.238-.505-2.167-1.574-1.944m3.173-17.823c-.925.192-1.428 1.046-1.554 2.591l3.128-.622c-.129-1.238-.505-2.192-1.574-1.969m8.951-19.009c-.925.189-1.428 1.046-1.554 2.589l3.128-.584c-.129-1.238-.505-2.228-1.574-2m-19.627 4.127c-.927.189-1.428 1.046-1.554 2.589l3.128-.631c-.129-1.238-.505-2.181-1.574-1.958m.44 17.25c-.882.185-1.238 1.006-1.238 3.412 0 2.264.264 3.29 1.279 3.022a2.481 2.481 0 0 0 1.522-1.439l.009-4.436a1.617 1.617 0 0 0-1.572-.559m9.019-12.7a2.771 2.771 0 0 0 1.531-1.188l.011-4.544a1.714 1.714 0 0 0-1.585-.7c-.884.183-1.238 1.006-1.238 3.412 0 2.264.253 3.234 1.281 3.024m21.881-10.599a3.455 3.455 0 0 0-1.455.081 2.568 2.568 0 0 0-1.6 1.252v7.458l-2.476.528V17.792l2.476-.494.018 1.035a3.469 3.469 0 0 1 2-1.6 2.529 2.529 0 0 1 1.743.169Zm-11.325 27.68a6.35 6.35 0 0 1-3.624-.5l.751-1.892a3.929 3.929 0 0 0 2.354.361c1.037-.108 1.491-.742 1.491-1.252 0-.744-1.267-.934-2.449-1.394a2.653 2.653 0 0 1-1.983-2.358 3.526 3.526 0 0 1 3.18-3.586 5.252 5.252 0 0 1 3.234.363l-.733 1.923a4.217 4.217 0 0 0-2.3-.192c-.566.117-.922.433-.922.846 0 1.3 4.468.922 4.468 3.872 0 2.129-1.378 3.36-3.471 3.814m7.794 15.541a6.358 6.358 0 0 1-3.626-.5l.753-1.894a3.909 3.909 0 0 0 2.354.363c1.035-.108 1.491-.742 1.491-1.254 0-.742-1.27-.931-2.449-1.391a2.653 2.653 0 0 1-1.982-2.359 3.528 3.528 0 0 1 3.18-3.588 5.272 5.272 0 0 1 3.234.365l-.733 1.917a4.2 4.2 0 0 0-2.3-.194c-.568.12-.925.433-.925.848 0 1.3 4.47.922 4.47 3.872 0 2.129-1.378 3.358-3.471 3.814m-12.852-8.788a1.215 1.215 0 0 1-1.574-1.15 1.808 1.808 0 0 1 1.574-1.806 1.215 1.215 0 0 1 1.574 1.15 1.824 1.824 0 0 1-1.574 1.806" fill="#fff"/></g></svg>