<svg xmlns="http://www.w3.org/2000/svg" width="170.743" height="202.678" viewBox="0 0 170.743 202.678"><defs><clipPath id="a"><path data-name="Rectangle 89" fill="none" d="M0 0h170.743v202.678H0z"/></clipPath><clipPath id="b"><path data-name="Rectangle 87" fill="none" d="M0 0h11.331v69.713H0z"/></clipPath><clipPath id="c"><path data-name="Rectangle 88" fill="none" d="M0 0h8.439v60.901H0z"/></clipPath><clipPath id="d"><path data-name="Path 624" d="m71.018 43.731-.178 67.315c2.614-1.618 3.925-3.745 3.929-5.887q.086-33.663.176-67.315c0 2.142-1.313 4.267-3.928 5.887" transform="translate(-70.84 -37.844)" fill="none"/></clipPath><clipPath id="e"><path data-name="Rectangle 90" fill="none" d="M0 0h11.249v75.873H0z"/></clipPath><clipPath id="f"><path data-name="Rectangle 91" fill="none" d="M0 0h11.252v75.869H0z"/></clipPath><clipPath id="g"><path data-name="Rectangle 92" fill="none" d="M0 0h8.622v75.346H0z"/></clipPath></defs><g data-name="Group 315"><g data-name="Group 187"><g data-name="Group 186" clip-path="url(#a)"><path data-name="Path 571" d="M69.36 46.129a4.915 4.915 0 0 0-.741 3.231 31.691 31.691 0 0 0 .9 5.5l3.11 14.756c.085.351.348 2.114.713 2.258 2 .8 4.5.06 5.121-1.628 0 0 .841-18.141-.744-23.753-1.36-4.827-7.451-2.289-8.362-.361" fill="#f1b287" fill-rule="evenodd"/><path data-name="Path 572" d="M48.411 145.278s-1.327 5.312-.743 7.261l4.338 2.261.129-.707s3.916 4.88 9.651 5.572 8.556-1.391 5.946-3.807-4.169-2.736-5.748-4.4-3.338-3.541-3.338-4.858-10.235-1.322-10.235-1.322" fill="#222421"/><path data-name="Path 573" d="m47.667 152.539 4.338 2.264.129-.707s7.257 8.5 15.858 4.759c0 0-10.443 1.618-15.285-5.361l-.692-.38-.591.624-3.9-2.222Z" fill="#151614"/><path data-name="Path 574" d="M59.993 149.788s2.885 3.768 4.974 4.667 3.1 2.558 1.7 2.728-5.562.88-11.41-5.25a12.679 12.679 0 0 0 4.734-2.145" fill="#363835" fill-rule="evenodd"/><path data-name="Path 575" d="M63.159 139.03s-.2 3.916-.426 7.289l4.153 2.07.1-.713s3.851 4.7 9.26 5.144 7.972-1.766 5.433-4.07-4.011-2.547-5.554-4.14-2.777-2.671-2.824-3.988-10.14-1.592-10.14-1.592" fill="#222421"/><path data-name="Path 576" d="m62.734 146.319 4.153 2.072.1-.715s7.119 8.175 15.045 4.05c0 0-9.733 2.086-14.536-4.679l-.663-.353-.527.652-3.5-2.227Z" fill="#151614"/><path data-name="Path 577" d="M73.523 142.946s3.448 3.585 5.538 4.488 3.1 2.555 1.7 2.725-5.888.72-10.144-5.409c0 0 .093.075 2.9-1.8" fill="#363835" fill-rule="evenodd"/><path data-name="Path 578" d="M77.571 68.251s.78 24.8-1.174 33.434c0 0-2.122 38.02-3.1 38.935s-7.932 2.932-9.723-1.9c-.294-.789-.712-24.127 1.956-33.1 0 0-3.25-17.5-2.245-28.858l-.193-4.356Z" fill="#1d282d"/><path data-name="Path 579" d="M71.067 76.606s-1.486 19.182 0 27.567c0 0-2.816 33.907-1.773 37.638 0 0-5.309.717-6.158-2.393 0 0-.7-27.552 2.392-33.8l-2.329-14.45-.566-10.443V79.13s5.2-.661 8.437-2.524" fill="#192328"/><path data-name="Path 580" d="M50.544 71.191s-4.44 10.786-.617 40.434c0 0-5.562 12.283-1.517 33.653a8.786 8.786 0 0 0 10.234 1.321s6.841-57.672 7.123-67.526l1.744-6.233Z" fill="#1d282d"/><path data-name="Path 581" d="m58.645 146.596 7.892-67.5-9.109-.9s-3.112 16.557-1.917 31.135-6.128 30.793-2.124 38.088c0 0 3.2.709 5.258-.821" fill="#212e33"/><g data-name="Group 182" opacity=".4"><g data-name="Group 181"><g data-name="Group 180" clip-path="url(#b)" transform="translate(55.367 77.73)"><path data-name="Path 582" d="M11.331 0S3.725 8.814 3.585 20.586s.944 21.83 0 25.183-5.44 22.07-2.73 23.949l2.419-.844S11.131 1.546 11.329.005" fill="#2c3d42"/></g></g></g><path data-name="Path 583" d="M63.973 21.691c1.024 2.517 6.146-.914 5.526.913a20.558 20.558 0 0 0-.759 8.39c.366 5.157-.578 16.914-.578 16.914a3.826 3.826 0 0 0 .206 1.2l.792 2.793c.653 1.887 3.441 2.542 5.426 2.062l.057-.015c1.539-.374 4.142-2.468 4.414-4l-.209-3.469c-.34-5.544-.651-12.195-1.077-16.242-1.979-18.762-13.8-8.553-13.8-8.553" fill="#267576" fill-rule="evenodd"/><path data-name="Path 584" d="M67.916 19.124s9.575-4.209 8.936 26.99c0 0-.215 18.625 1.267 23.054 1.539 4.609.65 3.164-.238 1.858-.793-1.167-1.693 5.644-16.549 7.841-4.76.7-5.833 6.058-11.726 4.39 0 0-1.717-1.492-1.717-3.058 0-3.232 5.41-16.394 3.978-25.6-1.306-8.386-6.481-18.052-5.1-23.348 0 0 8.083-9.978 21.146-12.131" fill="#ebfaff"/><path data-name="Path 585" d="M61.712 20.81s7.924.191 7.319 5.841c-.423 3.987 4.992 8.53 5.549 16.678 1.259 18.439 1.357 33.873 1.357 36.83a16.806 16.806 0 0 0 3.8-2.248c1.042-1.038-3.879-14.27-2.614-33.367 0 0 4.788-36.389-15.408-23.734" fill="#33a6a7"/><path data-name="Path 586" d="M58.335 21.561s.447-.095-.051.233c-2.289 1.5-2.024 7.91 3.161 15.3 0 0 10.517 29.271 2.357 49.85 0 0-10.257 2.731-16.312-5.376-1.295-1.729 3.427-10.445 3.864-19.51s-1.667-13.871-6.267-27.284c0 0-.606-5.7 7.278-9.878 4.9-2.6 5.97-3.338 5.97-3.338" fill="#287f80"/><path data-name="Path 587" d="M61.446 37.091s10.515 29.273 2.356 49.85c0 0-.113.029-.31.07-3.182 1.6-12.174-.542-14.711-3.938-1.293-1.732 6.816-11.952 7.255-21.019s-4.537-20.203-9.137-33.619c0 0 8.46-8.432 20.677-10.908-.8 2.637-21.041 1.931-6.13 19.569" fill="#33a6a7"/><path data-name="Path 588" d="M52.723 22.607c-1.621 1.192-6.85 3.912-7.464 6.883-.648 3.131 5.038 6.287 14.489 22.3 4.514 7.645 3.472 20.968-4.057 35.14a15.5 15.5 0 0 0 8.1.091s10.807-27.3 2.553-45.154c-1.642-3.557.018-12.032-2.646-13.085-9.762-3.856-6.791-6.99-6.791-8.463a31.978 31.978 0 0 0-4.181 2.292" fill="#33a6a7"/><path data-name="Path 589" d="M59.89 28.78s7.686 10.935 6.808 48.951a73.513 73.513 0 0 0 2.706-22.728c-.451-8.714-2.5-11.829-3.6-15-1.244-3.6.555-7.691-1.339-10.559-1.084-1.647-3.05.629-4.576-.664" fill="#33a6a7"/><path data-name="Path 590" d="M58.433 17.184s12.366 0 16.075 7.288a10.852 10.852 0 0 0-5.441 1.634c-.06.042-.194-1.646-1.257-2.328-3.471-2.23-7.1-6.344-9.377-6.594" fill="#1e6060"/><path data-name="Path 591" d="M67.189 20.993s-1.657 3.5-1.425 5.186c0 0-4.917 3.113-9.237-4.594 0 0 2.088-1.779-.581-8.723Z" fill="#e8a476"/><path data-name="Path 592" d="M65.846 22.367s-6.153-1.948-9.126-1c0 0 1.244-1.282.144-5.449a10.269 10.269 0 0 1-2.823-8.816s.524-5.085 5.573-5.688c0 0-7.141 11.788 6.231 20.953" fill="#db9669"/><path data-name="Path 593" d="M70.058 8.806c.016.8-.921.978.49 4.142.867 1.956.54 2.006-.09 5.492-.358 1.979-1.246 6.181-7.425 3.064 0 0-6.076-4.349-7.9-8.146s-1.742-7.61 1.29-10.762c0 0 13.406-5.384 13.635 6.21" fill="#f1b287"/><path data-name="Path 594" d="M69.935 7.25a14.594 14.594 0 0 1-5.175 2.69s-2.868 0-2.868 1.068c0 .465.614 3.414 1.393 4.192a13.328 13.328 0 0 1 2.305 4.2c0 .553.908 3.033 2.4 3.033 0 0-3.771 1.57-9.3-4.573 0 0-4.5-4.489-4.5-5.394s5.573-4.071 7.118-4.729 7.963-3.163 7.963-3.163.607 2.179.664 2.671" fill="#e8a476" fill-rule="evenodd"/><path data-name="Path 595" d="M69.611 4.918c.155 2.153-4.638 3.525-7.815 4.194-1.193.251-2.01 1.267-.847 4.641s-.831 3.873-.978 3.273c-.674-2.752-3.663-4.853-2.834-.406 0 0-6.7-6.2-4.672-11.214 1.327-3.28 5.305-6.89 13.195-4.634 1.373.392 3.776 1.7 3.951 4.147" fill="#3f210a"/><path data-name="Path 596" d="M60.948 13.754c1.164 3.559-.921 3.559-.921 3.559-.663-3.247-3.776-4.413-2.891-.7 0 0-6.7-6.2-4.672-11.214a8.337 8.337 0 0 1 3.558-4.073c-3.918 7.337 3.164 6.75 5 8.05-.707.516-.917 1.794-.072 4.378" fill="#3f210a"/><path data-name="Path 597" d="M60.473 11.982s-1.477-1.19-1.477.333a2.523 2.523 0 0 1-1.218-2.109s-1.081.171-1.081 1.685a2.74 2.74 0 0 1-.98-2.475 4.39 4.39 0 0 0-1.161 2.566s-1.565-2.019-1.22-3.327c0 0-.583.1-.583 1.833a5.662 5.662 0 0 1 .271-6.216s.044 3.96 7.993 5.1a3.919 3.919 0 0 0-.547 2.605" fill="#4f2b0c"/><path data-name="Path 598" d="M57.778 14.312s-2.942.041-3.858-1.608c0 0 2.325 3.355 3.216 3.913 0 0-.754-2.305.642-2.305" fill="#361d07"/><path data-name="Path 599" d="M53.027 4.272s.225 4.236 7.991 5.1c0 0 6.533-.178 8.5-3.863a2.239 2.239 0 0 0-.323-2.042s.011 1.757-1.086 2.25c0 0 .415-1.037 0-1.45a4 4 0 0 1-1.987 2.152 1.244 1.244 0 0 0-.277-1.386 4.928 4.928 0 0 1-3.35 2.9 2.433 2.433 0 0 0 .787-1.512s-2.126 1.907-3.8 1.464c0 0 1.362-.66 1.362-1.464 0 0-2.749 1.2-4.367 0a2.081 2.081 0 0 0 1.628-.7s-4.256.449-5.08-1.45" fill="#301808"/><path data-name="Path 600" d="M54.198 2.768s4.651-5.213 12.993-1.326c0 0-3.484-.47-4.671-.47s.953.691 2.059.948-3.247-.184-4.723-.184-4.08.5-2.253.777-3.092-.059-3.405.255" fill="#4c260c"/><path data-name="Path 601" d="M57.239 19.768s-6.569 4.684 2.45 13.517l4-4.506s-5.319-3.218-6.455-9.011" fill="#1e6060"/><path data-name="Path 602" d="M69.067 26.106s-.767 2.031 2.3 7.18a55 55 0 0 1 2.478 5.884c.369 1.489-2.6-12.758-2.016-14.3a8.672 8.672 0 0 0-2.762 1.236" fill="#267576"/><path data-name="Path 603" d="M62.747 26.77s2.622-.18 3.1-1.9c0 0 1.579 2.839-3.1 1.9" fill="#ebfaff"/><g data-name="Group 185" opacity=".4"><g data-name="Group 184"><g data-name="Group 183" clip-path="url(#c)" transform="translate(69.31 80.901)"><path data-name="Path 604" d="M8.413 0a3.613 3.613 0 0 0-3.776 4.516c.669 4.674.16 16.281-.067 19.344s-1.473 15.657-1.5 17.742-4.1 18.423-2.828 19.283a7.864 7.864 0 0 0 3.742-1.166S5.066 35.496 7.024 21.6C7.701 16.778 8.596 2.078 8.408 0" fill="#2c3d42"/></g></g></g><path data-name="Path 605" d="M49.495 25.505s-4.994 10.151 3.453 35.372l-2.694.064s-12.423-31.942-.759-35.435" fill="#267576" fill-rule="evenodd"/><path data-name="Path 606" d="M84.238 75.272a5.54 5.54 0 0 0 1.585 4.782c7.67-.384 16.931-2.525 26.746-5.849l-2.857-7.817c-9.023 2.508-16.7 5.513-25.475 8.884" fill="#e8a87e" fill-rule="evenodd"/><path data-name="Path 607" d="M84.698 75.929c-1.064.215-1.665-.5-2.32-.656-.625-.15-4.942-1.492-7.239.119l.666.664a.6.6 0 0 0-.1.044c-.633.375-.46 1.219-.552 1.464a7.075 7.075 0 0 0 .726 2.223 20.684 20.684 0 0 0 4.326 1.11c.681-.051 2.343-.506 3.458-.756s.8-.015 2.16-.091Z" fill="#e5a070" fill-rule="evenodd"/><path data-name="Path 608" d="m50.121 60.723 19.516 14.549 3.066-3.338-16.654-18.513Z" fill="#f1b287"/><path data-name="Path 609" d="m54.724 55.054 17.979 16.88L56.05 53.421Z" fill="#e8a476" fill-rule="evenodd"/><path data-name="Path 610" d="M69.32 74.965c1.314.761 2.019 2.947 2.894 4 .931 1.122 1.215.751 2.527 1.244l2.325.225s4.436.844 4.77.232c1.053-1.92-1.778-3.1-2.88-3.675a4.265 4.265 0 0 1-1.468-1.833c-1.944-3.054-3.982-1.443-5.211-2.824Z" fill="#f1b287" fill-rule="evenodd"/><path data-name="Path 611" d="M75.444 74.306c.3-.067.873-1.686 1.4-1.306 1.035.754 3.595.981 3.089.116a15.169 15.169 0 0 0-2.488-1.925 25.562 25.562 0 0 0-4.338.215c-.8.251-1.37.851-2.573.6-1.523 3.694 4.7 2.349 4.914 2.3" fill="#f1b287" fill-rule="evenodd"/><path data-name="Path 612" d="M54.085 27c-2.233-1.98-7.459-3.629-9.421 6.336 0 0 .1 21.57 6.9 25.536 0 0 6.514 1.773 6.342-6.032 0 0-.269-22.7-3.818-25.839" fill="#267576" fill-rule="evenodd"/><path data-name="Path 613" d="M50.254 60.94s6.017.171 9.635-3.552l-2.111-6.417-10.3 2.17Z" fill="#267576"/><path data-name="Path 614" d="M83.835 74.283a13.517 13.517 0 0 0-1.812-.955c-1.064-.411-4.067-.047-4.359-.033-.888.042-3.507-.263-3.009.883a4.826 4.826 0 0 0 2.963.931c2.651-.441 1.582.637 3.107 1.236a31.931 31.931 0 0 0 4.122.645c.645.034-.248-.857 0-1.91a9.031 9.031 0 0 0-1.012-.8" fill="#e8a87e" fill-rule="evenodd"/><path data-name="Path 615" d="M119.753 61.779q-.091 33.656-.178 67.315c0 2.143-1.314 4.271-3.929 5.888l.18-67.317c2.614-1.618 3.925-3.745 3.928-5.887" fill="#d4d4d4"/></g></g><g data-name="Group 189"><g data-name="Group 188" clip-path="url(#d)" fill="#d4d4d4" transform="translate(115.647 61.781)"><path data-name="Path 616" d="m4.106-.002-.178 67.315v.126L4.103.125v-.127"/><path data-name="Path 617" d="m4.104.127-.176 67.314a5.406 5.406 0 0 1-.093.842L4.015.97a4.921 4.921 0 0 0 .09-.842"/><path data-name="Path 618" d="m4.014.968-.178 67.313a5.666 5.666 0 0 1-.22.818l.178-67.31a5.414 5.414 0 0 0 .22-.821"/><path data-name="Path 619" d="m3.794 1.789-.178 67.31a5.93 5.93 0 0 1-.361.829l.178-67.317a5.944 5.944 0 0 0 .361-.823"/><path data-name="Path 620" d="m3.433 2.612-.178 67.317a7.636 7.636 0 0 1-.542.862l.178-67.323a7.055 7.055 0 0 0 .542-.86"/><path data-name="Path 621" d="m2.891 3.472-.178 67.317a8.728 8.728 0 0 1-.839.958l.178-67.314a8.563 8.563 0 0 0 .839-.962"/><path data-name="Path 622" d="m2.054 4.434-.178 67.314a10.363 10.363 0 0 1-1.7 1.344L.351 5.774a10.539 10.539 0 0 0 1.7-1.344"/><path data-name="Path 623" d="M.351 5.777.173 73.089c-.059.042-.116.075-.173.113L.18 5.887c.057-.034.114-.073.171-.109"/></g></g><path data-name="Path 625" d="M109.49 166.443c-.846.171-3.278 1.4-1.639 3.032s6.808 6.409 9.962 6.409h2.142l1.766 2.321a5.557 5.557 0 0 0 4.231.514c1.575-.514 1.569-2.836 1.569-2.836l.007-2.828s-14.084-7.421-18.038-6.613" fill="#222421"/><path data-name="Path 626" d="M126.597 111.021s1.107 22.076-.134 27.823c0 0 2.4 28.564.873 34.918 0 0-5.908 2.493-5.975 1.458-.849-13.535-.287-28.386-.287-33.137s-1.5-22.253-1.5-25.851a85.307 85.307 0 0 0 7.025-5.211" fill="#1d282d"/><path data-name="Path 627" d="M121.351 115.015s1.266 23.783 1.266 26.748.638 33.457.638 33.457 2.2-.664 3.239-1.118.351-24.809-.793-28.771 0-8.737 0-9.878 1.378-22.137 0-23.7Z" fill="#212e33"/><path data-name="Path 628" d="M108.508 166.887c-.849.17-3.281 1.394-1.642 3.028s6.808 6.409 9.962 6.409h2.142l1.766 2.323a5.54 5.54 0 0 0 4.228.516c1.575-.516 1.566-2.839 1.566-2.839l.01-2.223s-14.08-8.025-18.031-7.214" fill="#222421"/><path data-name="Path 629" d="M118.116 174.191s-14.3-5.291-8.2-7.3c0 0 4.648 1.006 5.585 1.939a11.547 11.547 0 0 0 2.614 5.364" fill="#2b2d29"/><path data-name="Path 630" d="M129.182 103.171s.067 21.959-2.646 35.39c0 0 1.642 31.3-.106 36.08 0 0-5.675 2.883-8.6-2.775-3.926-7.593.354-24.927-2.449-37.853s.2-31.9.2-34.286 13.592 3.445 13.592 3.445" fill="#001211"/><g data-name="Group 192" opacity=".57"><g data-name="Group 191"><g data-name="Group 190" clip-path="url(#e)" transform="translate(117.933 99.535)"><path data-name="Path 631" d="M11.25 3.636S9.608 36.198 8.627 38.975c0 0 1.469 27.487-.02 35.59 0 0-.109 1.806-5.265 1.172 0 0-.589-26.67-.589-32.711S.485 2.436 0-.001Z" fill="#03252b" fill-rule="evenodd"/></g></g></g><path data-name="Path 632" d="m128.433 102.899-8.564-2.825c.455 5 2.145 29.467 2.764 38.242.785 11.062-.562 35.537-.562 36.955 0 0 3.13.606 4.359-.632s-.726-32.321-.726-33.738 3.262-30.123 2.73-38" fill="#042c30"/><path data-name="Path 633" d="M108.084 171.086s6.684 4.96 11.01 4.467l1.977 2.276s3.616 1.851 5.36-.633c0 0-.787 3.918-5.694 1.456l-1.766-2.323a10.608 10.608 0 0 1-4.248-.519 27.186 27.186 0 0 1-6.638-4.723" fill="#151614"/><path data-name="Path 634" d="M127.496 176.267s.08 4.708-5.774 1.938l-1.766-2.321h-2.893l-2.423-1.043 5.315.379s2.021 2.026 2.406 2.406 4.081 1.464 5.134-1.357" fill="#151614"/><path data-name="Path 635" d="M95.12 175.28c-.846.171-3.281 1.4-1.642 3.033s6.808 6.406 9.962 6.406h2.145l1.76 2.325a5.572 5.572 0 0 0 4.235.514c1.575-.514 1.569-2.839 1.569-2.839l.007-2.227s-14.084-8.019-18.034-7.212" fill="#222421"/><path data-name="Path 636" d="M104.729 182.584s-14.3-5.289-8.2-7.306c0 0 4.648 1 5.585 1.943a11.573 11.573 0 0 0 2.615 5.363" fill="#2b2d29"/><path data-name="Path 637" d="M115.797 111.565s.064 21.96-2.642 35.392c0 0 1.639 31.3-.111 36.087 0 0-5.676 2.881-8.6-2.779-3.92-7.6-.571-29.588-3.376-42.514s-.2-29.2-.2-31.584 14.929 5.4 14.929 5.4" fill="#001211"/><g data-name="Group 195" opacity=".57"><g data-name="Group 194"><g data-name="Group 193" clip-path="url(#f)" transform="translate(104.545 107.932)"><path data-name="Path 638" d="M11.253 3.632S9.611 36.194 8.63 38.971c0 0 1.466 27.485-.02 35.587 0 0-.111 1.809-5.265 1.177 0 0-.589-26.672-.589-32.709S.488 2.438 0-.001Z" fill="#03252b" fill-rule="evenodd"/></g></g></g><g data-name="Group 198" opacity=".57"><g data-name="Group 197"><g data-name="Group 196" clip-path="url(#g)" transform="translate(106.483 108.469)"><path data-name="Path 639" d="M8.565 2.821.001 0C.46 5 2.146 29.465 2.765 38.242c.782 11.065-.563 35.54-.563 36.957 0 0 3.131.6 4.357-.629s-.723-32.322-.723-33.741 3.259-30.125 2.73-38.008" fill="#042c30"/></g></g></g><path data-name="Path 640" d="M94.699 179.474s6.684 4.961 11.01 4.467l1.974 2.277s3.623 1.853 5.36-.635c0 0-.784 3.918-5.7 1.461l-1.76-2.325a10.658 10.658 0 0 1-4.248-.518 27.173 27.173 0 0 1-6.638-4.728" fill="#151614"/><path data-name="Path 641" d="M107.916 54.709s-7.4 2.974-9.194 6.793 1.084 24.644 1.084 28.239-1.827 19.556-1.827 21.722 5.755 6.2 9.937 6.2c0 0 13.948 3.952 21.525-11.392 0 0 .813-7.921-1.85-22.948 0 0 1.017-20.545 1.775-25.823.421-2.947-.839-13.692-10.3-7.733l-5.262 3.4Z" fill="#d7d5d6"/><path data-name="Path 642" d="M107.916 54.709s-7.4 2.974-9.194 6.793 1.084 24.644 1.084 28.239-1.827 19.556-1.827 21.722 5.755 6.2 9.937 6.2c0 0 13.948 3.952 21.525-11.392 0 0 .813-7.921-1.85-22.948 0 0 1.017-20.545 1.775-25.823.421-2.947-.839-13.692-10.3-7.733l-5.262 3.4Z" fill="#ea5c4d"/><path data-name="Path 643" d="M103.103 116.357a94.621 94.621 0 0 1-.89-11.163s-1.268 9.589-2.258 10.577 3.147.586 3.147.586" fill="#001211"/><path data-name="Path 644" d="M107.916 54.708s-7.4 2.974-9.194 6.793 1.084 24.645 1.084 28.24-1.827 19.556-1.827 21.722 5.72 6.177 9.895 6.2c.212-4.865.475-11.681.475-15.573 0-6.535-1.264-21.792-2.392-27.565a11.185 11.185 0 0 1 4.227-11.464c9.931-7.268 11.366-10.778 11.366-10.778l-5.134-.806-2.612 1.693Z" fill="#ea5c4d"/><path data-name="Path 645" d="M108.702 55.132s10.13 1.141 12.218-3.587c0 0 2.16.73.268 2.251s-13.563 5.286-12.485 1.335" fill="#d7d5d6"/><path data-name="Path 646" d="M129.552 106.728s.813-7.924-1.846-22.948c0 0 1.017-20.544 1.77-25.821a12.458 12.458 0 0 0-1.438-7.2c-1.636 2.261-4.05 4.318-6.9 7.17-3.18 3.179-11.4 2.664-13.527 7.83s6.032 23.57 7.986 32.533c1.569 7.2-.88 16.291-1.352 19.7 5.038-.545 11.437-3.415 15.308-11.261" fill="#ea5c4d"/><path data-name="Path 647" d="M105.729 69.87s.157 16.423-6.559 28.388c0 0 .247-15.435-.563-18.4Z" fill="#bb0921"/><path data-name="Path 648" d="M114.25 64.631s11.472-6.816 14.993-3.91 6.723 12.442 6.912 15.415 2.672 13.684.842 15.07-4.231 5.019-13.982 9.871Z" fill="#073158"/><path data-name="Path 649" d="M128.882 58.596c2.78 2.3 4.875 7.972 5.937 12.038-3.131 2.463-7.879 8.171-16.147 7.043a12.458 12.458 0 0 1-1.342-.256l-3.08-12.791s11.116-8.941 14.632-6.034" fill="#053d6b"/><path data-name="Path 650" d="M114.25 64.631s8.14 3.845 8.889 18.26-.124 18.186-.124 18.186-7.353 1.226-8.7-11.281a137.51 137.51 0 0 1-.065-25.165" fill="#051d36"/><path data-name="Path 651" d="M118.906 63.38a17.007 17.007 0 0 0-13.809-6.5 20.662 20.662 0 0 0-2.757.71 17.587 17.587 0 0 0-1.984 1.363s11.184-.253 14.934 5.431Z" fill="#053d6b"/><path data-name="Path 652" d="M129.533 60.958a17 17 0 0 0-9.34-12.072c-.6-.026-2.583 1.706-2.583 1.706s7.5 2.85 8.246 9.619Z" fill="#053d6b"/><path data-name="Path 653" d="M115.048 92.051a24.618 24.618 0 0 1-14.74-17.04l-1.237 4.829s4.393 13.462 19.2 15.633Z" fill="#051d36"/><path data-name="Path 654" d="M109.452 48.868s1.9 4.217-.5 6.313c-1.108.97 7.921.847 12.187-2.731a5.689 5.689 0 0 1-.622-7.5Z" fill="#e8a476"/><path data-name="Path 655" d="M109.72 53.016s3.918 3.441 9.447-2.09l-.491-1.815-.124-1.02-2.821-9.831s-1.665 7.064-2.994 9.041a19.644 19.644 0 0 1-3.107 2.643 5.153 5.153 0 0 1 .09 3.072" fill="#e8a476"/><path data-name="Path 656" d="M108.85 55.69s2.717-3.085 10.433-6.806l-9.958.756s1.308 3.371-.475 6.05" fill="#db9669"/><path data-name="Path 657" d="M106.529 31.672s-2.532 3.325-2.255 5.407a26.5 26.5 0 0 1 .325 3.392c-.038.771-.491 1.161-.526 1.815s.89 7.283 3.291 7.421 5.6 2.94 12.987-3.649c0 0 5.6-6.711 1.4-13.806 0 0-5.392-7.224-15.225-.581" fill="#f1b287"/><path data-name="Path 658" d="M104.522 35.808a8.182 8.182 0 0 1 1.375 3.452c0 1.424-.756 3.735 0 4.491s2.008 1.2 2.614 2.615a8 8 0 0 1 .97 3.779s4.582 1.347 5.666-.948l-.95-8.226-2.633-5.591-7.003.328Z" fill="#e8a476"/><path data-name="Path 659" d="M123.6 36.87c.087 3.046-2.8 10.5-4.837 12.471-.839.816-3.459 1.61-5.025.8-3-1.541.629-6.969-3.309-8.205-1.659-.522-2.752 1.161-2.752 2.178a3.262 3.262 0 0 1-.72-4.031 3.478 3.478 0 0 0-.668-4.342c-.895-.862-1.128-.594-1.693-.056s-1.647-3.569 1.5-5.44c5.058-3 17.177-4.653 17.509 6.621" fill="#3f210a"/><path data-name="Path 660" d="M112.239 43.687s8.407 3.218 11.048-4.342c0 0-1.828 10.3-6.537 10.949 0 0-4.787 1.7-4.334-3.58Z" fill="#361d07" fill-rule="evenodd"/><path data-name="Path 661" d="M106.928 36.693s13.054 2.121 16.252-2.738a4.1 4.1 0 0 0-.606-1.626s-.346 6.409-15.646 4.364" fill="#301808" fill-rule="evenodd"/><path data-name="Path 662" d="M119.92 35.77c-2.783 1.6-10.926 1.724-14.368.575-2.811-.934-2.305-3.947-.214-5.537-.162 1.133-3.373 4.553 3.518 4.95.225.016-.849-.855-1.193-1.353 0 0 3.6 2.21 4.576 1.1.2-.238-.184-.686-.581-1.1.722.1 2.819 1.151 3.428.857.635-.31-1.311-1.706-1.311-1.706s3.8 1.675 4.372.849c.16-.229-.261-.692-.638-.916 1.946-.147 4.465.362 4.981-.78.013.085 0-.088 0 0-.034.833-1.1 2.22-2.57 3.063" fill="#301808" fill-rule="evenodd"/><path data-name="Path 663" d="M107.402 37.702s10.905 3.931 16.191-.439c0 0 .274-.78-.415-3.307 0 0-2.579 4.625-16.141 2.761Z" fill="#4f2b0c"/><path data-name="Path 664" d="M107.402 37.702s12.094 1.592 16.118-1.992a18.447 18.447 0 0 1 .036 1.959 3.555 3.555 0 0 1-2.181 3.335 1.825 1.825 0 0 0 .442-2.346s-.338 2.116-1.629 2.573c0 0 .418-1.007-.127-1.4 0 0-.733 1.732-1.683 1.872 0 0 1.236-1.987.5-2.53 0 0-.144 2.4-2.255 2.761 0 0 .852-1.192-.011-1.825 0 0-.629 1.825-1.913 1.825 0 0 .555-1.409.225-2.057 0 0-.583 1.442-1.717 1.719 0 0 .491-1.428-.033-1.952a2.958 2.958 0 0 1-2.413 1.686s1.453-1.659.356-2.506a18.576 18.576 0 0 0-3.711-1.118" fill="#4f2b0c"/><path data-name="Path 665" d="M121.549 30.794s-3.342-4.79-12.8-1.75c0 0 3.084-.083 4.3-.083s-.97.712-2.1.975 3.319-.191 4.827-.191 4.171.509 2.3.793 3.161-.06 3.476.256" fill="#4c260c"/><path data-name="Path 666" d="m109.067 52.652-1.455 3.815s5.071 3.81 12.066-.877c1.107-.741 4.142-1.949.318-5.459 0 0-2.406 5.986-10.93 2.521" fill="#e9f6fa"/><path data-name="Path 667" d="M119.575 49.625s5.724 2.947-.651 6.984a11.646 11.646 0 0 1-8.742.945s5.711-1.03 5.268-3.946a7.5 7.5 0 0 0 4.125-3.983" fill="#d6e6ea"/><path data-name="Path 668" d="M72.597 92.046s-12.177 2.315-16.737.261c0 0-.638-1.9 7.872-3.094 0 0 2.532-1.187.186-2.248s-2.97-3-1.037-2.127 7.146 3.076 9.291 2.263Z" fill="#f3a984"/><path data-name="Path 669" d="M99.386 60.429a87.32 87.32 0 0 0-11.865 18.75s-12.673 4.62-16.8 7.666l-.385 5.906s17.107-1.81 21.876-4.367 11.266-15.945 14.823-21.69c0 0 2.721-8.966-7.652-6.266" fill="#ea5c4d"/><path data-name="Path 670" d="M92.215 88.385c4.767-2.555 11.588-15.057 15.145-20.8 0 0 2.331-3.487 2.4-4.191-7.647 3.02-16.337 19.537-19.289 22.49-2.491 2.488-15.375 3.734-19.951 4.1l-.181 2.767s17.105-1.81 21.876-4.367" fill="#bb0921"/><path data-name="Rectangle 93" fill="none" d="M0 0h170.743v202.678H0z"/><path data-name="Rectangle 94" fill="none" d="M0 0h170.743v202.678H0z"/></g></svg>