<svg xmlns="http://www.w3.org/2000/svg" id="Layer_1" data-name="Layer 1" viewBox="0 0 141.73 70.87"><defs><style>.cls-3{fill:#646464}</style></defs><path d="M0 0h141.73v70.87H0z" style="fill:#fff"/><path d="M56.69 28.35H42.52V14.17H28.35v14.18H14.17v14.17h14.18v14.17h14.17V42.52h14.17V28.35z" style="fill:#dc281e"/><path d="M92.1 32.16a6.59 6.59 0 0 0 6.69-6.88 6.5 6.5 0 0 0-6.69-6.89 6.6 6.6 0 0 0-6.69 6.89 6.49 6.49 0 0 0 6.69 6.88Zm0-11.49c2.36 0 4.12 1.68 4.12 4.61s-1.76 4.6-4.12 4.6-4.1-1.68-4.1-4.6 1.74-4.61 4.1-4.61ZM111.59 31.51a.34.34 0 0 0 .39.39h1.67a.34.34 0 0 0 .38-.39v-17a.34.34 0 0 0-.38-.39h-1.72a.34.34 0 0 0-.39.39v6a4.77 4.77 0 0 0-4.24-2.13c-3.69 0-6.31 2.8-6.31 6.93s2.58 6.84 6.22 6.84a4.87 4.87 0 0 0 4.38-2.27Zm-4.08-1.63c-2.36 0-3.94-1.68-3.94-4.6s1.58-4.61 3.94-4.61 4.12 1.68 4.12 4.61-1.76 4.6-4.12 4.6ZM113.82 38.62h-2a.34.34 0 0 0-.39.38v2a.34.34 0 0 0 .39.39h2a.34.34 0 0 0 .39-.39v-2a.34.34 0 0 0-.39-.38ZM113.69 43.44H112c-.26 0-.39.12-.39.38V56.3a.34.34 0 0 0 .39.39h1.71a.34.34 0 0 0 .39-.39V43.82c-.02-.26-.1-.38-.41-.38ZM71.25 31.9H73a.34.34 0 0 0 .39-.39v-6.32h2.91l4.6 6.41a.7.7 0 0 0 .6.3h2.06c.39 0 .43-.34.26-.56l-4.76-6.58a5 5 0 0 0 4.28-5c0-3.79-3-5.55-6.26-5.55h-5.83c-.26 0-.38.13-.38.39v17c0 .17.13.3.38.3Zm9.48-12.18c0 1.94-1.37 3.1-3.86 3.1H73.4v-6.2h3.47c2.49 0 3.86 1.17 3.86 3.1ZM107.41 43.44h-1.72a.33.33 0 0 0-.38.38V51c0 2.15-1.25 3.65-3.39 3.65-2 0-3.26-1.28-3.26-3.65v-7.18c0-.26-.13-.38-.39-.38h-1.72a.33.33 0 0 0-.38.38v7.58a5.2 5.2 0 0 0 5.32 5.6 4.21 4.21 0 0 0 3.86-2v1.3a.34.34 0 0 0 .38.39h1.68a.34.34 0 0 0 .38-.39V43.82a.33.33 0 0 0-.38-.38ZM123 18.39c-3.39 0-6.13 2.75-6.13 6.89s2.74 6.88 6.47 6.88a6.42 6.42 0 0 0 5.19-2.37.37.37 0 0 0 0-.56l-1-1c-.17-.17-.34-.17-.56 0a4.78 4.78 0 0 1-3.55 1.68 3.9 3.9 0 0 1-4-3.61h9.23c.38 0 .43-.3.43-.86.02-4.38-2.43-7.05-6.08-7.05Zm-3.59 5.85c.34-2.56 1.91-3.61 3.59-3.61 1.89 0 3.34 1.33 3.56 3.61ZM123.1 49c-1.63-.48-3.09-.91-3.09-2.11 0-.9.86-1.46 2.53-1.46a6.57 6.57 0 0 1 3.35.94.4.4 0 0 0 .56-.17l.64-1.29a.39.39 0 0 0-.17-.56 10.08 10.08 0 0 0-4.51-1.17c-2.83 0-4.88 1.42-4.88 3.88 0 2.62 2.4 3.4 4.58 4 1.76.52 3 .87 3 2 0 .9-.74 1.63-2.75 1.63a7.85 7.85 0 0 1-4.12-1.29.36.36 0 0 0-.56.17l-.68 1.31a.42.42 0 0 0 .09.52 9.7 9.7 0 0 0 5.41 1.6c3 0 5.06-1.51 5.06-4 0-2.76-2.36-3.41-4.46-4ZM77.08 46.79 84 39.52a.33.33 0 0 0-.26-.56h-2.11a.77.77 0 0 0-.64.3l-7.59 8.06v-8A.34.34 0 0 0 73 39h-1.75c-.26 0-.38.13-.38.39V56.3c0 .26.12.39.38.39H73a.34.34 0 0 0 .39-.39v-5.75l1.88-2 6 7.83a.77.77 0 0 0 .64.3H84c.38 0 .43-.34.26-.56ZM88.79 51.53c0-3.49 1.88-5.64 4.76-5.64.26 0 .38-.13.38-.39v-1.94c0-.26-.12-.39-.38-.39a5 5 0 0 0-4.81 3.36v-2.71a.33.33 0 0 0-.38-.38h-1.68a.33.33 0 0 0-.38.38V56.3c0 .26.12.39.38.39h1.72a.34.34 0 0 0 .39-.39Z" class="cls-3"/></svg>