<?xml version="1.0" encoding="UTF-8"?>
<!DOCTYPE svg PUBLIC "-//W3C//DTD SVG 1.1//EN" "http://www.w3.org/Graphics/SVG/1.1/DTD/svg11.dtd">
<svg xmlns="http://www.w3.org/2000/svg" xmlns:xlink="http://www.w3.org/1999/xlink">
<symbol id="fb" viewBox="0 0 512 512">
	<path xmlns="http://www.w3.org/2000/svg" fill="currentColor" d="M344.9 140.6V84.7s-57.2-.5-61.1-.5c-25.9 0-63 29.4-63 62.8v59.9h-53.6v63.5H220V428h62.5V269.6h55.3l7-62.1h-61.6v-45.6c0-10.9 8.2-21.7 20.6-21.7 8.3.1 41.1.4 41.1.4z" data-original="#000000"/>
</symbol>
<symbol id="in" viewBox="0 0 48 48">
	<path d="M16.5 5C10.166 5 5 10.166 5 16.5v15C5 37.833 10.166 43 16.5 43h15C37.833 43 43 37.833 43 31.5v-15C43 10.166 37.833 5 31.5 5h-15zm0 3h15c4.711 0 8.5 3.788 8.5 8.5v15c0 4.711-3.789 8.5-8.5 8.5h-15A8.478 8.478 0 0 1 8 31.5v-15C8 11.788 11.788 8 16.5 8zM34 12a2 2 0 1 0-.001 3.999A2 2 0 0 0 34 12zm-10 2c-5.505 0-10 4.495-10 10s4.495 10 10 10 10-4.495 10-10-4.495-10-10-10zm0 3c3.883 0 7 3.117 7 7s-3.117 7-7 7-7-3.117-7-7 3.117-7 7-7z"/>
</symbol>
<symbol id="vk" viewBox="0 0 100 100">
	<path xmlns="http://www.w3.org/2000/svg" fill="currentColor" fill-rule="evenodd" d="M49.1 72.6h4.8s1.4-.2 2.2-1c.7-.7.7-2.1.7-2.1s-.1-6.4 2.9-7.4c2.9-.9 6.7 6.2 10.7 8.9 3 2.1 5.3 1.6 5.3 1.6l10.7-.1s5.6-.3 2.9-4.7c-.2-.4-1.5-3.3-7.9-9.2-6.7-6.2-5.8-5.2 2.3-16 4.9-6.5 6.9-10.5 6.3-12.3-.6-1.6-4.2-1.2-4.2-1.2l-12 .1s-.9-.1-1.6.3c-.8.5-1.2 1.4-1.2 1.4s-1.9 5.1-4.4 9.4c-5.4 9.1-7.5 9.6-8.4 9-2-1.3-1.5-5.3-1.5-8.1 0-8.8 1.3-12.5-2.6-13.4-1.3-.3-2.3-.5-5.6-.6-4.3 0-7.9 0-10 1-1.4.7-2.4 2.2-1.8 2.2.8.1 2.6.5 3.5 1.8 1.2 1.7 1.2 5.4 1.2 5.4s.7 10.4-1.7 11.7c-1.6.9-3.8-.9-8.6-9.2-2.4-4.2-4.3-8.9-4.3-8.9s-.4-.9-1-1.3c-.5-.4-1.5-.7-2.6-.7l-10.7.1s-1.7 0-2.3.8c-.6.7 0 2 0 2s9 20.9 19.1 31.4c9.3 9.8 19.8 9.1 19.8 9.1z" clip-rule="evenodd" data-original="#000000"/>
</symbol>
</svg>