<?xml version="1.0" encoding="UTF-8"?>
<!DOCTYPE svg PUBLIC "-//W3C//DTD SVG 1.1//EN" "http://www.w3.org/Graphics/SVG/1.1/DTD/svg11.dtd">
<svg xmlns="http://www.w3.org/2000/svg" xmlns:xlink="http://www.w3.org/1999/xlink">
<symbol id="academic-cap">
  <path d="M102.5 25.5a3131.24 3131.24 0 0 1 94 32.5c2.408 3.043 2.574 6.21.5 9.5a33.756 33.756 0 0 1-11.5 4c-.167 17.67 0 35.336.5 53 10.622 6.819 12.955 15.819 7 27a24.91 24.91 0 0 1-6.5 5 267.06 267.06 0 0 0-1.5 23c-3.178 4.871-6.845 5.204-11 1a289.832 289.832 0 0 0-1.5-24c-9.858-5.41-12.691-13.41-8.5-24 2.057-3.723 5.057-6.39 9-8a384.59 384.59 0 0 0-.5-48 94.795 94.795 0 0 0-12.5 5l-1 39a17.842 17.842 0 0 1-4.5 5.5c-30.425 13.624-61.425 14.958-93 4-5.44-2.116-9.606-5.616-12.5-10.5a760.881 760.881 0 0 1-.5-39 459.89 459.89 0 0 1-36-12.5c-4.187-4.46-3.52-8.127 2-11a5314.736 5314.736 0 0 0 88-31.5Zm0 13a1550.589 1550.589 0 0 1 71 24.5 3999.17 3999.17 0 0 1-67 24c-2.757.584-5.423.25-8-1l-64-23a2707.3 2707.3 0 0 0 68-24.5Zm-42 47a1114.435 1114.435 0 0 0 43.5 15 819.077 819.077 0 0 0 43-15c.667 10 .667 20 0 30-4.729 3.111-9.895 5.278-15.5 6.5-21.62 5.087-42.953 4.087-64-3a60.603 60.603 0 0 1-6.5-3.5 450.43 450.43 0 0 1-.5-30Zm117 50c6.804 1.093 8.137 4.259 4 9.5-5.5 1.167-7.667-1-6.5-6.5a10.515 10.515 0 0 0 2.5-3Z"/>
</symbol>
<symbol id="arrow-right" viewBox="0 0 16.871 14.494">
  <g data-name="Group 385" fill="none" stroke="#fff" stroke-linecap="round" stroke-width="3">
    <path data-name="Line 14" d="M1.5 7.247h13.25"/>
    <path data-name="Line 15" d="m9.874 2.12 4.876 5.127"/>
    <path data-name="Line 16" d="m14.75 7.247-4.876 5.127"/>
  </g>
</symbol>
<symbol id="case" viewBox="0 0 45 45">
  <path d="M40.8 10H30.4V8.8c0-1.9-1.5-3.4-3.4-3.4h-9.1c-1.9 0-3.4 1.5-3.4 3.4V10H4.2c-.7 0-1.2.5-1.2 1.2v25c0 1.9 1.5 3.4 3.4 3.4h32c1.9 0 3.4-1.5 3.4-3.4v-25c.1-.8-.4-1.2-1-1.2zm-24-1.2c0-.6.5-1.2 1.2-1.2h9c.6 0 1.2.5 1.2 1.2V10H16.8V8.8zm22.4 3.4-3.6 10.6c-.2.4-.6.8-1.1.8h-6.4v-1.2c0-.6-.5-1.2-1.2-1.2h-9c-.6 0-1.2.5-1.2 1.2v1.2h-6.3c-.4 0-.9-.3-1.1-.8L5.8 12.2h33.4zM25.9 23.7v2.2h-6.8v-2.2h6.8zm13.7 12.5c0 .6-.5 1.2-1.2 1.2h-32c-.6 0-1.2-.5-1.2-1.2V18.1L7 23.6c.4 1.4 1.8 2.3 3.2 2.3h6.4v1.2c0 .6.5 1.2 1.2 1.2H27c.6 0 1.2-.5 1.2-1.2v-1.2h6.3c1.4 0 2.8-.9 3.2-2.3l1.8-5.5.1 18.1z"/>
</symbol>
<symbol id="chevron-down" viewBox="0 0 14 8">
  <path data-name="Polygon 3" d="M7.753 7.14a1 1 0 0 1-1.505 0l-4.8-5.481A1 1 0 0 1 2.2 0h9.6a1 1 0 0 1 .753 1.659Z" fill="#121212"/>
</symbol>
<symbol id="fb" viewBox="0 0 512 512">
  <path xmlns="http://www.w3.org/2000/svg" d="M344.9 140.6V84.7s-57.2-.5-61.1-.5c-25.9 0-63 29.4-63 62.8v59.9h-53.6v63.5H220V428h62.5V269.6h55.3l7-62.1h-61.6v-45.6c0-10.9 8.2-21.7 20.6-21.7 8.3.1 41.1.4 41.1.4z" fill="currentColor" data-original="#000000"/>
</symbol>
<symbol id="globe" viewBox="0 0 512 512">
  <path d="M95.77 238.58c3.45 174.95 233 232.12 318.88 82.35 29.18-48.93 29.18-118.82 0-167.75C327.24 2 96.69 61.71 95.77 238.58zm33.5-75.07c7.55.88 23.43 2.6 44.75 4.2a273.5 273.5 0 0 0-8.47 61.84h-54.61a154.38 154.38 0 0 1 18.33-66.04zm292.3 66H367a274.07 274.07 0 0 0-8.46-61.84c21.16-1.57 37-3.27 44.76-4.16a154.33 154.33 0 0 1 18.27 66.04zm-18.31 81c-7.73-.89-23.59-2.6-44.76-4.18a273.4 273.4 0 0 0 8.5-61.78h54.61a154.29 154.29 0 0 1-18.35 66zm-144.5-7.68c-25.43.18-49.22 1.22-69.51 2.5a257.09 257.09 0 0 1-8.7-60.82h78.21zm0 15v74.07c-29.09-3.67-54.34-39.87-64.89-71.83 19.18-1.07 41.31-2.07 64.89-2.2zm15 74.07v-74.04c23.58.15 45.72 1.05 64.9 2.2-10.55 31.94-35.82 68.21-64.9 71.88zm0-89.08v-58.27H352a256.75 256.75 0 0 1-8.69 60.77C323 304 299.2 303 273.76 302.86zM352 229.55h-78.2v-58.31c25.41-.17 49.2-1.2 69.51-2.48a256.92 256.92 0 0 1 8.69 60.79zm-78.2-73.31V82.16c29.09 3.68 54.34 39.89 64.89 71.86-19.23 1.15-41.37 2.06-64.93 2.22zm-15-74.08v74.08c-23.6-.15-45.74-1.06-64.9-2.22 10.51-31.96 35.78-68.19 64.86-71.86zm0 89.09v58.3h-78.25a257.43 257.43 0 0 1 8.69-60.79c20.28 1.24 44.06 2.32 69.52 2.49zm-93.21 73.3a273.68 273.68 0 0 0 8.41 61.87c-21.3 1.6-37.2 3.31-44.74 4.18a154.26 154.26 0 0 1-18.34-66.05zm-27.69 80.18c9.08-1 23.08-2.33 40.47-3.59 7.67 23.14 19.69 46.07 36 62.49a156.25 156.25 0 0 1-76.47-58.9zm180.27 58.9c16.3-16.45 28.31-39.37 36-62.54 17.36 1.25 31.35 2.61 40.5 3.59a156.24 156.24 0 0 1-76.5 58.95zm76.47-234.22c-9.15 1-23.15 2.33-40.49 3.58-7.67-23.15-19.69-46.08-36-62.52a156.31 156.31 0 0 1 76.49 58.94zm-180.3-58.94c-16.29 16.45-28.3 39.36-36 62.52-17.41-1.26-31.41-2.63-40.48-3.61a156.35 156.35 0 0 1 76.48-58.91z" fill="currentColor" data-original="#000000"/>
</symbol>
<symbol id="house" viewBox="0 0 102.32 100.84">
  <path d="M49.16 92.37H8.03a.89.89 0 0 1-.03-.19V45.49c0-2.6 1.66-3.74 1.77-3.82l.2-.1.33-.27c3.74-3.02 35.73-28.86 40.24-32.99.48-.29 1.35-.64 2.33.32l.1.13 42.79 35.66c1.7 1.41 4.22 1.19 5.63-.51 1.41-1.7 1.19-4.22-.51-5.63L58.52 2.97c-2.15-2.14-7.27-4.86-12.74-1.1l-.3.21-.26.26C43.33 4.23 19.93 23.25 5.48 34.92 3.3 36.32 0 39.89 0 45.49v46.48c-.02.8.09 3.85 2.29 6.13 1 1.04 2.79 2.27 5.64 2.27h41.23c2.21 0 4-1.79 4-4s-1.79-4-4-4Z"/>
  <path d="M86.53 52.54c-5.34 0-9.28 2.19-11.79 4.24-2.51-2.05-6.45-4.24-11.79-4.24-8.85 0-15.79 7.59-15.79 17.28 0 6.44 3.35 18.92 25.79 30.13l1.79.89 1.79-.89c22.44-11.21 25.79-23.69 25.79-30.13 0-9.69-6.94-17.28-15.79-17.28ZM74.74 91.87c-12.47-6.61-19.58-14.59-19.58-22.05 0-4.5 2.73-9.28 7.79-9.28 5.48 0 8.36 4.05 8.48 4.22l3.26 4.84 3.36-4.84c.12-.17 3-4.22 8.48-4.22 5.06 0 7.79 4.78 7.79 9.28 0 7.47-7.11 15.44-19.58 22.05Z"/>
</symbol>
<symbol id="mail" viewBox="0 0 511.626 511.626">
  <g fill="currentColor">
    <path d="M49.106 178.729c6.472 4.567 25.981 18.131 58.528 40.685 32.548 22.554 57.482 39.92 74.803 52.099 1.903 1.335 5.946 4.237 12.131 8.71 6.186 4.476 11.326 8.093 15.416 10.852 4.093 2.758 9.041 5.852 14.849 9.277 5.806 3.422 11.279 5.996 16.418 7.7 5.14 1.718 9.898 2.569 14.275 2.569h.575c4.377 0 9.137-.852 14.277-2.569 5.137-1.704 10.615-4.281 16.416-7.7 5.804-3.429 10.752-6.52 14.845-9.277 4.093-2.759 9.229-6.376 15.417-10.852 6.184-4.477 10.232-7.375 12.135-8.71 17.508-12.179 62.051-43.11 133.615-92.79 13.894-9.703 25.502-21.411 34.827-35.116 9.332-13.699 13.993-28.07 13.993-43.105 0-12.564-4.523-23.319-13.565-32.264-9.041-8.947-19.749-13.418-32.117-13.418H45.679c-14.655 0-25.933 4.948-33.832 14.844C3.949 79.562 0 91.934 0 106.779c0 11.991 5.236 24.985 15.703 38.974 10.466 13.99 21.604 24.983 33.403 32.976z" data-original="#000000"/>
    <path d="M483.072 209.275c-62.424 42.251-109.824 75.087-142.177 98.501-10.849 7.991-19.65 14.229-26.409 18.699-6.759 4.473-15.748 9.041-26.98 13.702-11.228 4.668-21.692 6.995-31.401 6.995h-.578c-9.707 0-20.177-2.327-31.405-6.995-11.228-4.661-20.223-9.229-26.98-13.702-6.755-4.47-15.559-10.708-26.407-18.699-25.697-18.842-72.995-51.68-141.896-98.501C17.987 202.047 8.375 193.762 0 184.437v226.685c0 12.57 4.471 23.319 13.418 32.265 8.945 8.949 19.701 13.422 32.264 13.422h420.266c12.56 0 23.315-4.473 32.261-13.422 8.949-8.949 13.418-19.694 13.418-32.265V184.437c-8.186 9.132-17.7 17.417-28.555 24.838z" data-original="#000000"/>
  </g>
</symbol>
<symbol id="pdf" viewBox="0 0 512 512">
  <linearGradient id="a" x1="0" x2="512" y1="256" y2="256" gradientUnits="userSpaceOnUse">
    <stop offset="0"/>
    <stop offset=".006"/>
    <stop offset="1"/>
  </linearGradient>
  <path fill="none" stroke-linecap="round" stroke-linejoin="round" stroke-miterlimit="10" stroke-width="40" d="M332 492h-30V372h30c22.091 0 40 17.909 40 40v40c0 22.091-17.909 40-40 40zm100-120v120m0-120h60m-20 60h-40m-260 60V372m40 0h-40v60h40c16.569 0 30-13.431 30-30v0c0-16.569-13.431-30-30-30zm-12-192v120m-40-40 40 40 40-40m140 40V139.999M260 20H60c-22.091 0-40 17.909-40 40v392c0 22.091 17.909 40 40 40h40M260 20v80c0 22.091 17.909 40 40 40h80L260 20z" style="fill:none;stroke:url(#a);stroke-width:40;stroke-linecap:round;stroke-linejoin:round;stroke-miterlimit:10"/>
</symbol>
<symbol id="search" viewBox="0 0 64 64">
  <path d="M27 9C17.075 9 9 17.075 9 27s8.075 18 18 18c4.13 0 7.926-1.413 10.967-3.76l13.082 13.082a2.315 2.315 0 1 0 3.273-3.273L41.24 37.967C43.587 34.927 45 31.129 45 27c0-9.925-8.075-18-18-18zm0 4c7.719 0 14 6.281 14 14s-6.281 14-14 14-14-6.281-14-14 6.281-14 14-14z"/>
</symbol>
<symbol id="sheet" viewBox="0 0 1138 1174">
  <path d="M332.9 1c-9.3 1.1-18.1 3.7-27.6 8-20.6 9.5-35.4 24-45.3 44.4-6 12.2-8.8 23.4-9.7 38.3l-.6 11.3h-39.9c-50.8 0-62.9 1.2-86.3 8.7-27 8.6-50.1 22.8-70.6 43.2-25.4 25.5-42.1 57.2-49.1 93.2l-2.2 11.4L1.2 631c-.2 266 0 374.6.8 382.5 4.2 42.2 21.6 79 51 108.5 13.6 13.5 27.9 23.8 45.5 32.5 22.8 11.3 40.3 16.3 65 18.4 17.3 1.5 282.6 1.5 289.7 0 11.6-2.5 20.9-9.6 25.7-19.8 2.2-4.8 2.6-6.9 2.6-15.1 0-7.6-.5-10.4-2.2-14.2-3-6.6-10.5-14.3-17.2-17.5l-5.6-2.8-146.5-.6c-162-.6-150.5-.1-169.3-7-28.1-10.2-51.5-33.7-61.8-61.9-6.9-19.1-6.3 18.1-6.7-389.5-.2-269.4 0-370.5.8-377.3 3.6-29.1 18.1-54.3 42-72.4 8.8-6.8 24.5-14.2 36.5-17.5l10-2.7 44.1-.4 44.1-.3.6 11.3c.9 15 3.7 26.2 9.7 38.4 9.5 19.5 23.1 33.2 42.5 42.9 6.1 3 14.8 6.5 19.5 7.7l8.5 2.2 176 .4c126.5.2 178.8 0 186-.8 47.8-5.5 83.5-44.7 83.5-92v-10.2l44.8.4c44.5.4 44.7.4 54.5 3.1 11.6 3.1 26.5 9.9 35.1 16.1 7.2 5.2 19.1 17.1 24.2 24.1 4.3 6.1 11 19 13.6 26.5 5.4 15.5 5.1 9.8 5.7 132l.6 113.5 3.1 6.5c5 10.3 12.2 16.5 22.8 19.6 16.1 4.5 33.4-3.2 40.8-18.4l3.3-6.7.3-110c.3-128.7.3-129.2-8.8-156.6-19.3-58.1-68.9-103.2-128-116.3-17.7-3.9-28.9-4.6-72.1-4.6H776V93c0-46.9-36.1-86.8-83.2-91.9C681.4-.2 343.5-.2 332.9 1zm359.6 72.7c5.1 2.7 9 6.8 10.9 11.5 2.4 5.6 2.4 101 0 106.6-1.9 4.7-5.8 8.8-10.9 11.5l-4 2.2-172 .3c-124.3.2-173.4 0-177.2-.8-3.9-.8-6.5-2.3-10.2-5.6-8.1-7.3-8.1-7.1-8.1-60.6 0-30.2.4-47.4 1.1-50.3 1.9-7.5 9.3-14.6 17.4-16.6 1.7-.4 80.9-.6 176-.6l173 .2 4 2.2z"/>
  <path d="M268.3 453.1c-7.1 2.7-15.5 10.6-19 17.7-2.5 5-2.8 6.8-2.8 15.2 0 8.3.3 10.2 2.8 15.1 3.6 7.5 11.7 15 19 17.7l5.8 2.2h197.3c216.7 0 200.7.5 210.2-6 9.2-6.4 14.7-17.2 14.8-29 .1-8.1-2.3-15-7.2-21.5-3.9-5.2-12.1-10.8-18.2-12.5-2.2-.6-75.3-1-200.5-.9-195 0-197.1 0-202.2 2zm722.2 152c-21.3 2.9-44.4 12.4-61.4 25.1-6.3 4.7-317.8 315.2-327.6 326.5-6.7 7.8-11.5 16-14.6 25-2.3 6.8-20.9 116.2-20.9 123.2 0 13.5 5.7 30.2 14.1 41.4 12.9 17.1 32.8 27 54.4 27 11.4 0 113-17 124.6-20.9 4.2-1.3 10.9-4.7 15-7.4 5.8-3.8 42.9-40.5 171-168.7 175.7-175.9 169.7-169.6 178.9-188.9 23-48 14.4-105-21.5-143.2-18.2-19.4-38-30.7-64.5-36.8-12-2.8-35.6-4-47.5-2.3zm31.4 70.4c37.6 8.9 55.5 52.4 35.3 86-3.6 6-44.4 48.5-46.6 48.5-.6 0-19.2-18.1-41.4-40.3l-40.3-40.3 23.3-23c24.8-24.4 27.7-26.5 41.3-30.5 7.5-2.2 20-2.3 28.4-.4zM920 820.5l40.5 40.5-112.3 112.3L736 1085.5l-49.1 9.8c-27 5.4-49.2 9.7-49.4 9.5-.2-.2 3.4-22.7 7.9-50.1l8.2-49.8 112.5-112.5C827.9 830.6 878.7 780 879 780c.3 0 18.7 18.2 41 40.5zM268.3 654.1c-7.1 2.7-15.5 10.6-19 17.7-2.5 5-2.8 6.8-2.8 15.2 0 8.1.4 10.3 2.6 15 4.7 10.1 14.3 17.5 25.7 19.9 7 1.5 175.5 1.6 183.3.1 7.5-1.4 13.7-4.7 18.9-10 17.3-17.2 12.2-46.5-9.9-56.9l-5.6-2.6-94-.2c-92.2-.2-94.1-.2-99.2 1.8z"/>
</symbol>
<symbol id="tw" viewBox="0 0 512 512">
  <path fill="currentColor" d="M512 97.248c-19.04 8.352-39.328 13.888-60.48 16.576 21.76-12.992 38.368-33.408 46.176-58.016-20.288 12.096-42.688 20.64-66.56 25.408C411.872 60.704 384.416 48 354.464 48c-58.112 0-104.896 47.168-104.896 104.992 0 8.32.704 16.32 2.432 23.936-87.264-4.256-164.48-46.08-216.352-109.792-9.056 15.712-14.368 33.696-14.368 53.056 0 36.352 18.72 68.576 46.624 87.232-16.864-.32-33.408-5.216-47.424-12.928v1.152c0 51.008 36.384 93.376 84.096 103.136-8.544 2.336-17.856 3.456-27.52 3.456-6.72 0-13.504-.384-19.872-1.792 13.6 41.568 52.192 72.128 98.08 73.12-35.712 27.936-81.056 44.768-130.144 44.768-8.608 0-16.864-.384-25.12-1.44C46.496 446.88 101.6 464 161.024 464c193.152 0 298.752-160 298.752-298.688 0-4.64-.16-9.12-.384-13.568 20.832-14.784 38.336-33.248 52.608-54.496z" data-original="#03a9f4"/>
</symbol>
</svg>