<?xml version="1.0" encoding="UTF-8"?>
<!DOCTYPE svg PUBLIC "-//W3C//DTD SVG 1.1//EN" "http://www.w3.org/Graphics/SVG/1.1/DTD/svg11.dtd">
<svg xmlns="http://www.w3.org/2000/svg" xmlns:xlink="http://www.w3.org/1999/xlink">
<symbol id="academic-cap">
	<path fill-rule="evenodd" d="M92.7 14.8c31.5 10.3 62.8 21.2 94 32.5 2.4 3 2.6 6.2.5 9.5-3.6 2-7.5 3.4-11.5 4-.2 17.7 0 35.3.5 53 10.6 6.8 13 15.8 7 27-1.9 2-4.1 3.7-6.5 5-.8 7.6-1.3 15.3-1.5 23-3.2 4.9-6.8 5.2-11 1-.2-8-.7-16-1.5-24-9.9-5.4-12.7-13.4-8.5-24 2.1-3.7 5.1-6.4 9-8 .8-16 .7-32-.5-48-4.3 1.4-8.5 3-12.5 5l-1 39c-1.1 2.1-2.6 4-4.5 5.5-30.4 13.6-61.4 15-93 4-5.4-2.1-9.6-5.6-12.5-10.5-.5-13-.7-26-.5-39-12.2-3.7-24.2-7.8-36-12.5-4.2-4.5-3.5-8.1 2-11 29.4-10.2 58.8-20.7 88-31.5zm0 13c23.9 7.6 47.5 15.8 71 24.5-22.3 8.2-44.6 16.2-67 24-2.8.6-5.4.3-8-1l-64-23c22.8-7.8 45.5-16 68-24.5zm-42 47c14.4 5.3 28.9 10.3 43.5 15 14.5-4.6 28.8-9.6 43-15 .7 10 .7 20 0 30-4.7 3.1-9.9 5.3-15.5 6.5-21.6 5.1-43 4.1-64-3-2.2-1-4.4-2.2-6.5-3.5-.5-10-.7-20-.5-30zm117 50c6.8 1.1 8.1 4.3 4 9.5-5.5 1.2-7.7-1-6.5-6.5 1-.8 1.9-1.8 2.5-3z" clip-rule="evenodd"/>
</symbol>
<symbol id="arrow-right">
	<path d="M16.1 7.2c.1 0 .1-.1 0 0 .1-.2.1-.4.1-.5 0-.1 0-.3-.1-.4v-.1c-.1-.1-.2-.3-.3-.4L11 .5c-.6-.6-1.5-.6-2.1-.1-.7.6-.7 1.5-.1 2.1l2.5 2.6H1.5C.7 5.1 0 5.8 0 6.6s.7 1.5 1.5 1.5h9.8l-2.5 2.6c-.6.6-.5 1.5.1 2.1.3.3.7.4 1 .4.4 0 .8-.2 1.1-.5l4.9-5.1c.1-.1.2-.2.2-.4z"/>
</symbol>
<symbol id="case">
	<path d="M37.8 6.9H27.4V5.7c0-1.9-1.5-3.4-3.4-3.4h-9.1c-1.9 0-3.4 1.5-3.4 3.4v1.2H1.2C.5 6.9 0 7.4 0 8.1v25c0 1.9 1.5 3.4 3.4 3.4h32c1.9 0 3.4-1.5 3.4-3.4v-25c.1-.8-.4-1.2-1-1.2zm-24-1.2c0-.6.5-1.2 1.2-1.2h9c.6 0 1.2.5 1.2 1.2v1.2H13.8V5.7zm22.4 3.4-3.6 10.6c-.2.4-.6.8-1.1.8h-6.4v-1.2c0-.6-.5-1.2-1.2-1.2h-9c-.6 0-1.2.5-1.2 1.2v1.2H7.4c-.4 0-.9-.3-1.1-.8L2.8 9.1h33.4zM22.9 20.6v2.2h-6.8v-2.2h6.8zm13.7 12.5c0 .6-.5 1.2-1.2 1.2h-32c-.6 0-1.2-.5-1.2-1.2V15L4 20.5c.4 1.4 1.8 2.3 3.2 2.3h6.4V24c0 .6.5 1.2 1.2 1.2H24c.6 0 1.2-.5 1.2-1.2v-1.2h6.3c1.4 0 2.8-.9 3.2-2.3l1.8-5.5.1 18.1z"/>
</symbol>
<symbol id="chevron-down">
	<path d="M7.753 7.14a1 1 0 0 1-1.505 0l-4.8-5.481A1 1 0 0 1 2.2 0h9.6a1 1 0 0 1 .753 1.659Z"/>
</symbol>
<symbol id="fb" viewBox="0 0 512 512">
	<path xmlns="http://www.w3.org/2000/svg" d="M344.9 140.6V84.7s-57.2-.5-61.1-.5c-25.9 0-63 29.4-63 62.8v59.9h-53.6v63.5H220V428h62.5V269.6h55.3l7-62.1h-61.6v-45.6c0-10.9 8.2-21.7 20.6-21.7 8.3.1 41.1.4 41.1.4z"/>
</symbol>
<symbol id="globe">
	<path d="M0 258.4c5.2 263.4 350.1 349.5 479.1 124 43.8-73.7 43.8-178.9 0-252.6C347.8-97.8 1.4-7.9 0 258.4zm50.3-113c11.3 1.3 35.2 3.9 67.2 6.3-7.8 30.4-12 61.7-12.7 93.1h-82c1.6-34.8 11-68.8 27.5-99.4zm439.2 99.3h-82c-.7-31.4-4.9-62.7-12.7-93.1 31.8-2.4 55.6-4.9 67.3-6.3 16.4 30.7 25.8 64.7 27.4 99.4zm-27.5 122c-11.6-1.3-35.4-3.9-67.3-6.3 7.8-30.4 12.1-61.6 12.8-93h82.1c-1.7 34.7-11.1 68.7-27.6 99.3zm-217.1-11.6c-38.2.3-74 1.8-104.4 3.8-8-29.9-12.4-60.6-13.1-91.6h117.5v87.8zm0 22.6v111.5c-43.7-5.5-81.6-60-97.5-108.1 28.8-1.6 62.1-3.2 97.5-3.4zm22.5 111.5V377.7c35.4.2 68.7 1.6 97.5 3.3-15.8 48.1-53.8 102.7-97.5 108.2zm0-134.1v-87.7H385c-.7 30.9-5.1 61.6-13.1 91.5-30.5-2-66.2-3.5-104.5-3.8zM385 244.8H267.5V157c38.2-.3 73.9-1.8 104.4-3.7 8 29.8 12.4 60.6 13.1 91.5zM267.5 134.4V22.9c43.7 5.5 81.6 60.1 97.5 108.2-28.9 1.7-62.2 3.1-97.5 3.3zM245 22.9v111.5c-35.5-.2-68.7-1.6-97.5-3.3C163.2 82.9 201.2 28.4 245 22.9zm0 134.1v87.8H127.4c.7-30.9 5.1-61.6 13.1-91.5 30.4 1.8 66.1 3.5 104.5 3.7zM104.9 267.4c.7 31.4 4.9 62.7 12.6 93.1-32 2.4-55.9 5-67.2 6.3-16.5-30.7-25.9-64.6-27.6-99.4h82.2zM63.3 388.1c13.6-1.5 34.7-3.5 60.8-5.4 11.5 34.8 29.6 69.4 54.1 94.1-46.7-16.7-86.9-47.8-114.9-88.7zm270.9 88.7c24.5-24.8 42.5-59.3 54.1-94.2 26.1 1.9 47.1 3.9 60.9 5.4-28.1 41-68.3 72.1-115 88.8zm114.9-352.7c-13.7 1.5-34.8 3.5-60.8 5.4-11.5-34.9-29.6-69.4-54.1-94.1 46.6 16.7 86.9 47.7 114.9 88.7zM178.2 35.4c-24.5 24.8-42.5 59.3-54.1 94.1-26.2-1.9-47.2-4-60.8-5.4 27.9-41 68.2-72 114.9-88.7z"/>
</symbol>
<symbol id="house" viewBox="0 0 102.32 100.84">
	<path d="M49.16 92.37H8.03a.89.89 0 0 1-.03-.19V45.49c0-2.6 1.66-3.74 1.77-3.82l.2-.1.33-.27c3.74-3.02 35.73-28.86 40.24-32.99.48-.29 1.35-.64 2.33.32l.1.13 42.79 35.66c1.7 1.41 4.22 1.19 5.63-.51 1.41-1.7 1.19-4.22-.51-5.63L58.52 2.97c-2.15-2.14-7.27-4.86-12.74-1.1l-.3.21-.26.26C43.33 4.23 19.93 23.25 5.48 34.92 3.3 36.32 0 39.89 0 45.49v46.48c-.02.8.09 3.85 2.29 6.13 1 1.04 2.79 2.27 5.64 2.27h41.23c2.21 0 4-1.79 4-4s-1.79-4-4-4Z"/>
	<path d="M86.53 52.54c-5.34 0-9.28 2.19-11.79 4.24-2.51-2.05-6.45-4.24-11.79-4.24-8.85 0-15.79 7.59-15.79 17.28 0 6.44 3.35 18.92 25.79 30.13l1.79.89 1.79-.89c22.44-11.21 25.79-23.69 25.79-30.13 0-9.69-6.94-17.28-15.79-17.28ZM74.74 91.87c-12.47-6.61-19.58-14.59-19.58-22.05 0-4.5 2.73-9.28 7.79-9.28 5.48 0 8.36 4.05 8.48 4.22l3.26 4.84 3.36-4.84c.12-.17 3-4.22 8.48-4.22 5.06 0 7.79 4.78 7.79 9.28 0 7.47-7.11 15.44-19.58 22.05Z"/>
</symbol>
<symbol id="mail" viewBox="0 0 511.626 511.626">
	<path d="M49.106 178.729c6.472 4.567 25.981 18.131 58.528 40.685 32.548 22.554 57.482 39.92 74.803 52.099 1.903 1.335 5.946 4.237 12.131 8.71 6.186 4.476 11.326 8.093 15.416 10.852 4.093 2.758 9.041 5.852 14.849 9.277 5.806 3.422 11.279 5.996 16.418 7.7 5.14 1.718 9.898 2.569 14.275 2.569h.575c4.377 0 9.137-.852 14.277-2.569 5.137-1.704 10.615-4.281 16.416-7.7 5.804-3.429 10.752-6.52 14.845-9.277 4.093-2.759 9.229-6.376 15.417-10.852 6.184-4.477 10.232-7.375 12.135-8.71 17.508-12.179 62.051-43.11 133.615-92.79 13.894-9.703 25.502-21.411 34.827-35.116 9.332-13.699 13.993-28.07 13.993-43.105 0-12.564-4.523-23.319-13.565-32.264-9.041-8.947-19.749-13.418-32.117-13.418H45.679c-14.655 0-25.933 4.948-33.832 14.844C3.949 79.562 0 91.934 0 106.779c0 11.991 5.236 24.985 15.703 38.974 10.466 13.99 21.604 24.983 33.403 32.976z" fill="currentColor" data-original="#000000"/>
	<path d="M483.072 209.275c-62.424 42.251-109.824 75.087-142.177 98.501-10.849 7.991-19.65 14.229-26.409 18.699-6.759 4.473-15.748 9.041-26.98 13.702-11.228 4.668-21.692 6.995-31.401 6.995h-.578c-9.707 0-20.177-2.327-31.405-6.995-11.228-4.661-20.223-9.229-26.98-13.702-6.755-4.47-15.559-10.708-26.407-18.699-25.697-18.842-72.995-51.68-141.896-98.501C17.987 202.047 8.375 193.762 0 184.437v226.685c0 12.57 4.471 23.319 13.418 32.265 8.945 8.949 19.701 13.422 32.264 13.422h420.266c12.56 0 23.315-4.473 32.261-13.422 8.949-8.949 13.418-19.694 13.418-32.265V184.437c-8.186 9.132-17.7 17.417-28.555 24.838z"/>
</symbol>
<symbol id="nl">
	<mask id="a">
		<circle cx="256" cy="256" r="256" fill="#fff"/>
	</mask>
	<g mask="url(#a)">
		<path fill="#eee" d="m0 167 253.8-19.3L512 167v178l-254.9 32.3L0 345z"/>
		<path fill="#a2001d" d="M0 0h512v167H0z"/>
		<path fill="#0052b4" d="M0 345h512v167H0z"/>
	</g>
</symbol>
<symbol id="pdf">
	<path d="M432 512c-11 0-20-9-20-20V372c0-11 9-20 20-20h60c11 0 20 9 20 20s-9 20-20 20h-40v20h20c11 0 20 9 20 20s-9 20-20 20h-20v40c0 11-9 20-20 20zm-100 0h-30c-11 0-20-9-20-20V372c0-11 9-20 20-20h30c33.1 0 60 26.9 60 60v40c0 33.1-26.9 60-60 60zm-10-40h10c11 0 20-9 20-20v-40c0-11-9-20-20-20h-10v80zm-150 40c-11 0-20-9-20-20V372c0-11 9-20 20-20h40c27.6 0 50 22.4 50 50s-22.4 50-50 50h-20v40c0 11-9 20-20 20zm20-100h20c5.5 0 10-4.5 10-10s-4.5-10-10-10h-20v20zm-92 100H60c-33.1 0-60-26.9-60-60V60C0 26.9 26.9 0 60 0h200.9c5.2.2 9.8 2.4 13.2 5.9L394 125.7c3.5 3.4 5.7 8.2 6 13.4V300c0 11-9 20-20 20s-20-9-20-20V160h-60c-33.1 0-60-26.9-60-60V40H60c-11 0-20 9-20 20v392c0 11 9 20 20 20h40c11 0 20 9 20 20s-9 20-20 20zM280 68.3V100c0 11 9 20 20 20h31.7L280 68.3zM200 320h-.3c-2.6 0-5.1-.6-7.3-1.5-2.3-.9-4.5-2.3-6.3-4.2l-.2-.2-40-40c-7.8-7.8-7.8-20.5 0-28.3s20.5-7.8 28.3 0l5.9 5.9V180c0-11 9-20 20-20s20 9 20 20v71.7l5.9-5.9c7.8-7.8 20.5-7.8 28.3 0 7.8 7.8 7.8 20.5 0 28.3l-40 40-.2.2c-1.9 1.8-4 3.2-6.3 4.2-2.3.9-4.7 1.5-7.3 1.5h-.5z"/>
</symbol>
<symbol id="ru">
	<mask id="a">
		<circle cx="256" cy="256" r="256" fill="#fff"/>
	</mask>
	<g mask="url(#a)">
		<path fill="#0052b4" d="M512 170v172l-256 32L0 342V170l256-32z"/>
		<path fill="#eee" d="M512 0v170H0V0Z"/>
		<path fill="#d80027" d="M512 342v170H0V342Z"/>
	</g>
</symbol>
<symbol id="search" viewBox="0 0 50 50">
	<path d="M50 44.56v2.5L46.69 50h-1.5q-6.99-5.69-13.1-12.58-.36-.41-.82-.12c-13.41 8.55-29 .35-31.27-14.86v-4.25C6.17-13.78 52.33 1.73 37.69 31.02q-.24.5.18.85Q44.74 37.65 50 44.56ZM33.86 20.54A13.66 13.66 0 0 0 20.2 6.88 13.66 13.66 0 0 0 6.54 20.54 13.66 13.66 0 0 0 20.2 34.2a13.66 13.66 0 0 0 13.66-13.66Z"/>
</symbol>
<symbol id="sheet" viewBox="0 0 1138 1174">
	<path d="M332.9 1c-9.3 1.1-18.1 3.7-27.6 8-20.6 9.5-35.4 24-45.3 44.4-6 12.2-8.8 23.4-9.7 38.3l-.6 11.3h-39.9c-50.8 0-62.9 1.2-86.3 8.7-27 8.6-50.1 22.8-70.6 43.2-25.4 25.5-42.1 57.2-49.1 93.2l-2.2 11.4L1.2 631c-.2 266 0 374.6.8 382.5 4.2 42.2 21.6 79 51 108.5 13.6 13.5 27.9 23.8 45.5 32.5 22.8 11.3 40.3 16.3 65 18.4 17.3 1.5 282.6 1.5 289.7 0 11.6-2.5 20.9-9.6 25.7-19.8 2.2-4.8 2.6-6.9 2.6-15.1 0-7.6-.5-10.4-2.2-14.2-3-6.6-10.5-14.3-17.2-17.5l-5.6-2.8-146.5-.6c-162-.6-150.5-.1-169.3-7-28.1-10.2-51.5-33.7-61.8-61.9-6.9-19.1-6.3 18.1-6.7-389.5-.2-269.4 0-370.5.8-377.3 3.6-29.1 18.1-54.3 42-72.4 8.8-6.8 24.5-14.2 36.5-17.5l10-2.7 44.1-.4 44.1-.3.6 11.3c.9 15 3.7 26.2 9.7 38.4 9.5 19.5 23.1 33.2 42.5 42.9 6.1 3 14.8 6.5 19.5 7.7l8.5 2.2 176 .4c126.5.2 178.8 0 186-.8 47.8-5.5 83.5-44.7 83.5-92v-10.2l44.8.4c44.5.4 44.7.4 54.5 3.1 11.6 3.1 26.5 9.9 35.1 16.1 7.2 5.2 19.1 17.1 24.2 24.1 4.3 6.1 11 19 13.6 26.5 5.4 15.5 5.1 9.8 5.7 132l.6 113.5 3.1 6.5c5 10.3 12.2 16.5 22.8 19.6 16.1 4.5 33.4-3.2 40.8-18.4l3.3-6.7.3-110c.3-128.7.3-129.2-8.8-156.6-19.3-58.1-68.9-103.2-128-116.3-17.7-3.9-28.9-4.6-72.1-4.6H776V93c0-46.9-36.1-86.8-83.2-91.9C681.4-.2 343.5-.2 332.9 1zm359.6 72.7c5.1 2.7 9 6.8 10.9 11.5 2.4 5.6 2.4 101 0 106.6-1.9 4.7-5.8 8.8-10.9 11.5l-4 2.2-172 .3c-124.3.2-173.4 0-177.2-.8-3.9-.8-6.5-2.3-10.2-5.6-8.1-7.3-8.1-7.1-8.1-60.6 0-30.2.4-47.4 1.1-50.3 1.9-7.5 9.3-14.6 17.4-16.6 1.7-.4 80.9-.6 176-.6l173 .2 4 2.2z"/>
	<path d="M268.3 453.1c-7.1 2.7-15.5 10.6-19 17.7-2.5 5-2.8 6.8-2.8 15.2 0 8.3.3 10.2 2.8 15.1 3.6 7.5 11.7 15 19 17.7l5.8 2.2h197.3c216.7 0 200.7.5 210.2-6 9.2-6.4 14.7-17.2 14.8-29 .1-8.1-2.3-15-7.2-21.5-3.9-5.2-12.1-10.8-18.2-12.5-2.2-.6-75.3-1-200.5-.9-195 0-197.1 0-202.2 2zm722.2 152c-21.3 2.9-44.4 12.4-61.4 25.1-6.3 4.7-317.8 315.2-327.6 326.5-6.7 7.8-11.5 16-14.6 25-2.3 6.8-20.9 116.2-20.9 123.2 0 13.5 5.7 30.2 14.1 41.4 12.9 17.1 32.8 27 54.4 27 11.4 0 113-17 124.6-20.9 4.2-1.3 10.9-4.7 15-7.4 5.8-3.8 42.9-40.5 171-168.7 175.7-175.9 169.7-169.6 178.9-188.9 23-48 14.4-105-21.5-143.2-18.2-19.4-38-30.7-64.5-36.8-12-2.8-35.6-4-47.5-2.3zm31.4 70.4c37.6 8.9 55.5 52.4 35.3 86-3.6 6-44.4 48.5-46.6 48.5-.6 0-19.2-18.1-41.4-40.3l-40.3-40.3 23.3-23c24.8-24.4 27.7-26.5 41.3-30.5 7.5-2.2 20-2.3 28.4-.4zM920 820.5l40.5 40.5-112.3 112.3L736 1085.5l-49.1 9.8c-27 5.4-49.2 9.7-49.4 9.5-.2-.2 3.4-22.7 7.9-50.1l8.2-49.8 112.5-112.5C827.9 830.6 878.7 780 879 780c.3 0 18.7 18.2 41 40.5zM268.3 654.1c-7.1 2.7-15.5 10.6-19 17.7-2.5 5-2.8 6.8-2.8 15.2 0 8.1.4 10.3 2.6 15 4.7 10.1 14.3 17.5 25.7 19.9 7 1.5 175.5 1.6 183.3.1 7.5-1.4 13.7-4.7 18.9-10 17.3-17.2 12.2-46.5-9.9-56.9l-5.6-2.6-94-.2c-92.2-.2-94.1-.2-99.2 1.8z"/>
</symbol>
<symbol id="subway" viewBox="0 0 50 50">
	<path d="M9.81 0h30.5q1.37 1.27.35 2.58-.32.42-.85.42h-4.06q-.83 0-.76.82l.13 1.49q.05.67.71.82 4.79 1.08 5.7 5.36 1.15 5.47 1.45 17.59c.12 5.1-.66 8.67-6.38 8.94q-.77.04-.37.69 3.25 5.27 4.82 11.29h-1.86l-3.01-5.27a1.46 1.45 75 0 0-1.26-.73H14.8a1.11 1.1-79.6 0 0-1.03.72q-1.13 2.95-3.08 5.28H8.93q1.35-6.07 4.96-11.19a.45.45 0 0 0-.33-.7c-5.94-.46-6.89-4.14-6.59-9.54q.42-7.68 1.09-15.37.51-5.89 6.31-7.18 1.64-.36.89-1.87c-.9-1.8-3.74-1-5.39-1.23q-.51-.07-.72-.53Q8.46.91 9.81 0Zm22.3 4.108a1.12 1.12 0 0 0-1.123-1.118l-11.9.02a1.12 1.12 0 0 0-1.118 1.122l.002.76a1.12 1.12 0 0 0 1.122 1.118l11.9-.02a1.12 1.12 0 0 0 1.118-1.122l-.002-.76Zm5.86 6.39a1.43 1.43 0 0 0-1.433-1.428l-23.06.04a1.43 1.43 0 0 0-1.427 1.433v.06a1.43 1.43 0 0 0 1.433 1.427l23.06-.04a1.43 1.43 0 0 0 1.427-1.433v-.06Zm-1.58 4.432-22.8.08a.11.11 0 0 0-.11.11v.04a9.12 8.93-.2 0 0 9.16 8.9l4.78-.02a9.12 8.93-.2 0 0 9.08-8.96v-.04a.11.11 0 0 0-.11-.11ZM21.56 30.41q3.66-2.19 7.59.29.45.28.65.77l1.14 2.64q.23.54.8.68c3.39.84 8.42 1.27 8.48-3.55q.09-6.05-.88-12.12a.53.52-43.3 0 0-1.03-.03c-2.22 9.88-13.94 7.25-21.21 6.9q-.54-.03-.97-.37-3.16-2.5-4.56-6.36a.61.61 0 0 0-1.18.17l-.84 12.78q-.11 1.72 1.53 2.26 3.54 1.16 7.11.43.57-.12.82-.64c.8-1.72.85-2.84 2.55-3.85Zm.66 4.57h5.58a.16.16 0 0 0 .16-.15v-.08a2.76 2.4.1 0 0-2.76-2.41h-.38a2.76 2.4.1 0 0-2.76 2.39v.08a.16.16 0 0 0 .16.17Zm11.71 4.496a1.39 1.39 0 0 0-1.387-1.393l-15.08-.026a1.39 1.39 0 0 0-1.393 1.387v.18a1.39 1.39 0 0 0 1.387 1.393l15.08.026a1.39 1.39 0 0 0 1.393-1.387v-.18Z"/>
	<path d="M17.68 31.39a.67.67 0 0 1-.65.69l-2.41.09a2.53 1.34-2.1 0 1-2.58-1.25l-.01-.36a2.53 1.34-2.1 0 1 2.47-1.43l2.42-.09a.67.67 0 0 1 .7.65l.06 1.7Zm14.93.56a.54.54 0 0 1-.54-.55v-.21a2.47 2.21.1 0 1 2.47-2.2h.96a2.47 2.21.1 0 1 2.47 2.22v.21a.54.54 0 0 1-.54.53h-4.82Z"/>
</symbol>
<symbol id="triangle-down">
	<path d="m183.2 15.7-81.8 141.8c-2.9 5-9.3 6.7-14.3 3.8-1.6-.9-2.9-2.2-3.8-3.8L1.4 15.7C-1.5 10.7.2 4.3 5.2 1.4 6.8.5 8.6 0 10.5 0h163.7c5.7 0 10.4 4.7 10.4 10.4 0 1.9-.5 3.7-1.4 5.3z"/>
</symbol>
<symbol id="triangle-right">
	<path d="m15.7 1.4 141.8 81.8c5 2.9 6.7 9.3 3.8 14.3-.9 1.6-2.2 2.9-3.8 3.8L15.7 183.2c-5 2.9-11.4 1.2-14.3-3.8-.9-1.6-1.4-3.4-1.4-5.3V10.4C0 4.7 4.7 0 10.4 0c1.9 0 3.7.5 5.3 1.4z"/>
</symbol>
<symbol id="tw" viewBox="0 0 512 512">
	<path d="M512 97.248c-19.04 8.352-39.328 13.888-60.48 16.576 21.76-12.992 38.368-33.408 46.176-58.016-20.288 12.096-42.688 20.64-66.56 25.408C411.872 60.704 384.416 48 354.464 48c-58.112 0-104.896 47.168-104.896 104.992 0 8.32.704 16.32 2.432 23.936-87.264-4.256-164.48-46.08-216.352-109.792-9.056 15.712-14.368 33.696-14.368 53.056 0 36.352 18.72 68.576 46.624 87.232-16.864-.32-33.408-5.216-47.424-12.928v1.152c0 51.008 36.384 93.376 84.096 103.136-8.544 2.336-17.856 3.456-27.52 3.456-6.72 0-13.504-.384-19.872-1.792 13.6 41.568 52.192 72.128 98.08 73.12-35.712 27.936-81.056 44.768-130.144 44.768-8.608 0-16.864-.384-25.12-1.44C46.496 446.88 101.6 464 161.024 464c193.152 0 298.752-160 298.752-298.688 0-4.64-.16-9.12-.384-13.568 20.832-14.784 38.336-33.248 52.608-54.496z" data-original="#03a9f4"/>
</symbol>
<symbol id="ua">
	<mask id="a">
		<circle cx="256" cy="256" r="256" fill="#fff"/>
	</mask>
	<g mask="url(#a)">
		<path fill="#ffda44" d="m0 256 258-39.4L512 256v256H0z"/>
		<path fill="#338af3" d="M0 0h512v256H0z"/>
	</g>
</symbol>
<symbol id="uk">
	<mask id="a">
		<circle cx="256" cy="256" r="256" fill="#fff"/>
	</mask>
	<g mask="url(#a)">
		<path fill="#eee" d="m0 0 8 22-8 23v23l32 54-32 54v32l32 48-32 48v32l32 54-32 54v68l22-8 23 8h23l54-32 54 32h32l48-32 48 32h32l54-32 54 32h68l-8-22 8-23v-23l-32-54 32-54v-32l-32-48 32-48v-32l-32-54 32-54V0l-22 8-23-8h-23l-54 32-54-32h-32l-48 32-48-32h-32l-54 32L68 0H0z"/>
		<path fill="#0052b4" d="M336 0v108L444 0Zm176 68L404 176h108zM0 176h108L0 68ZM68 0l108 108V0Zm108 512V404L68 512ZM0 444l108-108H0Zm512-108H404l108 108Zm-68 176L336 404v108z"/>
		<path fill="#d80027" d="M0 0v45l131 131h45L0 0zm208 0v208H0v96h208v208h96V304h208v-96H304V0h-96zm259 0L336 131v45L512 0h-45zM176 336 0 512h45l131-131v-45zm160 0 176 176v-45L381 336h-45z"/>
	</g>
</symbol>
</svg>