<?xml version="1.0" encoding="UTF-8"?>
<!DOCTYPE svg PUBLIC "-//W3C//DTD SVG 1.1//EN" "http://www.w3.org/Graphics/SVG/1.1/DTD/svg11.dtd">
<svg xmlns="http://www.w3.org/2000/svg" xmlns:xlink="http://www.w3.org/1999/xlink">
<symbol id="arrow-right" viewBox="0 0 16.871 14.494">
  <g data-name="Group 385" fill="none" stroke="#fff" stroke-linecap="round" stroke-width="3">
    <path data-name="Line 14" d="M1.5 7.247h13.25"/>
    <path data-name="Line 15" d="m9.874 2.12 4.876 5.127"/>
    <path data-name="Line 16" d="m14.75 7.247-4.876 5.127"/>
  </g>
</symbol>
<symbol id="chevron-down" viewBox="0 0 14 8">
  <path data-name="Polygon 3" d="M7.753 7.14a1 1 0 0 1-1.505 0l-4.8-5.481A1 1 0 0 1 2.2 0h9.6a1 1 0 0 1 .753 1.659Z" fill="#121212"/>
</symbol>
<symbol id="fb" viewBox="0 0 512 512">
  <path xmlns="http://www.w3.org/2000/svg" d="M344.9 140.6V84.7s-57.2-.5-61.1-.5c-25.9 0-63 29.4-63 62.8v59.9h-53.6v63.5H220V428h62.5V269.6h55.3l7-62.1h-61.6v-45.6c0-10.9 8.2-21.7 20.6-21.7 8.3.1 41.1.4 41.1.4z" fill="currentColor" data-original="#000000"/>
</symbol>
<symbol id="globe" viewBox="0 0 512 512">
  <path d="M95.77 238.58c3.45 174.95 233 232.12 318.88 82.35 29.18-48.93 29.18-118.82 0-167.75C327.24 2 96.69 61.71 95.77 238.58zm33.5-75.07c7.55.88 23.43 2.6 44.75 4.2a273.5 273.5 0 0 0-8.47 61.84h-54.61a154.38 154.38 0 0 1 18.33-66.04zm292.3 66H367a274.07 274.07 0 0 0-8.46-61.84c21.16-1.57 37-3.27 44.76-4.16a154.33 154.33 0 0 1 18.27 66.04zm-18.31 81c-7.73-.89-23.59-2.6-44.76-4.18a273.4 273.4 0 0 0 8.5-61.78h54.61a154.29 154.29 0 0 1-18.35 66zm-144.5-7.68c-25.43.18-49.22 1.22-69.51 2.5a257.09 257.09 0 0 1-8.7-60.82h78.21zm0 15v74.07c-29.09-3.67-54.34-39.87-64.89-71.83 19.18-1.07 41.31-2.07 64.89-2.2zm15 74.07v-74.04c23.58.15 45.72 1.05 64.9 2.2-10.55 31.94-35.82 68.21-64.9 71.88zm0-89.08v-58.27H352a256.75 256.75 0 0 1-8.69 60.77C323 304 299.2 303 273.76 302.86zM352 229.55h-78.2v-58.31c25.41-.17 49.2-1.2 69.51-2.48a256.92 256.92 0 0 1 8.69 60.79zm-78.2-73.31V82.16c29.09 3.68 54.34 39.89 64.89 71.86-19.23 1.15-41.37 2.06-64.93 2.22zm-15-74.08v74.08c-23.6-.15-45.74-1.06-64.9-2.22 10.51-31.96 35.78-68.19 64.86-71.86zm0 89.09v58.3h-78.25a257.43 257.43 0 0 1 8.69-60.79c20.28 1.24 44.06 2.32 69.52 2.49zm-93.21 73.3a273.68 273.68 0 0 0 8.41 61.87c-21.3 1.6-37.2 3.31-44.74 4.18a154.26 154.26 0 0 1-18.34-66.05zm-27.69 80.18c9.08-1 23.08-2.33 40.47-3.59 7.67 23.14 19.69 46.07 36 62.49a156.25 156.25 0 0 1-76.47-58.9zm180.27 58.9c16.3-16.45 28.31-39.37 36-62.54 17.36 1.25 31.35 2.61 40.5 3.59a156.24 156.24 0 0 1-76.5 58.95zm76.47-234.22c-9.15 1-23.15 2.33-40.49 3.58-7.67-23.15-19.69-46.08-36-62.52a156.31 156.31 0 0 1 76.49 58.94zm-180.3-58.94c-16.29 16.45-28.3 39.36-36 62.52-17.41-1.26-31.41-2.63-40.48-3.61a156.35 156.35 0 0 1 76.48-58.91z" fill="currentColor" data-original="#000000"/>
</symbol>
<symbol id="search" viewBox="0 0 64 64">
  <path d="M27 9C17.075 9 9 17.075 9 27s8.075 18 18 18c4.13 0 7.926-1.413 10.967-3.76l13.082 13.082a2.315 2.315 0 1 0 3.273-3.273L41.24 37.967C43.587 34.927 45 31.129 45 27c0-9.925-8.075-18-18-18zm0 4c7.719 0 14 6.281 14 14s-6.281 14-14 14-14-6.281-14-14 6.281-14 14-14z"/>
</symbol>
</svg>