<svg data-name="Group 201" xmlns="http://www.w3.org/2000/svg" width="116.691" height="193" viewBox="0 0 116.691 193"><defs><clipPath id="a"><path data-name="Rectangle 95" fill="none" d="M0 0h116.691v193H0z"/></clipPath></defs><g data-name="Group 200" clip-path="url(#a)"><path data-name="Path 671" d="M113.736 76.259s3.269 12.252 2.932 16.744-6.006 17.249-6.006 17.249-4.9-7.449-4.9-16.024a109.8 109.8 0 0 1 1.828-17.969Z" fill="#ffc5b3"/><path data-name="Path 672" d="m110.783 84.745 5.91-2.163a91.737 91.737 0 0 0-2.923-10.453c-.952-2.248-1.844-4.6-4.724-5.151a3.5 3.5 0 0 0-4.139 2.935c-.518 2.955 5.876 14.831 5.876 14.831" fill="#d89c55"/><path data-name="Path 673" d="M109.573 185.241c-.835 1.989-2.762 1.8-6.654.4a33.452 33.452 0 0 1-8.76-4.467c-2.457-1.817-2.482-2.058-2.806-3.288-.454-1.721 2.058-2.686 6.234-1.388.413.129.792.252 1.149.369a2.527 2.527 0 0 0-1.907 1.056c-.759 1.425 1.615 2.953 4.112 4.2s4.543 1.25 5.793.682c.915-.417 2.143-.952 2.737-1.209.253 1.67.6 2.444.1 3.639" fill="#000206"/><path data-name="Path 674" d="M97.995 164.541c.03.344-.1-3.072-.195-7.4a36.069 36.069 0 0 1-9.161 2.584c.268 1.925.553 3.845.835 5.667.707 8.283 1.324 19.04 1.324 19.04s-1.15-.516-3.455-1.275a2.535 2.535 0 0 0-1.909 1.058c-.759 1.425 1.615 2.953 4.114 4.2s4.543 1.25 5.793.682c.915-.417 2.141-.95 2.737-1.209a20.071 20.071 0 0 1-.1-4.9c.381-4.453.243-12.8.012-18.44" fill="#ffc5b3"/><path data-name="Path 675" d="M109.827 158.037c.082-1.044.2-2.186.317-3.377a23.484 23.484 0 0 1-9.081 1.06c.17 3.315.337 6.367.456 8.2.4 6.2.67 14.218.67 14.218s-1.15-.516-3.455-1.275a2.529 2.529 0 0 0-1.907 1.058c-.759 1.425 1.615 2.953 4.112 4.2s4.545 1.248 5.793.681c.915-.415 2.143-.95 2.739-1.209a20.045 20.045 0 0 1-.1-4.9c.317-3.7.177-15.108.454-18.659" fill="#ffc5b3"/><path data-name="Path 676" d="M98.182 191.527c-.835 1.989-2.762 1.8-6.654.4a33.452 33.452 0 0 1-8.76-4.467c-2.457-1.817-2.482-2.058-2.806-3.288-.454-1.719 2.058-2.686 6.234-1.388.413.129.792.252 1.149.369a2.527 2.527 0 0 0-1.907 1.056c-.759 1.425 1.613 2.953 4.112 4.2s4.543 1.25 5.793.682a169.54 169.54 0 0 1 2.737-1.209c.253 1.67.6 2.444.1 3.639" fill="#000206"/><path data-name="Path 677" d="M111.742 145.101c-.443 6.349-1.051 28.078-1.762 32.038-2.5 1.473-7.47 1.478-9.907-1.477 0-6.149.822-19.871.665-25.407-.174-6.057 1.243-20.236 1.051-23.193-1.943 5.614-2.857 8.22-3.352 18.038-.778 15.448.495 35.89.317 39.277-4.664 1.26-7 .59-8.682-1.448-.016-1.209-4.079-30.813-4.088-32.675-.03-7.755 1.4-34.413 2.57-40 .782-3.746 1.282-8.3 1.282-8.3l18.524-2.292s-.812-.33 2.421 7.314a31.415 31.415 0 0 1 2.3 17.136c-.346 2.836-1.237 18.611-1.335 20.991" fill="#cc8c46"/><path data-name="Path 678" d="M96.815 44.931c-.966.67-4.917.555-5.924 8.5-.892 7.035 1.149 7.684 2.577 8.28.789.33 3.666 1.273 3.666 1.273l-.319 7.115a10.094 10.094 0 0 0 6.826 0l3.341-1.377a11.751 11.751 0 0 1-1.087-6.147c.269-4.83 1.982-11.712.771-14.27-2.187-4.621-7.23-5.19-9.852-3.37" fill="#ffc5b3"/><path data-name="Path 679" d="M113.665 111.183c-1.056 1.36-2.542 1.542-4.784 2.257a11.267 11.267 0 0 0-1.787-3.915s-.656 3.095-1 4.985c-1.937.463-5.555 1.017-6.4 1.118-3.754.448-10.65-1.859-12.408-4.627 2.282-7.153 3.337-20.976 3.337-20.976s-3.352-9.124-.957-13.934 5.456-5.376 7.75-6.153c2.43-.822 10.228-2.2 10.228-2.2s7.394 5.77 5.757 12.979a69.927 69.927 0 0 0-1.658 13.208c-.172 2.74 1.872 14.58 1.923 17.26" fill="#e8b470"/><path data-name="Path 680" d="M87.085 82.306s-2.655 5.784-4.568 11.168c-2.191.659-5.176 2.175-8.829 3.7-4.875 2.033-6.316 2.785-8.088 2.292s-3.692.028-5.687-.463-1.792 1.032-.684 1.328a4.21 4.21 0 0 1 1.884 1.218s-1.425.778-4.155 2.051c-2.439 1.136-2.152 3.255-.055 3.324 3.545.113 8.42-1.638 10.636-2.549s15.071-1.6 19.745-4.486c.72-.443 2.384-2.815 3.465-4.97 2.512-5 4.552-10.024 4.552-10.024Z" fill="#ffc5b3"/><path data-name="Path 681" d="M92.357 72.423c1.443-.351 4.212.874 5.153 4.1 1.441 4.942-.454 7.285-1.569 9.749-.363.8-1.925 3.634-1.925 3.634a9.214 9.214 0 0 1-5.928-1.329 6.155 6.155 0 0 1-2.935-3.324s.9-3.481 1.888-6.61c.869-2.753 2.448-5.523 5.316-6.224" fill="#d89c55"/><path data-name="Path 682" d="M94.677 70.92a4.244 4.244 0 0 1 3.352-2.5c7.066-.68 8.237-1.676 8.237-1.676a2.259 2.259 0 0 1 2.283 1c.459.8.853 1.454.853 1.454s-8.3 4.118-14.722 1.727" fill="#d89c55"/><path data-name="Path 683" d="M90.229 50.532a22.7 22.7 0 0 0 4.285 2.3c-.745 12.687-3.306 15.321 1.815 18.38 1.514.9 4.7 2.067 5.277 7.31.893 8.069 5.929 9.657 5.929 9.657s5.268-5.043 5.367-17.2c.051-6.374-.433-22.906-2.875-25.88-3.944-4.8-8.216-4.887-12.288-3.18-3.228-.757-6.685.674-7.509 8.608" fill="#000206"/><path data-name="Path 684" d="M54.983 54.845c-.9-1.069-6.22-7.892-8.47-11.378s-5.474-11.362-5.474-11.362l-5.188 9.7s4.963 8.113 8.26 13.045 11.183 9.019 13.326 12.9c3.373 6.1 3.237 5.991 6.149 8.087 1.53 1.1 6.385 3.731 4.986-1.9-.388-1.558-1.615-1.966-2.272-2.7-.553-.624-1.12-1.15-.5-1.551s2.383-.199 2.826-.493c1.407-.931-2.062-1.406-2.935-1.906a13.478 13.478 0 0 1-4.1-3.324c-3.519-4.336-6.124-8.539-6.61-9.118" fill="#ffc5b3"/><path data-name="Path 685" d="m29.993 22.34 2.012 15.9s2.067 3.134 4.41 6.451c4.139-1.922 8.1-5.086 10.1-8.711a111.172 111.172 0 0 0-7.553-10.341c-4.462-5.7-8.968-3.3-8.968-3.3" fill="#c1c1c1"/><path data-name="Path 686" d="M47.201 144.491a124.931 124.931 0 0 1-4.261-4.357l-11.089-.472v3.668a4.6 4.6 0 0 0 2.06 2.606 47.243 47.243 0 0 0 6.947 3.62 41.689 41.689 0 0 0 9.274 2.007c2.327.09 3.336-1.007 2.113-2.2-2.092-2.042-2.79-2.675-5.043-4.873" fill="#1e1e1e"/><path data-name="Path 687" d="m13.959 144.699-10-1.126a26.054 26.054 0 0 0 .943 12.913c2.338 6.555 6.447 6.621 7.89 6.1s2.108-4.687 1.852-9.408-.682-8.478-.682-8.478" fill="#1e1e1e"/><path data-name="Path 688" d="M36.275 61.385s-21.028-6.344-20.438-1.811c0 0-7.415 7.073-6.553 20.525.4 6.178-1.262 20.2-1.78 30.812C1.294 124.88.075 141.018.075 141.018s-.948 2.7 3.882 5.11 11.88-.1 11.88-.1 0-20.812 5.6-32.618c3.063-6.456 3.887-28.828 3.887-28.828l4.829 23.972.431 30.395s3.437 3.393 7.606 3.409c5.433.021 5.706-3.15 5.706-3.15s.947-26.036-1.216-40.621c-1.9-12.832-6.4-37.2-6.4-37.2" fill="#045999"/><path data-name="Path 689" d="M28.701 22.551a3.061 3.061 0 0 0-1.4 1.315l-11.1.2s-8.975 4.696-11.1 11.686a30.783 30.783 0 0 0 .4 6.777c.326.2 2.436-.14 2.59.31 2.822 8.218 2.446 18.256 1.854 26.515 1.03 2.1 1.865 2.7 4.277 3.519 7.2 2.43 18.442.234 22.741-2.17-2.362-16.174 4.577-36.467-8.262-48.152" fill="#ddd"/><path data-name="Path 690" d="M27.05 34.419s-.636 5.229-1.007 6.353l-.482 1.462 4.049 4.667 2.24-5.247s-2.857-6.915-3.416-7.759-1.384.525-1.384.525" fill="#045999"/><path data-name="Path 691" d="M37.22 41.015c-1.427-12.653-6.644-18.806-6.644-18.806l-4.522.076s3.591 7.92 3.939 11.485a33.808 33.808 0 0 1-1.044 11.474s-4.276-11.144-8.87-15.8c-4.24-4.3-5.265-4.561-5.265-4.561L11.1 27.495a24.479 24.479 0 0 1 4.628 15.971c-.7 7.916-6.247 9.468-6.247 9.468L8.094 72.351s7.069 5.242 12.6 5.624c7.161.495 18.04-4.781 18.04-4.781a130.711 130.711 0 0 1-1.215-14.314c0-8.78-.037-15.54-.3-17.864" fill="#1e1e1e"/><path data-name="Path 692" d="m26.052 22.283-8.433-6.124-1.781 9.907a15.627 15.627 0 0 0 4.24 3.375 43.931 43.931 0 0 0 6.972 2.84c.97-1.734 0-4.18 0-4.18Z" fill="#ffad97"/><path data-name="Path 693" d="M16.632 5.27c-1.865 2.377-2.443 8.333.126 12.525 2.28 3.724 7.486 5.832 9.8 6.2 4.13.667 8.583-10.738 3.87-17.714C25.931-.365 19.032 2.21 16.632 5.27" fill="#ffc5b3"/><path data-name="Path 694" d="M20.599.219c-5.516.9-7.908 7.558-7.8 10.584a8.614 8.614 0 0 0 3.958 6.989s-.6-2.413-.071-3.462c.456-.9 1.888-1.051 2.37.544a3.7 3.7 0 0 0 1.17.115l-.483-3.19a15.445 15.445 0 0 0 5.715.562c3.873-.355 5.488-1.817 6.394-3.4C30.612.971 26.117-.683 20.599.219" fill="#000206"/><path data-name="Path 695" d="M27.05 64.546c-4.3-2.01-17.694-7.456-17.694-7.456s1.739-13.012 2.049-18.055-7.459-3.187-7.459-3.187-2.654 8.51-2.829 13.336-1.622 12.332.126 14.766c1.386 1.929 18.545 5.112 24.318 6.17a28.3 28.3 0 0 1 1.489-5.575" fill="#ffc5b3"/><path data-name="Path 696" d="M35.449 65.949c-1.391-.675-4.306-.909-4.88-1.431-.514-.47 1.464-1.415 1.579-2.108.16-.954-.2-1.078-.714-.874a42.768 42.768 0 0 1-7.693 1.54c-.741 2.163.448 4.414 0 6.66 3.909.76 8.326 2.111 9.641 2.216 6 .477 4.738-4.706 2.067-6" fill="#ffc5b3"/><path data-name="Path 697" d="M9.292 28.877c-6.178.817-6.989 7.4-8.675 16.716 4.339 2.155 8.106 3.568 12.18 1.009.37-1.838.968-4.575 1.033-5.584.269-4.2-1.111-12.593-4.538-12.141" fill="#c1c1c1"/><path data-name="Path 698" d="M26.323 23.866a52.677 52.677 0 0 1 .544 7.5l4.985-2.335-2.723-6.076c-.25.28-1.627 1.36-2.806.911" fill="#fff"/><path data-name="Path 699" d="M16.49 22.457a7.263 7.263 0 0 0-1.138 2.46c-.035.854 1.737 5.231 3.866 8 2.228-1.17 7.835-1.17 7.835-1.17s-3.193-3.081-5.063-4.564-5.5-4.726-5.5-4.726" fill="#fff"/><path data-name="Path 700" d="M26.252 31.339c-.856.3-1.326.447-1.326.447s.939 2.8 1.76 3.363a1.608 1.608 0 0 0 1.968-.562c.532-.9-.472-3.838-.472-3.838a20.083 20.083 0 0 0-1.93.59" fill="#045999"/><path data-name="Path 701" d="m32.513 54.222.383-.98c.156-.4 2.921-15.507 1.563-21.75a25.321 25.321 0 0 0-4.467-9.547 11.8 11.8 0 0 1-.511.647 23.568 23.568 0 0 1 4.112 9.088c1.053 4.855-.275 17.657-1.173 20.263-1.12-2.226-5.128-13.529-9.7-18.632a58.378 58.378 0 0 0-8.856-7.546c-.877-.636-1.285.23-.984.48.688.569 1.42 1.078 2.23 1.638a35.43 35.43 0 0 1 6.949 6.016c5.702 6.366 9.986 19.292 10.02 19.366Z" fill="#df3f33"/><path data-name="Path 702" d="m35.02 48.589.592 8.907v.009l-5.66 3.27-.59-8.916Z" fill="#fff"/><path data-name="Path 703" d="m34.65 49.42.066 1-4.809 2.779-.064-1Z" fill="#df3f33"/><path data-name="Path 704" d="m32.96 52.292.42 5.85-2.911 1.679-.42-5.85Z" fill="#ddd"/></g></svg>