<svg data-name="Group 13" xmlns="http://www.w3.org/2000/svg" width="119.471" height="77.552" viewBox="0 0 119.471 77.552"><defs><clipPath id="a"><path data-name="Rectangle 11" fill="none" d="M0 0h119.471v77.552H0z"/></clipPath></defs><g data-name="Group 12" clip-path="url(#a)" fill="#838383"><path data-name="Path 37" d="M44.838 50.192v-4.325c-.821-.216-1.592-.44-2.375-.62-.374-.088-.494-.25-.494-.647 0-7.282.034-14.566-.047-21.848a5.285 5.285 0 0 1 1.626-4.138c3.708-3.748 7.28-7.629 10.9-11.465q3.185-3.381 6.348-6.788c.363-.392.6-.5 1.107-.144q10.145 7.168 20.324 14.284c1.854 1.3 3.705 2.6 5.573 3.888a.937.937 0 0 1 .462.88q-.017 18.883-.009 37.766c0 .2-.023.395-.038.67-.311-.068-.571-.108-.821-.176l-14.561-3.974c-1.969-.537-3.933-1.087-5.909-1.6-.413-.108-.372-.359-.372-.659q.017-11.228.025-22.455v-2.116l-12.286.735v20.772c-3.146.652-6.24 1.292-9.454 1.96M67.661 25.55v1.159q0 11.769-.027 23.538a.833.833 0 0 0 .749.956q8.809 2.388 17.609 4.808c.354.1.719.158 1.164.253v-1.37q0-17.33.016-34.665a1.644 1.644 0 0 0-.812-1.529q-7.985-5.554-15.934-11.16-4.215-2.957-8.428-5.92c-.381-.271-.656-.289-.967.095-.338.417-.724.8-1.094 1.188q-8.2 8.7-16.389 17.4a1.874 1.874 0 0 0-.458 1.177c-.029 7.059-.023 14.118-.023 21.176 0 1.631 0 1.631 1.588 2.032.036.009.081-.025.2-.065V25.094c1.592.235 3.1.462 4.612.677a32.885 32.885 0 0 0 4.47.573c2.264 0 4.531-.248 6.8-.386s4.528-.268 6.923-.408M53.176 47.324V27.401l-7.243-1.049v22.483l7.241-1.511m34.868 9.9.065.027V19.138h-.064Zm-.584-37.168-.061.016v35.271h.061Z"/><path data-name="Path 38" d="M111.688 76.363c-.043.334-.072.568-.106.846h-2.451V60.987c.735 0 1.45-.029 2.16.027.129.011.329.368.332.568.025 1.955.014 3.908.014 5.864v.577a12.1 12.1 0 0 1 2.348-.958 4.452 4.452 0 0 1 5.124 3.155 5.518 5.518 0 0 1-1.22 5.931 4.356 4.356 0 0 1-5.825.456c-.088-.063-.183-.12-.374-.244m5.228-4.156a2.715 2.715 0 1 0-2.657 2.966 2.8 2.8 0 0 0 2.657-2.966"/><path data-name="Path 39" d="M88.147 61.105c.025.735.065 1.47.072 2.206.011 1.3 0 2.607.007 3.911 0 .239.023.476.041.828.264-.14.435-.219.6-.318a4.544 4.544 0 0 1 6.84 2.463 5.7 5.7 0 0 1-1.631 6.3 4.332 4.332 0 0 1-5.2.28c-.162-.106-.334-.194-.55-.32l-.158.746h-2.52V61.655a3.374 3.374 0 0 1 .095-.573v15.861a.29.29 0 0 0 .127-.253V61.515a2.234 2.234 0 0 0-.095-.444h2.348a5.308 5.308 0 0 0-.088.647c-.007 1.773 0 3.545 0 5.318v.864l.122-.007Zm5.311 11.1a2.686 2.686 0 0 0-2.69-2.887 2.748 2.748 0 0 0-2.7 2.925 2.791 2.791 0 0 0 2.765 2.939 2.756 2.756 0 0 0 2.623-2.977m-5.773-10.951c0-.059-.007-.12-.009-.178l-.395.061c0 .041.009.079.016.117Z"/><path data-name="Path 40" d="M16.164 68.134c.036-.347.061-.568.088-.841h2.462c.014.216.036.435.036.652 0 2.875-.007 5.751.016 8.626 0 .546-.12.771-.717.7a15.014 15.014 0 0 0-1.779-.016c-.036-.275-.068-.532-.111-.875a10.236 10.236 0 0 1-1.085.672 4.711 4.711 0 0 1-6.621-3.8 5.617 5.617 0 0 1 1.411-4.926 4.467 4.467 0 0 1 5.791-.532c.14.1.282.192.5.341m-5.215 4.039a2.789 2.789 0 0 0 2.616 3 2.746 2.746 0 0 0 2.754-2.8 2.689 2.689 0 0 0-2.695-3.022 2.616 2.616 0 0 0-2.675 2.822"/><path data-name="Path 41" d="m62.422 77.243-.074-.792a11.25 11.25 0 0 1-1.793.866 4.79 4.79 0 0 1-5.954-4.346 5.187 5.187 0 0 1 2.959-5.654 4.325 4.325 0 0 1 4.756.871c.027-.183.052-.32.068-.458s.02-.264.034-.444h2.469c.016.192.043.386.043.58 0 2.918 0 5.839.011 8.757 0 .453-.1.661-.6.629-.622-.036-1.247-.009-1.919-.009m-5.3-5.034a2.694 2.694 0 1 0 5.365.074 2.693 2.693 0 1 0-5.365-.074"/><path data-name="Path 42" d="M21.898 77.211h-.277V62.663c0-1.446-.316-1.486 1.486-1.5.541 0 .683.162.679.69-.023 2.76-.011 5.523-.009 8.283v.584h.14v-9.55c.023.241.068.485.068.728q.01 4.181 0 8.362v.71c.052.025.106.047.158.07a20.162 20.162 0 0 0 1.9-2.109 3.436 3.436 0 0 1 3.737-1.7 6.368 6.368 0 0 0 .972.007c-.341.417-.586.744-.857 1.049-1 1.121-2 2.248-3.036 3.34-.32.341-.253.534.027.832 1.294 1.369 2.573 2.756 3.854 4.138.162.176.313.363.562.65-1.06 0-1.994.023-2.927-.018a1.085 1.085 0 0 1-.591-.388q-1.543-1.644-3.058-3.317a4.189 4.189 0 0 1-.402-.679l-.283.2-.129 4.093v-4.216a27.935 27.935 0 0 0-.126 3.606c.009.44-.133.593-.575.582a11.734 11.734 0 0 0-1.313.1"/><path data-name="Path 43" d="M83.729 72.925c-.419.025-.841.072-1.263.074-1.958.007-3.913 0-5.87 0h-.668a2.709 2.709 0 0 0 3.475 2.163 4.254 4.254 0 0 0 1.27-.589.779.779 0 0 1 .913-.1c.512.275 1.04.514 1.64.805a4.686 4.686 0 0 1-2.465 1.926 5.584 5.584 0 0 1-6.457-1.867 5.3 5.3 0 0 1-.167-5.868 4.856 4.856 0 0 1 5.016-2.463 4.865 4.865 0 0 1 4.409 3.329 7.854 7.854 0 0 1 .266 1.376l-.221 1.071h-7.584v.144Zm-7.688-1.985h5.21a2.461 2.461 0 0 0-2.3-1.784 2.678 2.678 0 0 0-2.909 1.784"/><path data-name="Path 44" d="M34.031 73.853c1.561 1.689 2.72 1.831 4.788.6a.543.543 0 0 1 .417-.074c.638.264 1.261.562 1.948.873a4.94 4.94 0 0 1-3.538 2.19 5.325 5.325 0 0 1-5.85-2.869 5.467 5.467 0 0 1 2.163-6.982 5.406 5.406 0 0 1 7.111 1.815 8.071 8.071 0 0 1 .541 1.561 10.668 10.668 0 0 0-.007 1.139c.05.53-.138.692-.674.686-2.127-.029-4.251-.014-6.378-.011-.237 0-.476.02-.9.041.156.415.268.724.383 1.031m-.032-2.909h5.2a2.461 2.461 0 0 0-2.297-1.782 2.607 2.607 0 0 0-2.907 1.784"/><path data-name="Path 45" d="M106.644 77.245c-.611 0-1.218-.025-1.82.009-.467.025-.629-.122-.62-.6.029-1.5.023-3.011 0-4.515a8.184 8.184 0 0 0-.16-1.538 1.6 1.6 0 0 0-2.672-.864 2.881 2.881 0 0 0-.945 2.289c-.023 1.484-.011 2.966-.014 4.45v.719h-2.51c-.023-.341-.068-.688-.068-1.035 0-2.742.029-5.482.007-8.222 0-.577.183-.742.728-.7.577.041 1.159.009 1.773.009l.133.852c.289-.183.541-.345.8-.5a3.527 3.527 0 0 1 4.932.913 2.381 2.381 0 0 1 .419 1.119c.036 2.508.018 5.018.018 7.625"/><path data-name="Path 46" d="M53.68 75.385a5.675 5.675 0 0 1-5.69 2.041 5.062 5.062 0 0 1-4.488-5.343 5.227 5.227 0 0 1 4.639-5.045 5.527 5.527 0 0 1 5.627 2.253 21.453 21.453 0 0 1-1.921 1.044c-.16.07-.5-.178-.713-.341a3.287 3.287 0 0 0-4.7.866 2.947 2.947 0 0 0 .631 3.62 3.376 3.376 0 0 0 4.064-.009.78.78 0 0 1 1.234-.016c.388.329.834.591 1.319.929"/><path data-name="Path 47" d="M2.341 66.311H0v-2.523h7.372v2.515H4.986v10.894H2.341Z"/><path data-name="Path 48" d="M67.306 77.241v-9.944h2.118l.147.812a2.433 2.433 0 0 1 3.119-.871c-.259.742-.5 1.43-.737 2.1-1.43-.138-1.953.268-2.025 1.721-.09 1.836-.1 3.678-.092 5.518 0 .548-.165.708-.692.67-.6-.043-1.2-.009-1.836-.009"/><path data-name="Path 49" d="M23.918 61.168v9.553h-.14v-.584c0-2.763-.014-5.525.009-8.286.007-.525-.138-.692-.677-.688-1.8.011-1.486.052-1.488 1.5q-.014 7.276 0 14.548c-.074-.156-.211-.307-.211-.471q-.02-7.638-.011-15.279c0-.131.029-.259.063-.546l2.454.253"/><path data-name="Path 50" d="M34.028 73.853c-.115-.307-.23-.616-.383-1.031.428-.02.665-.041.9-.041 2.127 0 4.251-.018 6.378.011.537.007.724-.156.674-.683a10.708 10.708 0 0 1 .007-1.141c.1.645.194 1.29.307 2.032h-8.049l.169.852"/><path data-name="Path 51" d="M83.731 72.925h-7.708v-.144h7.584c.081-.4.151-.733.221-1.071-.032.406-.065.81-.1 1.216"/><path data-name="Path 52" d="M21.898 77.211a11.728 11.728 0 0 1 1.313-.1c.442.011.584-.142.575-.582a27.936 27.936 0 0 1 .126-3.606v4.213l-2.014.077"/><path data-name="Path 53" d="M88.043 57.226V19.138h.065v38.114l-.065-.027"/><path data-name="Path 54" d="M87.459 20.058v35.285h-.061V20.074l.061-.016"/><path data-name="Path 55" d="M85.77 61.069a2.115 2.115 0 0 1 .095.444q.007 7.588 0 15.175a.29.29 0 0 1-.122.255V61.09l.025-.018"/><path data-name="Path 56" d="M88.147 61.105v6.785c-.041 0-.081 0-.12.009v-6.181a4.581 4.581 0 0 1 .088-.65Z"/><path data-name="Path 57" d="M87.677 61.253h-.388c-.007-.038-.011-.077-.016-.117l.395-.061c0 .059.007.12.009.178"/></g></svg>